<?xml version="1.0" encoding="UTF-8"?><svg id="Layer_2" xmlns="http://www.w3.org/2000/svg" viewBox="0 0 457.67 467.53"><defs><style>.cls-1{fill:#f8f8f8;}.cls-2{fill:#b3eacb;}.cls-3,.cls-4{fill:#1e1e1e;}.cls-4{font-family:Quicksand-Bold, Quicksand;font-size:21px;font-variation-settings:'wght' 700;font-weight:700;}.cls-5{fill:#091c1e;opacity:.5;}</style></defs><g id="Layer_3"><g><path class="cls-2" d="M12.52,242.04c.91,14.91-10.5,31.59-6.85,45.52,3.76,14.35,21.96,23.26,28.31,36.28,6.47,13.25,2.34,33.06,11.16,44.64s29.11,12.96,40.06,22.65,14.68,29.6,27.35,37.01c12.58,7.35,31.73,.84,45.67,5.65s24.76,21.7,39.45,23.69,29.43-11.42,44.35-12.33c14.91-.91,31.59,10.5,45.52,6.85s23.26-21.96,36.28-28.31c13.25-6.47,33.06-2.34,44.64-11.16s12.96-29.11,22.65-40.06c9.69-10.95,29.6-14.68,37.01-27.35s.84-31.73,5.65-45.67,21.7-24.76,23.69-39.45-11.42-29.43-12.33-44.35,10.5-31.59,6.85-45.52-21.96-23.26-28.31-36.28-2.34-33.06-11.16-44.64c-8.89-11.68-29.11-12.96-40.06-22.65-10.95-9.69-14.68-29.6-27.35-37.01-12.58-7.35-31.73-.84-45.67-5.65S274.67,2.18,259.98,.19s-29.43,11.42-44.35,12.33c-14.91,.91-31.59-10.5-45.52-6.85-14.35,3.76-23.26,21.96-36.28,28.31-13.25,6.47-33.06,2.34-44.64,11.16s-12.96,29.11-22.65,40.06c-9.69,10.95-29.6,14.68-37.01,27.35s-.84,31.73-5.65,45.67S2.18,183,.19,197.69c-1.93,14.26,11.42,29.43,12.33,44.35Z"/><g><path d="M135.09,362.72l-1.19,1.63c-28.44-21.3-48.86-51.26-58.33-86.1-7.32-26.92-7.51-55.3-.55-82.15,.14-.54,.7-.86,1.24-.72,.45,.12,.74,.52,.74,.97,0,.08-.01,.17-.03,.25-6.87,26.51-6.69,54.54,.54,81.13,9.34,34.39,29.5,63.96,57.58,84.99Z"/><path d="M369.42,315.84c-7.15,12.49-15.79,23.79-25.69,33.72-3.25,3.26-6.62,6.37-10.13,9.32-.43,.36-1.08,.3-1.43-.14h0c-.35-.43-.28-1.05,.13-1.4,3.51-2.96,6.9-6.08,10.15-9.36,9.7-9.77,18.19-20.88,25.21-33.14,21.01-36.7,26.47-79.38,15.38-120.19-6.9-25.36-20.05-48.73-38.07-67.62-.38-.4-.37-1.03,.03-1.42,.19-.19,.45-.28,.7-.28,.27,0,.53,.1,.73,.31,18.25,19.15,31.57,42.8,38.55,68.49,11.24,41.32,5.7,84.55-15.57,121.71Z"/></g><g><path class="cls-2" d="M289.77,422.47c-.13,.06-.27,.11-.45,.19h0c.18-.08,.32-.14,.45-.19Z"/><path class="cls-2" d="M326.45,404.66c-.07,.09-.2,.18-.39,.27,.18-.1,.31-.18,.39-.27Z"/><path class="cls-2" d="M347.94,428.92c-.38,1.33-1.34,3.18-3.7,4.45-.43,.24-.94,.55-1.48,.88-.35,.22-.7,.44-1.06,.65l-11.48,6.93c-13.52,8.15-27.05,16.31-40.56,24.48-1.34,.81-2.74,1.22-4.17,1.22s-4.11-.43-6.2-3.33l-.04-.05c-1.97-2.81-3.19-5.84-3.6-8.98-.67-5.17,.8-10.02,4.36-14.43l.24-.29c1.05-1.3,1.96-2.41,2.44-3.46,.09-.19,.19-.38,.29-.56,.06-.28,.12-.56,.21-.84,.05-.17,.11-.47,.09-1.11v-.07c-.02-.35-.01-.69,.02-1.01-.06-.25-.1-.5-.14-.76-.25-1.79-.78-3.71-1.64-5.99l-2.54-6.66,6.09-1.9c.2,.38,.38,.77,.56,1.15,.77,1.66,1.51,3.33,2.16,5.02,.91,2.42,1.65,4.89,2.02,7.49,.06,.4,.23,.53,.64,.57,2.8,.28,5.6,.6,8.4,.91,.24,.02,.48,.05,.72,.1,.43,.1,.59,.42,.53,.82-.08,.4-.38,.51-.76,.46-2.32-.26-4.64-.5-6.96-.77-.6-.06-1.21-.09-1.8-.21-.55-.12-.61,.13-.6,.58,.05,1.12-.03,2.24-.37,3.32-.15,.49,.1,.63,.48,.77,1.54,.54,3.01,1.26,4.42,2.08,.36,.21,.69,.47,.49,.94-.24,.56-.66,.51-1.12,.23-1.36-.8-2.77-1.47-4.25-2.02-.42-.16-.64-.17-.85,.28-.89,1.92-2.24,3.53-3.55,5.15-2.21,2.73-3.39,5.77-2.92,9.34,.28,2.2,1.16,4.18,2.43,5.99,.43,.59,.75,.7,1.45,.28,17.35-10.49,34.71-20.96,52.07-31.43,.94-.56,1.85-1.16,2.8-1.68,.52-.28,.56-.51,.27-1.02-3.92-6.93-7.83-13.86-11.71-20.82-.13-.23-.26-.46-.38-.69-.96-1.72-1.92-3.45-2.89-5.17l5.78-3.42,3.35,6.02c3.39,6.06,6.99,12.47,11.69,20.78,1.33,2.36,1.16,4.45,.77,5.78Z"/><path class="cls-3" d="M214.24,255.78h.02s0,0-.02,0Zm0,0h.02s0,0-.02,0Z"/><path class="cls-3" d="M341.33,426.44c-3.92-6.93-7.83-13.86-11.71-20.82-.13-.23-.26-.46-.38-.69-.96-1.72-1.92-3.45-2.89-5.17-8.23-14.77-16.45-29.55-24.39-44.49-3.45-6.49-5.71-13.37-7.1-20.55-.24-1.22-.49-2.42-.74-3.64-.19-1.48-.4-2.96-.59-4.45-.22-1.75-.45-3.51-.65-5.27-.25-2.3-.48-4.6-.71-6.9-.08-.9-.11-1.8-.18-2.7-.21-2.74-.26-5.49-.42-8.23-.2-3.23-.26-6.46-.38-9.69-.15-3.99-.26-7.97-.36-11.96-.06-2.93-.2-5.85-.35-8.78-.1-1.95-.27-3.9-.41-5.85,.41-1.23,.89-2.41,1.53-3.54,.23-.4,.25-.91,.42-1.34,3.47-8.93,5.34-18.16,5.18-27.76-.16-9.92-2.49-19.34-6.73-28.3-4.54-9.6-10.85-17.86-18.85-24.84-.14-.14-.37-.22-.41-.53,1.53-.52,3.05-1.09,4.41-1.99,2.46-1.62,4.48-3.67,4.9-6.68,.28-2.01,.67-4.06,.53-6.12-.16-2.52-1.31-4.62-2.95-6.48-.32-.37-.45-.69-.4-1.21,.27-2.93-.37-5.66-2-8.12-1.92-2.93-4.84-4.07-8.15-4.47-1.33-.16-2.66-.23-3.99,0-.49,.09-.75-.09-1.04-.48-3.44-4.59-8.97-6.17-14.33-4.12-.3,.12-.56,.27-.92,.03-1.85-1.29-4.02-1.79-6.16-2.29-.7-.16-1.3-.42-1.89-.81-5.14-3.42-10.62-4.5-16.57-2.37-1.29,.46-2.36,1.48-3.61,1.82-1.26,.34-2.69,.07-4.03,.4-2.33,.56-4.47,1.49-6.28,3.08-3.02,2.65-2.79,6.02,.54,8.27,.83,.57,1.73,1.01,2.72,1.21,.54,.1,.7,.32,.73,.89,.32,5.59,2.03,10.75,5.11,15.4,2.71,4.09,6.5,6.61,11.54,6.95,.67,.04,1.34,0,1.99-.09,.34-.05,.54,.04,.75,.33,.68,.94,.69,.92-.34,1.46-6.39,3.33-10.71,8.51-13.51,15.08-2.24,5.25-3.6,10.76-4.91,16.3-1.2,5.04-2.14,10.15-4.02,15.01-.65,1.67-1.44,3.27-2.51,4.71-1.64,2.22-3.83,3.33-6.58,3.49-5.88,.32-10.8-1.93-15.25-5.52-.64-.51-1.05-1.1-1.33-1.88-.98-2.71-2.18-5.31-3.95-7.62-1.92-2.53-4.34-4.17-7.59-4.43-.94-.08-1.87-.36-2.79-.34-1.26,.03-1.96-.57-2.61-1.56-1.02-1.57-2.16-3.06-3.27-4.58-1.26-1.73-3.29-1.5-4.14,.47-1.58,3.69-3.14,7.39-4.71,11.09-.64,1.51-.55,3.01,.14,4.53-.46,0-.86,.01-1.27,0-1.27-.02-2.48,.18-3.06,1.48-.62,1.39-.57,2.78,.4,4.03,.6,.78,1.41,1.33,2.27,1.78,1.55,.8,3.19,1.31,4.88,1.67,.46,.1,.72,.18,.51,.81-.3,.88,0,1.74,.56,2.47,1.44,1.92,2.6,4.01,3.75,6.1,.23,.43,.49,.84,.77,1.23,1.37,1.94,2.88,2.28,4.92,1.05,.62-.38,.92-.37,1.31,.27,.54,.87,1.15,1.71,1.81,2.5,.44,.53,.14,1.21,.66,1.78,2.04,2.25,4.19,4.38,6.57,6.26,4.73,3.72,9.91,6.49,15.89,7.6,3,.56,6.01,.65,9.04,.14-.25,.22-.52,.37-.83,.49-6.75,2.63-13.33,5.6-19.51,9.39-.44,.27-.91,.47-1.36,.71-6.02,2.65-11.7,5.83-16.42,10.52-4.5,4.49-7.18,9.9-8.33,16.11-1.06,5.68-.96,11.4-.62,17.12,.56,9.49,1.67,18.95,1.83,28.47,.15,9.06,.13,18.12-1.57,27.08-.41,2.14-.96,4.25-1.83,6.26-.23,.54-.16,.83,.32,1.19,2.19,1.62,4.35,3.28,6.52,4.93,.2,.15,.4,.29,.58,.45,.31,.29,.35,.64,.1,.98-.28,.39-.62,.26-.94,.02-1.59-1.21-3.19-2.41-4.78-3.62-.75-.57-1.52-1.11-2.24-1.71-.37-.31-.5-.24-.72,.14-.55,.98-1.21,1.9-2.03,2.66-.38,.35-.36,.57-.05,.94,1.07,1.28,1.99,2.67,2.76,4.15,.19,.38,.29,.78-.17,1.03-.47,.25-.81,.04-1.01-.43-.04-.11-.11-.22-.17-.32-.72-1.26-1.51-2.48-2.44-3.61-.22-.26-.36-.51-.79-.22-1.89,1.28-4.07,1.97-6.18,2.8-5.75,2.24-8.69,7.35-7.77,13.44,.4,.01,.79,.03,1.18,.03h57.6c.38,0,.79-.13,1.14,.14,1.7-.02,3.39-.06,5.09-.06,.53,0,.77-.06,.79-.71,.16-6.81,.35-13.62,.56-20.43,.22-7.23,.43-14.46,.73-21.69,.34-8.05,1.14-16.06,1.72-24.09,.39-5.37,.82-10.75,.43-16.14-.02-.18,.02-.38-.04-.55-.47-1.29,.23-1.95,1.3-2.41,2.1,3.39,4.08,6.86,5.99,10.36,.39,.71,.61,.83,1.31,.35,4.89-3.39,9.43-7.2,13.86-11.16,2.34-2.1,4.63-4.24,7.03-6.44,0,1.33,.05,2.58,0,3.82-.17,3.85-.14,7.69,0,11.53,.23,6.31,.87,12.55,2.39,18.69,.24,.95,.64,1.19,1.56,1.03,2.2-.37,4.42-.67,6.63-.99,.27-.03,.55-.03,.82-.04,2.3,8.44,5.43,16.57,9.09,24.51,5.76,12.48,12.64,24.35,19.72,36.11,3.52,5.85,7.12,11.63,10.08,17.79,.2,.38,.38,.77,.56,1.15,.77,1.66,1.51,3.33,2.16,5.02,.91,2.42,1.65,4.89,2.02,7.49,.06,.4,.23,.53,.64,.57,2.8,.28,5.6,.6,8.4,.91,.24,.02,.48,.05,.72,.1,.43,.1,.59,.42,.53,.82-.08,.4-.38,.51-.76,.46-2.32-.26-4.64-.5-6.96-.77-.6-.06-1.21-.09-1.8-.21-.55-.12-.61,.13-.6,.58,.05,1.12-.03,2.24-.37,3.32-.15,.49,.1,.63,.48,.77,1.54,.54,3.01,1.26,4.42,2.08,.36,.21,.69,.47,.49,.94-.24,.56-.66,.51-1.12,.23-1.36-.8-2.77-1.47-4.25-2.02-.42-.16-.64-.17-.85,.28-.89,1.92-2.24,3.53-3.55,5.15-2.21,2.73-3.39,5.77-2.92,9.34,.28,2.2,1.16,4.18,2.43,5.99,.43,.59,.75,.7,1.45,.28,17.35-10.49,34.71-20.96,52.07-31.43,.94-.56,1.85-1.16,2.8-1.68,.52-.28,.56-.51,.27-1.02Zm-123.52-228.51v.08s-.02-.08-.02-.08h.02Zm-64.7,27.38c-.38-.25-.71-.57-.93-.98-.61-1.13-.08-2.04,1.18-2.06,.89-.01,1.74,.17,2.6,.33,.32,.06,.55,.18,.75,.45,1.04,1.47,2.1,2.94,3.33,4.64-2.58-.5-4.89-1.04-6.93-2.38Zm10.63,10.06c-.34,.11-.55,.01-.73-.32-.71-1.27-1.52-2.47-2.38-3.63-.46-.62-.33-1.12,.29-1.53,.85-.55,1.8-.9,2.79-1.01,2.07-.23,3.28,1.22,2.75,3.21-.06,.23-.11,.46-.17,.69,.22,.28,.11,.51-.05,.75-.61,.93-1.46,1.51-2.5,1.84Zm5.99,1.27c-.38,1.33-2.25,3.02-3.34,3.02-.4,0-.67-.22-.92-.5-.51-.6-.85-1.31-1.27-1.97-.26-.42-.14-.55,.27-.68,1.32-.44,2.33-1.28,3-2.47,.26-.47,.45-.39,.8-.15,1.22,.84,1.74,1.79,1.46,2.75Zm2.84,3.17c-.95-.41-1.43-1.34-1.1-2.17,.3-.78,.4-1.58,.19-2.4-.36-1.41-1.34-2.35-2.51-3.1-.45-.28-.62-.58-.57-1.1,.08-.91-.2-1.75-.8-2.44-1.12-1.29-2.62-1.67-4.25-1.66-.36,0-.6,.01-.83-.32-1.38-1.96-2.81-3.88-4.17-5.84-.88-1.27-1.14-2.7-.62-4.16,1.02-2.88,2.11-5.73,3.21-8.58,.47-1.23,1.93-1.46,2.79-.46,.57,.66,1.04,1.41,1.56,2.11,.21,.28,.24,.49-.18,.57-1.41,.29-1.98,1.26-2.05,2.61,.08,1.58,.75,2.83,2.03,3.77,.64,.47,1.36,.76,2.05,1.12,1.25,.39,2.5,.75,3.8,.84,.66,.05,1.02,.33,1.38,.83,1.73,2.37,3.29,4.86,4.92,7.3,.79,1.17,.85,2.38,.44,3.64-.38,1.18-.84,2.33-1.28,3.49-.63,1.7-1.25,3.41-1.92,5.09-.36,.91-1.22,1.22-2.09,.86Zm30.85,72.44c-.27,.18-.38,.36-.32,.74,.69,4.67,.47,9.37,.18,14.05-.64,10.13-1.7,20.22-2.11,30.36-.02,.53-.16,.61-.67,.57-2.87-.23-5.74-.41-8.61-.62-10.3-.72-20.58-1.71-30.84-2.91-.57-.06-.67-.23-.64-.77,.19-4.72,.13-9.44-.04-14.17-.3-8.29-1.18-16.55-1.69-24.83-.37-5.87-.51-11.74,.61-17.56,1.2-6.25,4.03-11.6,8.7-15.97,4.33-4.05,9.4-6.89,14.77-9.25,.35,.09,.41,.42,.56,.67,7.3,12.48,14.59,24.97,21.87,37.45,.16,.26,.35,.5,.35,.83-.71,.47-1.41,.94-2.12,1.41Zm16.67-60.85s0,.01,0,.02t-.02,.02c.07,.99-.29,1.9-.57,2.82-.41,.12-.81,.24-1.21,.35-1.35,.35-2.62,1-4.02,1.17,0,.03,0,.05-.02,.07-.01,.04-.04,.05-.08,.06-.01,0-.03,0-.05,0-.05,.01-.1,0-.14,.02,.08-.06,.18-.1,.27-.16,0,0,0-.01,.02-.01,2.05-1.3,3.93-2.8,5.8-4.33v-.04h.03s.04-.07,.07-.1c0,.04,.02,.07,.02,.11-.03,0-.06-.01-.09-.01Zm2.49-15.6c-.04,.62-.09,1.24-.15,1.86-.11,1.24-.26,2.48-.43,3.72-.12,.91-.26,1.82-.4,2.72-.15,.95-.31,1.89-.47,2.83-.07,.41-.29,.72-.56,1.01-1.21,1.29-2.46,2.52-3.83,3.62-5.7,4.57-12.18,6.91-19.49,6.14-9.4-.99-16.61-6.07-22.86-12.79-.24-.26-.38-.45,.07-.66,.5-.22,.78-.67,.99-1.15,1.6-3.78,3.22-7.56,4.8-11.35,.69-1.68,.51-3.36-.44-4.88-1.99-3.18-4.06-6.31-6.08-9.47-.25-.4-.49-.58-.98-.61-1.91-.13-3.8-.38-5.54-1.26-.91-.47-1.71-1.06-1.92-2.15-.2-1.01,0-1.26,1.03-1.29,1.71-.05,3.37,.4,5.06,.48,3.68,.17,6,2.27,7.79,5.2,1.23,1.99,2.14,4.13,2.91,6.33,.17,.48,.32,.95,.75,1.32,1.97,1.71,4.09,3.22,6.44,4.38,3.93,1.94,8.06,2.72,12.42,2.13,3.7-.49,6.09-2.74,7.85-5.83,1.58-2.79,2.53-5.82,3.36-8.88,.2-.73,.34-.8,.94-.35,2.55,1.92,4.97,3.99,7.43,6,.39,.31,.53,.7,.64,1.15,.16,.66,.29,1.32,.4,1.99,.05,.33,.1,.67,.14,1,.08,.64,.14,1.28,.18,1.93,.02,.3,.04,.61,.04,.92,.02,.32,.03,.65,.03,.98,.02,.4,.02,.81,.02,1.21-.01,1.25-.06,2.5-.14,3.75Zm35.4,29.86c3.32-9.55,5.67-19.32,6.6-29.41,.48-5.28,.53-10.52-.99-15.68-.47-1.59-.44-1.6,.97-2.48,7.29-4.55,14.58-9.09,21.88-13.63,.38-.24,.65-.54,1.01,.15,5.04,9.73,7.75,20.05,7.79,31.03,0,4.84-.52,9.62-1.54,14.34-2.28,10.56-6.74,20.2-12.55,29.26-.34,.54-.59,.46-1.04,.2-7.23-4.24-14.46-8.47-21.71-12.67-.51-.3-.61-.56-.42-1.11Zm-27.81-93.75c-3.76-.05-6.67-1.54-9.1-4.07-2.66-2.75-4-6.22-5.19-9.76-.68-2.04-1.1-4.15-1.24-6.3-.04-.61,.06-.93,.79-.95,.75-.01,1.5-.18,2.24-.34,2.56-.52,4.93-1.62,7.38-2.48,1.37-.48,2.69-.53,4.08-.1,1.82,.57,3.6,1.22,5.33,2.03,.98,.46,1.94,.99,2.98,1.3,.71,.22,1.45,.26,1.8-.55,.26-.63,.74-.93,1.3-1.18,1.42-.63,2.93-.87,4.45-1.16,2.09-.41,4.46,.88,5.51,3.23,1.89,4.21-.49,8.8-5.11,9.72-.53,.1-.76,.32-.97,.77-.95,2.02-2.22,3.82-3.92,5.29-3.02,2.62-6.41,4.43-10.33,4.55Zm7.3,129.84c-.75-.01-.95-.6-.95-1.29-.01-3.45-.14-6.89-.39-10.34-.06-.71-.25-1.03-.96-1.24-3.13-.93-5.98-2.45-8.62-4.36-.77-.56-.97-1.17-.53-1.66,.56-.6,1.11-.35,1.68,.06,2.9,2.1,6.05,3.67,9.54,4.5,.49,.11,.63,.33,.67,.78,.29,3.19,.47,6.39,.55,9.34,0,1.14-.03,2.02,.01,2.9,.03,.74-.2,1.32-1,1.31Zm2.82-120.69c-3.92,1.92-8.45,1.17-11.53-1.27,5.8-4.23,12.33-6.04,19.62-6.33-2.29,3.22-4.7,5.92-8.09,7.6Zm49.03,241.6h0c.18-.08,.32-.14,.45-.19-.13,.06-.27,.11-.45,.19Zm29.88-29.46c-3.31,1.64-6.6,3.32-9.9,4.99-1.1,.56-2.2,1.11-3.3,1.66-1.81,.9-3.62,1.79-5.44,2.66-5.44,2.64-10.93,5.19-16.44,7.69-.11,.04-.21,.1-.3,.14-.27,.12-.52,.14-.79-.33-3.27-5.57-6.59-11.12-9.87-16.69-1.1-1.86-2.19-3.72-3.27-5.58-3.02-5.22-5.95-10.49-8.68-15.86-2.74-5.37-5.28-10.84-7.55-16.44-2.13-5.27-4.04-10.62-5.48-16.13,4.13-.72,8.27-1.44,12.41-2.18,7.91-1.41,15.82-2.84,23.73-4.26,2.62-.47,5.22-1.05,7.85-1.39,.04,.15,.09,.29,.11,.44,1.52,9.69,4.77,18.75,9.51,27.35,5.96,10.83,11.84,21.71,17.86,32.51,.44,.78,.33,1.03-.45,1.42Zm6.86,11.73c.18-.1,.31-.18,.39-.27-.07,.09-.2,.18-.39,.27Z"/><path class="cls-3" d="M220.06,251.4v.04s0-.01,.02-.02t0-.02h-.03Zm1.94-10.02c.17-1.24,.32-2.48,.43-3.72-.12,1.24-.26,2.48-.43,3.72Zm.72-9.33c0-.4,0-.81-.02-1.21,0,.4,0,.8,0,1.21,0,1.25-.05,2.5-.13,3.75,.08-1.25,.13-2.5,.14-3.75Z"/><path class="cls-3" d="M289.32,422.65h0c.18-.07,.32-.12,.45-.18-.13,.05-.27,.11-.45,.18Z"/><path class="cls-2" d="M203.42,312.25c.71-.47,1.41-.94,2.12-1.41,0-.33-.19-.57-.35-.83-7.28-12.48-14.57-24.97-21.87-37.45-.15-.25-.21-.58-.56-.67-5.37,2.36-10.44,5.2-14.77,9.25-4.67,4.37-7.5,9.72-8.7,15.97-1.12,5.82-.98,11.69-.61,17.56,.51,8.28,1.39,16.54,1.69,24.83,.17,4.73,.23,9.45,.04,14.17-.03,.54,.07,.71,.64,.77,10.26,1.2,20.54,2.19,30.84,2.91,2.87,.21,5.74,.39,8.61,.62,.51,.04,.65-.04,.67-.57,.41-10.14,1.47-20.23,2.11-30.36,.29-4.68,.51-9.38-.18-14.05-.06-.38,.05-.56,.32-.74Zm-35.59-13.34c-.14,.59-.28,1.18-.54,1.72-1,2.13-2.69,3.42-4.79,3.91-.62,.07-.91-.12-1-.53-.09-.44,.18-.64,.59-.74,2.43-.61,3.9-2.17,4.45-4.59,.1-.41,.25-.71,.71-.63,.45,.09,.69,.41,.58,.86Z"/><path class="cls-2" d="M319.65,391.78c-6.02-10.8-11.9-21.68-17.86-32.51-4.74-8.6-7.99-17.66-9.51-27.35-.02-.15-.07-.29-.11-.44-2.63,.34-5.23,.92-7.85,1.39-7.91,1.42-15.82,2.85-23.73,4.26-4.14,.74-8.28,1.46-12.41,2.18,1.44,5.51,3.35,10.86,5.48,16.13,2.27,5.6,4.81,11.07,7.55,16.44,2.74,5.37,5.66,10.64,8.69,15.86,1.08,1.86,2.17,3.72,3.26,5.58,3.28,5.57,6.6,11.12,9.87,16.69,.27,.47,.52,.45,.79,.33,.09-.04,.19-.1,.3-.14,5.51-2.5,11-5.05,16.44-7.69,1.82-.88,3.63-1.77,5.44-2.67,1.1-.55,2.2-1.1,3.3-1.65,3.3-1.67,6.59-3.35,9.9-4.99,.78-.39,.89-.64,.45-1.42Zm-59.51-35.21c-.22,.43-.46,.85-1.03,.58-.56-.27-.41-.69-.18-1.14,1.12-2.17,1.11-4.35-.06-6.5-.23-.44-.4-.86,.17-1.15,.59-.31,.82,.16,1.04,.56,.63,1.19,.99,2.46,.97,3.82,.03,1.36-.3,2.63-.91,3.83Z"/><path class="cls-2" d="M238.47,300.44c.03,.74-.2,1.32-1,1.31-.75-.01-.95-.6-.95-1.29-.01-3.45-.14-6.89-.39-10.34-.06-.71-.25-1.03-.96-1.24-3.13-.93-5.98-2.45-8.62-4.36-.77-.56-.97-1.17-.53-1.66,.56-.6,1.11-.35,1.68,.06,2.9,2.1,6.05,3.67,9.54,4.5,.49,.11,.63,.33,.67,.78,.29,3.19,.47,6.39,.55,9.34,0,1.14-.03,2.02,.01,2.9Z"/><path class="cls-2" d="M220.06,251.44c.07,.99-.29,1.9-.57,2.82-.41,.12-.81,.24-1.21,.35-1.35,.35-2.62,1-4.02,1.17h-.02s0-.01,.02-.01c2.05-1.3,3.93-2.8,5.8-4.33Z"/><path class="cls-2" d="M220.08,251.42s-.01,.01-.02,.02v-.04l.02,.02Z"/><path class="cls-1" d="M214.26,255.77h0s0,.06-.02,.08c-.01,.04-.04,.05-.08,.06-.01,0-.03,0-.05,0-.05,.01-.1,0-.14,.02,.08-.06,.18-.1,.27-.16,0,0,0-.01,.02-.01Z"/><path class="cls-2" d="M295.24,235.64c0,4.84-.52,9.62-1.54,14.34-2.28,10.56-6.74,20.2-12.55,29.26-.34,.54-.59,.46-1.04,.2-7.23-4.24-14.46-8.47-21.71-12.67-.51-.3-.61-.56-.42-1.11,3.32-9.55,5.67-19.32,6.6-29.41,.48-5.28,.53-10.52-.99-15.68-.47-1.59-.44-1.6,.97-2.48,7.29-4.55,14.58-9.09,21.88-13.63,.38-.24,.65-.54,1.01,.15,5.04,9.73,7.75,20.05,7.79,31.03Z"/><path class="cls-2" d="M222.72,232.05c-.01,1.25-.06,2.5-.14,3.75-.04,.62-.09,1.24-.15,1.86-.11,1.24-.26,2.48-.43,3.72-.12,.91-.26,1.82-.4,2.72-.15,.95-.31,1.89-.47,2.83-.07,.41-.29,.72-.56,1.01-1.21,1.29-2.46,2.52-3.83,3.62-5.7,4.57-12.18,6.91-19.49,6.14-9.4-.99-16.61-6.07-22.86-12.79-.24-.26-.38-.45,.07-.66,.5-.22,.78-.67,.99-1.15,1.6-3.78,3.22-7.56,4.8-11.35,.69-1.68,.51-3.36-.44-4.88-1.99-3.18-4.06-6.31-6.08-9.47-.25-.4-.49-.58-.98-.61-1.91-.13-3.8-.38-5.54-1.26-.91-.47-1.71-1.06-1.92-2.15-.2-1.01,0-1.26,1.03-1.29,1.71-.05,3.37,.4,5.06,.48,3.68,.17,6,2.27,7.79,5.2,1.23,1.99,2.14,4.13,2.91,6.33,.17,.48,.32,.95,.75,1.32,1.97,1.71,4.09,3.22,6.44,4.38,3.93,1.94,8.06,2.72,12.42,2.13,3.7-.49,6.09-2.74,7.85-5.83,1.58-2.79,2.53-5.82,3.36-8.88,.2-.73,.34-.8,.94-.35,2.55,1.92,4.97,3.99,7.43,6,.39,.31,.53,.7,.64,1.15,.16,.66,.29,1.32,.4,1.99,.05,.33,.1,.67,.14,1,.08,.64,.14,1.28,.18,1.93,.02,.3,.03,.61,.04,.92,.02,.32,.03,.65,.03,.98,.02,.4,.02,.81,.02,1.21Z"/><path class="cls-2" d="M250.5,151.58c-1.05-2.35-3.42-3.64-5.51-3.23-1.52,.29-3.03,.53-4.45,1.16-.56,.25-1.04,.55-1.3,1.18-.35,.81-1.09,.77-1.8,.55-1.04-.31-2-.84-2.98-1.3-1.73-.81-3.51-1.46-5.33-2.03-1.39-.43-2.71-.38-4.08,.1-2.45,.86-4.82,1.96-7.38,2.48-.74,.16-1.49,.33-2.24,.34-.73,.02-.83,.34-.79,.95,.14,2.15,.56,4.26,1.24,6.3,1.19,3.54,2.53,7.01,5.19,9.76,2.43,2.53,5.34,4.02,9.1,4.07,3.92-.12,7.31-1.93,10.33-4.55,1.7-1.47,2.97-3.27,3.92-5.29,.21-.45,.44-.67,.97-.77,4.62-.92,7-5.51,5.11-9.72Zm-27.02,13.66c-.34,.15-.61,.01-.77-.27-.21-.36-.36-.76-.53-1.15-.96-2.23-1.62-4.54-2.01-6.98,0-.39,.19-.68,.62-.72,.51-.05,.66,.32,.73,.74,.37,2.38,1.1,4.64,2.04,6.85,.11,.24,.26,.48,.33,.74,.11,.37-.04,.64-.41,.79Zm4.03-8.55c-.72,.04-1.37-.54-1.39-1.25-.02-.65,.56-1.29,1.22-1.34,.7-.05,1.36,.55,1.38,1.27,.02,.7-.51,1.28-1.21,1.32Zm19.55-4.62c-.75,.11-1.45,.4-2.08,.83-1.2,.83-1.95,1.95-2.18,3.41-.08,.49-.34,.76-.87,.68-.44-.06-.47-.39-.46-.74,.12-2.55,2.92-5.36,5.48-5.49,.43-.02,.89-.04,.97,.54,.09,.66-.38,.7-.86,.77Z"/><path class="cls-2" d="M177.86,230.37c-.38,1.18-.84,2.33-1.28,3.49-.63,1.7-1.25,3.41-1.92,5.09-.36,.91-1.22,1.22-2.09,.86-.95-.41-1.43-1.34-1.1-2.17,.3-.78,.4-1.58,.19-2.4-.36-1.41-1.34-2.35-2.51-3.1-.45-.28-.62-.58-.57-1.1,.08-.91-.2-1.75-.8-2.44-1.12-1.29-2.62-1.67-4.25-1.66-.36,0-.6,.01-.83-.32-1.38-1.96-2.81-3.88-4.17-5.84-.88-1.27-1.14-2.7-.62-4.16,1.02-2.88,2.11-5.73,3.21-8.58,.47-1.23,1.93-1.46,2.79-.46,.57,.66,1.04,1.41,1.56,2.11,.21,.28,.24,.49-.18,.57-1.41,.29-1.98,1.26-2.05,2.61-1.47,1.32-1.61,3.22-.35,4.65,1.15,1.3,3.09,1.41,4.43,.24,1.25,.39,2.5,.75,3.8,.84,.66,.05,1.02,.33,1.38,.83,1.73,2.37,3.29,4.86,4.92,7.3,.79,1.17,.85,2.38,.44,3.64Z"/><path class="cls-2" d="M248.38,173.46c-2.29,3.22-4.7,5.92-8.09,7.6-3.92,1.92-8.45,1.17-11.53-1.27,5.8-4.23,12.33-6.04,19.62-6.33Z"/><path class="cls-2" d="M166.46,232.09c-.06,.23-.11,.46-.17,.69,.22,.28,.11,.51-.05,.75-.61,.93-1.46,1.51-2.5,1.84-.34,.11-.55,.01-.73-.32-.71-1.27-1.52-2.47-2.38-3.63-.46-.62-.33-1.12,.29-1.53,.85-.55,1.8-.9,2.79-1.01,2.07-.23,3.28,1.22,2.75,3.21Z"/><path class="cls-2" d="M160.04,227.69c-2.58-.5-4.89-1.04-6.93-2.38-.38-.25-.71-.57-.93-.98-.61-1.13-.08-2.04,1.18-2.06,.89-.01,1.74,.17,2.6,.33,.32,.06,.55,.18,.75,.45,1.04,1.47,2.1,2.94,3.33,4.64Z"/><path class="cls-2" d="M169.73,236.64c-.38,1.33-2.25,3.02-3.34,3.02-.4,0-.67-.22-.92-.5-.51-.6-.85-1.31-1.27-1.97-.26-.42-.14-.55,.27-.68,1.32-.44,2.33-1.28,3-2.47,.26-.47,.45-.39,.8-.15,1.22,.84,1.74,1.79,1.46,2.75Z"/><path class="cls-5" d="M167.32,217.76c-1.34,1.17-3.28,1.06-4.43-.24-1.26-1.43-1.12-3.33,.35-4.65,.08,1.58,.75,2.83,2.03,3.77,.64,.47,1.36,.76,2.05,1.12Z"/><polygon class="cls-1" points="217.81 197.93 217.8 198.01 217.79 197.93 217.81 197.93"/><path class="cls-1" d="M220.09,251.4s0,.01,0,.02l-.02-.02h.03Z"/><path class="cls-1" d="M220.18,251.41s-.06-.01-.09-.01c.03-.03,.04-.07,.07-.1,0,.04,.02,.07,.02,.11Z"/><path class="cls-3" d="M289.77,422.47c-.13,.06-.27,.11-.45,.19h0c.18-.08,.32-.14,.45-.19Z"/><path class="cls-3" d="M162.5,304.55c2.1-.49,3.78-1.79,4.79-3.91,.25-.54,.4-1.13,.54-1.72,.11-.45-.13-.78-.58-.86-.46-.09-.61,.21-.7,.62-.56,2.42-2.03,3.98-4.45,4.59-.41,.1-.68,.3-.59,.74,.09,.4,.38,.6,1,.53Z"/><path class="cls-3" d="M261.05,352.74c.02-1.36-.34-2.63-.98-3.82-.21-.4-.45-.87-1.04-.56-.56,.29-.4,.71-.16,1.15,1.17,2.16,1.18,4.33,.06,6.5-.23,.45-.38,.87,.18,1.14,.57,.27,.81-.14,1.03-.57,.61-1.21,.94-2.48,.91-3.84Z"/><path class="cls-3" d="M220.17,156.84c.38,2.43,1.05,4.75,2.01,6.98,.17,.39,.32,.79,.53,1.15,.16,.28,.42,.42,.77,.27,.36-.16,.52-.43,.41-.8-.07-.26-.22-.49-.33-.74-.95-2.2-1.68-4.47-2.05-6.84-.07-.42-.22-.79-.73-.74-.43,.04-.62,.33-.62,.72Z"/><path d="M241.47,156.25c-.02,.35,.02,.68,.46,.75,.53,.08,.79-.19,.87-.69,.23-1.45,.97-2.57,2.18-3.4,.63-.43,1.33-.72,2.08-.83,.48-.07,.95-.11,.86-.77-.08-.58-.54-.57-.97-.54-2.56,.13-5.36,2.94-5.48,5.49Z"/><path class="cls-3" d="M226.12,155.44c.02,.71,.67,1.29,1.39,1.25,.7-.04,1.23-.62,1.21-1.32-.02-.71-.68-1.32-1.38-1.26-.67,.05-1.25,.69-1.22,1.34Z"/></g><text class="cls-4" transform="translate(86.8 179.01) rotate(-63.4)"><tspan x="0" y="0">H</tspan></text><text class="cls-4" transform="translate(93.41 165.89) rotate(-58.62)"><tspan x="0" y="0">y</tspan></text><text class="cls-4" transform="translate(99.46 155.9) rotate(-54.25)"><tspan x="0" y="0">g</tspan></text><text class="cls-4" transform="translate(106.99 145.42) rotate(-49.61)"><tspan x="0" y="0">g</tspan></text><text class="cls-4" transform="translate(115.09 135.89) rotate(-45.3)"><tspan x="0" y="0">e</tspan></text><text class="cls-4" transform="translate(123.49 127.52) rotate(-42.19)"><tspan x="0" y="0">l</tspan></text><text class="cls-4" transform="translate(127.59 123.81) rotate(-40.32)"><tspan x="0" y="0">i</tspan></text><text class="cls-4" transform="translate(131.11 120.66) rotate(-37.12)"><tspan x="0" y="0">g</tspan></text><text class="cls-4" transform="translate(141.53 112.91) rotate(-33.75)"><tspan x="0" y="0"> </tspan></text><text class="cls-4" transform="translate(146.15 109.69) rotate(-30.44)"><tspan x="0" y="0">a</tspan></text><text class="cls-4" transform="translate(157.2 103.28) rotate(-26.66)"><tspan x="0" y="0">t</tspan></text><text class="cls-4" transform="translate(164.66 99.56) rotate(-24.17)"><tspan x="0" y="0"> </tspan></text><text class="cls-4" transform="translate(169.78 97.14) rotate(-20.91)"><tspan x="0" y="0">d</tspan></text><text class="cls-4" transform="translate(181.96 92.51) rotate(-16.45)"><tspan x="0" y="0">u</tspan></text><text class="cls-4" transform="translate(193.52 89.18) rotate(-13.31)"><tspan x="0" y="0"> </tspan></text><text class="cls-4" transform="translate(199 87.82) rotate(-10.53)"><tspan x="0" y="0">s</tspan></text><text class="cls-4" transform="translate(208.71 86.04) rotate(-7.26)"><tspan x="0" y="0">t</tspan></text><text class="cls-4" transform="translate(216.9 84.91) rotate(-3.47)"><tspan x="0" y="0">a</tspan></text><text class="cls-4" transform="translate(229.62 84.15) rotate(.93)"><tspan x="0" y="0">k</tspan></text><text class="cls-4" transform="translate(241.1 84.33) rotate(5.08)"><tspan x="0" y="0">k</tspan></text><text class="cls-4" transform="translate(252.71 85.43) rotate(8.2)"><tspan x="0" y="0"> </tspan></text><text class="cls-4" transform="translate(258.38 86.26) rotate(10.1)"><tspan x="0" y="0">i</tspan></text><text class="cls-4" transform="translate(263.07 86.99) rotate(13.15)"><tspan x="0" y="0">n</tspan></text><text class="cls-4" transform="translate(274.91 89.74) rotate(17.52)"><tspan x="0" y="0">n</tspan></text><text class="cls-4" transform="translate(286.48 93.38) rotate(21.94)"><tspan x="0" y="0">o</tspan></text><text class="cls-4" transform="translate(298.12 97.88) rotate(27.58)"><tspan x="0" y="0">m</tspan></text><text class="cls-4" transform="translate(314.77 106.85) rotate(31.99)"><tspan x="0" y="0"> </tspan></text><text class="cls-4" transform="translate(319.63 109.88) rotate(34.03)"><tspan x="0" y="0">:</tspan></text><text class="cls-4" transform="translate(324.23 112.97) rotate(36.36)"><tspan x="0" y="0">)</tspan></text></g></g></svg>