<?xml version="1.0" encoding="UTF-8"?><svg id="Layer_2" xmlns="http://www.w3.org/2000/svg" viewBox="0 0 457.67 467.53"><defs><style>.cls-1{fill:#f8f8f8;}.cls-2{fill:#b3eacb;}.cls-3,.cls-4{fill:#1e1e1e;}.cls-4{font-family:Quicksand-Bold, Quicksand;font-size:21px;font-variation-settings:'wght' 700;font-weight:700;}.cls-5{fill:#091c1e;opacity:.5;}</style></defs><g id="Layer_3"><g><path class="cls-2" d="M12.52,242.04c.91,14.91-10.5,31.59-6.85,45.52,3.76,14.35,21.96,23.26,28.31,36.28,6.47,13.25,2.34,33.06,11.16,44.64,8.89,11.68,29.11,12.96,40.06,22.65,10.95,9.69,14.68,29.6,27.35,37.01,12.58,7.35,31.73,.84,45.67,5.65,13.7,4.72,24.76,21.7,39.45,23.69,14.26,1.93,29.43-11.42,44.35-12.33,14.91-.91,31.59,10.5,45.52,6.85s23.26-21.96,36.28-28.31c13.25-6.47,33.06-2.34,44.64-11.16,11.68-8.89,12.96-29.11,22.65-40.06,9.69-10.95,29.6-14.68,37.01-27.35,7.35-12.58,.84-31.73,5.65-45.67,4.72-13.7,21.7-24.76,23.69-39.45,1.93-14.26-11.42-29.43-12.33-44.35-.91-14.91,10.5-31.59,6.85-45.52-3.76-14.35-21.96-23.26-28.31-36.28-6.47-13.25-2.34-33.06-11.16-44.64-8.89-11.68-29.11-12.96-40.06-22.65-10.95-9.69-14.68-29.6-27.35-37.01-12.58-7.35-31.73-.84-45.67-5.65-13.7-4.72-24.76-21.7-39.45-23.69-14.26-1.93-29.43,11.42-44.35,12.33-14.91,.91-31.59-10.5-45.52-6.85-14.35,3.76-23.26,21.96-36.28,28.31-13.25,6.47-33.06,2.34-44.64,11.16-11.68,8.89-12.96,29.11-22.65,40.06-9.69,10.95-29.6,14.68-37.01,27.35-7.35,12.58-.84,31.73-5.65,45.67-4.72,13.7-21.7,24.76-23.69,39.45-1.93,14.26,11.42,29.43,12.33,44.35Z"/><g><path d="M135.09,362.72l-1.19,1.63c-28.44-21.3-48.86-51.26-58.33-86.1-7.32-26.92-7.51-55.3-.55-82.15,.14-.54,.7-.86,1.24-.72,.45,.12,.74,.52,.74,.97,0,.08-.01,.17-.03,.25-6.87,26.51-6.69,54.54,.54,81.13,9.34,34.39,29.5,63.96,57.58,84.99Z"/><path d="M369.42,315.84c-7.15,12.49-15.79,23.79-25.69,33.72-3.25,3.26-6.62,6.37-10.13,9.32-.43,.36-1.08,.3-1.43-.14h0c-.35-.43-.28-1.05,.13-1.4,3.51-2.96,6.9-6.08,10.15-9.36,9.7-9.77,18.19-20.88,25.21-33.14,21.01-36.7,26.47-79.38,15.38-120.19-6.9-25.36-20.05-48.73-38.07-67.62-.38-.4-.37-1.03,.03-1.42,.19-.19,.45-.28,.7-.28,.27,0,.53,.1,.73,.31,18.25,19.15,31.57,42.8,38.55,68.49,11.24,41.32,5.7,84.55-15.57,121.71Z"/></g><g><path class="cls-2" d="M285.49,467.53c-1.42,0-4.12-.43-6.2-3.33l-.04-.06c-1.98-2.81-3.19-5.83-3.6-8.98-.67-5.16,.8-10.02,4.36-14.42l.24-.3c1.05-1.29,1.96-2.41,2.44-3.45,.09-.19,.19-.38,.29-.56,.05-.28,.12-.56,.21-.84,.05-.17,.11-.47,.09-1.11v-.07c-.01-.36,0-.7,.02-1.02-.06-.25-.11-.5-.14-.76-.25-1.79-.78-3.71-1.65-5.99l-2.54-6.66,6.81-2.13c14.1-4.4,27.7-10.46,40.41-18.01l5.93-3.52,3.36,6.02c3.38,6.07,6.99,12.48,11.69,20.79,1.34,2.36,1.16,4.44,.77,5.78-.38,1.33-1.34,3.18-3.7,4.45-.43,.23-.94,.55-1.48,.88-.35,.22-.71,.44-1.06,.65l-11.48,6.93c-13.52,8.16-27.05,16.31-40.56,24.48-1.34,.81-2.74,1.22-4.17,1.22Z"/><path class="cls-3" d="M292.17,331.48c-2.64,.34-5.23,.92-7.85,1.39-7.91,1.42-15.82,2.85-23.74,4.27-4.13,.74-8.27,1.46-12.41,2.18-.68,.06-1.36,.11-2,.37-.27,.01-.55,0-.81,.04-2.21,.32-4.43,.62-6.64,.99-.92,.15-1.32-.08-1.55-1.03-1.52-6.14-2.16-12.39-2.39-18.69-.14-3.85-.17-7.69,0-11.53,.06-1.24,0-2.49,0-3.82-2.4,2.19-4.7,4.34-7.04,6.43-4.42,3.96-8.97,7.78-13.86,11.16-.7,.48-.92,.36-1.3-.35-1.92-3.5-3.89-6.97-6-10.37-.29-.6-.53-1.24-1.06-1.69,0-.32-.19-.56-.34-.82-7.29-12.49-14.58-24.97-21.88-37.45-.15-.25-.21-.58-.56-.68,.02-.71-.75-1.11-.72-1.83,.45-.23,.92-.44,1.36-.71,6.19-3.79,12.77-6.76,19.51-9.39,.31-.12,.59-.27,.83-.49,3.34-.47,6.47-1.57,9.44-3.17,.23-.13,.42-.35,.72-.33,.1-.1,.34,.05,.35-.2h-.02c1.41-.15,2.68-.81,4.04-1.16,.4-.1,.8-.23,1.21-.34-.43,2.45-1.16,4.82-1.86,7.19-.18,.63-.15,.88,.56,1,3.82,.68,7.66,1.17,11.52,1.5,8.55,.75,17.12,1,25.69,.94,.68,0,.74,.18,.53,.77-.57,1.58-.55,1.6,.94,2.47,7.93,4.63,15.86,9.24,23.77,13.89,.65,.38,.9,.22,1.26-.33,2.87-4.36,5.45-8.88,7.69-13.59,.14-.3,.32-.57,.49-.86,.14,1.95,.31,3.9,.41,5.85,.15,2.92,.28,5.85,.35,8.78,.09,3.99,.2,7.98,.35,11.96,.12,3.23,.18,6.46,.38,9.69,.17,2.74,.21,5.49,.42,8.23,.07,.9,.09,1.81,.18,2.7,.22,2.3,.46,4.61,.71,6.9,.19,1.76,.42,3.51,.65,5.27,.19,1.48,.39,2.97,.59,4.45-.66,.07-1.32,.17-1.95,.4Zm-54.27-43.28c-.04-.45-.18-.67-.67-.78-3.49-.82-6.64-2.4-9.54-4.49-.57-.42-1.12-.67-1.68-.06-.44,.48-.24,1.1,.53,1.65,2.64,1.91,5.49,3.43,8.62,4.36,.71,.21,.91,.53,.96,1.24,.25,3.44,.38,6.89,.39,10.34,0,.69,.2,1.28,.95,1.29,.8,.01,1.03-.57,1-1.31-.04-.88,0-1.76,0-2.89-.08-2.95-.26-6.15-.55-9.34Z"/><path class="cls-3" d="M220.06,251.4s.08,0,.12,.01c0-.04-.02-.07-.02-.11-.03,.04-.05,.08-.08,.12-1.88,1.54-3.78,3.06-5.84,4.36h.02c-.12,.05-.23,.12-.35,.18-.3-.01-.49,.21-.72,.33-2.96,1.6-6.09,2.7-9.44,3.17-3.02,.51-6.04,.42-9.04-.14-5.97-1.11-11.16-3.88-15.88-7.6-2.39-1.88-4.53-4.01-6.57-6.26-.52-.57-.22-1.26-.66-1.79-.66-.79-1.27-1.63-1.81-2.5-.39-.64-.69-.65-1.31-.27-2.04,1.24-3.55,.89-4.92-1.04-.28-.39-.53-.81-.77-1.23-1.15-2.09-2.31-4.18-3.76-6.1-.55-.73-.86-1.59-.56-2.48,.21-.62-.04-.7-.51-.8-1.69-.36-3.33-.87-4.87-1.67-.87-.45-1.67-1-2.27-1.78-.97-1.25-1.02-2.65-.4-4.03,.58-1.3,1.79-1.51,3.06-1.48,.4,0,.81,0,1.27,0-.7-1.52-.79-3.02-.14-4.53,1.57-3.7,3.13-7.4,4.71-11.09,.84-1.97,2.87-2.19,4.13-.47,1.11,1.52,2.25,3.01,3.27,4.58,.64,.99,1.35,1.59,2.6,1.56,.93-.02,1.86,.26,2.79,.33,3.25,.26,5.67,1.9,7.6,4.43,1.76,2.31,2.97,4.92,3.95,7.63,.28,.77,.69,1.37,1.33,1.88,4.45,3.59,9.37,5.84,15.25,5.51,2.75-.15,4.94-1.27,6.58-3.48,1.07-1.45,1.86-3.04,2.51-4.71,1.88-4.86,2.82-9.97,4.02-15.01,1.31-5.53,2.68-11.05,4.92-16.3,2.79-6.56,7.12-11.74,13.51-15.08,1.03-.54,1.01-.51,.34-1.46-.21-.29-.41-.39-.74-.34-.66,.1-1.32,.14-1.99,.09-5.04-.34-8.83-2.85-11.54-6.95-3.08-4.65-4.79-9.81-5.1-15.4-.03-.57-.2-.79-.73-.89-.99-.2-1.89-.64-2.72-1.2-3.33-2.26-3.56-5.63-.55-8.27,1.82-1.59,3.96-2.53,6.29-3.09,1.34-.32,2.77-.05,4.03-.4,1.25-.34,2.32-1.36,3.61-1.82,5.94-2.13,11.43-1.05,16.57,2.37,.59,.39,1.19,.65,1.88,.82,2.15,.5,4.31,1,6.17,2.28,.35,.24,.61,.09,.92-.03,5.35-2.05,10.88-.47,14.33,4.12,.29,.38,.55,.57,1.04,.48,1.32-.23,2.66-.16,3.98,0,3.32,.4,6.23,1.53,8.16,4.46,1.62,2.47,2.27,5.2,1.99,8.13-.05,.52,.08,.84,.4,1.2,1.64,1.86,2.79,3.97,2.95,6.49,.14,2.06-.25,4.1-.53,6.12-.42,3.01-2.44,5.06-4.9,6.68-1.36,.9-2.88,1.47-4.41,1.99,.04,.31,.26,.4,.41,.53,7.99,6.99,14.3,15.24,18.85,24.84,4.24,8.96,6.56,18.38,6.73,28.3,.16,9.6-1.71,18.83-5.18,27.76-.17,.44-.19,.95-.41,1.35-.64,1.13-1.12,2.31-1.53,3.54-.16,.29-.35,.56-.49,.86-2.24,4.71-4.82,9.23-7.69,13.59-.36,.55-.61,.71-1.26,.33-7.91-4.65-15.84-9.27-23.77-13.89-1.49-.87-1.51-.88-.94-2.47,.21-.59,.16-.78-.53-.77-8.58,.06-17.15-.19-25.69-.94-3.86-.34-7.7-.83-11.52-1.5-.71-.13-.74-.38-.56-1,.7-2.38,1.44-4.75,1.86-7.19,.28-.94,.65-1.86,.58-2.86Zm-54.79-34.76c-1.27-.94-1.95-2.19-2.03-3.76,.07-1.35,.64-2.32,2.06-2.61,.41-.08,.39-.29,.18-.57-.52-.71-1-1.45-1.57-2.12-.86-1-2.32-.76-2.79,.46-1.1,2.85-2.18,5.71-3.21,8.59-.52,1.46-.26,2.89,.62,4.16,1.37,1.96,2.79,3.89,4.17,5.84,.24,.33,.47,.32,.83,.32,1.63-.01,3.13,.37,4.25,1.66,.6,.69,.88,1.53,.8,2.44-.04,.51,.12,.81,.57,1.1,1.17,.74,2.15,1.68,2.51,3.1,.21,.82,.11,1.62-.2,2.4-.33,.83,.15,1.76,1.1,2.16,.87,.37,1.73,.05,2.09-.85,.67-1.69,1.29-3.39,1.92-5.09,.43-1.16,.9-2.31,1.28-3.49,.41-1.26,.34-2.47-.44-3.64-1.63-2.44-3.2-4.93-4.93-7.3-.36-.49-.72-.77-1.38-.82-1.3-.1-2.55-.46-3.8-.84-.69-.37-1.42-.66-2.05-1.13Zm117.13-12.01c1.05-.66,2.09-1.33,3.18-1.92,.56-.3,.51-.55,.23-1.02-3.13-5.32-6.83-10.21-11.13-14.64-3.82-3.93-8.05-7.34-12.83-10.04-3.28-1.86-6.81-2.95-10.57-3.31-.49-.05-.76,.09-1.03,.5-1.77,2.63-3.77,5.05-6.33,6.95-5.1,3.8-10.73,3.99-16.06,.52-.55-.36-.81-.32-1.26,.14-4.03,4.19-6.01,9.31-6.69,14.97-.99,8.13,.35,16.01,2.95,23.68,1.44,4.24,1.93,8.54,1.79,12.96-.29,9.01-2.12,17.77-4.52,26.42-.22,.81-.08,.98,.73,1.11,6.83,1.06,13.72,1.52,20.62,1.8,4.84,.2,9.69,.24,14.54,.25,.61,0,.9-.15,1.09-.77,3.2-10.11,5.44-20.4,5.83-31.04,.2-5.62-1.2-10.89-3.26-16.04-2.3-5.75-5.29-11.12-8.79-16.22-.1-.15-.2-.3-.31-.45-.39-.53-.49-1.09,.09-1.52,.62-.45,1.14-.17,1.53,.41,.5,.72,1.01,1.44,1.49,2.17,3.49,5.4,6.52,11.03,8.67,17.11,.04,.11,.11,.21,.19,.35,6.66-4.15,13.26-8.27,19.86-12.38Zm5.05-.02c-.36-.69-.63-.39-1.01-.15-7.29,4.54-14.58,9.08-21.87,13.63-1.41,.88-1.44,.89-.97,2.48,1.52,5.15,1.47,10.4,.99,15.68-.93,10.09-3.28,19.86-6.6,29.41-.19,.55-.09,.81,.42,1.11,7.25,4.2,14.48,8.43,21.71,12.67,.45,.26,.7,.34,1.04-.2,5.8-9.06,10.26-18.7,12.55-29.26,1.02-4.72,1.55-9.5,1.54-14.33-.04-10.99-2.75-21.3-7.79-31.03Zm-65.54,19.41c-.11-.45-.26-.84-.64-1.15-2.47-2.01-4.89-4.08-7.43-6-.61-.46-.75-.39-.95,.34-.83,3.07-1.78,6.1-3.36,8.88-1.76,3.09-4.15,5.34-7.84,5.84-4.37,.59-8.5-.19-12.43-2.13-2.35-1.16-4.46-2.67-6.44-4.38-.43-.37-.58-.84-.74-1.32-.77-2.2-1.69-4.34-2.91-6.33-1.8-2.93-4.11-5.03-7.79-5.2-1.69-.08-3.35-.52-5.06-.48-1.04,.03-1.23,.29-1.03,1.29,.22,1.09,1.01,1.68,1.92,2.15,1.74,.88,3.63,1.14,5.54,1.26,.49,.03,.74,.21,.99,.61,2.02,3.16,4.09,6.29,6.08,9.48,.95,1.52,1.13,3.2,.43,4.87-1.58,3.8-3.19,7.57-4.8,11.36-.2,.48-.49,.93-.98,1.15-.45,.21-.31,.4-.07,.66,6.24,6.72,13.45,11.8,22.85,12.79,7.32,.77,13.79-1.57,19.49-6.14,1.38-1.1,2.63-2.34,3.83-3.62,.28-.29,.49-.61,.56-1.01,.86-4.93,1.56-9.87,1.59-14.88,0-2.7-.15-5.39-.8-8.03Zm18.59-56.66c1.69-1.47,2.97-3.27,3.92-5.29,.21-.44,.44-.66,.97-.77,4.62-.92,7-5.5,5.11-9.72-1.05-2.35-3.42-3.64-5.51-3.23-1.52,.3-3.03,.54-4.45,1.16-.56,.25-1.03,.55-1.3,1.17-.35,.81-1.08,.77-1.79,.56-1.05-.31-2-.84-2.99-1.3-1.73-.81-3.51-1.47-5.33-2.03-1.39-.43-2.71-.38-4.08,.1-2.45,.86-4.82,1.96-7.38,2.48-.74,.15-1.49,.32-2.24,.34-.73,.02-.83,.33-.79,.94,.14,2.16,.56,4.26,1.24,6.3,1.19,3.54,2.53,7.01,5.19,9.76,2.43,2.52,5.34,4.02,9.1,4.07,3.93-.12,7.31-1.94,10.34-4.55Zm-11.74,12.43c3.08,2.44,7.61,3.2,11.53,1.27,3.39-1.67,5.8-4.38,8.1-7.59-7.29,.29-13.82,2.1-19.62,6.32Zm-13.78,28.87c-.4,1.71-.79,3.41-1.21,5.11-.08,.35-.1,.6,.25,.85,2.19,1.52,4.24,3.22,6.46,5.06-1.02-3.6-1.82-7.04-2.31-10.55-.49-3.55-.6-7.11-.51-10.7-1.11,3.36-1.89,6.8-2.69,10.23Zm-48.53,23.43c.53-1.99-.68-3.44-2.75-3.21-.99,.11-1.93,.45-2.78,1.01-.62,.41-.76,.91-.3,1.52,.87,1.16,1.68,2.37,2.38,3.64,.18,.32,.39,.43,.73,.32,1.04-.33,1.9-.91,2.51-1.84,.16-.25,.27-.47,.05-.75,.05-.22,.1-.46,.16-.69Zm-9.75-9.04c-.19-.27-.43-.39-.74-.45-.86-.16-1.72-.34-2.6-.33-1.26,.02-1.79,.93-1.18,2.06,.22,.41,.55,.72,.93,.97,2.03,1.34,4.34,1.88,6.93,2.38-1.23-1.7-2.29-3.17-3.34-4.64Zm13.03,13.59c.28-.96-.24-1.91-1.46-2.75-.35-.24-.54-.32-.8,.14-.68,1.2-1.69,2.04-3,2.47-.41,.14-.54,.27-.27,.68,.42,.66,.76,1.37,1.27,1.97,.24,.28,.52,.5,.92,.5,1.09,0,2.96-1.69,3.34-3.02Zm48.06-38.71v.08s.02-.08,.02-.08h-.02Z"/><path class="cls-3" d="M329.23,404.93c-9.2-16.5-18.41-32.98-27.28-49.66-3.45-6.49-5.71-13.37-7.1-20.55-.23-1.21-.49-2.42-.73-3.64-.66,.07-1.32,.17-1.95,.4,.04,.15,.09,.3,.11,.44,1.52,9.69,4.77,18.74,9.51,27.35,5.96,10.83,11.85,21.71,17.86,32.51,.44,.78,.34,1.03-.45,1.42-4.42,2.18-8.79,4.45-13.2,6.65-7.22,3.59-14.53,7.02-21.88,10.36-.4,.18-.71,.44-1.08-.19-4.36-7.44-8.81-14.83-13.14-22.28-6.06-10.44-11.7-21.09-16.23-32.3-2.13-5.27-4.04-10.62-5.48-16.13-.68,.06-1.36,.11-2,.37,2.29,8.44,5.43,16.57,9.09,24.5,5.76,12.48,12.64,24.36,19.72,36.12,3.74,6.21,7.57,12.35,10.63,18.94,.77,1.66,1.52,3.33,2.16,5.02,14.76-4.61,28.78-10.89,41.84-18.64-.13-.23-.26-.46-.39-.69Zm-3.18,0c-11.91,6.12-23.95,11.97-36.16,17.48-.16,.07-.33,.14-.57,.24-.09-.15-.19-.32-.27-.5-1.31-3.19-2.82-6.29-4.46-9.32-.24-.44-.21-.63,.28-.85,12.03-5.4,23.85-11.2,35.56-17.25,.5-.26,.73-.25,1.03,.28,1.61,2.95,3.24,5.88,4.91,8.79,.33,.58,.3,.8-.32,1.11Z"/><path class="cls-3" d="M341.06,427.47c-.95,.52-1.86,1.12-2.8,1.68-17.36,10.47-34.73,20.94-52.08,31.43-.7,.42-1.02,.32-1.45-.28-1.27-1.81-2.15-3.78-2.44-5.99-.46-3.56,.72-6.61,2.92-9.34,1.31-1.62,2.66-3.23,3.55-5.15,.21-.46,.44-.44,.85-.29,1.48,.55,2.89,1.22,4.25,2.03,.46,.28,.88,.33,1.12-.23,.21-.47-.13-.72-.49-.93-1.41-.83-2.88-1.54-4.42-2.09-.38-.13-.62-.28-.48-.76,.34-1.08,.42-2.2,.37-3.33-.01-.44,.05-.69,.6-.58,.59,.12,1.2,.15,1.8,.21,2.32,.26,4.64,.51,6.96,.77,.38,.05,.68-.07,.76-.46,.07-.4-.09-.72-.53-.82-.23-.05-.48-.08-.72-.11-2.8-.31-5.59-.62-8.4-.91-.41-.04-.58-.17-.64-.57-.37-2.6-1.11-5.07-2.03-7.49,14.76-4.61,28.78-10.89,41.84-18.64,3.88,6.96,7.78,13.89,11.71,20.82,.29,.51,.25,.74-.27,1.02Z"/><path class="cls-3" d="M205.3,314.95c.06,.16,.02,.36,.04,.54,.39,5.39-.03,10.77-.42,16.14-.58,8.03-1.38,16.04-1.72,24.09-.31,7.23-.51,14.46-.73,21.69-.21,6.81-.4,13.62-.56,20.43-.02,.66-.26,.72-.79,.72-1.7,0-3.39,.03-5.09,.05-.35-.26-.76-.14-1.15-.14-19.2,0-38.39,0-57.59,0-.39,0-.79-.02-1.18-.04-.93-6.09,2.02-11.2,7.77-13.44,2.11-.82,4.28-1.52,6.18-2.8,.43-.29,.57-.04,.79,.22,.92,1.13,1.72,2.34,2.44,3.61,.06,.1,.13,.21,.17,.32,.2,.47,.54,.68,1.01,.43,.45-.24,.36-.64,.16-1.02-.77-1.48-1.69-2.87-2.76-4.15-.31-.37-.33-.59,.05-.94,.83-.77,1.48-1.68,2.04-2.66,.21-.38,.35-.45,.72-.14,.72,.6,1.49,1.14,2.24,1.71,1.59,1.21,3.19,2.41,4.78,3.62,.32,.24,.66,.37,.94-.02,.24-.34,.21-.69-.11-.98-.18-.16-.38-.3-.57-.45-2.17-1.65-4.33-3.31-6.53-4.93-.48-.36-.55-.65-.32-1.19,.87-2.01,1.42-4.11,1.83-6.26,1.7-8.96,1.72-18.03,1.57-27.08-.16-9.51-1.27-18.97-1.83-28.46-.34-5.72-.44-11.45,.62-17.12,1.16-6.21,3.83-11.62,8.34-16.11,4.72-4.7,10.4-7.87,16.41-10.52-.04,.72,.74,1.11,.72,1.83-5.37,2.37-10.45,5.2-14.77,9.25-4.67,4.37-7.51,9.72-8.71,15.97-1.12,5.82-.97,11.69-.61,17.56,.52,8.28,1.39,16.54,1.69,24.83,.17,4.72,.23,9.45,.03,14.17-.02,.53,.07,.7,.65,.77,10.26,1.2,20.54,2.18,30.84,2.91,2.87,.2,5.74,.39,8.61,.62,.51,.04,.65-.04,.67-.57,.41-10.14,1.47-20.23,2.11-30.35,.29-4.68,.52-9.38-.18-14.06-.06-.38,.05-.56,.33-.74,.71-.46,1.41-.94,2.12-1.41,.53,.45,.76,1.09,1.06,1.69-1.07,.46-1.77,1.12-1.29,2.42Zm-5.19,56.59c.5,.06,.63-.16,.64-.61,.09-3.42,.19-6.84,.3-10.26,.02-.51-.1-.74-.69-.78-7.38-.42-14.75-.99-22.11-1.69-5.52-.52-11.03-1.15-16.54-1.73-.21-.02-.43-.01-.63-.06-.65-.17-.83,.12-.85,.72-.11,3.36-.44,6.71-.95,10.04-.07,.47,0,.68,.55,.74,7.1,.82,14.21,1.58,21.33,2.17,5.67,.48,11.35,.92,17.02,1.38,0-.01,0-.02,0-.04,.63,.03,1.27,.04,1.9,.11Z"/><path class="cls-2" d="M183.32,272.56c7.3,12.48,14.59,24.97,21.88,37.45,.15,.26,.35,.5,.34,.82-.7,.47-1.41,.95-2.12,1.41-.28,.18-.38,.36-.33,.74,.7,4.68,.47,9.37,.18,14.06-.64,10.12-1.7,20.22-2.11,30.35-.02,.54-.16,.62-.67,.57-2.87-.23-5.74-.42-8.61-.62-10.3-.73-20.58-1.71-30.84-2.91-.57-.07-.67-.24-.65-.77,.2-4.72,.14-9.45-.03-14.17-.3-8.29-1.18-16.55-1.69-24.83-.37-5.87-.51-11.74,.61-17.56,1.2-6.25,4.04-11.6,8.71-15.97,4.33-4.05,9.4-6.88,14.77-9.25,.34,.1,.41,.43,.56,.68Zm-16.03,28.07c.25-.54,.4-1.13,.54-1.72,.11-.45-.13-.78-.58-.86-.46-.09-.61,.21-.7,.62-.56,2.42-2.03,3.98-4.45,4.59-.41,.1-.68,.3-.59,.74,.09,.4,.38,.6,1,.53,2.1-.49,3.78-1.79,4.79-3.91Z"/><path class="cls-2" d="M260.59,337.13c7.91-1.42,15.83-2.85,23.74-4.27,2.62-.47,5.21-1.05,7.85-1.39,.04,.15,.08,.29,.11,.44,1.52,9.69,4.77,18.74,9.51,27.35,5.96,10.83,11.84,21.71,17.87,32.51,.44,.78,.33,1.03-.45,1.42-4.42,2.18-8.79,4.45-13.2,6.65-7.22,3.59-14.53,7.03-21.88,10.36-.4,.18-.72,.44-1.08-.19-4.36-7.44-8.81-14.82-13.14-22.28-6.06-10.44-11.7-21.09-16.24-32.3-2.13-5.27-4.04-10.62-5.48-16.12,4.14-.73,8.27-1.44,12.41-2.18Zm-.51,11.79c-.21-.4-.45-.87-1.04-.56-.56,.29-.4,.71-.16,1.15,1.17,2.16,1.18,4.33,.06,6.5-.23,.45-.38,.87,.18,1.14,.57,.27,.81-.14,1.03-.57,.61-1.21,.94-2.48,.91-3.84,.02-1.36-.34-2.63-.98-3.82Z"/><path class="cls-2" d="M238.46,297.54c-.08-2.95-.26-6.15-.55-9.34-.04-.45-.18-.67-.67-.78-3.49-.82-6.64-2.4-9.54-4.49-.57-.42-1.12-.67-1.68-.06-.44,.48-.24,1.1,.53,1.65,2.64,1.91,5.49,3.43,8.62,4.36,.71,.21,.91,.53,.96,1.24,.25,3.44,.38,6.89,.39,10.34,0,.69,.2,1.28,.95,1.29,.8,.01,1.03-.57,1-1.31-.04-.88,0-1.76,0-2.89Z"/><path class="cls-2" d="M220.08,251.42c-1.88,1.54-3.78,3.06-5.84,4.36,1.41-.16,2.68-.82,4.04-1.18,.4-.1,.8-.23,1.21-.34,.28-.94,.65-1.86,.58-2.87v.02Z"/><path class="cls-1" d="M214.26,255.77c-.12,.07-.23,.13-.35,.2,.1-.1,.34,.05,.35-.2Z"/><path class="cls-3" d="M262.55,217.01c6.66-4.15,13.26-8.27,19.86-12.38,1.05-.66,2.09-1.33,3.18-1.92,.56-.3,.51-.55,.23-1.02-3.13-5.32-6.83-10.21-11.13-14.64-3.82-3.93-8.05-7.34-12.83-10.04-3.28-1.86-6.81-2.95-10.57-3.31-.49-.05-.76,.09-1.03,.5-1.77,2.63-3.77,5.05-6.33,6.95-5.1,3.8-10.73,3.99-16.06,.52-.55-.36-.81-.32-1.26,.14-4.03,4.19-6.01,9.31-6.69,14.97-.99,8.13,.35,16.01,2.95,23.68,1.44,4.24,1.93,8.54,1.79,12.96-.29,9.01-2.12,17.77-4.52,26.42-.22,.81-.08,.98,.73,1.11,6.83,1.06,13.72,1.52,20.62,1.8,4.84,.2,9.69,.24,14.54,.25,.61,0,.9-.15,1.09-.77,3.2-10.11,5.44-20.4,5.83-31.04,.2-5.62-1.2-10.89-3.26-16.04-2.3-5.75-5.29-11.12-8.79-16.22-.1-.15-.2-.3-.31-.45-.39-.53-.49-1.09,.09-1.52,.62-.45,1.14-.17,1.53,.41,.5,.72,1.01,1.44,1.49,2.17,3.49,5.4,6.52,11.03,8.67,17.11,.04,.11,.11,.21,.19,.35Z"/><path class="cls-2" d="M295.24,235.64c-.04-10.99-2.75-21.3-7.79-31.03-.36-.69-.63-.39-1.01-.15-7.29,4.54-14.58,9.08-21.87,13.63-1.41,.88-1.44,.89-.97,2.48,1.52,5.15,1.47,10.4,.99,15.68-.93,10.09-3.28,19.86-6.6,29.41-.19,.55-.09,.81,.42,1.11,7.25,4.2,14.48,8.43,21.71,12.67,.45,.26,.7,.34,1.04-.2,5.8-9.06,10.26-18.7,12.55-29.26,1.02-4.72,1.55-9.5,1.54-14.33Z"/><path class="cls-2" d="M222.71,232.05c0-2.7-.15-5.39-.8-8.03-.11-.45-.26-.84-.64-1.15-2.47-2.01-4.89-4.08-7.43-6-.61-.46-.75-.39-.95,.34-.83,3.07-1.78,6.1-3.36,8.88-1.76,3.09-4.15,5.34-7.84,5.84-4.37,.59-8.5-.19-12.43-2.13-2.35-1.16-4.46-2.67-6.44-4.38-.43-.37-.58-.84-.74-1.32-.77-2.2-1.69-4.34-2.91-6.33-1.8-2.93-4.11-5.03-7.79-5.2-1.69-.08-3.35-.52-5.06-.48-1.04,.03-1.23,.29-1.03,1.29,.22,1.09,1.01,1.68,1.92,2.15,1.74,.88,3.63,1.14,5.54,1.26,.49,.03,.74,.21,.99,.61,2.02,3.16,4.09,6.29,6.08,9.48,.95,1.52,1.13,3.2,.43,4.87-1.58,3.8-3.19,7.57-4.8,11.36-.2,.48-.49,.93-.98,1.15-.45,.21-.31,.4-.07,.66,6.24,6.72,13.45,11.8,22.85,12.79,7.32,.77,13.79-1.57,19.49-6.14,1.38-1.1,2.63-2.34,3.83-3.62,.28-.29,.49-.61,.56-1.01,.86-4.93,1.56-9.87,1.59-14.88Z"/><path class="cls-2" d="M221.07,167.85c-2.66-2.76-4-6.22-5.19-9.76-.68-2.05-1.1-4.15-1.24-6.3-.04-.61,.06-.93,.79-.94,.75-.02,1.5-.19,2.24-.34,2.56-.53,4.93-1.62,7.38-2.48,1.37-.48,2.69-.53,4.08-.1,1.82,.57,3.6,1.22,5.33,2.03,.98,.46,1.94,.99,2.99,1.3,.71,.21,1.44,.25,1.79-.56,.27-.62,.74-.93,1.3-1.17,1.42-.63,2.93-.87,4.45-1.16,2.09-.41,4.46,.89,5.51,3.23,1.89,4.21-.49,8.8-5.11,9.72-.53,.11-.76,.32-.97,.77-.95,2.02-2.22,3.83-3.92,5.29-3.02,2.62-6.41,4.43-10.34,4.55-3.76-.05-6.67-1.55-9.1-4.07Zm1.11-4.02c.17,.39,.32,.79,.53,1.15,.16,.28,.42,.42,.77,.27,.36-.16,.52-.43,.41-.8-.07-.26-.22-.49-.33-.74-.95-2.2-1.68-4.47-2.05-6.84-.07-.42-.22-.79-.73-.74-.43,.04-.62,.33-.62,.72,.38,2.43,1.05,4.75,2.01,6.98Zm19.75-6.83c.53,.08,.79-.19,.87-.69,.23-1.45,.97-2.57,2.18-3.4,.63-.43,1.33-.72,2.08-.83,.48-.07,.95-.11,.86-.77-.08-.58-.54-.57-.97-.54-2.56,.13-5.36,2.94-5.48,5.49-.02,.35,.02,.68,.46,.75Zm-14.42-.3c.7-.04,1.23-.62,1.21-1.32-.02-.71-.68-1.32-1.38-1.26-.67,.05-1.25,.69-1.22,1.34,.02,.71,.67,1.29,1.39,1.25Z"/><path class="cls-2" d="M163.23,212.87c.07-1.35,.64-2.32,2.06-2.61,.41-.08,.39-.29,.18-.57-.52-.71-1-1.45-1.57-2.12-.86-1-2.32-.76-2.79,.46-1.1,2.85-2.18,5.71-3.21,8.59-.52,1.46-.26,2.89,.62,4.16,1.37,1.96,2.79,3.89,4.17,5.84,.24,.33,.47,.32,.83,.32,1.63-.01,3.13,.37,4.25,1.66,.6,.69,.88,1.53,.8,2.44-.04,.51,.12,.81,.57,1.1,1.17,.74,2.15,1.68,2.51,3.1,.21,.82,.11,1.62-.2,2.4-.33,.83,.15,1.76,1.1,2.16,.87,.37,1.73,.05,2.09-.85,.67-1.69,1.29-3.39,1.92-5.09,.43-1.16,.9-2.31,1.28-3.49,.41-1.26,.34-2.47-.44-3.64-1.63-2.44-3.2-4.93-4.93-7.3-.36-.49-.72-.77-1.38-.82-1.3-.1-2.55-.46-3.8-.84-1.35,1.16-3.28,1.06-4.43-.24-1.26-1.43-1.12-3.33,.34-4.65Z"/><path class="cls-2" d="M248.38,173.47c-7.29,.29-13.82,2.1-19.62,6.32,3.08,2.44,7.61,3.2,11.53,1.27,3.39-1.67,5.8-4.38,8.1-7.59Z"/><path class="cls-3" d="M217.68,198.43c-1.11,3.36-1.89,6.8-2.69,10.23-.4,1.71-.79,3.41-1.21,5.11-.08,.35-.1,.6,.25,.85,2.19,1.52,4.24,3.22,6.46,5.06-1.02-3.6-1.82-7.04-2.31-10.55-.49-3.55-.6-7.11-.51-10.7Z"/><path class="cls-2" d="M166.29,232.78c.05-.22,.1-.46,.16-.69,.53-1.99-.68-3.44-2.75-3.21-.99,.11-1.93,.45-2.78,1.01-.62,.41-.76,.91-.3,1.52,.87,1.16,1.68,2.37,2.38,3.64,.18,.32,.39,.43,.73,.32,1.04-.33,1.9-.91,2.51-1.84,.16-.25,.27-.47,.05-.75Z"/><path class="cls-2" d="M160.04,227.69c-1.23-1.7-2.29-3.17-3.34-4.64-.19-.27-.43-.39-.74-.45-.86-.16-1.72-.34-2.6-.33-1.26,.02-1.79,.93-1.18,2.06,.22,.41,.55,.72,.93,.97,2.03,1.34,4.34,1.88,6.93,2.38Z"/><path class="cls-2" d="M166.39,239.66c1.09,0,2.96-1.69,3.34-3.02,.28-.96-.24-1.91-1.46-2.75-.35-.24-.54-.32-.8,.14-.68,1.2-1.69,2.04-3,2.47-.41,.14-.54,.27-.27,.68,.42,.66,.76,1.37,1.27,1.97,.24,.28,.52,.5,.92,.5Z"/><path class="cls-5" d="M163.23,212.87c-1.46,1.31-1.6,3.22-.34,4.65,1.15,1.3,3.08,1.41,4.43,.24-.69-.37-1.42-.66-2.05-1.13-1.27-.94-1.95-2.19-2.03-3.76Z"/><polygon class="cls-1" points="217.81 197.93 217.79 197.93 217.8 198.01 217.81 197.93"/><path class="cls-1" d="M220.06,251.4s.08,0,.12,.01c0-.04-.02-.07-.02-.11-.03,.04-.05,.08-.08,.12,0,0-.01-.02-.01-.02Z"/><path class="cls-3" d="M289.32,422.66c.24-.1,.41-.17,.57-.24,12.2-5.51,24.25-11.36,36.16-17.48,.61-.32,.64-.54,.32-1.11-1.67-2.91-3.3-5.85-4.91-8.79-.29-.54-.52-.55-1.03-.29-11.7,6.06-23.54,11.85-35.56,17.25-.49,.22-.53,.41-.28,.86,1.65,3.03,3.15,6.13,4.46,9.31,.07,.18,.18,.34,.27,.5Z"/><path class="cls-3" d="M198.21,371.42c.63,.03,1.27,.04,1.9,.11,.5,.06,.63-.16,.64-.61,.09-3.42,.19-6.84,.3-10.26,.02-.51-.1-.74-.69-.78-7.38-.42-14.75-.99-22.11-1.69-5.52-.52-11.03-1.15-16.54-1.73-.21-.02-.43-.01-.63-.06-.65-.17-.83,.12-.85,.72-.11,3.36-.44,6.71-.95,10.04-.07,.47,0,.68,.55,.74,7.1,.82,14.21,1.58,21.33,2.17,5.67,.48,11.35,.92,17.02,1.38,0-.01,0-.02,0-.04Z"/><path class="cls-3" d="M162.5,304.55c2.1-.49,3.78-1.79,4.79-3.91,.25-.54,.4-1.13,.54-1.72,.11-.45-.13-.78-.58-.86-.46-.09-.61,.21-.7,.62-.56,2.42-2.03,3.98-4.45,4.59-.41,.1-.68,.3-.59,.74,.09,.4,.38,.6,1,.53Z"/><path class="cls-3" d="M261.05,352.74c.02-1.36-.34-2.63-.98-3.82-.21-.4-.45-.87-1.04-.56-.56,.29-.4,.71-.16,1.15,1.17,2.16,1.18,4.33,.06,6.5-.23,.45-.38,.87,.18,1.14,.57,.27,.81-.14,1.03-.57,.61-1.21,.94-2.48,.91-3.84Z"/><path class="cls-3" d="M220.17,156.84c.38,2.43,1.05,4.75,2.01,6.98,.17,.39,.32,.79,.53,1.15,.16,.28,.42,.42,.77,.27,.36-.16,.52-.43,.41-.8-.07-.26-.22-.49-.33-.74-.95-2.2-1.68-4.47-2.05-6.84-.07-.42-.22-.79-.73-.74-.43,.04-.62,.33-.62,.72Z"/><path d="M241.47,156.25c-.02,.35,.02,.68,.46,.75,.53,.08,.79-.19,.87-.69,.23-1.45,.97-2.57,2.18-3.4,.63-.43,1.33-.72,2.08-.83,.48-.07,.95-.11,.86-.77-.08-.58-.54-.57-.97-.54-2.56,.13-5.36,2.94-5.48,5.49Z"/><path class="cls-3" d="M226.12,155.44c.02,.71,.67,1.29,1.39,1.25,.7-.04,1.23-.62,1.21-1.32-.02-.71-.68-1.32-1.38-1.26-.67,.05-1.25,.69-1.22,1.34Z"/></g><text class="cls-4" transform="translate(86.8 179.01) rotate(-63.4)"><tspan x="0" y="0">H</tspan></text><text class="cls-4" transform="translate(93.41 165.89) rotate(-58.62)"><tspan x="0" y="0">y</tspan></text><text class="cls-4" transform="translate(99.46 155.9) rotate(-54.25)"><tspan x="0" y="0">g</tspan></text><text class="cls-4" transform="translate(106.99 145.42) rotate(-49.61)"><tspan x="0" y="0">g</tspan></text><text class="cls-4" transform="translate(115.09 135.89) rotate(-45.3)"><tspan x="0" y="0">e</tspan></text><text class="cls-4" transform="translate(123.49 127.52) rotate(-42.19)"><tspan x="0" y="0">l</tspan></text><text class="cls-4" transform="translate(127.59 123.81) rotate(-40.32)"><tspan x="0" y="0">i</tspan></text><text class="cls-4" transform="translate(131.11 120.66) rotate(-37.12)"><tspan x="0" y="0">g</tspan></text><text class="cls-4" transform="translate(141.53 112.91) rotate(-33.75)"><tspan x="0" y="0"> </tspan></text><text class="cls-4" transform="translate(146.15 109.69) rotate(-30.44)"><tspan x="0" y="0">a</tspan></text><text class="cls-4" transform="translate(157.2 103.28) rotate(-26.66)"><tspan x="0" y="0">t</tspan></text><text class="cls-4" transform="translate(164.66 99.56) rotate(-24.17)"><tspan x="0" y="0"> </tspan></text><text class="cls-4" transform="translate(169.78 97.14) rotate(-20.91)"><tspan x="0" y="0">d</tspan></text><text class="cls-4" transform="translate(181.96 92.51) rotate(-16.45)"><tspan x="0" y="0">u</tspan></text><text class="cls-4" transform="translate(193.52 89.18) rotate(-13.31)"><tspan x="0" y="0"> </tspan></text><text class="cls-4" transform="translate(199 87.82) rotate(-10.53)"><tspan x="0" y="0">s</tspan></text><text class="cls-4" transform="translate(208.71 86.04) rotate(-7.26)"><tspan x="0" y="0">t</tspan></text><text class="cls-4" transform="translate(216.9 84.91) rotate(-3.47)"><tspan x="0" y="0">a</tspan></text><text class="cls-4" transform="translate(229.62 84.15) rotate(.93)"><tspan x="0" y="0">k</tspan></text><text class="cls-4" transform="translate(241.1 84.33) rotate(5.08)"><tspan x="0" y="0">k</tspan></text><text class="cls-4" transform="translate(252.71 85.43) rotate(8.2)"><tspan x="0" y="0"> </tspan></text><text class="cls-4" transform="translate(258.38 86.26) rotate(10.1)"><tspan x="0" y="0">i</tspan></text><text class="cls-4" transform="translate(263.07 86.99) rotate(13.15)"><tspan x="0" y="0">n</tspan></text><text class="cls-4" transform="translate(274.91 89.74) rotate(17.52)"><tspan x="0" y="0">n</tspan></text><text class="cls-4" transform="translate(286.48 93.38) rotate(21.94)"><tspan x="0" y="0">o</tspan></text><text class="cls-4" transform="translate(298.12 97.88) rotate(27.58)"><tspan x="0" y="0">m</tspan></text><text class="cls-4" transform="translate(314.77 106.85) rotate(31.99)"><tspan x="0" y="0"> </tspan></text><text class="cls-4" transform="translate(319.63 109.88) rotate(34.03)"><tspan x="0" y="0">:</tspan></text><text class="cls-4" transform="translate(324.23 112.97) rotate(36.36)"><tspan x="0" y="0">)</tspan></text></g></g></svg>