<?xml version="1.0" encoding="UTF-8"?><svg id="Layer_2" xmlns="http://www.w3.org/2000/svg" viewBox="0 0 457.67 467.53"><defs><style>.cls-1{fill:#f8f8f8;}.cls-2{fill:#b3eacb;}.cls-3{fill:#1e1e1e;}.cls-4{fill:#091c1e;opacity:.5;}</style></defs><g id="Layer_3"><g><path class="cls-2" d="M12.52,242.04c.91,14.91-10.5,31.59-6.85,45.52,3.76,14.35,21.96,23.26,28.31,36.28,6.47,13.25,2.34,33.06,11.16,44.64,8.89,11.68,29.11,12.96,40.06,22.65,10.95,9.69,14.68,29.6,27.35,37.01,12.58,7.35,31.73,.84,45.67,5.65,13.7,4.72,24.76,21.7,39.45,23.69,14.26,1.93,29.43-11.42,44.35-12.33,14.91-.91,31.59,10.5,45.52,6.85s23.26-21.96,36.28-28.31c13.25-6.47,33.06-2.34,44.64-11.16,11.68-8.89,12.96-29.11,22.65-40.06,9.69-10.95,29.6-14.68,37.01-27.35,7.35-12.58,.84-31.73,5.65-45.67,4.72-13.7,21.7-24.76,23.69-39.45,1.93-14.26-11.42-29.43-12.33-44.35-.91-14.91,10.5-31.59,6.85-45.52-3.76-14.35-21.96-23.26-28.31-36.28-6.47-13.25-2.34-33.06-11.16-44.64-8.89-11.68-29.11-12.96-40.06-22.65-10.95-9.69-14.68-29.6-27.35-37.01-12.58-7.35-31.73-.84-45.67-5.65-13.7-4.72-24.76-21.7-39.45-23.69-14.26-1.93-29.43,11.42-44.35,12.33-14.91,.91-31.59-10.5-45.52-6.85-14.35,3.76-23.26,21.96-36.28,28.31-13.25,6.47-33.06,2.34-44.64,11.16-11.68,8.89-12.96,29.11-22.65,40.06-9.69,10.95-29.6,14.68-37.01,27.35-7.35,12.58-.84,31.73-5.65,45.67-4.72,13.7-21.7,24.76-23.69,39.45-1.93,14.26,11.42,29.43,12.33,44.35Z"/><g><path d="M135.09,362.72l-1.19,1.63c-28.44-21.3-48.86-51.26-58.33-86.1-7.32-26.92-7.51-55.3-.55-82.15,.14-.54,.7-.86,1.24-.72,.45,.12,.74,.52,.74,.97,0,.08-.01,.17-.03,.25-6.87,26.51-6.69,54.54,.54,81.13,9.34,34.39,29.5,63.96,57.58,84.99Z"/><path d="M369.42,315.84c-7.15,12.49-15.79,23.79-25.69,33.72-3.25,3.26-6.62,6.37-10.13,9.32-.43,.36-1.08,.3-1.43-.14h0c-.35-.43-.28-1.05,.13-1.4,3.51-2.96,6.9-6.08,10.15-9.36,9.7-9.77,18.19-20.88,25.21-33.14,21.01-36.7,26.47-79.38,15.38-120.19-6.9-25.36-20.05-48.73-38.07-67.62-.38-.4-.37-1.03,.03-1.42,.19-.19,.45-.28,.7-.28,.27,0,.53,.1,.73,.31,18.25,19.15,31.57,42.8,38.55,68.49,11.24,41.32,5.7,84.55-15.57,121.71Z"/></g><g><path class="cls-2" d="M289.77,422.47c-.13,.06-.27,.11-.45,.19h0c.18-.08,.32-.14,.45-.19Z"/><path class="cls-2" d="M326.45,404.66c-.07,.09-.2,.18-.39,.27,.18-.1,.31-.18,.39-.27Z"/><path class="cls-2" d="M347.94,428.92c-.38,1.33-1.34,3.18-3.7,4.45-.43,.24-.94,.55-1.48,.88-.35,.22-.7,.44-1.06,.65l-11.48,6.93c-13.52,8.15-27.05,16.31-40.56,24.48-1.34,.81-2.74,1.22-4.17,1.22s-4.11-.43-6.2-3.33l-.04-.05c-1.97-2.81-3.19-5.84-3.6-8.98-.67-5.17,.8-10.02,4.36-14.43l.24-.29c1.05-1.3,1.96-2.41,2.44-3.46,.09-.19,.19-.38,.29-.56,.06-.28,.12-.56,.21-.84,.05-.17,.11-.47,.09-1.11v-.07c-.02-.35-.01-.69,.02-1.01-.06-.25-.1-.5-.14-.76-.25-1.79-.78-3.71-1.64-5.99l-2.54-6.66,6.09-1.9c.2,.38,.38,.77,.56,1.15,.77,1.66,1.51,3.33,2.16,5.02,.91,2.42,1.65,4.89,2.02,7.49,.06,.4,.23,.53,.64,.57,2.8,.28,5.6,.6,8.4,.91,.24,.02,.48,.05,.72,.1,.43,.1,.59,.42,.53,.82-.08,.4-.38,.51-.76,.46-2.32-.26-4.64-.5-6.96-.77-.6-.06-1.21-.09-1.8-.21-.55-.12-.61,.13-.6,.58,.05,1.12-.03,2.24-.37,3.32-.15,.49,.1,.63,.48,.77,1.54,.54,3.01,1.26,4.42,2.08,.36,.21,.69,.47,.49,.94-.24,.56-.66,.51-1.12,.23-1.36-.8-2.77-1.47-4.25-2.02-.42-.16-.64-.17-.85,.28-.89,1.92-2.24,3.53-3.55,5.15-2.21,2.73-3.39,5.77-2.92,9.34,.28,2.2,1.16,4.18,2.43,5.99,.43,.59,.75,.7,1.45,.28,17.35-10.49,34.71-20.96,52.07-31.43,.94-.56,1.85-1.16,2.8-1.68,.52-.28,.56-.51,.27-1.02-3.92-6.93-7.83-13.86-11.71-20.82-.13-.23-.26-.46-.38-.69-.96-1.72-1.92-3.45-2.89-5.17l5.78-3.42,3.35,6.02c3.39,6.06,6.99,12.47,11.69,20.78,1.33,2.36,1.16,4.45,.77,5.78Z"/><path class="cls-3" d="M214.24,255.78h.02s0,0-.02,0Zm0,0h.02s0,0-.02,0Z"/><path class="cls-3" d="M341.33,426.44c-3.92-6.93-7.83-13.86-11.71-20.82-.13-.23-.26-.46-.38-.69-.96-1.72-1.92-3.45-2.89-5.17-8.23-14.77-16.45-29.55-24.39-44.49-3.45-6.49-5.71-13.37-7.1-20.55-.24-1.22-.49-2.42-.74-3.64-.19-1.48-.4-2.96-.59-4.45-.22-1.75-.45-3.51-.65-5.27-.25-2.3-.48-4.6-.71-6.9-.08-.9-.11-1.8-.18-2.7-.21-2.74-.26-5.49-.42-8.23-.2-3.23-.26-6.46-.38-9.69-.15-3.99-.26-7.97-.36-11.96-.06-2.93-.2-5.85-.35-8.78-.1-1.95-.27-3.9-.41-5.85,.41-1.23,.89-2.41,1.53-3.54,.23-.4,.25-.91,.42-1.34,3.47-8.93,5.34-18.16,5.18-27.76-.16-9.92-2.49-19.34-6.73-28.3-4.54-9.6-10.85-17.86-18.85-24.84-.14-.14-.37-.22-.41-.53,1.53-.52,3.05-1.09,4.41-1.99,2.46-1.62,4.48-3.67,4.9-6.68,.28-2.01,.67-4.06,.53-6.12-.16-2.52-1.31-4.62-2.95-6.48-.32-.37-.45-.69-.4-1.21,.27-2.93-.37-5.66-2-8.12-1.92-2.93-4.84-4.07-8.15-4.47-1.33-.16-2.66-.23-3.99,0-.49,.09-.75-.09-1.04-.48-3.44-4.59-8.97-6.17-14.33-4.12-.3,.12-.56,.27-.92,.03-1.85-1.29-4.02-1.79-6.16-2.29-.7-.16-1.3-.42-1.89-.81-5.14-3.42-10.62-4.5-16.57-2.37-1.29,.46-2.36,1.48-3.61,1.82-1.26,.34-2.69,.07-4.03,.4-2.33,.56-4.47,1.49-6.28,3.08-3.02,2.65-2.79,6.02,.54,8.27,.83,.57,1.73,1.01,2.72,1.21,.54,.1,.7,.32,.73,.89,.32,5.59,2.03,10.75,5.11,15.4,2.71,4.09,6.5,6.61,11.54,6.95,.67,.04,1.34,0,1.99-.09,.34-.05,.54,.04,.75,.33,.68,.94,.69,.92-.34,1.46-6.39,3.33-10.71,8.51-13.51,15.08-2.24,5.25-3.6,10.76-4.91,16.3-1.2,5.04-2.14,10.15-4.02,15.01-.65,1.67-1.44,3.27-2.51,4.71-1.64,2.22-3.83,3.33-6.58,3.49-5.88,.32-10.8-1.93-15.25-5.52-.64-.51-1.05-1.1-1.33-1.88-.98-2.71-2.18-5.31-3.95-7.62-1.92-2.53-4.34-4.17-7.59-4.43-.94-.08-1.87-.36-2.79-.34-1.26,.03-1.96-.57-2.61-1.56-1.02-1.57-2.16-3.06-3.27-4.58-1.26-1.73-3.29-1.5-4.14,.47-1.58,3.69-3.14,7.39-4.71,11.09-.64,1.51-.55,3.01,.14,4.53-.46,0-.86,.01-1.27,0-1.27-.02-2.48,.18-3.06,1.48-.62,1.39-.57,2.78,.4,4.03,.6,.78,1.41,1.33,2.27,1.78,1.55,.8,3.19,1.31,4.88,1.67,.46,.1,.72,.18,.51,.81-.3,.88,0,1.74,.56,2.47,1.44,1.92,2.6,4.01,3.75,6.1,.23,.43,.49,.84,.77,1.23,1.37,1.94,2.88,2.28,4.92,1.05,.62-.38,.92-.37,1.31,.27,.54,.87,1.15,1.71,1.81,2.5,.44,.53,.14,1.21,.66,1.78,2.04,2.25,4.19,4.38,6.57,6.26,4.73,3.72,9.91,6.49,15.89,7.6,3,.56,6.01,.65,9.04,.14-.25,.22-.52,.37-.83,.49-6.75,2.63-13.33,5.6-19.51,9.39-.44,.27-.91,.47-1.36,.71-6.02,2.65-11.7,5.83-16.42,10.52-4.5,4.49-7.18,9.9-8.33,16.11-1.06,5.68-.96,11.4-.62,17.12,.56,9.49,1.67,18.95,1.83,28.47,.15,9.06,.13,18.12-1.57,27.08-.41,2.14-.96,4.25-1.83,6.26-.23,.54-.16,.83,.32,1.19,2.19,1.62,4.35,3.28,6.52,4.93,.2,.15,.4,.29,.58,.45,.31,.29,.35,.64,.1,.98-.28,.39-.62,.26-.94,.02-1.59-1.21-3.19-2.41-4.78-3.62-.75-.57-1.52-1.11-2.24-1.71-.37-.31-.5-.24-.72,.14-.55,.98-1.21,1.9-2.03,2.66-.38,.35-.36,.57-.05,.94,1.07,1.28,1.99,2.67,2.76,4.15,.19,.38,.29,.78-.17,1.03-.47,.25-.81,.04-1.01-.43-.04-.11-.11-.22-.17-.32-.72-1.26-1.51-2.48-2.44-3.61-.22-.26-.36-.51-.79-.22-1.89,1.28-4.07,1.97-6.18,2.8-5.75,2.24-8.69,7.35-7.77,13.44,.4,.01,.79,.03,1.18,.03h57.6c.38,0,.79-.13,1.14,.14,1.7-.02,3.39-.06,5.09-.06,.53,0,.77-.06,.79-.71,.16-6.81,.35-13.62,.56-20.43,.22-7.23,.43-14.46,.73-21.69,.34-8.05,1.14-16.06,1.72-24.09,.39-5.37,.82-10.75,.43-16.14-.02-.18,.02-.38-.04-.55-.47-1.29,.23-1.95,1.3-2.41,2.1,3.39,4.08,6.86,5.99,10.36,.39,.71,.61,.83,1.31,.35,4.89-3.39,9.43-7.2,13.86-11.16,2.34-2.1,4.63-4.24,7.03-6.44,0,1.33,.05,2.58,0,3.82-.17,3.85-.14,7.69,0,11.53,.23,6.31,.87,12.55,2.39,18.69,.24,.95,.64,1.19,1.56,1.03,2.2-.37,4.42-.67,6.63-.99,.27-.03,.55-.03,.82-.04,2.3,8.44,5.43,16.57,9.09,24.51,5.76,12.48,12.64,24.35,19.72,36.11,3.52,5.85,7.12,11.63,10.08,17.79,.2,.38,.38,.77,.56,1.15,.77,1.66,1.51,3.33,2.16,5.02,.91,2.42,1.65,4.89,2.02,7.49,.06,.4,.23,.53,.64,.57,2.8,.28,5.6,.6,8.4,.91,.24,.02,.48,.05,.72,.1,.43,.1,.59,.42,.53,.82-.08,.4-.38,.51-.76,.46-2.32-.26-4.64-.5-6.96-.77-.6-.06-1.21-.09-1.8-.21-.55-.12-.61,.13-.6,.58,.05,1.12-.03,2.24-.37,3.32-.15,.49,.1,.63,.48,.77,1.54,.54,3.01,1.26,4.42,2.08,.36,.21,.69,.47,.49,.94-.24,.56-.66,.51-1.12,.23-1.36-.8-2.77-1.47-4.25-2.02-.42-.16-.64-.17-.85,.28-.89,1.92-2.24,3.53-3.55,5.15-2.21,2.73-3.39,5.77-2.92,9.34,.28,2.2,1.16,4.18,2.43,5.99,.43,.59,.75,.7,1.45,.28,17.35-10.49,34.71-20.96,52.07-31.43,.94-.56,1.85-1.16,2.8-1.68,.52-.28,.56-.51,.27-1.02Zm-123.52-228.51v.08s-.02-.08-.02-.08h.02Zm-64.7,27.38c-.38-.25-.71-.57-.93-.98-.61-1.13-.08-2.04,1.18-2.06,.89-.01,1.74,.17,2.6,.33,.32,.06,.55,.18,.75,.45,1.04,1.47,2.1,2.94,3.33,4.64-2.58-.5-4.89-1.04-6.93-2.38Zm10.63,10.06c-.34,.11-.55,.01-.73-.32-.71-1.27-1.52-2.47-2.38-3.63-.46-.62-.33-1.12,.29-1.53,.85-.55,1.8-.9,2.79-1.01,2.07-.23,3.28,1.22,2.75,3.21-.06,.23-.11,.46-.17,.69,.22,.28,.11,.51-.05,.75-.61,.93-1.46,1.51-2.5,1.84Zm5.99,1.27c-.38,1.33-2.25,3.02-3.34,3.02-.4,0-.67-.22-.92-.5-.51-.6-.85-1.31-1.27-1.97-.26-.42-.14-.55,.27-.68,1.32-.44,2.33-1.28,3-2.47,.26-.47,.45-.39,.8-.15,1.22,.84,1.74,1.79,1.46,2.75Zm2.84,3.17c-.95-.41-1.43-1.34-1.1-2.17,.3-.78,.4-1.58,.19-2.4-.36-1.41-1.34-2.35-2.51-3.1-.45-.28-.62-.58-.57-1.1,.08-.91-.2-1.75-.8-2.44-1.12-1.29-2.62-1.67-4.25-1.66-.36,0-.6,.01-.83-.32-1.38-1.96-2.81-3.88-4.17-5.84-.88-1.27-1.14-2.7-.62-4.16,1.02-2.88,2.11-5.73,3.21-8.58,.47-1.23,1.93-1.46,2.79-.46,.57,.66,1.04,1.41,1.56,2.11,.21,.28,.24,.49-.18,.57-1.41,.29-1.98,1.26-2.05,2.61,.08,1.58,.75,2.83,2.03,3.77,.64,.47,1.36,.76,2.05,1.12,1.25,.39,2.5,.75,3.8,.84,.66,.05,1.02,.33,1.38,.83,1.73,2.37,3.29,4.86,4.92,7.3,.79,1.17,.85,2.38,.44,3.64-.38,1.18-.84,2.33-1.28,3.49-.63,1.7-1.25,3.41-1.92,5.09-.36,.91-1.22,1.22-2.09,.86Zm30.85,72.44c-.27,.18-.38,.36-.32,.74,.69,4.67,.47,9.37,.18,14.05-.64,10.13-1.7,20.22-2.11,30.36-.02,.53-.16,.61-.67,.57-2.87-.23-5.74-.41-8.61-.62-10.3-.72-20.58-1.71-30.84-2.91-.57-.06-.67-.23-.64-.77,.19-4.72,.13-9.44-.04-14.17-.3-8.29-1.18-16.55-1.69-24.83-.37-5.87-.51-11.74,.61-17.56,1.2-6.25,4.03-11.6,8.7-15.97,4.33-4.05,9.4-6.89,14.77-9.25,.35,.09,.41,.42,.56,.67,7.3,12.48,14.59,24.97,21.87,37.45,.16,.26,.35,.5,.35,.83-.71,.47-1.41,.94-2.12,1.41Zm16.67-60.85s0,.01,0,.02t-.02,.02c.07,.99-.29,1.9-.57,2.82-.41,.12-.81,.24-1.21,.35-1.35,.35-2.62,1-4.02,1.17,0,.03,0,.05-.02,.07-.01,.04-.04,.05-.08,.06-.01,0-.03,0-.05,0-.05,.01-.1,0-.14,.02,.08-.06,.18-.1,.27-.16,0,0,0-.01,.02-.01,2.05-1.3,3.93-2.8,5.8-4.33v-.04h.03s.04-.07,.07-.1c0,.04,.02,.07,.02,.11-.03,0-.06-.01-.09-.01Zm2.49-15.6c-.04,.62-.09,1.24-.15,1.86-.11,1.24-.26,2.48-.43,3.72-.12,.91-.26,1.82-.4,2.72-.15,.95-.31,1.89-.47,2.83-.07,.41-.29,.72-.56,1.01-1.21,1.29-2.46,2.52-3.83,3.62-5.7,4.57-12.18,6.91-19.49,6.14-9.4-.99-16.61-6.07-22.86-12.79-.24-.26-.38-.45,.07-.66,.5-.22,.78-.67,.99-1.15,1.6-3.78,3.22-7.56,4.8-11.35,.69-1.68,.51-3.36-.44-4.88-1.99-3.18-4.06-6.31-6.08-9.47-.25-.4-.49-.58-.98-.61-1.91-.13-3.8-.38-5.54-1.26-.91-.47-1.71-1.06-1.92-2.15-.2-1.01,0-1.26,1.03-1.29,1.71-.05,3.37,.4,5.06,.48,3.68,.17,6,2.27,7.79,5.2,1.23,1.99,2.14,4.13,2.91,6.33,.17,.48,.32,.95,.75,1.32,1.97,1.71,4.09,3.22,6.44,4.38,3.93,1.94,8.06,2.72,12.42,2.13,3.7-.49,6.09-2.74,7.85-5.83,1.58-2.79,2.53-5.82,3.36-8.88,.2-.73,.34-.8,.94-.35,2.55,1.92,4.97,3.99,7.43,6,.39,.31,.53,.7,.64,1.15,.16,.66,.29,1.32,.4,1.99,.05,.33,.1,.67,.14,1,.08,.64,.14,1.28,.18,1.93,.02,.3,.04,.61,.04,.92,.02,.32,.03,.65,.03,.98,.02,.4,.02,.81,.02,1.21-.01,1.25-.06,2.5-.14,3.75Zm35.4,29.86c3.32-9.55,5.67-19.32,6.6-29.41,.48-5.28,.53-10.52-.99-15.68-.47-1.59-.44-1.6,.97-2.48,7.29-4.55,14.58-9.09,21.88-13.63,.38-.24,.65-.54,1.01,.15,5.04,9.73,7.75,20.05,7.79,31.03,0,4.84-.52,9.62-1.54,14.34-2.28,10.56-6.74,20.2-12.55,29.26-.34,.54-.59,.46-1.04,.2-7.23-4.24-14.46-8.47-21.71-12.67-.51-.3-.61-.56-.42-1.11Zm-27.81-93.75c-3.76-.05-6.67-1.54-9.1-4.07-2.66-2.75-4-6.22-5.19-9.76-.68-2.04-1.1-4.15-1.24-6.3-.04-.61,.06-.93,.79-.95,.75-.01,1.5-.18,2.24-.34,2.56-.52,4.93-1.62,7.38-2.48,1.37-.48,2.69-.53,4.08-.1,1.82,.57,3.6,1.22,5.33,2.03,.98,.46,1.94,.99,2.98,1.3,.71,.22,1.45,.26,1.8-.55,.26-.63,.74-.93,1.3-1.18,1.42-.63,2.93-.87,4.45-1.16,2.09-.41,4.46,.88,5.51,3.23,1.89,4.21-.49,8.8-5.11,9.72-.53,.1-.76,.32-.97,.77-.95,2.02-2.22,3.82-3.92,5.29-3.02,2.62-6.41,4.43-10.33,4.55Zm7.3,129.84c-.75-.01-.95-.6-.95-1.29-.01-3.45-.14-6.89-.39-10.34-.06-.71-.25-1.03-.96-1.24-3.13-.93-5.98-2.45-8.62-4.36-.77-.56-.97-1.17-.53-1.66,.56-.6,1.11-.35,1.68,.06,2.9,2.1,6.05,3.67,9.54,4.5,.49,.11,.63,.33,.67,.78,.29,3.19,.47,6.39,.55,9.34,0,1.14-.03,2.02,.01,2.9,.03,.74-.2,1.32-1,1.31Zm2.82-120.69c-3.92,1.92-8.45,1.17-11.53-1.27,5.8-4.23,12.33-6.04,19.62-6.33-2.29,3.22-4.7,5.92-8.09,7.6Zm49.03,241.6h0c.18-.08,.32-.14,.45-.19-.13,.06-.27,.11-.45,.19Zm29.88-29.46c-3.31,1.64-6.6,3.32-9.9,4.99-1.1,.56-2.2,1.11-3.3,1.66-1.81,.9-3.62,1.79-5.44,2.66-5.44,2.64-10.93,5.19-16.44,7.69-.11,.04-.21,.1-.3,.14-.27,.12-.52,.14-.79-.33-3.27-5.57-6.59-11.12-9.87-16.69-1.1-1.86-2.19-3.72-3.27-5.58-3.02-5.22-5.95-10.49-8.68-15.86-2.74-5.37-5.28-10.84-7.55-16.44-2.13-5.27-4.04-10.62-5.48-16.13,4.13-.72,8.27-1.44,12.41-2.18,7.91-1.41,15.82-2.84,23.73-4.26,2.62-.47,5.22-1.05,7.85-1.39,.04,.15,.09,.29,.11,.44,1.52,9.69,4.77,18.75,9.51,27.35,5.96,10.83,11.84,21.71,17.86,32.51,.44,.78,.33,1.03-.45,1.42Zm6.86,11.73c.18-.1,.31-.18,.39-.27-.07,.09-.2,.18-.39,.27Z"/><path class="cls-3" d="M220.06,251.4v.04s0-.01,.02-.02t0-.02h-.03Zm1.94-10.02c.17-1.24,.32-2.48,.43-3.72-.12,1.24-.26,2.48-.43,3.72Zm.72-9.33c0-.4,0-.81-.02-1.21,0,.4,0,.8,0,1.21,0,1.25-.05,2.5-.13,3.75,.08-1.25,.13-2.5,.14-3.75Z"/><path class="cls-3" d="M289.32,422.65h0c.18-.07,.32-.12,.45-.18-.13,.05-.27,.11-.45,.18Z"/><path class="cls-2" d="M203.42,312.25c.71-.47,1.41-.94,2.12-1.41,0-.33-.19-.57-.35-.83-7.28-12.48-14.57-24.97-21.87-37.45-.15-.25-.21-.58-.56-.67-5.37,2.36-10.44,5.2-14.77,9.25-4.67,4.37-7.5,9.72-8.7,15.97-1.12,5.82-.98,11.69-.61,17.56,.51,8.28,1.39,16.54,1.69,24.83,.17,4.73,.23,9.45,.04,14.17-.03,.54,.07,.71,.64,.77,10.26,1.2,20.54,2.19,30.84,2.91,2.87,.21,5.74,.39,8.61,.62,.51,.04,.65-.04,.67-.57,.41-10.14,1.47-20.23,2.11-30.36,.29-4.68,.51-9.38-.18-14.05-.06-.38,.05-.56,.32-.74Zm-35.59-13.34c-.14,.59-.28,1.18-.54,1.72-1,2.13-2.69,3.42-4.79,3.91-.62,.07-.91-.12-1-.53-.09-.44,.18-.64,.59-.74,2.43-.61,3.9-2.17,4.45-4.59,.1-.41,.25-.71,.71-.63,.45,.09,.69,.41,.58,.86Z"/><path class="cls-2" d="M319.65,391.78c-6.02-10.8-11.9-21.68-17.86-32.51-4.74-8.6-7.99-17.66-9.51-27.35-.02-.15-.07-.29-.11-.44-2.63,.34-5.23,.92-7.85,1.39-7.91,1.42-15.82,2.85-23.73,4.26-4.14,.74-8.28,1.46-12.41,2.18,1.44,5.51,3.35,10.86,5.48,16.13,2.27,5.6,4.81,11.07,7.55,16.44,2.74,5.37,5.66,10.64,8.69,15.86,1.08,1.86,2.17,3.72,3.26,5.58,3.28,5.57,6.6,11.12,9.87,16.69,.27,.47,.52,.45,.79,.33,.09-.04,.19-.1,.3-.14,5.51-2.5,11-5.05,16.44-7.69,1.82-.88,3.63-1.77,5.44-2.67,1.1-.55,2.2-1.1,3.3-1.65,3.3-1.67,6.59-3.35,9.9-4.99,.78-.39,.89-.64,.45-1.42Zm-59.51-35.21c-.22,.43-.46,.85-1.03,.58-.56-.27-.41-.69-.18-1.14,1.12-2.17,1.11-4.35-.06-6.5-.23-.44-.4-.86,.17-1.15,.59-.31,.82,.16,1.04,.56,.63,1.19,.99,2.46,.97,3.82,.03,1.36-.3,2.63-.91,3.83Z"/><path class="cls-2" d="M238.47,300.44c.03,.74-.2,1.32-1,1.31-.75-.01-.95-.6-.95-1.29-.01-3.45-.14-6.89-.39-10.34-.06-.71-.25-1.03-.96-1.24-3.13-.93-5.98-2.45-8.62-4.36-.77-.56-.97-1.17-.53-1.66,.56-.6,1.11-.35,1.68,.06,2.9,2.1,6.05,3.67,9.54,4.5,.49,.11,.63,.33,.67,.78,.29,3.19,.47,6.39,.55,9.34,0,1.14-.03,2.02,.01,2.9Z"/><path class="cls-2" d="M220.06,251.44c.07,.99-.29,1.9-.57,2.82-.41,.12-.81,.24-1.21,.35-1.35,.35-2.62,1-4.02,1.17h-.02s0-.01,.02-.01c2.05-1.3,3.93-2.8,5.8-4.33Z"/><path class="cls-2" d="M220.08,251.42s-.01,.01-.02,.02v-.04l.02,.02Z"/><path class="cls-1" d="M214.26,255.77h0s0,.06-.02,.08c-.01,.04-.04,.05-.08,.06-.01,0-.03,0-.05,0-.05,.01-.1,0-.14,.02,.08-.06,.18-.1,.27-.16,0,0,0-.01,.02-.01Z"/><path class="cls-2" d="M295.24,235.64c0,4.84-.52,9.62-1.54,14.34-2.28,10.56-6.74,20.2-12.55,29.26-.34,.54-.59,.46-1.04,.2-7.23-4.24-14.46-8.47-21.71-12.67-.51-.3-.61-.56-.42-1.11,3.32-9.55,5.67-19.32,6.6-29.41,.48-5.28,.53-10.52-.99-15.68-.47-1.59-.44-1.6,.97-2.48,7.29-4.55,14.58-9.09,21.88-13.63,.38-.24,.65-.54,1.01,.15,5.04,9.73,7.75,20.05,7.79,31.03Z"/><path class="cls-2" d="M222.72,232.05c-.01,1.25-.06,2.5-.14,3.75-.04,.62-.09,1.24-.15,1.86-.11,1.24-.26,2.48-.43,3.72-.12,.91-.26,1.82-.4,2.72-.15,.95-.31,1.89-.47,2.83-.07,.41-.29,.72-.56,1.01-1.21,1.29-2.46,2.52-3.83,3.62-5.7,4.57-12.18,6.91-19.49,6.14-9.4-.99-16.61-6.07-22.86-12.79-.24-.26-.38-.45,.07-.66,.5-.22,.78-.67,.99-1.15,1.6-3.78,3.22-7.56,4.8-11.35,.69-1.68,.51-3.36-.44-4.88-1.99-3.18-4.06-6.31-6.08-9.47-.25-.4-.49-.58-.98-.61-1.91-.13-3.8-.38-5.54-1.26-.91-.47-1.71-1.06-1.92-2.15-.2-1.01,0-1.26,1.03-1.29,1.71-.05,3.37,.4,5.06,.48,3.68,.17,6,2.27,7.79,5.2,1.23,1.99,2.14,4.13,2.91,6.33,.17,.48,.32,.95,.75,1.32,1.97,1.71,4.09,3.22,6.44,4.38,3.93,1.94,8.06,2.72,12.42,2.13,3.7-.49,6.09-2.74,7.85-5.83,1.58-2.79,2.53-5.82,3.36-8.88,.2-.73,.34-.8,.94-.35,2.55,1.92,4.97,3.99,7.43,6,.39,.31,.53,.7,.64,1.15,.16,.66,.29,1.32,.4,1.99,.05,.33,.1,.67,.14,1,.08,.64,.14,1.28,.18,1.93,.02,.3,.03,.61,.04,.92,.02,.32,.03,.65,.03,.98,.02,.4,.02,.81,.02,1.21Z"/><path class="cls-2" d="M250.5,151.58c-1.05-2.35-3.42-3.64-5.51-3.23-1.52,.29-3.03,.53-4.45,1.16-.56,.25-1.04,.55-1.3,1.18-.35,.81-1.09,.77-1.8,.55-1.04-.31-2-.84-2.98-1.3-1.73-.81-3.51-1.46-5.33-2.03-1.39-.43-2.71-.38-4.08,.1-2.45,.86-4.82,1.96-7.38,2.48-.74,.16-1.49,.33-2.24,.34-.73,.02-.83,.34-.79,.95,.14,2.15,.56,4.26,1.24,6.3,1.19,3.54,2.53,7.01,5.19,9.76,2.43,2.53,5.34,4.02,9.1,4.07,3.92-.12,7.31-1.93,10.33-4.55,1.7-1.47,2.97-3.27,3.92-5.29,.21-.45,.44-.67,.97-.77,4.62-.92,7-5.51,5.11-9.72Zm-27.02,13.66c-.34,.15-.61,.01-.77-.27-.21-.36-.36-.76-.53-1.15-.96-2.23-1.62-4.54-2.01-6.98,0-.39,.19-.68,.62-.72,.51-.05,.66,.32,.73,.74,.37,2.38,1.1,4.64,2.04,6.85,.11,.24,.26,.48,.33,.74,.11,.37-.04,.64-.41,.79Zm4.03-8.55c-.72,.04-1.37-.54-1.39-1.25-.02-.65,.56-1.29,1.22-1.34,.7-.05,1.36,.55,1.38,1.27,.02,.7-.51,1.28-1.21,1.32Zm19.55-4.62c-.75,.11-1.45,.4-2.08,.83-1.2,.83-1.95,1.95-2.18,3.41-.08,.49-.34,.76-.87,.68-.44-.06-.47-.39-.46-.74,.12-2.55,2.92-5.36,5.48-5.49,.43-.02,.89-.04,.97,.54,.09,.66-.38,.7-.86,.77Z"/><path class="cls-2" d="M177.86,230.37c-.38,1.18-.84,2.33-1.28,3.49-.63,1.7-1.25,3.41-1.92,5.09-.36,.91-1.22,1.22-2.09,.86-.95-.41-1.43-1.34-1.1-2.17,.3-.78,.4-1.58,.19-2.4-.36-1.41-1.34-2.35-2.51-3.1-.45-.28-.62-.58-.57-1.1,.08-.91-.2-1.75-.8-2.44-1.12-1.29-2.62-1.67-4.25-1.66-.36,0-.6,.01-.83-.32-1.38-1.96-2.81-3.88-4.17-5.84-.88-1.27-1.14-2.7-.62-4.16,1.02-2.88,2.11-5.73,3.21-8.58,.47-1.23,1.93-1.46,2.79-.46,.57,.66,1.04,1.41,1.56,2.11,.21,.28,.24,.49-.18,.57-1.41,.29-1.98,1.26-2.05,2.61-1.47,1.32-1.61,3.22-.35,4.65,1.15,1.3,3.09,1.41,4.43,.24,1.25,.39,2.5,.75,3.8,.84,.66,.05,1.02,.33,1.38,.83,1.73,2.37,3.29,4.86,4.92,7.3,.79,1.17,.85,2.38,.44,3.64Z"/><path class="cls-2" d="M248.38,173.46c-2.29,3.22-4.7,5.92-8.09,7.6-3.92,1.92-8.45,1.17-11.53-1.27,5.8-4.23,12.33-6.04,19.62-6.33Z"/><path class="cls-2" d="M166.46,232.09c-.06,.23-.11,.46-.17,.69,.22,.28,.11,.51-.05,.75-.61,.93-1.46,1.51-2.5,1.84-.34,.11-.55,.01-.73-.32-.71-1.27-1.52-2.47-2.38-3.63-.46-.62-.33-1.12,.29-1.53,.85-.55,1.8-.9,2.79-1.01,2.07-.23,3.28,1.22,2.75,3.21Z"/><path class="cls-2" d="M160.04,227.69c-2.58-.5-4.89-1.04-6.93-2.38-.38-.25-.71-.57-.93-.98-.61-1.13-.08-2.04,1.18-2.06,.89-.01,1.74,.17,2.6,.33,.32,.06,.55,.18,.75,.45,1.04,1.47,2.1,2.94,3.33,4.64Z"/><path class="cls-2" d="M169.73,236.64c-.38,1.33-2.25,3.02-3.34,3.02-.4,0-.67-.22-.92-.5-.51-.6-.85-1.31-1.27-1.97-.26-.42-.14-.55,.27-.68,1.32-.44,2.33-1.28,3-2.47,.26-.47,.45-.39,.8-.15,1.22,.84,1.74,1.79,1.46,2.75Z"/><path class="cls-4" d="M167.32,217.76c-1.34,1.17-3.28,1.06-4.43-.24-1.26-1.43-1.12-3.33,.35-4.65,.08,1.58,.75,2.83,2.03,3.77,.64,.47,1.36,.76,2.05,1.12Z"/><polygon class="cls-1" points="217.81 197.93 217.8 198.01 217.79 197.93 217.81 197.93"/><path class="cls-1" d="M220.09,251.4s0,.01,0,.02l-.02-.02h.03Z"/><path class="cls-1" d="M220.18,251.41s-.06-.01-.09-.01c.03-.03,.04-.07,.07-.1,0,.04,.02,.07,.02,.11Z"/><path class="cls-3" d="M289.77,422.47c-.13,.06-.27,.11-.45,.19h0c.18-.08,.32-.14,.45-.19Z"/><path class="cls-3" d="M162.5,304.55c2.1-.49,3.78-1.79,4.79-3.91,.25-.54,.4-1.13,.54-1.72,.11-.45-.13-.78-.58-.86-.46-.09-.61,.21-.7,.62-.56,2.42-2.03,3.98-4.45,4.59-.41,.1-.68,.3-.59,.74,.09,.4,.38,.6,1,.53Z"/><path class="cls-3" d="M261.05,352.74c.02-1.36-.34-2.63-.98-3.82-.21-.4-.45-.87-1.04-.56-.56,.29-.4,.71-.16,1.15,1.17,2.16,1.18,4.33,.06,6.5-.23,.45-.38,.87,.18,1.14,.57,.27,.81-.14,1.03-.57,.61-1.21,.94-2.48,.91-3.84Z"/><path class="cls-3" d="M220.17,156.84c.38,2.43,1.05,4.75,2.01,6.98,.17,.39,.32,.79,.53,1.15,.16,.28,.42,.42,.77,.27,.36-.16,.52-.43,.41-.8-.07-.26-.22-.49-.33-.74-.95-2.2-1.68-4.47-2.05-6.84-.07-.42-.22-.79-.73-.74-.43,.04-.62,.33-.62,.72Z"/><path d="M241.47,156.25c-.02,.35,.02,.68,.46,.75,.53,.08,.79-.19,.87-.69,.23-1.45,.97-2.57,2.18-3.4,.63-.43,1.33-.72,2.08-.83,.48-.07,.95-.11,.86-.77-.08-.58-.54-.57-.97-.54-2.56,.13-5.36,2.94-5.48,5.49Z"/><path class="cls-3" d="M226.12,155.44c.02,.71,.67,1.29,1.39,1.25,.7-.04,1.23-.62,1.21-1.32-.02-.71-.68-1.32-1.38-1.26-.67,.05-1.25,.69-1.22,1.34Z"/></g><g><path class="cls-3" d="M74.95,169.83c.15-.3,.39-.51,.72-.63,.33-.12,.67-.1,.99,.06l10.85,5.44c.33,.16,.54,.42,.64,.76,.1,.35,.07,.67-.08,.98-.17,.35-.42,.57-.75,.67-.32,.1-.65,.07-.97-.09l-10.85-5.44c-.33-.16-.54-.41-.65-.74-.11-.33-.07-.67,.1-1.02Zm4.13-8.26c.17-.35,.42-.57,.75-.68,.33-.1,.65-.07,.98,.09l10.85,5.43c.33,.16,.54,.41,.65,.74,.11,.33,.07,.67-.11,1.03-.15,.3-.39,.51-.72,.63-.33,.12-.66,.1-.99-.06l-10.85-5.44c-.33-.16-.54-.42-.64-.76-.1-.35-.07-.67,.08-.98Zm1.3,11.05l4.16-8.31,2.16,1.08-4.16,8.31-2.16-1.08Z"/><path class="cls-3" d="M88.84,151.82c.19-.31,.45-.5,.78-.57s.65-.02,.96,.17l7.62,4.65c1.1,.67,1.85,1.41,2.25,2.22,.4,.81,.54,1.64,.4,2.5-.13,.86-.46,1.72-.98,2.58-.23,.38-.51,.77-.83,1.15-.32,.39-.62,.69-.91,.89-.37,.26-.72,.39-1.03,.38s-.58-.13-.79-.37c-.28-.32-.41-.63-.39-.95,.02-.31,.16-.57,.41-.78,.17-.15,.42-.35,.73-.58,.31-.23,.59-.55,.84-.95,.33-.54,.53-1.04,.61-1.5,.07-.45-.01-.88-.25-1.28s-.67-.79-1.27-1.16l-1.2-.73,.66-.11c.27,.44,.44,.89,.51,1.35,.07,.46,.05,.94-.07,1.43-.12,.5-.35,1.01-.67,1.54-.38,.63-.87,1.09-1.44,1.38-.58,.29-1.21,.41-1.89,.35s-1.35-.29-2.02-.7l-5.24-3.19c-.31-.19-.51-.45-.6-.78s-.04-.65,.15-.96c.19-.31,.45-.5,.78-.57,.33-.07,.65-.02,.96,.17l4.59,2.8c.78,.47,1.43,.64,1.95,.49s.97-.52,1.34-1.12c.25-.41,.39-.81,.4-1.2,.01-.38-.09-.75-.32-1.1-.22-.35-.56-.66-1.02-.94l-4.59-2.8c-.31-.19-.51-.45-.59-.78-.09-.33-.04-.65,.15-.96Z"/><path class="cls-3" d="M93.6,144.45c.34-.47,.73-.85,1.16-1.14,.43-.29,.87-.49,1.3-.62,.43-.12,.83-.18,1.18-.18,.35,0,.61,.06,.76,.18l-.1,.6-1.24-.89c-.3-.21-.47-.49-.54-.82-.06-.33,.01-.65,.22-.94,.21-.29,.48-.47,.81-.52s.65,.03,.96,.25l7.58,5.46c.99,.71,1.63,1.49,1.92,2.34,.29,.85,.32,1.72,.1,2.6-.23,.88-.63,1.71-1.19,2.5-.16,.23-.4,.5-.72,.82-.32,.32-.63,.62-.95,.88-.32,.27-.57,.46-.76,.59-.39,.23-.75,.33-1.06,.3-.31-.03-.57-.17-.76-.43-.26-.34-.36-.66-.32-.97s.2-.56,.47-.74c.12-.09,.32-.22,.61-.41s.59-.4,.9-.65c.31-.25,.55-.49,.72-.73,.61-.85,.89-1.59,.84-2.24-.05-.65-.37-1.2-.98-1.63l-1.48-1.07,.3-.09c.15,.11,.27,.31,.37,.62,.1,.3,.16,.66,.17,1.07,.01,.41-.04,.85-.16,1.31-.12,.46-.32,.9-.61,1.3-.58,.8-1.3,1.38-2.17,1.73-.87,.35-1.79,.46-2.77,.32-.98-.14-1.93-.54-2.85-1.2-.93-.67-1.62-1.45-2.06-2.33-.44-.88-.64-1.79-.59-2.71,.05-.92,.36-1.77,.92-2.55Zm2.11,1.03c-.37,.51-.56,1.04-.59,1.61-.03,.56,.1,1.11,.38,1.63,.28,.53,.69,.98,1.23,1.38,.53,.38,1.09,.62,1.68,.72,.59,.1,1.14,.04,1.67-.16,.53-.2,.97-.56,1.34-1.07,.37-.52,.57-1.06,.6-1.62s-.1-1.11-.38-1.63c-.28-.53-.68-.98-1.22-1.36-.55-.39-1.11-.64-1.7-.73s-1.14-.04-1.67,.16c-.53,.2-.98,.56-1.35,1.08Z"/><path class="cls-3" d="M102.09,133.53c.38-.45,.79-.79,1.25-1.04,.46-.25,.9-.42,1.35-.51,.44-.09,.84-.12,1.19-.08s.6,.11,.75,.24l-.14,.59-1.17-.99c-.28-.24-.43-.52-.47-.86-.03-.34,.07-.64,.3-.92,.23-.28,.52-.43,.85-.45,.33-.03,.65,.08,.93,.33l7.12,6.06c.93,.79,1.5,1.62,1.72,2.49,.22,.87,.18,1.74-.12,2.6-.3,.86-.76,1.66-1.39,2.4-.18,.21-.44,.46-.78,.76s-.68,.56-1.02,.8c-.33,.24-.6,.42-.8,.52-.41,.2-.77,.27-1.08,.22-.31-.05-.55-.22-.72-.49-.23-.36-.31-.69-.24-1,.07-.31,.24-.54,.53-.7,.12-.08,.33-.2,.64-.36,.3-.16,.62-.35,.95-.58,.33-.22,.58-.45,.78-.67,.67-.79,1.01-1.52,1.02-2.17,0-.65-.28-1.22-.84-1.7l-1.39-1.19,.31-.07c.14,.12,.25,.33,.32,.64s.1,.67,.08,1.08c-.02,.41-.11,.84-.26,1.3-.15,.45-.39,.87-.72,1.25-.64,.75-1.4,1.27-2.3,1.55-.89,.28-1.82,.31-2.78,.1-.96-.22-1.88-.7-2.74-1.43-.88-.74-1.5-1.57-1.87-2.49-.37-.92-.49-1.83-.37-2.75,.13-.91,.5-1.74,1.12-2.47Zm2.02,1.2c-.41,.48-.64,.99-.71,1.55-.07,.56,0,1.11,.24,1.66,.23,.55,.61,1.04,1.12,1.47,.5,.43,1.04,.71,1.62,.85,.58,.14,1.13,.14,1.67-.02s1.01-.48,1.42-.96c.42-.49,.66-1.01,.73-1.57,.07-.56,0-1.11-.24-1.66-.23-.55-.6-1.03-1.1-1.46-.51-.44-1.06-.72-1.63-.87-.58-.14-1.13-.13-1.67,.03-.54,.16-1.02,.48-1.43,.97Z"/><path class="cls-3" d="M119.81,131.42c-.83,.84-1.73,1.39-2.69,1.66-.96,.27-1.91,.27-2.85,0-.93-.27-1.78-.78-2.55-1.54-.9-.88-1.48-1.82-1.76-2.81s-.29-1.94-.06-2.86c.24-.92,.68-1.7,1.33-2.36,.5-.5,1.07-.88,1.73-1.12,.65-.24,1.33-.36,2.04-.34,.71,.01,1.4,.15,2.07,.43,.68,.27,1.29,.67,1.82,1.2,.23,.25,.33,.53,.3,.86-.03,.32-.16,.61-.39,.84l-5.6,5.66-1.93-1.03,5.38-5.44-.02,.62-.4-.4c-.31-.27-.67-.42-1.08-.46-.41-.04-.82,0-1.22,.14-.4,.14-.76,.36-1.06,.67-.29,.3-.53,.61-.7,.95-.17,.34-.26,.69-.26,1.06,0,.38,.11,.78,.32,1.2,.21,.42,.56,.88,1.05,1.36,.54,.53,1.1,.87,1.7,1.02,.59,.15,1.16,.14,1.7-.02,.54-.16,1.01-.44,1.4-.83,.36-.37,.62-.69,.78-.96,.16-.28,.26-.52,.3-.74s.1-.41,.14-.58c.09-.27,.21-.48,.37-.63,.21-.22,.47-.32,.76-.32,.29,0,.54,.11,.74,.3,.27,.27,.38,.64,.32,1.14-.04,.47-.2,1.02-.5,1.65-.29,.62-.69,1.19-1.18,1.68Z"/><path class="cls-3" d="M125.64,123.84c.24,.27,.36,.58,.34,.92-.02,.35-.16,.64-.42,.88-.26,.23-.56,.34-.9,.32-.34-.02-.63-.17-.88-.44l-8.71-9.62c-.24-.27-.36-.58-.34-.92,.02-.35,.16-.64,.43-.88,.27-.24,.57-.35,.9-.32,.33,.03,.62,.18,.87,.45l8.72,9.62Z"/><path class="cls-3" d="M121.3,112.62c-.36,.31-.67,.46-.91,.47-.25,0-.5-.14-.75-.44l-.26-.3c-.26-.31-.36-.59-.29-.84,.07-.25,.27-.52,.61-.81,.37-.31,.68-.47,.93-.48,.25,0,.5,.14,.75,.44l.26,.3c.26,.31,.36,.59,.3,.84-.06,.25-.28,.52-.64,.83Zm8.29,7.81c.24,.28,.34,.59,.32,.93-.02,.34-.17,.63-.45,.86-.28,.23-.58,.33-.92,.3-.34-.03-.62-.19-.86-.47l-5.61-6.61c-.24-.28-.34-.58-.32-.93,.02-.34,.17-.62,.44-.86s.58-.33,.92-.3c.34,.03,.63,.19,.86,.47l5.61,6.61Z"/><path class="cls-3" d="M128.89,107.99c.47-.35,.95-.6,1.44-.75,.5-.15,.97-.22,1.42-.21,.45,0,.84,.07,1.18,.18,.33,.11,.56,.24,.68,.39l-.27,.54-.92-1.22c-.22-.29-.31-.6-.27-.94,.04-.34,.21-.62,.49-.83,.29-.22,.6-.3,.93-.26,.33,.05,.61,.22,.84,.52l5.64,7.45c.73,.97,1.12,1.91,1.14,2.81,.03,.9-.2,1.74-.67,2.51s-1.1,1.46-1.88,2.04c-.22,.17-.53,.36-.93,.57-.4,.21-.79,.4-1.17,.57-.38,.17-.68,.28-.9,.34-.44,.11-.81,.1-1.1-.02-.29-.12-.49-.33-.6-.64-.15-.4-.15-.74-.02-1.03,.13-.28,.35-.47,.67-.57,.14-.05,.37-.12,.7-.21,.33-.09,.68-.21,1.05-.36,.37-.15,.67-.31,.9-.48,.83-.63,1.32-1.26,1.46-1.9s0-1.25-.45-1.84l-1.1-1.46h.31c.11,.14,.17,.38,.17,.7,0,.32-.04,.68-.15,1.08-.11,.4-.29,.8-.54,1.21-.25,.41-.57,.76-.97,1.06-.79,.6-1.65,.93-2.58,1.02-.93,.08-1.84-.09-2.74-.51-.89-.42-1.68-1.08-2.37-1.99-.69-.91-1.12-1.86-1.28-2.83s-.08-1.89,.24-2.76c.32-.87,.86-1.59,1.63-2.17Zm1.71,1.6c-.5,.38-.84,.83-1.03,1.36-.19,.53-.23,1.09-.12,1.67s.37,1.14,.77,1.68c.4,.53,.86,.92,1.39,1.18,.53,.27,1.08,.38,1.64,.34,.56-.04,1.09-.25,1.59-.62,.51-.38,.86-.84,1.05-1.38,.19-.53,.23-1.09,.12-1.67-.11-.58-.36-1.14-.76-1.66-.41-.54-.87-.94-1.41-1.2-.53-.27-1.08-.38-1.64-.34-.56,.04-1.1,.25-1.61,.64Z"/><path class="cls-3" d="M149.3,94.56c.31-.18,.63-.23,.95-.15s.58,.29,.77,.62l4.5,7.66c.19,.31,.24,.64,.16,.97-.08,.33-.27,.59-.59,.77s-.63,.23-.96,.14c-.33-.09-.58-.29-.77-.61l-.52-.89,.49-.07c.09,.16,.12,.4,.08,.72s-.13,.68-.29,1.06c-.16,.38-.39,.77-.69,1.15-.3,.38-.68,.7-1.13,.97-.83,.49-1.7,.71-2.62,.68-.92-.04-1.8-.31-2.63-.84-.83-.53-1.54-1.28-2.11-2.25-.58-.99-.9-1.98-.95-2.96-.05-.98,.12-1.88,.53-2.7s1.01-1.46,1.81-1.93c.52-.3,1.04-.5,1.56-.6s1.01-.12,1.47-.06,.85,.15,1.17,.3c.32,.14,.53,.3,.63,.47l-.51,.62-.78-1.32c-.18-.31-.24-.64-.16-.97,.08-.33,.28-.59,.59-.77Zm1.1,10.19c.53-.31,.91-.71,1.15-1.21,.24-.5,.34-1.04,.29-1.63-.05-.59-.24-1.17-.57-1.73-.34-.58-.76-1.03-1.25-1.36-.49-.33-1.01-.51-1.57-.54-.55-.03-1.09,.11-1.62,.41-.51,.3-.89,.7-1.13,1.2-.24,.5-.33,1.04-.29,1.63,.05,.59,.24,1.17,.58,1.75,.33,.57,.75,1.02,1.24,1.34,.49,.33,1.01,.51,1.56,.54,.55,.03,1.08-.1,1.6-.4Z"/><path class="cls-3" d="M153.57,92.76l4.42-2.21c.3-.15,.6-.18,.9-.07,.3,.1,.52,.3,.67,.6,.14,.29,.17,.58,.06,.87-.1,.29-.3,.52-.6,.67l-4.41,2.21c-.3,.15-.6,.17-.9,.07-.3-.1-.52-.3-.67-.6-.14-.29-.17-.58-.06-.87,.1-.29,.3-.52,.6-.67Zm.82-3.35c.32-.16,.64-.19,.96-.07,.31,.12,.55,.34,.72,.66l4.19,8.35c.09,.18,.19,.3,.32,.38,.12,.08,.26,.11,.4,.1,.14,0,.28-.05,.42-.12,.15-.08,.27-.17,.37-.29,.1-.12,.22-.22,.39-.3,.17-.09,.37-.09,.6,0,.22,.09,.41,.28,.55,.57,.17,.35,.13,.73-.13,1.15-.27,.42-.62,.73-1.05,.95-.26,.13-.56,.25-.9,.37-.34,.12-.69,.16-1.05,.13-.36-.03-.73-.17-1.09-.43-.36-.26-.7-.69-1-1.3l-4.24-8.45c-.16-.33-.19-.65-.08-.98s.32-.57,.65-.73Z"/><path class="cls-3" d="M173.93,78.92c.34-.13,.66-.12,.96,.01,.31,.14,.53,.38,.66,.74l4.63,12.12c.13,.34,.13,.67,0,.98-.13,.31-.37,.54-.71,.66-.34,.13-.66,.12-.97-.03-.31-.14-.53-.38-.66-.73l-.37-.96h.5c.06,.18,.05,.42-.04,.73-.09,.31-.25,.64-.47,1-.22,.35-.51,.69-.87,1.02-.36,.33-.78,.58-1.28,.77-.9,.34-1.8,.42-2.7,.23-.9-.19-1.72-.61-2.46-1.26-.73-.66-1.3-1.52-1.71-2.57-.41-1.07-.56-2.1-.45-3.08,.11-.98,.43-1.84,.97-2.57,.54-.74,1.24-1.27,2.11-1.6,.56-.21,1.1-.32,1.64-.33,.53,0,1.02,.05,1.46,.18,.44,.13,.81,.29,1.1,.49,.29,.2,.47,.39,.54,.57l-.6,.52-2.01-5.26c-.13-.34-.13-.67,0-.98,.13-.31,.37-.54,.71-.66Zm.86,14.06c.57-.22,1.02-.55,1.33-1s.5-.97,.55-1.56c.05-.59-.04-1.19-.28-1.8-.24-.63-.57-1.14-1-1.55-.43-.4-.91-.67-1.45-.79-.54-.12-1.09-.08-1.66,.14-.56,.21-1,.54-1.32,1s-.5,.97-.55,1.56c-.05,.59,.04,1.2,.29,1.82,.23,.62,.57,1.12,1,1.53,.43,.41,.92,.67,1.45,.79,.54,.12,1.09,.08,1.64-.13Z"/><path class="cls-3" d="M188.01,79.01c.35-.1,.67-.07,.96,.1,.29,.17,.5,.43,.6,.78l1.51,5.12c.42,1.42,.36,2.67-.18,3.73-.54,1.07-1.55,1.82-3.03,2.25-1.48,.44-2.73,.36-3.76-.25-1.02-.6-1.75-1.62-2.17-3.04l-1.51-5.12c-.1-.35-.08-.68,.08-.98,.16-.3,.41-.5,.76-.61,.35-.1,.67-.07,.96,.1s.5,.43,.6,.78l1.51,5.12c.24,.82,.6,1.37,1.08,1.66,.48,.29,1.07,.33,1.79,.12,.73-.22,1.22-.58,1.46-1.08,.24-.5,.24-1.16,0-1.98l-1.51-5.12c-.1-.35-.08-.67,.08-.98,.16-.3,.41-.5,.75-.61Z"/><path class="cls-3" d="M199.38,85.98c-.17-.17-.28-.4-.32-.71-.04-.3,.09-.6,.39-.88,.19-.18,.42-.28,.66-.3,.25-.03,.51,.06,.79,.25,.47,.33,.94,.56,1.42,.7,.48,.14,1.05,.15,1.7,.03,.2-.05,.42-.12,.66-.22,.24-.09,.43-.24,.58-.45,.15-.21,.2-.49,.13-.85-.06-.3-.2-.52-.44-.67-.24-.14-.54-.24-.89-.3-.36-.06-.75-.11-1.18-.14-.45-.05-.91-.1-1.38-.17-.47-.07-.92-.19-1.33-.36-.41-.17-.77-.44-1.08-.79-.31-.36-.52-.84-.63-1.44-.13-.69-.05-1.31,.25-1.86,.29-.55,.72-1.02,1.28-1.39,.56-.37,1.17-.62,1.84-.75,.42-.08,.88-.11,1.36-.09,.48,.02,.96,.1,1.42,.25,.47,.15,.88,.38,1.23,.7,.19,.18,.32,.41,.4,.69,.08,.28,0,.57-.24,.86-.17,.2-.4,.32-.68,.35-.28,.03-.52-.02-.73-.15-.29-.26-.64-.44-1.07-.55-.42-.11-.89-.11-1.39-.02-.21,.04-.42,.1-.65,.2-.23,.09-.42,.23-.57,.43-.15,.19-.19,.46-.13,.8,.06,.32,.21,.55,.45,.7,.24,.15,.54,.25,.91,.3,.37,.05,.76,.1,1.18,.13,.43,.03,.87,.09,1.32,.16,.45,.07,.88,.2,1.28,.38s.75,.45,1.04,.8c.29,.35,.49,.83,.61,1.44,.13,.7,.04,1.34-.28,1.91-.32,.57-.76,1.04-1.33,1.41-.57,.37-1.17,.61-1.81,.73-.81,.15-1.64,.16-2.5,.03-.86-.13-1.62-.51-2.29-1.12Z"/><path class="cls-3" d="M208.78,74.91l4.9-.62c.33-.04,.62,.03,.87,.23,.25,.2,.39,.46,.44,.79,.04,.32-.04,.6-.23,.84-.19,.24-.46,.39-.79,.43l-4.9,.62c-.33,.04-.62-.03-.87-.23-.25-.19-.39-.46-.44-.79-.04-.32,.04-.6,.23-.84,.19-.24,.46-.38,.79-.43Zm1.88-2.88c.36-.05,.67,.04,.92,.25s.41,.5,.46,.86l1.18,9.27c.02,.2,.08,.35,.17,.46,.09,.12,.21,.19,.34,.23,.14,.04,.28,.05,.43,.03,.17-.02,.31-.07,.44-.15s.28-.13,.46-.15c.19-.03,.38,.04,.56,.2s.29,.4,.33,.72c.05,.39-.12,.74-.51,1.04-.39,.3-.82,.49-1.31,.55-.29,.04-.61,.05-.97,.05-.36,0-.7-.08-1.04-.23-.33-.15-.63-.4-.89-.77-.26-.36-.43-.88-.51-1.56l-1.19-9.38c-.05-.36,.04-.68,.25-.95,.21-.27,.49-.43,.85-.48Z"/><path class="cls-3" d="M226.57,72.86c.36-.02,.67,.08,.92,.3,.25,.22,.39,.52,.41,.9l.54,8.87c.02,.36-.08,.67-.3,.93-.22,.26-.51,.4-.87,.42s-.67-.08-.92-.31c-.25-.23-.39-.53-.41-.89l-.06-1.03,.47,.16c.01,.18-.07,.41-.25,.68-.18,.27-.43,.54-.74,.81s-.7,.51-1.14,.71c-.44,.2-.92,.32-1.45,.35-.96,.06-1.84-.14-2.65-.59s-1.46-1.1-1.97-1.94c-.5-.85-.79-1.83-.86-2.97-.07-1.14,.1-2.17,.49-3.07,.4-.9,.96-1.62,1.7-2.16,.73-.54,1.56-.84,2.49-.9,.6-.04,1.15,.02,1.66,.17,.51,.15,.96,.36,1.34,.61,.38,.26,.69,.52,.9,.8,.22,.28,.33,.51,.35,.71l-.73,.32-.09-1.53c-.02-.36,.08-.67,.3-.93,.22-.26,.51-.4,.87-.42Zm-3.64,9.58c.61-.04,1.14-.22,1.58-.56,.44-.33,.77-.78,1-1.32,.22-.55,.32-1.15,.28-1.8-.04-.67-.21-1.26-.49-1.78s-.67-.91-1.15-1.19-1.02-.4-1.63-.36c-.6,.04-1.11,.22-1.55,.56-.44,.34-.77,.78-1,1.32s-.32,1.16-.28,1.83c.04,.66,.2,1.24,.49,1.76,.29,.52,.67,.91,1.15,1.19,.48,.28,1.01,.4,1.61,.37Z"/><path class="cls-3" d="M232.43,84.2c-.36,0-.66-.13-.89-.38-.23-.25-.35-.55-.34-.92l.21-12.98c0-.36,.13-.67,.37-.91,.24-.24,.54-.36,.9-.35,.36,0,.66,.13,.89,.38,.23,.25,.34,.55,.34,.92l-.21,12.98c0,.36-.13,.67-.37,.91-.24,.24-.54,.36-.9,.35Zm6.81-11.13c.32,0,.59,.14,.83,.41,.23,.27,.35,.53,.34,.78,0,.34-.18,.65-.52,.94l-6.37,5.71-.06-2.9,4.85-4.56c.27-.26,.58-.39,.92-.38Zm.13,11.22c-.36,0-.67-.15-.91-.44l-3.79-4.18,1.92-1.73,3.69,4.18c.26,.28,.39,.6,.38,.95,0,.36-.15,.66-.44,.88-.29,.23-.57,.34-.85,.33Z"/><path class="cls-3" d="M243.9,84.57c-.36-.03-.65-.18-.86-.45-.21-.26-.3-.58-.27-.94l1.15-12.93c.03-.36,.18-.66,.43-.88,.26-.22,.57-.32,.92-.29,.36,.03,.65,.18,.86,.45,.21,.27,.3,.58,.27,.94l-1.15,12.93c-.03,.36-.18,.66-.43,.88-.26,.22-.57,.32-.93,.29Zm7.6-10.6c.32,.03,.58,.19,.79,.47,.21,.29,.31,.55,.28,.8-.03,.34-.22,.63-.58,.9l-6.76,5.24,.15-2.89,5.17-4.2c.29-.24,.6-.35,.95-.32Zm-.68,11.2c-.36-.03-.65-.2-.88-.5l-3.48-4.44,2.05-1.59,3.37,4.43c.24,.3,.34,.63,.31,.98-.03,.36-.2,.65-.5,.85-.3,.21-.59,.29-.87,.27Z"/><path class="cls-3" d="M262.26,85.65c-.06,.36-.23,.64-.51,.84-.27,.2-.59,.27-.95,.21-.36-.06-.63-.24-.82-.52-.19-.28-.25-.6-.19-.96l1.52-8.54c.06-.36,.23-.64,.51-.84,.28-.2,.59-.27,.95-.2,.36,.06,.63,.24,.82,.52,.19,.28,.25,.6,.19,.96l-1.52,8.54Zm.73-11.37c-.46-.08-.78-.22-.94-.4-.16-.19-.21-.47-.14-.86l.07-.39c.07-.4,.22-.65,.46-.76s.58-.12,1.01-.04c.48,.08,.8,.22,.97,.41,.16,.19,.21,.47,.14,.86l-.07,.39c-.07,.4-.22,.65-.45,.76-.23,.11-.58,.12-1.04,.04Z"/><path class="cls-3" d="M272.8,77.51c1,.23,1.71,.62,2.13,1.17,.42,.54,.65,1.19,.68,1.94s-.05,1.55-.25,2.41l-1.22,5.23c-.08,.36-.27,.62-.55,.81-.29,.18-.6,.24-.96,.15-.35-.08-.61-.27-.79-.56-.17-.29-.22-.62-.14-.97l1.22-5.23c.11-.45,.14-.87,.11-1.26-.03-.39-.17-.72-.42-1.01-.25-.29-.65-.5-1.2-.62-.54-.13-1.02-.12-1.45,0-.42,.13-.78,.36-1.06,.67-.28,.32-.47,.7-.58,1.15l-1.22,5.23c-.08,.36-.27,.62-.55,.81-.29,.19-.6,.24-.96,.15s-.62-.27-.79-.56c-.17-.29-.22-.62-.14-.97l1.97-8.45c.08-.36,.27-.62,.55-.81,.29-.19,.6-.24,.96-.15,.35,.08,.61,.27,.79,.56,.17,.29,.22,.62,.14,.97l-.21,.88-.29-.13c.17-.2,.41-.41,.7-.62,.29-.21,.62-.4,.99-.56,.36-.16,.76-.27,1.19-.32,.43-.05,.87-.02,1.33,.08Z"/><path class="cls-3" d="M285.34,81.03c.98,.31,1.66,.75,2.04,1.33,.38,.57,.56,1.24,.53,1.98s-.17,1.54-.44,2.38l-1.62,5.13c-.11,.35-.32,.6-.61,.76-.3,.16-.62,.19-.96,.08-.34-.11-.59-.32-.74-.62-.15-.3-.17-.63-.06-.98l1.62-5.13c.14-.44,.21-.86,.21-1.24,0-.39-.11-.74-.34-1.04-.22-.3-.61-.54-1.15-.71-.53-.17-1.01-.2-1.44-.1-.43,.1-.8,.29-1.1,.59-.3,.29-.53,.66-.66,1.1l-1.62,5.13c-.11,.35-.31,.6-.61,.76s-.62,.19-.97,.08c-.34-.11-.59-.31-.74-.62-.15-.3-.17-.63-.06-.98l2.61-8.27c.11-.35,.31-.6,.61-.77,.3-.16,.62-.19,.97-.08s.59,.32,.74,.62c.15,.3,.17,.63,.06,.98l-.27,.86-.28-.15c.19-.19,.44-.38,.75-.57,.31-.19,.65-.35,1.03-.48,.38-.13,.78-.21,1.21-.22,.43-.02,.87,.04,1.32,.19Z"/><path class="cls-3" d="M299.77,92.69c-.43,1.06-1.04,1.91-1.84,2.53-.8,.62-1.68,1-2.66,1.14-.98,.13-1.95,0-2.93-.39-.98-.4-1.77-.98-2.38-1.75-.61-.77-.99-1.66-1.13-2.66-.14-1,0-2.04,.43-3.1,.43-1.06,1.04-1.91,1.84-2.53,.8-.62,1.69-1,2.66-1.15,.98-.14,1.96-.01,2.94,.38,.98,.4,1.77,.98,2.38,1.76,.61,.78,.98,1.67,1.12,2.67,.14,1,0,2.04-.43,3.1Zm-2.32-.94c.27-.66,.37-1.29,.3-1.88-.07-.59-.27-1.12-.61-1.57-.33-.45-.77-.79-1.31-1-.54-.22-1.09-.28-1.64-.19-.55,.09-1.06,.33-1.52,.71s-.83,.9-1.09,1.56c-.26,.65-.36,1.27-.29,1.86,.07,.59,.27,1.12,.6,1.57,.33,.45,.77,.79,1.31,1.01,.54,.22,1.09,.28,1.64,.19,.56-.09,1.06-.33,1.52-.71,.46-.38,.82-.89,1.08-1.54Z"/><path class="cls-3" d="M309.81,91.07c.99,.51,1.59,1.13,1.81,1.86,.22,.72,.2,1.5-.04,2.33l-.23-.33,.3-.22c.3-.21,.68-.4,1.17-.56,.48-.17,1-.25,1.55-.25,.56,0,1.11,.14,1.65,.42,.89,.46,1.46,1.01,1.72,1.63,.26,.63,.31,1.3,.15,2.03-.16,.73-.45,1.48-.86,2.27l-2.49,4.77c-.17,.32-.41,.54-.74,.65-.32,.11-.64,.08-.96-.09-.32-.17-.53-.41-.62-.74-.09-.33-.06-.65,.11-.97l2.49-4.77c.21-.41,.36-.8,.43-1.18,.07-.38,.03-.74-.12-1.07-.16-.33-.47-.63-.95-.88-.47-.25-.92-.36-1.36-.33-.44,.03-.82,.16-1.16,.4-.34,.24-.61,.57-.83,.98l-2.49,4.77c-.17,.32-.41,.54-.74,.64-.32,.11-.64,.08-.96-.09-.32-.17-.53-.41-.62-.74-.1-.33-.06-.65,.11-.97l2.49-4.77c.21-.41,.36-.8,.43-1.18,.07-.38,.03-.74-.12-1.07-.16-.33-.47-.62-.95-.88-.47-.24-.92-.35-1.36-.33-.44,.03-.82,.16-1.16,.4s-.61,.57-.83,.98l-2.49,4.77c-.17,.32-.42,.54-.74,.65-.32,.11-.64,.08-.96-.09s-.53-.41-.62-.74c-.1-.32-.06-.65,.11-.97l4.02-7.69c.17-.32,.41-.54,.74-.65,.32-.11,.64-.08,.96,.09,.32,.17,.53,.41,.62,.74,.1,.33,.06,.65-.11,.97l-.42,.8-.25-.2c.22-.15,.49-.3,.82-.44,.32-.14,.68-.24,1.07-.3,.39-.06,.8-.07,1.21-.02,.41,.05,.82,.18,1.23,.39Z"/><path class="cls-3" d="M321.87,111.4c-.33-.22-.53-.49-.59-.79-.06-.3,.03-.62,.25-.96l.2-.29c.23-.34,.49-.54,.79-.59,.3-.06,.62,.02,.95,.25l.22,.15c.33,.23,.53,.49,.59,.79,.06,.3-.03,.62-.25,.96l-.2,.3c-.23,.34-.49,.53-.79,.59-.3,.06-.62-.02-.95-.25l-.23-.15Zm4.6-6.8c-.34-.23-.53-.49-.59-.79-.06-.3,.03-.62,.26-.96l.2-.29c.23-.34,.49-.53,.79-.59,.3-.06,.62,.02,.95,.25l.22,.15c.33,.23,.53,.49,.59,.79,.06,.3-.03,.62-.25,.96l-.2,.3c-.23,.34-.49,.53-.79,.59-.3,.06-.62-.02-.95-.25l-.22-.15Z"/><path class="cls-3" d="M323.06,116.85c-.27-.2-.4-.45-.4-.76,0-.31,.07-.55,.21-.74,.2-.27,.48-.41,.85-.42,1.02-.03,1.97-.2,2.85-.52,.88-.32,1.69-.75,2.41-1.31,.73-.56,1.37-1.21,1.93-1.97,.56-.75,1-1.56,1.34-2.43,.33-.87,.53-1.77,.57-2.71,.04-.94-.09-1.89-.42-2.86-.11-.34-.06-.65,.15-.94,.15-.2,.38-.34,.68-.41,.3-.07,.57-.02,.81,.15,.17,.12,.29,.28,.35,.47,.44,1.21,.67,2.41,.69,3.6,.02,1.19-.15,2.35-.51,3.47-.36,1.12-.9,2.18-1.63,3.16-.72,.98-1.57,1.81-2.53,2.49-.97,.68-2.02,1.19-3.16,1.52-1.14,.33-2.35,.47-3.64,.41-.2,0-.38-.07-.55-.2Z"/></g></g></g></svg>