<?xml version="1.0" encoding="UTF-8"?><svg id="Layer_2" xmlns="http://www.w3.org/2000/svg" viewBox="0 0 97.7 98.25"><defs><style>.cls-1,.cls-2{fill:#1e1e1e;}.cls-2{fill-rule:evenodd;}</style></defs><g id="Layer_3"><g id="X_simple_2"><path class="cls-2" d="M96.93,97.51c-.98,.99-2.68,.99-3.67,0L48.85,52.86,4.44,97.51c-.99,.99-2.69,.99-3.67,0-1.03-1.03-1.03-2.71,0-3.75L45.15,49.14,.77,4.52C-.26,3.49-.26,1.8,.77,.77c.49-.5,1.14-.77,1.83-.77s1.35,.27,1.84,.77L48.85,45.42,93.26,.77c.99-.99,2.69-.99,3.67,0,1.03,1.03,1.03,2.72,0,3.75L52.55,49.14l44.38,44.62c1.03,1.04,1.03,2.72,0,3.75Z"/><path class="cls-1" d="M96.93,93.76c1.03,1.04,1.03,2.72,0,3.75-.98,.99-2.68,.99-3.67,0L48.85,52.86,4.44,97.51c-.99,.99-2.69,.99-3.67,0-1.03-1.03-1.03-2.71,0-3.75L45.15,49.14,.77,4.52C-.26,3.49-.26,1.8,.77,.77c.49-.5,1.14-.77,1.83-.77s1.35,.27,1.84,.77L48.85,45.42,93.26,.77c.99-.99,2.69-.99,3.67,0,1.03,1.03,1.03,2.72,0,3.75L52.55,49.14l44.38,44.62Z"/></g></g></svg>