<?xml version="1.0" encoding="UTF-8"?><svg id="Layer_2" xmlns="http://www.w3.org/2000/svg" viewBox="0 0 179 179"><defs><style>.cls-1{fill:#f5efee;}.cls-2{fill:#1e1e1e;}</style></defs><g id="Layer_3"><rect class="cls-1" width="179" height="179" rx="24.79" ry="24.79"/><path class="cls-2" d="M115.17,50.27c2.43,0,4.43,.79,6.02,2.38,1.59,1.59,2.38,3.64,2.38,6.16v59.24c0,2.43-.79,4.46-2.38,6.09-1.59,1.63-3.6,2.45-6.02,2.45s-4.44-.82-6.02-2.45c-1.59-1.63-2.38-3.66-2.38-6.09v-6.86l3.08,1.26c0,1.21-.65,2.69-1.96,4.41-1.31,1.73-3.08,3.43-5.32,5.11-2.24,1.68-4.88,3.11-7.91,4.27-3.04,1.17-6.33,1.75-9.87,1.75-6.44,0-12.28-1.66-17.51-4.97-5.23-3.31-9.36-7.89-12.39-13.73-3.04-5.83-4.55-12.53-4.55-20.1s1.52-14.4,4.55-20.24c3.03-5.83,7.12-10.41,12.25-13.73,5.13-3.31,10.83-4.97,17.09-4.97,4.01,0,7.7,.61,11.06,1.82,3.36,1.21,6.28,2.76,8.75,4.62,2.47,1.87,4.39,3.76,5.74,5.67,1.35,1.91,2.03,3.53,2.03,4.83l-5.04,1.82v-10.22c0-2.43,.79-4.46,2.38-6.09,1.59-1.63,3.59-2.45,6.02-2.45Zm-28.29,62.32c4.11,0,7.7-1.03,10.78-3.08,3.08-2.05,5.48-4.85,7.21-8.4,1.73-3.55,2.59-7.51,2.59-11.9s-.86-8.49-2.59-12.04c-1.73-3.55-4.13-6.35-7.21-8.4-3.08-2.05-6.68-3.08-10.78-3.08s-7.56,1.03-10.64,3.08c-3.08,2.05-5.49,4.86-7.21,8.4-1.73,3.55-2.59,7.56-2.59,12.04s.86,8.36,2.59,11.9c1.73,3.55,4.13,6.35,7.21,8.4,3.08,2.05,6.63,3.08,10.64,3.08Z"/></g></svg>