<?xml version="1.0" encoding="UTF-8"?><svg id="Layer_2" xmlns="http://www.w3.org/2000/svg" viewBox="0 0 668.84 668.84"><defs><style>.cls-1{fill:#b3eacb;}</style></defs><g id="Layer_3"><path class="cls-1" d="M668.7,360.62c-1.71,21.86-19.25,40.61-24.95,60.94-5.88,20.96-.79,46.08-10.44,65.02-9.82,19.28-33.21,29.9-46.46,46.68-13.35,16.91-18.26,42.1-34.58,56.05s-41.97,14.88-60.75,25.42c-18.64,10.47-32.78,31.92-53.35,38.62-20.22,6.59-44.24-2.36-65.86,.18-20.98,2.47-42.23,16.87-64.09,15.15-21.86-1.71-40.61-19.25-60.94-24.95s-46.08-.79-65.02-10.44c-19.28-9.82-29.9-33.21-46.68-46.46-16.91-13.35-42.1-18.26-56.05-34.58s-14.88-41.97-25.42-60.75-31.92-32.78-38.62-53.35c-6.59-20.22,2.36-44.24-.18-65.86S-1.57,330.07,.14,308.22c1.71-21.86,19.25-40.61,24.95-60.94s.79-46.08,10.44-65.02c9.82-19.28,33.21-29.9,46.46-46.68s18.26-42.1,34.58-56.05c16.32-13.95,41.97-14.88,60.75-25.42,18.64-10.47,32.78-31.92,53.35-38.62,20.22-6.59,44.24,2.36,65.86-.18S338.77-1.57,360.62,.14c21.86,1.71,40.61,19.25,60.94,24.95s46.08,.79,65.02,10.44c19.28,9.82,29.9,33.21,46.68,46.46s42.1,18.26,56.05,34.58c13.95,16.32,14.88,41.97,25.42,60.75,10.47,18.64,31.92,32.78,38.62,53.35,6.59,20.22-2.36,44.24,.18,65.86s16.87,42.23,15.15,64.09Z"/></g></svg>