<?xml version="1.0" encoding="UTF-8"?><svg id="Layer_2" xmlns="http://www.w3.org/2000/svg" viewBox="0 0 72.34 70.65"><defs><style>.cls-1{fill:#1e1e1e;}</style></defs><g id="Layer_3"><g id="AZSZDQ.tif"><path class="cls-1" d="M35.04,0c.75,0,1.51,0,2.26,0,.28,.04,.55,.1,.83,.11,3.43,.15,6.78,.77,10,1.93,7.42,2.67,13.42,7.22,17.89,13.72,2.96,4.3,4.93,9.02,5.77,14.18,.21,1.32,.37,2.64,.55,3.96v4.24c-.16,1.35-.26,2.71-.48,4.05-.73,4.46-2.24,8.63-4.59,12.49-2.7,4.43-6.12,8.21-10.38,11.2-2.95,2.07-6.17,3.57-9.56,4.75h-.85c-1.02-.44-1.33-1.24-1.32-2.31,0-3.7,0-7.39-.11-11.09-.05-1.65-.64-3.17-1.73-4.46-.16-.19-.33-.37-.53-.6,.19-.03,.27-.05,.36-.06,2.57-.35,5.11-.8,7.48-1.94,2.58-1.24,4.8-2.87,6.23-5.43,1.36-2.45,2.01-5.1,2.27-7.87,.42-4.41-.28-8.49-3.31-11.94-.14-.15-.22-.48-.15-.67,.9-2.57,.77-5.13,.02-7.7-.51-1.74-.8-1.93-2.57-1.57-.05,0-.09,.02-.14,.04-2.56,.66-4.88,1.84-7.07,3.27-.47,.3-.88,.39-1.44,.25-5.51-1.4-11.04-1.4-16.55-.01-.55,.14-.95,.05-1.45-.21-1.73-.93-3.49-1.84-5.28-2.66-1.11-.51-2.29-.87-3.55-.71-.21,.03-.51,.19-.58,.36-1.07,2.85-1.46,5.74-.44,8.69,.16,.46,.09,.76-.22,1.12-1.44,1.64-2.38,3.53-2.89,5.66-.55,2.31-.47,4.63-.2,6.95,.32,2.79,1.1,5.45,2.68,7.8,2.22,3.29,5.53,4.93,9.25,5.88,1.38,.35,2.79,.54,4.28,.82-1.28,1.27-1.91,2.81-2.21,4.51-.02,.13-.15,.31-.27,.36-2.08,.84-4.22,1.24-6.39,.49-1.67-.57-2.84-1.81-3.71-3.32-.85-1.47-2.02-2.59-3.54-3.35-1.01-.5-2.06-.81-3.2-.52-.64,.16-.77,.44-.37,.94,.36,.45,.83,.82,1.26,1.21,.65,.6,1.45,1.1,1.94,1.81,.78,1.13,1.47,2.36,2.02,3.62,.95,2.19,2.6,3.49,4.86,4.02,1.98,.46,4.01,.55,6.04,.28,.39-.05,.77-.12,1.3-.2,0,2.13-.03,4.18,.01,6.22,.02,1.1-.32,1.92-1.38,2.35h-.85c-2.78-.96-5.5-2.08-7.97-3.7C8.16,61.14,2.53,53.11,.57,42.61,.3,41.14,.19,39.64,0,38.15c0-1.41,0-2.83,0-4.24,.04-.23,.11-.45,.13-.68,.4-5.14,1.78-9.99,4.35-14.47C10.38,8.48,19.17,2.31,30.91,.43c1.36-.22,2.75-.29,4.13-.43Z"/></g></g></svg>