<?xml version="1.0" encoding="UTF-8"?><svg id="Layer_2" xmlns="http://www.w3.org/2000/svg" viewBox="0 0 17.72 17.72"><defs><style>.cls-1{fill:#2d2d2d;opacity:.5;}</style></defs><g id="Layer_3"><path class="cls-1" d="M8.86,0C3.98,0,0,3.98,0,8.86s3.98,8.86,8.86,8.86,8.86-3.98,8.86-8.86S13.74,0,8.86,0Zm0,16.16c-4.02,0-7.3-3.28-7.3-7.3S4.84,1.56,8.86,1.56s7.3,3.28,7.3,7.3-3.28,7.3-7.3,7.3Z"/><path class="cls-1" d="M9.64,5.4c0,.43-.35,.78-.78,.78s-.78-.35-.78-.78,.35-.78,.78-.78,.78,.35,.78,.78Z"/><path class="cls-1" d="M9.64,8.89v3.55c0,.37-.3,.66-.66,.66h-.24c-.36,0-.66-.29-.66-.66v-3.55c0-.36,.3-.65,.66-.65h.24c.36,0,.66,.29,.66,.65Z"/></g></svg>