<?xml version="1.0" encoding="UTF-8"?><svg id="Layer_2" xmlns="http://www.w3.org/2000/svg" viewBox="0 0 91.33 76.11"><defs><style>.cls-1{fill:#1e1e1e;fill-rule:evenodd;}</style></defs><g id="Layer_3"><g id="menu_1"><path class="cls-1" d="M7.61,15.22H83.72c4.19,0,7.61-3.42,7.61-7.61s-3.42-7.61-7.61-7.61H7.61C3.42,0,0,3.42,0,7.61s3.42,7.61,7.61,7.61Zm76.11,15.22H7.61c-4.19,0-7.61,3.42-7.61,7.61s3.42,7.61,7.61,7.61H83.72c4.19,0,7.61-3.42,7.61-7.61s-3.42-7.61-7.61-7.61Zm0,30.44H7.61c-4.19,0-7.61,3.42-7.61,7.61s3.42,7.61,7.61,7.61H83.72c4.19,0,7.61-3.42,7.61-7.61s-3.42-7.61-7.61-7.61Z"/></g></g></svg>