<?xml version="1.0" encoding="UTF-8"?><svg id="Layer_2" xmlns="http://www.w3.org/2000/svg" viewBox="0 0 118.25 117.25"><defs><style>.cls-1{fill:#f5efee;font-family:Quicksand-Medium, Quicksand;font-size:19px;font-variation-settings:'wght' 500;font-weight:500;}</style></defs><g id="Layer_3"><text class="cls-1" transform="translate(80.39 19.92) rotate(39.45)"><tspan x="0" y="0">M</tspan></text><text class="cls-1" transform="translate(91.68 29.51) rotate(55.74)"><tspan x="0" y="0">e</tspan></text><text class="cls-1" transform="translate(97.28 37.9) rotate(67.12)"><tspan x="0" y="0">r</tspan></text><text class="cls-1" transform="translate(100.03 44.56) rotate(75.17)"><tspan x="0" y="0"> </tspan></text><text class="cls-1" transform="translate(101.55 49.01) rotate(85.51)"><tspan x="0" y="0">o</tspan></text><text class="cls-1" transform="translate(102.98 59.55) rotate(103.27)"><tspan x="0" y="0">m</tspan></text><text class="cls-1" transform="translate(98.54 75.55) rotate(117.38)"><tspan x="0" y="0"> </tspan></text><text class="cls-1" transform="translate(97.15 80.02) rotate(131.41)"><tspan x="0" y="0">m</tspan></text><text class="cls-1" transform="translate(85.98 92.13) rotate(148.76)"><tspan x="0" y="0">e</tspan></text><text class="cls-1" transform="translate(77.58 97.42) rotate(162.72)"><tspan x="0" y="0">g</tspan></text><text class="cls-1" transform="translate(66.76 100.52) rotate(173.34)"><tspan x="0" y="0"> </tspan></text><text class="cls-1" transform="translate(61.95 101.08) rotate(179.07)"><tspan x="0" y="0"> </tspan></text><text class="cls-1" transform="translate(57.04 101.15) rotate(-173.82)"><tspan x="0" y="0"> </tspan></text><text class="cls-1" transform="translate(52.19 100.64) rotate(-167.31)"><tspan x="0" y="0"> </tspan></text><text class="cls-1" transform="translate(47.45 99.6) rotate(-160.8)"><tspan x="0" y="0"> </tspan></text><text class="cls-1" transform="translate(42.84 98.01) rotate(-154.27)"><tspan x="0" y="0"> </tspan></text><text class="cls-1" transform="translate(38.39 96.6) rotate(-141.32)"><tspan x="0" y="0">M</tspan></text><text class="cls-1" transform="translate(26.99 87.18) rotate(-125.07)"><tspan x="0" y="0">e</tspan></text><text class="cls-1" transform="translate(21.26 78.86) rotate(-113.67)"><tspan x="0" y="0">r</tspan></text><text class="cls-1" transform="translate(18.43 72.28) rotate(-105.68)"><tspan x="0" y="0"> </tspan></text><text class="cls-1" transform="translate(16.84 67.84) rotate(-95.3)"><tspan x="0" y="0">o</tspan></text><text class="cls-1" transform="translate(15.26 57.29) rotate(-77.54)"><tspan x="0" y="0">m</tspan></text><text class="cls-1" transform="translate(19.49 41.23) rotate(-63.4)"><tspan x="0" y="0"> </tspan></text><text class="cls-1" transform="translate(20.8 36.76) rotate(-49.4)"><tspan x="0" y="0">m</tspan></text><text class="cls-1" transform="translate(31.82 24.47) rotate(-32.02)"><tspan x="0" y="0">e</tspan></text><text class="cls-1" transform="translate(40.14 19.07) rotate(-18.08)"><tspan x="0" y="0">g</tspan></text></g></svg>