<?xml version="1.0" encoding="UTF-8"?><svg id="Layer_2" xmlns="http://www.w3.org/2000/svg" viewBox="0 0 99 99"><defs><style>.cls-1{fill:#1e1e1e;}</style></defs><g id="Layer_3"><path class="cls-1" d="M49.5,0C22.16,0,0,22.16,0,49.5s22.16,49.5,49.5,49.5,49.5-22.16,49.5-49.5S76.84,0,49.5,0Zm15.32,53.04l-13.53,13.37c-.76,.74-1.98,.74-2.73,0l-13.54-13.37c-.75-.75-.75-1.96,0-2.7,.76-.75,1.98-.75,2.74,0l10.15,10.03v-26.56c0-1.07,.87-1.94,1.95-1.94s1.94,.87,1.94,1.94v26.69l10.29-10.16c.75-.75,1.98-.75,2.73,0,.38,.37,.57,.86,.57,1.35s-.19,.98-.57,1.35Z"/></g></svg>