<?xml version="1.0" encoding="UTF-8"?><svg id="Layer_2" xmlns="http://www.w3.org/2000/svg" viewBox="0 0 251.33 347.54"><defs><style>.cls-1{letter-spacing:-.02em;}.cls-2{letter-spacing:0em;}.cls-3{fill:#15302c;}.cls-4,.cls-5,.cls-6,.cls-7,.cls-8{fill:#2d2d2d;}.cls-9{letter-spacing:-.01em;}.cls-5{font-family:Quicksand-Regular, Quicksand;font-size:15.04px;font-variation-settings:'wght' 400;}.cls-6{stroke-width:.5px;}.cls-6,.cls-7,.cls-8{stroke-miterlimit:10;}.cls-6,.cls-8{stroke:#2d2d2d;}.cls-7{stroke:#1e1e1e;}.cls-10{letter-spacing:0em;}.cls-11{letter-spacing:-.02em;}.cls-12{letter-spacing:0em;}.cls-13{letter-spacing:0em;}</style></defs><g id="Layer_3"><g id="c0OKSe.tif"><path class="cls-4" d="M32.01,60.93c-4.84,0-9.67,.03-14.51-.01-1.98-.02-3.95-.13-5.89-.63-5.16-1.34-8.94-5.79-9.46-11.11-.23-2.32-.3-4.65-.3-6.98,0-8.24-.02-16.47,0-24.71,0-2.3,.04-4.62,.61-6.88C3.51,6.48,5.98,3.55,9.9,1.85c2.31-1,4.76-1.21,7.22-1.22,9.98-.03,19.96-.03,29.94,0,2.55,0,5.09,.28,7.46,1.35,2.96,1.34,5.08,3.51,6.4,6.48,1.03,2.32,1.25,4.8,1.26,7.28,.04,10,.03,20,0,30,0,2.53-.21,5.05-1.29,7.4-1.9,4.13-5.13,6.54-9.56,7.39-1.8,.35-3.64,.38-5.46,.39-4.62,.03-9.24,.01-13.86,.01,0,0,0-.01,0-.02ZM7.95,35.43c-.07,.22,.06,.31,.12,.41,1.34,2.07,2.93,3.94,4.72,5.65,2.83,2.71,6.05,4.82,9.66,6.31,2.65,1.09,5.39,1.82,8.26,2.02,3.38,.24,6.64-.16,9.76-1.51,1.51-.65,2.9-1.58,4.54-1.96,2.61-.62,4.91-.18,6.74,1.92,.36,.41,.61,.9,.91,1.35,.1,.15,.14,.41,.4,.36,.22-.04,.3-.26,.34-.44,.12-.46,.19-.93,.2-1.42,.05-3.63-1.22-6.82-3.35-9.68-.37-.5-.37-.9-.23-1.41,.64-2.41,.72-4.87,.37-7.32-.67-4.67-2.59-8.82-5.4-12.57-1.96-2.61-4.31-4.84-6.95-6.75-.63-.46-1.26-.95-2.15-1.28,.19,.31,.29,.5,.41,.68,2.81,4.02,4.61,8.41,4.9,13.36,.14,2.41-.13,4.77-.88,7.07-.14,.44-.26,.6-.75,.3-2.97-1.83-5.77-3.9-8.51-6.04-4.5-3.51-8.79-7.26-12.82-11.31-.12-.12-.23-.3-.58-.31,3.82,5.58,7.92,10.78,12.35,15.74-3.15-1.95-6.14-4.11-9.07-6.35-2.92-2.24-5.77-4.56-8.63-6.9,6.26,8.49,12.97,16.57,21.34,23.16-.14,.1-.2,.16-.28,.2-3.99,2.21-8.27,2.68-12.71,2.03-4.32-.62-8.21-2.35-11.82-4.76-.28-.19-.51-.47-.9-.55Z"/></g><g id="AefEg1.tif"><g><path class="cls-3" d="M194.43,9.54v.03h0s-.03,0-.05,0c.01-.02,.03-.02,.05-.02Z"/><path class="cls-3" d="M194.43,33.27v.03s0,.03,0,.05c0,.03-.01,.05-.03,.08-.01,.01-.02,.02-.03,.01,0,0-.01,0-.02,0h.02s.02-.03,.04-.06c-.01-.04,0-.07,.02-.1Z"/><path class="cls-3" d="M196.34,8.1h-.03s-.02-.03-.02-.05c.02,.01,.03,.03,.05,.05Z"/><path class="cls-3" d="M199.79,8.1h-.04s-.03-.03-.03-.05c.03,.01,.06,.03,.08,.05Z"/><path class="cls-3" d="M203.54,8.1s-.03,0-.03,0c-.02-.01-.03-.03-.03-.05,.03,.01,.05,.03,.07,.05Z"/><path class="cls-3" d="M207.63,8.1h-.04s-.03-.03-.04-.05c.03,0,.06,.03,.08,.05Z"/><path class="cls-3" d="M218.47,8.05s-.03,.03-.06,.04h-.04s.04-.03,.07-.03c0,0,.02,0,.03,0Z"/><polygon class="cls-3" points="211.93 14.93 211.93 14.94 211.93 14.93 211.93 14.93"/><path class="cls-3" d="M213.14,13.63s-.02-.01-.03-.02h0s.01-.01,.02-.01c0,0,0,.02,0,.03Z"/><path class="cls-3" d="M218.47,8.05s-.03,.03-.06,.04h-.04s.04-.03,.07-.03c0,0,.02,0,.03,0Z"/><path class="cls-3" d="M214.54,35.93s-.01,.01-.02,.01h0s.02-.01,.02-.01Z"/><path class="cls-3" d="M217.24,33.22s-.03,.02-.05,.02c0-.01,.01-.02,.03-.03,0,.01,0,.01,.02,.01Z"/><path class="cls-3" d="M213.43,56.04s0,.03,0,.05c0-.02,0-.04-.01-.05h.02Z"/><path class="cls-3" d="M224.57,56.09s-.03-.03-.06-.05c.02,0,.03,0,.05,0,0,.01,0,.03,0,.05Z"/><path class="cls-3" d="M206,21.11s0,.04-.01,.06v-.04s0-.01,.01-.02Z"/><path class="cls-3" d="M207.62,19.39s0,.03,0,.05c0-.01-.01-.03-.03-.03,.01-.01,.02-.02,.03-.03Z"/><path class="cls-3" d="M209.27,17.67s0,.02,0,.04c0-.01,0-.02,0-.03s0,0,0-.01Z"/><path class="cls-3" d="M211.11,15.73s0,.06-.03,.08c0-.02,0-.03,0-.05,.01,0,.03-.01,.03-.03Z"/><polygon class="cls-3" points="211.93 14.93 211.93 14.94 211.93 14.93 211.93 14.93"/><path class="cls-3" d="M217.24,33.22s-.03,.02-.05,.02c0-.01,.01-.02,.03-.03,0,.01,0,.01,.02,.01Z"/><path class="cls-3" d="M194.36,34.05c.02-.2-.01-.4,.01-.61,0,.21,.03,.41-.01,.61Z"/><path class="cls-3" d="M194.43,33.27v.03s0,.03,0,.05c0,.03-.01,.05-.03,.08-.01,.01-.02,.02-.03,.01h0s.02-.04,.04-.07c-.01-.04,0-.07,.02-.1Z"/><path class="cls-3" d="M196.44,31.27h0s0,0,0,0Z"/><path class="cls-3" d="M207.77,42.69h-.02s0,0,.01-.02c0,0,0,.01,0,.02Z"/><path class="cls-3" d="M194.48,56.05s-.04,.03-.06,.04h-.03s.03-.02,.05-.03h.01s.02,0,.03,0Z"/><path class="cls-3" d="M213.43,56.04s0,.03,0,.05c0-.02,0-.04-.01-.05h.02Z"/><path class="cls-3" d="M194.48,56.05s-.04,.03-.06,.04h-.03s.03-.02,.05-.03h.01s.02,0,.03,0Z"/><path class="cls-3" d="M194.36,34.05c0-.2,0-.41,0-.61h.02c0,.21,.03,.41-.01,.61Z"/><path class="cls-3" d="M194.43,9.54v.03h0s-.03,0-.05,0c.01-.02,.03-.02,.05-.02Z"/><path class="cls-3" d="M194.43,33.27v.03s0,.03,0,.05c-.01,0-.01,.01-.02,.02-.01-.04,0-.07,.02-.1Z"/><path class="cls-3" d="M196.44,31.27h0s0,0,0,0Z"/><path class="cls-3" d="M201.32,26.15s-.01,.01-.03,.03c0-.02,0-.03,.02-.06,0,0,0,.02,0,.03Z"/><path class="cls-3" d="M206,21.11s0,.04-.01,.06v-.04s0-.01,.01-.02Z"/><path class="cls-3" d="M194.43,9.54v.03h0s-.03,0-.05,0c.01-.02,.03-.02,.05-.02Z"/><path class="cls-3" d="M196.34,8.1h-.03s-.02-.03-.02-.05c.02,.01,.03,.03,.05,.05Z"/><path class="cls-3" d="M206,21.11s0,.04-.01,.06v-.04s0-.01,.01-.02Z"/><path class="cls-3" d="M207.62,19.39s0,.03,0,.05c0-.01-.01-.03-.03-.03,.01-.01,.02-.02,.03-.03Z"/><path class="cls-3" d="M196.34,8.1h-.03s-.02-.03-.02-.05c.02,.01,.03,.03,.05,.05Z"/><path class="cls-3" d="M199.79,8.1h-.04s-.03-.03-.03-.05c.03,.01,.06,.03,.08,.05Z"/><path class="cls-3" d="M207.62,19.39s0,.03,0,.05c0-.01-.01-.03-.03-.03,.01-.01,.02-.02,.03-.03Z"/><path class="cls-3" d="M209.27,17.67s0,.02,0,.04c0-.01,0-.02,0-.03s0,0,0-.01Z"/><path class="cls-3" d="M199.79,8.1h-.04s-.03-.03-.03-.05c.03,.01,.06,.03,.08,.05Z"/><path class="cls-3" d="M203.54,8.1s-.03,0-.03,0c-.02-.01-.03-.03-.03-.05,.03,.01,.05,.03,.07,.05Z"/><path class="cls-3" d="M209.27,17.67s0,.02,0,.04c0-.01,0-.02,0-.03s0,0,0-.01Z"/><path class="cls-3" d="M211.11,15.73s0,.06-.03,.08c0-.02,0-.03,0-.05,.01,0,.03-.01,.03-.03Z"/><path class="cls-3" d="M203.54,8.1s-.03,0-.03,0c-.02-.01-.03-.03-.03-.05,.03,.01,.05,.03,.07,.05Z"/><path class="cls-3" d="M207.63,8.1h-.04s-.03-.03-.04-.05c.03,0,.06,.03,.08,.05Z"/><path class="cls-3" d="M211.11,15.73s0,.06-.03,.08c0-.02,0-.03,0-.05,.01,0,.03-.01,.03-.03Z"/><polygon class="cls-3" points="211.93 14.93 211.93 14.94 211.93 14.93 211.93 14.93"/><path class="cls-3" d="M213.14,13.63s-.02-.01-.03-.02h0s.01-.01,.02-.01c0,0,0,.02,0,.03Z"/><path class="cls-3" d="M207.63,8.1h-.04s-.03-.03-.04-.05c.03,0,.06,.03,.08,.05Z"/><path class="cls-3" d="M213.14,13.63s-.02-.01-.03-.02h0s.01-.01,.02-.01c0,0,0,.02,0,.03Z"/><path class="cls-3" d="M218.45,8.06s-.03,.02-.03,.03h-.04s.04-.03,.07-.03Z"/><path class="cls-3" d="M209.6,40.9l-.03,.03s0-.02,0-.03h.03Z"/><path class="cls-3" d="M214.54,35.93s-.01,.01-.02,.01h0s.02-.01,.02-.01Z"/><path class="cls-3" d="M224.57,56.09s-.03-.03-.06-.05c.02,0,.03,0,.05,0,0,.01,0,.03,0,.05Z"/><path class="cls-3" d="M207.77,42.69h-.02s0,0,.01-.02c0,0,0,.01,0,.02Z"/><path class="cls-3" d="M209.6,40.9l-.03,.03s0-.02,0-.03h.03Z"/><path class="cls-3" d="M213.43,56.04s0,.03,0,.05c0-.02,0-.04-.01-.05h.02Z"/><path class="cls-3" d="M224.57,56.09s-.03-.03-.06-.05c.02,0,.03,0,.05,0,0,.01,0,.03,0,.05Z"/><path class="cls-3" d="M201.32,26.15s-.01,.01-.03,.03c0-.02,0-.03,.02-.06,0,0,0,.02,0,.03Z"/><path class="cls-3" d="M214.54,35.93s-.01,.01-.02,.01h0s.02-.01,.02-.01Z"/><path class="cls-3" d="M217.24,33.22s-.03,.02-.05,.02c0-.01,.01-.02,.03-.03,0,.01,0,.01,.02,.01Z"/><path class="cls-3" d="M196.44,31.27h0s0,0,0,0Z"/><path class="cls-3" d="M201.32,26.15s-.01,.01-.03,.03c0-.02,0-.03,.02-.06,0,0,0,.02,0,.03Z"/><path class="cls-3" d="M207.77,42.69h-.02s0,0,.01-.02c0,0,0,.01,0,.02Z"/><path class="cls-3" d="M209.6,40.9l-.03,.03s0-.02,0-.03h.03Z"/><path class="cls-3" d="M194.48,56.05s-.04,.03-.06,.04c0-.01,.01-.02,.03-.03,0,0,.02,0,.03,0Z"/></g></g><g id="Yx5OOA.tif"><g><path class="cls-6" d="M125.19,32.06c-.3-.27-.61-.54-.91-.82-1.09-1.02-2.18-2.04-3.19-3.15-1.09-1.21-2.12-2.46-2.84-3.94-.36-.76-.62-1.54-.67-2.39-.07-1.18,.31-2.22,.98-3.18,.8-1.13,1.78-2.1,2.82-3,1.49-1.28,3.07-2.44,4.58-3.69,1.33-1.11,2.6-2.28,3.61-3.7,.89-1.26,1.47-2.64,1.64-4.18,.12-1.1,.03-2.19-.21-3.27-.02-.09-.06-.17-.04-.29,.19,.15,.32,.35,.44,.54,.69,1.06,1.05,2.22,1.08,3.49,.04,1.67-.46,3.19-1.25,4.63-1.02,1.85-2.42,3.4-3.96,4.83-.95,.89-2,1.66-2.97,2.52-1.1,.96-2.1,2.01-2.84,3.29-1.08,1.86-1.15,3.76-.27,5.72,.51,1.13,1.21,2.15,1.91,3.16,.72,1.04,1.47,2.07,2.03,3.21,.03,.07,.06,.14,.09,.21-.02,0-.03,.02-.05,.02Z"/><path class="cls-6" d="M113.06,49.59c-.59,.04-1.17,.1-1.74,.23-1.13,.25-2.22,.59-3.23,1.18-.17,.1-.34,.22-.45,.39-.15,.23-.13,.43,.09,.6,.15,.12,.32,.2,.49,.27,1.11,.46,2.27,.69,3.45,.89,1.24,.21,2.48,.34,3.73,.44,1.14,.09,2.28,.15,3.42,.2,2.1,.09,4.2,.08,6.29,.06,1.16-.01,2.31-.06,3.46-.12,1.47-.07,2.94-.17,4.41-.3,2.3-.21,4.59-.47,6.84-.98,.82-.18,1.64-.39,2.4-.79,.22-.11,.43-.25,.61-.42,.41-.38,.45-.84,.13-1.29-.03-.04-.06-.07-.06-.15,.42,.2,.81,.41,.98,.86,.11,.29,.01,.56-.18,.8-.31,.39-.72,.66-1.15,.89-1.1,.59-2.28,.96-3.48,1.29-2.02,.55-4.08,.9-6.16,1.17-1.3,.17-2.6,.3-3.91,.39-1.28,.09-2.57,.16-3.85,.2-1.67,.05-3.34,.04-5.01,.02-1.38-.02-2.76-.09-4.14-.19-2.09-.15-4.18-.34-6.26-.62-1.4-.19-2.81-.34-4.19-.69-.35-.09-.7-.21-1.02-.38-.81-.43-.91-1.03-.27-1.69,.39-.39,.85-.68,1.34-.93,1.65-.85,3.4-1.38,5.25-1.6,.58-.07,1.17-.08,1.74,.07,.16,.04,.32,.09,.45,.21Z"/><path class="cls-6" d="M138.1,12.27c-.26,.15-.51,.3-.77,.46-1.7,1.01-3.37,2.06-4.95,3.26-1.06,.81-2.07,1.67-2.89,2.74-.34,.45-.61,.93-.78,1.47-.28,.9-.15,1.77,.24,2.61,.4,.87,.97,1.64,1.52,2.42,.36,.51,.76,1.01,1.01,1.6,.54,1.27,.38,2.48-.29,3.64-.63,1.09-1.53,1.93-2.52,2.67-.42,.31-.85,.6-1.3,.86-.04,.02-.08,.07-.18,.05,.2-.22,.41-.41,.58-.63,.51-.64,.91-1.33,1.06-2.14,.2-1.09-.09-2.07-.76-2.93-.49-.64-1.03-1.24-1.46-1.92-.6-.94-1.06-1.94-1.25-3.04-.24-1.39,.02-2.69,.71-3.9,.83-1.46,2.05-2.54,3.41-3.47,1.79-1.23,3.76-2.14,5.79-2.89,.87-.32,1.75-.62,2.65-.86,.05-.01,.1-.02,.15-.03,0,.01,.01,.03,.02,.04Z"/><path class="cls-6" d="M117.42,45.14c-.08,.11-.18,.23-.28,.35-.26,.3-.23,.59,.1,.81,.35,.23,.75,.32,1.16,.39,.95,.17,1.92,.24,2.88,.32,1,.08,2,.12,3,.11,1.41-.02,2.81-.16,4.21-.37,.83-.13,1.65-.28,2.48-.42,.11-.02,.2,0,.3,.05,.91,.54,1.86,.99,2.83,1.39,.06,.02,.15,.03,.15,.1,0,.08-.09,.08-.15,.1-1.61,.68-3.28,1.15-5,1.47-1.37,.25-2.75,.39-4.14,.44-2.38,.08-4.74-.11-7.04-.75-.81-.23-1.6-.52-2.3-1-.21-.14-.41-.3-.56-.51-.37-.49-.32-.98,.14-1.4,.47-.43,1.05-.67,1.64-.88,.21-.07,.41-.16,.6-.19Z"/><path class="cls-6" d="M118.57,32.24c-.47,.13-.92,.24-1.37,.37-1.21,.34-2.41,.7-3.54,1.25-.25,.12-.48,.26-.7,.43-.4,.32-.37,.64,.09,.86,.44,.21,.93,.3,1.41,.38,.85,.14,1.7,.2,2.56,.24,1.41,.08,2.82,.08,4.23,.06,1.45-.02,2.91-.07,4.36-.16,1.24-.07,2.49-.16,3.73-.27,1.29-.11,2.57-.27,3.85-.44,1.4-.19,2.79-.39,4.18-.63,.02,0,.04,0,.08,0-.12,.1-.24,.14-.35,.19-.72,.33-1.42,.71-2.09,1.13-.08,.05-.17,.09-.27,.12-1.65,.42-3.33,.71-5.02,.93-1.39,.18-2.79,.31-4.18,.41-1,.07-2,.1-3,.14-1.35,.05-2.7,.04-4.05,.02-1.36-.02-2.72-.09-4.08-.22-1.34-.12-2.67-.28-3.98-.6-.45-.11-.89-.24-1.3-.45-.15-.07-.29-.16-.41-.27-.27-.24-.28-.53-.04-.8,.26-.29,.61-.46,.95-.63,1.68-.81,3.44-1.4,5.27-1.77,.93-.18,1.87-.32,2.82-.34,.21,0,.43-.02,.64-.03,.06,0,.13-.02,.21,.06Z"/><path class="cls-6" d="M116.16,38.82c-.2,.16-.37,.34-.52,.55-.36,.5-.26,.94,.29,1.22,.53,.27,1.1,.33,1.68,.4,1.11,.12,2.22,.21,3.34,.27,1.17,.05,2.34,.07,3.51,.03,.92-.04,1.84-.09,2.76-.18,1.12-.11,2.23-.26,3.34-.44,.74-.12,1.48-.26,2.23-.39,.1-.02,.19-.02,.27,.05,.63,.57,1.34,1.01,2.13,1.31,.03,.01,.06,.03,.09,.05-.03,.09-.11,.09-.18,.11-1.87,.53-3.77,.93-5.7,1.21-1.33,.19-2.67,.32-4.01,.4-1.23,.07-2.45,.1-3.68,.06-1.96-.06-3.91-.23-5.82-.73-.66-.17-1.3-.38-1.89-.72-.27-.15-.53-.33-.72-.59-.24-.33-.24-.68,0-1.02,.23-.33,.55-.56,.88-.75,.6-.35,1.23-.61,1.89-.83,.03-.01,.07-.04,.13,.01Z"/><path class="cls-6" d="M146.45,52.79c-.04,.58-.3,1.05-.67,1.46-.64,.71-1.45,1.15-2.31,1.53-1.71,.75-3.52,1.16-5.36,1.49-1.57,.28-3.15,.47-4.73,.61-.82,.07-1.64,.12-2.47,.17-2.32,.14-4.63,.17-6.95,.14-1.45-.02-2.89-.08-4.34-.18-1.41-.1-2.81-.22-4.2-.44-1.14-.18-2.27-.39-3.34-.82-.16-.06-.32-.12-.46-.24,.06-.06,.12-.03,.17-.02,1.26,.2,2.52,.35,3.79,.46,1.21,.11,2.42,.19,3.63,.24,.97,.04,1.95,.05,2.92,.08,1.23,.05,2.47,0,3.7-.03,1.23-.02,2.45-.09,3.68-.17,1.22-.08,2.43-.18,3.65-.33,3.33-.39,6.63-.91,9.81-2,1.04-.35,2.05-.78,2.94-1.45,.2-.15,.36-.33,.53-.51Z"/><path class="cls-6" d="M138.6,32.72c.16-.24,.37-.42,.61-.55,.46-.25,.97-.36,1.49-.44,1.25-.21,2.45-.06,3.57,.55,1.24,.68,2.02,1.7,2.17,3.13,.1,.94-.17,1.8-.65,2.6-.6,1.01-1.46,1.79-2.42,2.44-1.53,1.04-3.21,1.72-4.96,2.26-.35,.11-.71,.21-1.1,.32,.1-.19,.18-.31,.34-.39,1.35-.71,2.65-1.51,3.82-2.51,1-.85,1.87-1.81,2.34-3.06,.43-1.14,.38-2.25-.39-3.23-.9-1.15-2.11-1.62-3.56-1.4-.37,.06-.72,.16-1.08,.27-.05,.01-.09,.05-.17,0Z"/></g></g><g id="K8XcAz.tif"><g><path class="cls-4" d="M65.43,110.56c-.75,0-1.49-.04-2.24-.07-1.69,.11-3.39,.12-5.08,0-1.68,.12-3.37,.11-5.05,0-1.69,.12-3.39,.12-5.09,0-1.68,.11-3.37,.12-5.05,0-1.69,.12-3.39,.12-5.09,0-1.68,.12-3.37,.12-5.04,0-1.7,.12-3.39,.12-5.09,0-1.68,.13-3.37,.1-5.05,.02-1.69,.12-3.39,.12-5.09,0-1.68,.08-3.36,.11-5.04-.02-1.69,.12-3.39,.12-5.09,0-1.58,.23-3.2-.13-4.77,.2,.05,.56,.1,1.12,.15,1.69,0,.08,0,.17,0,.25,.02,.33,.03,.66,.05,1,.42,3.02,.75,6.06,.84,9.11,.25,1.68,.45,3.37,.45,5.08,.29,1.67,.43,3.36,.46,5.06,.17,1.69,.33,3.38,.49,5.08,.13,1.68,.27,3.36,.4,5.04,.27,1.68,.45,3.37,.44,5.07,.31,1.67,.44,3.36,.47,5.06,.16,1.69,.32,3.38,.49,5.07,.14,1.68,.29,3.37,.43,5.05,.43,3.37,.73,6.74,.89,10.13,.04,.12,.13,.24,.11,.35-.37,2.59,1.11,3.39,3.35,3.81,2,.37,3.94,1.1,5.9,1.68,1.74,.32,3.42,.86,5.1,1.38,1.68,.47,3.36,.95,5.04,1.42,1.64,.31,3.24,.76,4.81,1.32,.17,.06,.34,.12,.52,.17,2.23,.87,4.25-.16,6.33-.69,1.18-.3,2.36-.59,3.54-.87,1.66-.61,3.36-1.05,5.08-1.43,1.66-.54,3.32-1.05,5.04-1.36,1.02-.38,2.03-.81,3.15-.76,1.32-.77,2.84-1,4.28-1.36,1.05-.25,1.48-.73,1.46-1.77,0-.62-.03-1.26,.22-1.86-.03-1.71,.2-3.41,.4-5.1,.32-3.37,.63-6.74,.94-10.11,.04-1.7,.18-3.39,.48-5.07,0-1.71,.16-3.39,.44-5.08,0-1.71,.21-3.39,.44-5.08,.14-1.68,.29-3.35,.44-5.03,.06-1.7,.18-3.39,.47-5.08,.07-1.69,.16-3.39,.47-5.07-.01-1.71,.18-3.39,.47-5.07-.02-1.69,.22-3.36,.39-5.04,.11-1.69,.17-3.4,.48-5.08,.01-2.05,.01-2.05-2.12-2.05Zm-9.93,14.3c-.25,2.13-.44,4.27-.61,6.41-.05,.59-.17,.91-.86,.9-6.32-.04-12.65-.05-18.97-.07,.01,.04,.02,.08,.02,.12-3.54-.02-7.09-.03-10.63-.07-.65-.01-.75,.25-.69,.85,.23,2.18,.44,4.36,.6,6.55,.05,.68,.24,.95,.97,.94,3.25-.05,6.5-.04,9.75-.06l-.02,.1c6.07-.02,12.15-.02,18.24-.07,.76,0,.79,.37,.74,.95-.46,4.91-.91,9.82-1.35,14.73-.23,2.56-.49,5.12-.65,7.69-.07,1.1-.37,1.68-1.56,1.99-4.74,1.21-9.45,2.56-14.16,3.86-.41,.11-.8,.28-1.24,.2,.03,.04,.03,.08,0,.12-5.16-1.42-10.31-2.87-15.48-4.26-.86-.23-1.21-.59-1.27-1.52-.24-3.44-.58-6.88-.93-10.32-.1-.95,.06-1.37,1.15-1.32,1.89,.09,3.8,.11,5.69,0,1.17-.07,1.43,.41,1.46,1.43,.04,1.43,.24,2.85,.36,4.28,.04,.5,.17,.83,.76,.98,2.74,.68,5.47,1.41,8.2,2.13,.01,.05,.03,.1,.04,.15,2.72-.74,5.43-1.5,8.16-2.19,.73-.18,1.01-.49,1.07-1.26,.21-2.89,.47-5.78,.79-8.66,.11-.9-.35-.85-.94-.85-3.03-.01-6.06-.04-9.09-.06,.02,.04,.03,.08,.03,.13-5.57-.02-11.15-.07-16.72-.03-1.14,0-1.47-.3-1.57-1.45-.59-7.23-1.25-14.45-1.95-21.67-.11-1.16,.15-1.5,1.36-1.48,6.29,.04,12.58-.02,18.87-.04,0,.05-.01,.1-.03,.15,2.66-.03,5.31-.07,7.96-.08,3.84-.01,7.68,0,11.51,0,.56,0,1.1-.1,.99,.82Z"/><path class="cls-4" d="M241.98,110.5c-1.68,.11-3.37,.11-5.05,0-1.69,.11-3.39,.11-5.09,0-1.68,.11-3.37,.11-5.04,0-1.7,.11-3.39,.11-5.09,0-1.68,.11-3.37,.11-5.05,0-1.69,.11-3.39,.11-5.09,0-1.68,.11-3.37,.11-5.06,0-1.69,.11-3.39,.11-5.08,0-1.68,.11-3.37,.11-5.05,0-1.69,.11-3.39,.11-5.08,0-1.68,.12-3.37,.09-5.05,.01-.95,.03-1.91,.13-2.85,.06-1.07-.09-1.42,.3-1.22,1.32,.04,.24,0,.5-.01,.74,.28,1.67,.4,3.36,.45,5.06,.17,1.69,.33,3.39,.49,5.08,.17,1.68,.43,3.34,.39,5.04,.29,1.68,.47,3.37,.46,5.08,.31,1.67,.43,3.36,.47,5.06,.16,1.69,.33,3.38,.49,5.07,.14,1.68,.28,3.37,.42,5.05,.25,1.67,.44,3.36,.44,5.06,.32,1.68,.44,3.38,.46,5.08,.5,3.36,.71,6.74,.93,10.13,.15,1.67,.31,3.35,.47,5.03,.03,.08,.07,.15,.08,.24,.35,3.11,.36,3.1,3.38,3.92,1.78,.48,3.55,1.02,5.32,1.54,1.71,.39,3.4,.8,5.04,1.42,1.73,.32,3.42,.83,5.08,1.38,1.99,.53,4,.99,5.95,1.63,1.43,.47,2.78,.4,4.17,0l.06-.05,.07,.04c1.59-.67,3.27-1.01,4.93-1.42,1.66-.54,3.33-1.06,5.06-1.37,1.64-.61,3.34-1.02,5.05-1.41,2.7-.77,5.38-1.6,8.11-2.29,1.01-.25,1.28-.71,1.36-1.7,.17-2.33,.24-4.68,.69-6.99,0-1.69,.2-3.37,.42-5.04,.16-1.7,.31-3.39,.47-5.09,.15-1.68,.3-3.37,.45-5.05,.06-1.7,.19-3.39,.47-5.07,.03-1.7,.16-3.39,.46-5.07,0-1.7,.18-3.38,.44-5.06,.14-1.68,.28-3.36,.42-5.04,.09-1.7,.19-3.4,.48-5.08,.08-1.69,.14-3.38,.47-5.06,.2-3.39,.45-6.78,.87-10.15,.04-.66,.09-1.32,.13-1.98-1.69-.04-3.38-.09-5.07-.13Zm-7.12,14.53c-.47,4.82-.89,9.65-1.33,14.47-.56,6.12-1.12,12.25-1.68,18.37-.19,2.14-.42,4.28-.54,6.42-.05,.87-.4,1.23-1.21,1.45-5.17,1.38-10.33,2.82-15.49,4.24-.08-.03-.17-.06-.25-.09-4.65-1.24-9.3-2.46-13.94-3.72-2.87-.78-2.83-.8-3.03-3.79-.19-2.86-.42-5.72-.7-8.57-.09-.91,.06-1.28,1.09-1.24,1.98,.08,3.97,.07,5.95,0,.84-.03,1.11,.29,1.16,1.06,.1,1.51,.25,3.02,.37,4.54,.04,.48,.07,.89,.68,1.04,2.79,.69,5.56,1.41,8.33,2.12,.04,.06,.07,.12,.11,.18,2.72-.74,5.43-1.5,8.16-2.2,.66-.17,.97-.43,1.02-1.16,.14-2.06,.4-4.11,.6-6.16,.61-6.29,1.21-12.58,1.82-18.87,.06-.58,.14-1.08-.74-1.07-3.54,.06-7.08,.06-10.63,.08-.08-.06-.15-.11-.23-.16-1.56,.03-3.11,.08-4.67,.09-4.68,.01-9.36-.01-14.04,.02-.79,0-1.11-.18-1.15-1.04-.08-2.06-.27-4.11-.44-6.17-.06-.62,.09-.91,.8-.9,6.5,.04,12.99,.05,19.48,.07,.08-.04,.16-.09,.24-.14,4.21,.03,8.43,.06,12.65,.08,2.19,.01,4.39,.03,6.58-.02,.83-.02,1.11,.22,1.02,1.07Z"/><path class="cls-4" d="M157.54,110.5c-1.69,.11-3.39,.11-5.09,0-1.68,.11-3.37,.11-5.05,0-1.69,.11-3.39,.11-5.08,0-1.68,.11-3.37,.11-5.05,0-1.69,.11-3.39,.11-5.09,0-1.68,.11-3.37,.11-5.05,0-1.69,.11-3.39,.11-5.09,0-1.68,.11-3.37,.11-5.05,0-1.69,.11-3.39,.11-5.08,0-1.69,.11-3.37,.11-5.06,0-1.69,.11-3.39,.11-5.08,0-1.68,.11-3.37,.11-5.06,0q-1.98,.18-1.97,2.12c.28,1.68,.47,3.36,.47,5.07,.31,1.68,.43,3.37,.47,5.07,.15,1.68,.32,3.37,.47,5.06,.15,1.69,.3,3.39,.45,5.08,.34,3.37,.75,6.73,.87,10.11,.3,1.68,.44,3.37,.48,5.07,.29,1.67,.36,3.36,.46,5.05,.16,1.69,.32,3.39,.48,5.08,.18,1.68,.42,3.35,.39,5.04,.29,1.68,.46,3.37,.47,5.07,.32,1.67,.37,3.37,.47,5.06,.08,.66,.28,1.32,.23,1.97-.07,1.04,.38,1.53,1.35,1.68,1.43,.4,2.86,.81,4.29,1.21,.29-.04,.55,.05,.78,.23,1.73,.36,3.44,.81,5.1,1.41,1.72,.33,3.39,.81,5.04,1.38,3.38,.92,6.76,1.84,10.13,2.76,3.38-.92,6.76-1.84,10.14-2.76,1.66-.56,3.33-1.05,5.05-1.38,1.66-.6,3.36-1.06,5.09-1.41,.34-.09,.68-.18,1.01-.27,1.31-.56,2.69-.85,4.06-1.18,.95-.14,1.45-.61,1.41-1.66-.03-.65,.13-1.32,.21-1.98,.05-1.71,.19-3.4,.45-5.08,.15-1.68,.32-3.37,.48-5.06,.02-1.7,.14-3.39,.47-5.07-.01-1.69,.19-3.37,.44-5.04-.01-1.71,.2-3.39,.41-5.09,.16-1.68,.33-3.37,.49-5.05,.2-3.39,.43-6.78,.93-10.14-.03-1.69,.22-3.37,.4-5.04,.16-1.69,.32-3.39,.48-5.08,.14-1.68,.29-3.37,.44-5.06,.05-1.87,.21-3.72,.49-5.56q.03-1.46-2.03-1.63Zm-10.17,15.12c-.49,4.73-.9,9.47-1.32,14.21-.73,8.18-1.43,16.36-2.15,24.54-.04,.55-.04,1.01-.78,1.21-5.17,1.39-10.33,2.83-15.49,4.25-.15,.04-.33,0-.5,.01,.01,.04,.01,.09,0,.13-5.4-1.48-10.8-2.98-16.21-4.44-.69-.19-.92-.51-.98-1.21-.3-3.69-.63-7.38-.99-11.07-.07-.71,.08-.99,.84-.97,2.19,.04,4.39,.04,6.58,0,.7-.02,.95,.23,1,.92,.09,1.56,.27,3.11,.41,4.66,.04,.5,.01,.97,.7,1.15,2.69,.7,5.35,1.46,8.03,2.19,.19,.05,.42,0,.63-.01-.01,.06-.02,.13-.02,.19,2.64-.73,5.27-1.49,7.92-2.18,.81-.21,1.17-.55,1.23-1.43,.18-2.6,.44-5.21,.75-7.8,.13-1.09-.1-1.46-1.29-1.43-2.86,.07-5.73-.02-8.6-.04,0,.05,0,.09,.02,.14-5.6-.02-11.21-.08-16.81-.03-1.13,0-1.52-.29-1.56-1.43-.07-1.89-.24-3.78-.5-5.65-.14-.97,.19-1.12,1.04-1.11,5.44,.03,10.88,.02,16.31,.01,.51,0,1.01-.04,1.52-.06-.01,.04-.01,.09-.01,.13,3.17-.02,6.33-.09,9.49-.04,1,.01,1.32-.32,1.38-1.26,.13-1.98,.33-3.95,.57-5.91,.12-.91-.17-1.16-1.07-1.15-3.46,.03-6.92-.02-10.38-.05,0,.05,0,.09,.01,.14-5.99-.02-11.98-.04-17.96-.07-1.67,0-1.65,0-1.79-1.71-.14-1.68-.23-3.36-.48-5.03-.17-1.11,.2-1.33,1.25-1.32,5.82,.05,11.64,.03,17.46,.02,.5,0,1.01-.04,1.51-.07,0,.07,0,.13,.02,.2,4.13-.03,8.27-.06,12.4-.08,2.15-.01,4.31,.07,6.46-.03,1.18-.06,1.51,.29,1.38,1.47Z"/></g></g><text class="cls-5" transform="translate(15.46 80.86)"><tspan x="0" y="0">Swi</tspan><tspan class="cls-12" x="22.98" y="0">f</tspan><tspan x="28.33" y="0">t</tspan></text><text class="cls-5" transform="translate(107.83 81.23)"><tspan x="0" y="0">J</tspan><tspan class="cls-9" x="8.59" y="0">a</tspan><tspan class="cls-10" x="17.46" y="0">v</tspan><tspan x="25.39" y="0">a</tspan></text><text class="cls-5" transform="translate(197.57 81.23)"><tspan class="cls-1" x="0" y="0">K</tspan><tspan x="9.84" y="0">otlin</tspan></text><text class="cls-5" transform="translate(14.81 206.38)"><tspan x="0" y="0">HTML</tspan></text><text class="cls-5" transform="translate(113.75 206.38)"><tspan x="0" y="0">CSS</tspan></text><text class="cls-5" transform="translate(177.55 206.38)"><tspan x="0" y="0">J</tspan><tspan class="cls-9" x="8.59" y="0">a</tspan><tspan class="cls-10" x="17.46" y="0">v</tspan><tspan x="25.39" y="0">aScript</tspan></text><path class="cls-4" d="M242.31,55.29s.06,.07,.1,.12c-.07,.06-.14,.03-.2,.03h-37.92c-.07,0-.13,0-.2,0-.8,0-1.61,0-2.41,0h-7.1c-.06,0-.14,.03-.2-.03-.06-.05-.03-.11-.03-.17v-17.53s0-.1,0-.14c0-.28,0-.54,0-.81,0-1.13,0-2.26,0-3.39,0-.2,0-.41,0-.61,0-.07,0-.15,0-.23V7.32h48.08s0,.06-.04,.08c-.03,.03-.06,.05-.08,.09-6.2,6.2-12.4,12.39-18.59,18.59-.04,.03-.08,.07-.12,.1-.05,.06-.08,.1-.14,.15-1.6,1.61-3.2,3.21-4.81,4.81-.06,.06-.1,.11-.14,.16,.61,.62,1.22,1.24,1.84,1.86,1.95,1.96,3.89,3.91,5.84,5.87,1.78,1.79,3.58,3.6,5.36,5.4,1.81,1.82,3.61,3.64,5.41,5.45,1.8,1.81,3.59,3.61,5.38,5.41Z"/><g id="B7nyqP.tif"><g><path class="cls-7" d="M.5,273.89v-1.03c.07-.14,.1-.28,.12-.44,.08-.48,.19-.95,.37-1.41,.58-1.47,1.55-2.65,2.71-3.68,1.2-1.07,2.56-1.92,3.98-2.66,1.99-1.03,4.09-1.82,6.23-2.47,.23-.07,.47-.14,.7-.21,.15-.05,.21-.14,.17-.3-.02-.06-.03-.12-.04-.18-.3-1.24-.55-2.49-.75-3.75-.19-1.21-.31-2.43-.36-3.65-.05-1.03,0-2.06,.1-3.09,.14-1.29,.41-2.54,.93-3.73,.65-1.51,1.62-2.75,3.09-3.55,.83-.45,1.7-.75,2.67-.72,.55,.01,1.09,0,1.64,0,.18,0,.36,.01,.54,.04,1.68,.28,3.22,.93,4.71,1.74,2.21,1.21,4.18,2.74,6.04,4.42,.37,.33,.72,.68,1.09,1.02,.23,.21,.28,.2,.51-.01,.45-.42,.91-.84,1.37-1.25,1.46-1.31,3-2.5,4.67-3.53,1.36-.85,2.79-1.57,4.33-2.03,.61-.18,1.23-.37,1.87-.39,.72-.02,1.44,0,2.16,0,.11,0,.22,0,.33,.03,.82,.14,1.58,.44,2.28,.88,1.32,.83,2.2,2.01,2.8,3.43,.62,1.45,.89,2.99,.97,4.55,.07,1.42,.04,2.83-.12,4.25-.2,1.77-.52,3.52-.94,5.26-.14,.57-.14,.51,.37,.66,2.45,.72,4.82,1.61,7.07,2.82,1.74,.94,3.36,2.04,4.67,3.54,1.29,1.48,2.12,3.14,2.04,5.18-.03,.87-.22,1.68-.56,2.47-.56,1.29-1.44,2.34-2.47,3.27-1.17,1.06-2.49,1.9-3.89,2.64-1.98,1.04-4.05,1.85-6.19,2.5-.31,.1-.62,.18-.93,.29-.2,.07-.22,.11-.18,.32,.06,.29,.13,.57,.2,.86,.6,2.66,1.01,5.35,.95,8.09-.02,.96-.09,1.92-.26,2.87-.26,1.43-.72,2.79-1.54,4-.99,1.45-2.33,2.39-4.06,2.77-.12,.03-.24,.05-.35,.11h-2.55c-.14-.07-.29-.09-.44-.12-.73-.15-1.45-.35-2.15-.63-2.12-.82-4.03-2.02-5.83-3.39-1.27-.97-2.48-2.02-3.63-3.13-.22-.21-.24-.2-.47,0-.5,.46-.99,.93-1.5,1.37-1.8,1.58-3.7,3.02-5.81,4.16-1.37,.74-2.8,1.32-4.34,1.61-.15,.03-.3,.05-.44,.12h-2.55c-.16-.09-.34-.11-.52-.16-.9-.23-1.71-.62-2.44-1.19-1.05-.82-1.76-1.89-2.26-3.11-.67-1.62-.91-3.33-.97-5.07-.03-.71,0-1.41,.04-2.12,.09-1.59,.31-3.16,.61-4.72,.14-.76,.31-1.51,.49-2.25,.07-.29,.04-.33-.23-.42-.03,0-.06-.02-.09-.03-1.58-.46-3.14-1-4.66-1.65-1.65-.7-3.24-1.53-4.71-2.56-1.03-.73-1.97-1.56-2.77-2.54-.89-1.1-1.51-2.32-1.7-3.74-.02-.12-.06-.24-.11-.35Zm34.2,10.45s0,0,0,0c.95,0,1.9,.03,2.85,0,.95-.04,1.9-.08,2.85-.15,.37-.02,.58-.15,.78-.45,2.13-3.18,4.04-6.5,5.73-9.93,.15-.31,.14-.55,0-.85-1.11-2.23-2.3-4.42-3.59-6.55-.71-1.17-1.45-2.32-2.2-3.46-.16-.25-.36-.37-.65-.35-.15,0-.3,0-.45-.01-1.17-.1-2.34-.14-3.52-.16-1.58-.02-3.16-.04-4.74,.04-.97,.04-1.94,.1-2.91,.14-.25,.01-.43,.11-.57,.33-.71,1.06-1.4,2.13-2.07,3.22-1.01,1.65-1.95,3.34-2.85,5.05-.32,.62-.62,1.25-.94,1.87-.11,.22-.12,.42,0,.63,.05,.08,.08,.16,.12,.24,1.32,2.7,2.8,5.32,4.4,7.87,.44,.69,.9,1.37,1.34,2.06,.11,.17,.24,.28,.46,.29,1.22,.08,2.44,.15,3.67,.18,.76,.02,1.52,0,2.28,0Zm-18.1-31c-.02,.65,.05,1.41,.12,2.17,.17,1.81,.5,3.59,.94,5.35,.08,.31,.11,.33,.42,.28,.06-.01,.12-.02,.18-.04,1.1-.24,2.2-.45,3.31-.63,1.63-.27,3.26-.48,4.91-.64,.3-.03,.47-.16,.63-.39,1.55-2.17,3.2-4.26,4.99-6.23,.13-.14,.25-.29,.38-.43,.09-.1,.09-.2,0-.29-.06-.06-.11-.12-.17-.17-.6-.6-1.24-1.16-1.89-1.71-1.13-.96-2.31-1.85-3.57-2.63-1.12-.69-2.29-1.3-3.56-1.69-.93-.28-1.86-.47-2.84-.33-.95,.14-1.74,.56-2.34,1.32-.53,.67-.85,1.45-1.07,2.26-.33,1.21-.44,2.45-.43,3.8Zm0,40.47c-.02,.47,.04,1.2,.14,1.94,.14,1.06,.38,2.09,.89,3.04,.74,1.37,1.88,2.08,3.44,2.08,1,0,1.95-.25,2.87-.6,1.85-.71,3.5-1.77,5.07-2.96,.88-.67,1.71-1.39,2.54-2.12,.29-.26,.58-.53,.87-.81,.19-.18,.18-.24,.02-.43-.02-.02-.04-.04-.06-.07-.77-.84-1.51-1.69-2.23-2.57-1.08-1.32-2.12-2.66-3.1-4.05-.14-.2-.31-.29-.55-.31-.6-.05-1.21-.11-1.81-.19-2.2-.27-4.39-.62-6.55-1.1-.05-.01-.1-.02-.15-.03-.15-.03-.26,.01-.29,.18-.01,.07-.04,.14-.05,.21-.23,.89-.41,1.8-.57,2.7-.28,1.6-.46,3.2-.47,5.1Zm49.28-20.45c-.02-.54-.15-1.11-.42-1.64-.34-.69-.82-1.28-1.37-1.81-1.07-1.03-2.3-1.82-3.6-2.51-1.88-.99-3.86-1.72-5.89-2.35-.21-.07-.43-.13-.64-.18-.19-.05-.23-.03-.3,.15-.03,.07-.05,.15-.08,.23-.3,.92-.61,1.85-.95,2.76-.64,1.72-1.34,3.41-2.1,5.08-.1,.22-.1,.41,0,.63,.51,1.07,.96,2.16,1.41,3.26,.61,1.52,1.17,3.07,1.67,4.63q.12,.36,.49,.26s.08-.02,.12-.03c1.75-.52,3.46-1.13,5.12-1.9,1.39-.65,2.72-1.4,3.92-2.35,.75-.58,1.41-1.25,1.92-2.05,.41-.64,.67-1.34,.69-2.16Zm-13.08-20.35c-.05-.63-.04-1.45-.18-2.26-.15-.93-.37-1.85-.82-2.69-.55-1.04-1.34-1.79-2.53-2.06-.76-.17-1.51-.11-2.26,.04-1.33,.26-2.54,.83-3.71,1.48-1.34,.74-2.58,1.64-3.77,2.61-.86,.7-1.69,1.45-2.5,2.21-.27,.25-.26,.28,0,.56,.18,.2,.35,.39,.53,.59,1.51,1.67,2.9,3.44,4.23,5.24,.19,.25,.37,.51,.55,.77,.13,.19,.28,.3,.52,.31,.29,.02,.58,.06,.88,.09,2.21,.23,4.4,.56,6.57,1.01,.36,.07,.71,.15,1.07,.22,.23,.04,.27,.02,.33-.2,.02-.07,.04-.14,.05-.21,.21-.83,.38-1.66,.53-2.49,.3-1.67,.48-3.35,.5-5.23ZM3.53,273.44c-.02,.35,.07,.77,.21,1.17,.26,.71,.68,1.31,1.18,1.86,1.12,1.23,2.5,2.12,3.95,2.89,2.01,1.06,4.14,1.85,6.32,2.49,.46,.14,.46,.14,.61-.32,.64-2.01,1.38-3.98,2.2-5.92,.27-.63,.55-1.26,.84-1.89,.1-.22,.12-.41,0-.64-.16-.32-.29-.65-.43-.97-.97-2.2-1.83-4.44-2.57-6.72-.04-.12-.07-.23-.11-.35-.07-.18-.14-.22-.33-.18-.07,.01-.14,.04-.21,.06-1.18,.33-2.34,.73-3.48,1.19-1.75,.69-3.43,1.5-4.97,2.59-.9,.64-1.72,1.35-2.37,2.25-.52,.72-.88,1.5-.87,2.49Zm44.61,27.43c1.72,0,2.87-.71,3.62-2.1,.32-.6,.53-1.24,.69-1.91,.37-1.6,.38-3.23,.28-4.86-.08-1.32-.27-2.64-.53-3.94-.14-.69-.28-1.39-.45-2.08-.1-.41-.11-.42-.51-.33-2.72,.6-5.47,1.01-8.24,1.28-.34,.03-.55,.16-.74,.43-.65,.93-1.34,1.83-2.03,2.72-1.02,1.31-2.1,2.57-3.21,3.8-.24,.27-.24,.28,.02,.53,.01,.01,.03,.03,.04,.04,1.46,1.41,3.01,2.71,4.69,3.84,1.3,.87,2.65,1.64,4.15,2.13,.76,.25,1.54,.42,2.22,.44Zm-16.84-13.61s-.04,0-.06,0c-.13,.02-.32-.07-.39,.07-.06,.12,.1,.23,.18,.33,.93,1.2,1.89,2.38,2.89,3.52,.2,.23,.4,.46,.61,.67,.13,.13,.18,.12,.3,0,.03-.03,.05-.06,.08-.09,1.09-1.18,2.12-2.42,3.11-3.69,.15-.19,.3-.38,.44-.58,.04-.05,.11-.11,.07-.19-.04-.07-.13-.05-.2-.05-.05,0-.1,0-.15,0-.39,0-.77,.06-1.15,.06-1.91,0-3.83,.05-5.74-.06Zm13.73-24.22c-.12,0-.19-.02-.22,.05-.02,.05,0,.1,.03,.14,.03,.05,.07,.1,.1,.15,1.16,1.86,2.28,3.75,3.3,5.69,.09,.17,.18,.34,.28,.5,.04,.07,.06,.17,.16,.16,.09-.01,.1-.11,.14-.18,0,0,0-.02,.01-.03,.68-1.61,1.29-3.25,1.83-4.92,.18-.55,.17-.56-.39-.67-.97-.2-1.94-.39-2.92-.55-.79-.12-1.58-.24-2.31-.35Zm-20.66,20.68s.12,.03,.16-.05c.04-.08-.02-.13-.05-.19-.02-.04-.04-.07-.06-.1-1.26-2-2.45-4.06-3.55-6.15-.04-.08-.06-.2-.17-.2-.12,0-.13,.14-.17,.23-.7,1.67-1.33,3.37-1.88,5.1-.11,.33-.08,.36,.24,.44,1.01,.23,2.02,.41,3.04,.58,.8,.13,1.6,.26,2.43,.36Zm20.61,0s.08,0,.13-.02c1.15-.16,2.3-.33,3.45-.54,.65-.12,1.29-.25,1.93-.39,.29-.06,.31-.11,.23-.4,0-.02-.01-.04-.02-.06-.55-1.72-1.18-3.4-1.87-5.07-.04-.09-.04-.23-.16-.24-.12,0-.14,.13-.18,.21-1.01,1.93-2.09,3.81-3.24,5.66-.13,.21-.27,.43-.4,.65-.08,.13-.04,.18,.13,.19Zm-24.27-13.93c.18-.23,.29-.48,.41-.71,1.03-1.95,2.14-3.86,3.32-5.72,.05-.08,.16-.17,.09-.27-.07-.11-.19-.04-.28-.03-1.78,.23-3.54,.53-5.3,.9-.41,.09-.42,.1-.29,.5,.55,1.72,1.19,3.4,1.87,5.07,.03,.08,.05,.18,.17,.26Zm16.98-10.3c.19,0,.32,0,.45,0,.12,0,.29,.06,.36-.08,.05-.12-.09-.21-.16-.31-.65-.85-1.32-1.69-2.02-2.51-.47-.55-.96-1.1-1.45-1.64-.18-.2-.23-.19-.41,.01-.23,.27-.47,.53-.7,.79-.97,1.1-1.9,2.24-2.79,3.4-.06,.08-.17,.15-.12,.26,.05,.11,.18,.06,.28,.06,.6,.02,1.19-.06,1.79-.06,1.61,0,3.22-.05,4.77,.06Z"/><path class="cls-7" d="M34.68,267.3c3.4,0,6.11,2.74,6.1,6.11-.02,3.35-2.69,6.07-6.09,6.06-3.63-.01-6.1-3.01-6.08-6.12,.02-3.16,2.59-6.03,6.07-6.04Z"/></g></g><text class="cls-5" transform="translate(14.69 326.55)"><tspan class="cls-13" x="0" y="0">R</tspan><tspan class="cls-2" x="10" y="0">e</tspan><tspan x="18.42" y="0">act</tspan></text><g id="_6AJj1V"><g><path class="cls-4" d="M153.9,271.57c0,5.02,0,10.04,0,15.06,0,1.01-.45,1.72-1.28,2.22-1.35,.8-2.71,1.56-4.07,2.34-3.96,2.29-7.92,4.58-11.88,6.87-3.33,1.92-6.66,3.84-9.99,5.76-.94,.54-1.88,.52-2.83-.04-3.29-1.91-6.59-3.8-9.89-5.7-2.85-1.64-5.69-3.29-8.54-4.94-2.3-1.32-4.6-2.64-6.89-3.97-.56-.32-1.14-.62-1.49-1.22-.23-.4-.36-.83-.36-1.28,0-10.09,0-20.19,0-30.28,0-.98,.5-1.68,1.33-2.16,2.56-1.48,5.13-2.95,7.69-4.43,2.92-1.68,5.83-3.37,8.75-5.06,3.15-1.82,6.29-3.63,9.44-5.45,.94-.55,1.87-.55,2.82,0,3.25,1.88,6.5,3.75,9.75,5.63,3.45,2,6.91,4,10.36,5.99,1.87,1.08,3.74,2.16,5.62,3.23,.95,.55,1.48,1.3,1.47,2.48-.04,4.98-.02,9.96-.01,14.94Zm-16.73-1.94c0-2.1,0-4.2,0-6.3,0-.38-.11-.62-.45-.8-.76-.4-1.51-.84-2.27-1.25-.57-.31-.7-.24-.7,.4,0,2.11,0,4.22,0,6.34,0,.53-.05,.57-.5,.32-.27-.15-.53-.3-.79-.46-.23-.14-.49-.17-.72-.04-1.47,.84-2.94,1.7-4.41,2.55-.23,.13-.34,.32-.34,.59,0,1.7,0,3.4,0,5.1,0,.36,.19,.59,.51,.72,.12,.05,.25,.09,.36,.15,1.19,.7,2.38,1.4,3.57,2.09,.39,.23,.75,.32,1.18,.03,.62-.42,1.28-.8,1.93-1.17,.7-.4,1.4-.8,2.12-1.17,.37-.19,.51-.44,.5-.85-.02-2.09,0-4.17,0-6.26Zm-13.55,3.82h0c0-.84,0-1.67,0-2.51,0-.3-.1-.5-.36-.65-1.44-.83-2.87-1.65-4.31-2.49-.28-.16-.53-.17-.82,0-1.43,.84-2.87,1.66-4.3,2.49-.24,.14-.37,.33-.37,.61,0,1.69,0,3.37,0,5.06,0,.27,.11,.47,.36,.62,1.44,.82,2.88,1.65,4.31,2.49,.29,.17,.53,.16,.81,0,1.43-.84,2.86-1.67,4.3-2.49,.26-.15,.37-.35,.37-.64-.01-.82,0-1.65,0-2.47Zm-23.67,.78h0c0,1.14,0,2.28,0,3.43,0,.39,.14,.46,.49,.3,.86-.4,1.63-.97,2.48-1.4,.29-.15,.4-.39,.4-.72-.01-.88,.02-1.75-.01-2.63-.02-.56,.1-.91,.66-1.18,1.19-.58,.87-.67,1.99,0,.08,.05,.16,.09,.25,.13,.32,.17,.49,.4,.48,.79-.03,.97,0,1.94-.01,2.91,0,.25,.04,.49,.27,.62,.89,.52,1.8,1.03,2.7,1.54,.22,.13,.36,.01,.41-.2,.03-.11,.02-.24,.02-.36,0-2.14,0-4.28,.01-6.41,0-.42-.14-.67-.5-.86-.58-.31-1.18-.61-1.74-.95-.83-.52-1.69-1-2.53-1.5-.22-.14-.45-.12-.68,.01-1.44,.83-2.87,1.66-4.31,2.48-.29,.16-.4,.38-.39,.72,.02,1.1,0,2.2,0,3.31Zm40.58-.76c0,.76,.03,1.52-.01,2.27-.03,.49,.17,.75,.57,.98,1.29,.71,2.57,1.43,3.83,2.18,.43,.26,.82,.25,1.23,.03,.76-.41,1.51-.83,2.26-1.26,.39-.22,.38-.43-.01-.66-1.33-.77-2.65-1.55-4-2.29-.42-.23-.48-.51-.54-.94-.13-.98,.19-1.59,1.11-1.97,.43-.18,.75-.33,1.14,0,.19,.16,.43,.27,.65,.38,.35,.16,.54,.39,.48,.8-.04,.25-.01,.5,0,.76,0,.42,.18,.53,.55,.32,.58-.32,1.15-.67,1.72-1,1.35-.78,1.1-.45,1.15-2,.01-.41-.16-.65-.48-.83-1.4-.81-2.8-1.62-4.2-2.44-.27-.16-.52-.15-.78,0-1.4,.81-2.79,1.63-4.2,2.43-.35,.2-.48,.45-.47,.84,.02,.8,0,1.59,0,2.39Zm6,.01c0-.57-.51-1.21-.95-1.12-.32,.07-.63,.28-.88,.51-.21,.18-.07,.5-.09,.75-.02,.37,.52,.87,.93,.85,.35-.02,.62-.29,.9-.46,.19-.12,.04-.37,.08-.53Z"/><path class="cls-8" d="M130.4,273.39c-.26-.69,.28-.99,.86-1.36,.6-.38,1.03-.34,1.63,0,.66,.37,.93,.76,.9,1.53-.03,.66-.17,1.05-.78,1.4-.65,.38-1.14,.5-1.8,.04-.77-.54-.81-.48-.81-1.6Z"/><path class="cls-8" d="M116.83,273.22c-.26-.74,.24-1,.75-1.38,.69-.51,1.2-.35,1.83,.05,.5,.32,.7,.64,.72,1.25,.02,.76-.2,1.19-.88,1.59-.63,.36-1.08,.37-1.61-.06-.02-.02-.04-.03-.07-.04-.66-.25-.97-.7-.74-1.42Z"/></g></g><text class="cls-5" transform="translate(100.16 326.82)"><tspan x="0" y="0">Node +</tspan><tspan x="-1.47" y="17.55">Exp</tspan><tspan class="cls-11" x="23.41" y="17.55">r</tspan><tspan x="28.87" y="17.55">ess</tspan></text></g></svg>