<?xml version="1.0" encoding="UTF-8"?><svg id="Layer_2" xmlns="http://www.w3.org/2000/svg" viewBox="0 0 186.44 178.82"><defs><style>.cls-1{fill:#1e1e1e;}</style></defs><g id="Layer_3"><path class="cls-1" d="M186.44,89.41c0,9.62-9.33,17.66-12.15,26.34-2.92,9-.2,20.96-5.65,28.46s-17.76,8.65-25.33,14.15c-7.49,5.45-12.28,16.81-21.28,19.73-8.68,2.82-19.19-3.46-28.81-3.46s-20.13,6.28-28.81,3.46c-9-2.92-13.79-14.28-21.28-19.73s-19.82-6.59-25.33-14.15c-5.45-7.49-2.73-19.45-5.65-28.46-2.82-8.68-12.15-16.72-12.15-26.34s9.33-17.66,12.15-26.34c2.92-9,.2-20.96,5.65-28.46,5.51-7.57,17.76-8.65,25.33-14.15C50.62,15,55.41,3.65,64.41,.73c8.68-2.82,19.19,3.46,28.81,3.46s20.13-6.28,28.81-3.46c9,2.92,13.79,14.28,21.28,19.73,7.57,5.51,19.82,6.59,25.33,14.15,5.45,7.49,2.73,19.45,5.65,28.46,2.82,8.68,12.15,16.72,12.15,26.34Z"/></g></svg>