<?xml version="1.0" encoding="UTF-8"?><svg id="Layer_2" xmlns="http://www.w3.org/2000/svg" viewBox="0 0 256.24 334.91"><g id="Layer_3"><g id="c0OKSe.tif"><path d="M213.25,192.44c-4.84,0-9.67,.03-14.51-.01-1.98-.02-3.95-.13-5.89-.63-5.16-1.34-8.94-5.79-9.46-11.11-.23-2.32-.3-4.65-.3-6.98,0-8.24-.02-16.47,0-24.71,0-2.3,.04-4.62,.61-6.88,1.05-4.14,3.51-7.07,7.43-8.77,2.31-1,4.76-1.21,7.22-1.22,9.98-.03,19.96-.03,29.94,0,2.55,0,5.09,.28,7.46,1.35,2.96,1.34,5.08,3.51,6.4,6.48,1.03,2.32,1.25,4.8,1.26,7.28,.04,10,.03,20,0,30,0,2.53-.21,5.05-1.29,7.4-1.9,4.13-5.13,6.54-9.56,7.39-1.8,.35-3.64,.38-5.46,.39-4.62,.03-9.24,.01-13.86,.01,0,0,0-.01,0-.02Zm-24.06-25.5c-.07,.22,.06,.31,.12,.41,1.34,2.07,2.93,3.94,4.72,5.65,2.83,2.71,6.05,4.82,9.66,6.31,2.65,1.09,5.39,1.82,8.26,2.02,3.38,.24,6.64-.16,9.76-1.51,1.51-.65,2.9-1.58,4.54-1.96,2.61-.62,4.91-.18,6.74,1.92,.36,.41,.61,.9,.91,1.35,.1,.15,.14,.41,.4,.36,.22-.04,.3-.26,.34-.44,.12-.46,.19-.93,.2-1.42,.05-3.63-1.22-6.82-3.35-9.68-.37-.5-.37-.9-.23-1.41,.64-2.41,.72-4.87,.37-7.32-.67-4.67-2.59-8.82-5.4-12.57-1.96-2.61-4.31-4.84-6.95-6.75-.63-.46-1.26-.95-2.15-1.28,.19,.31,.29,.5,.41,.68,2.81,4.02,4.61,8.41,4.9,13.36,.14,2.41-.13,4.77-.88,7.07-.14,.44-.26,.6-.75,.3-2.97-1.83-5.77-3.9-8.51-6.04-4.5-3.51-8.79-7.26-12.82-11.31-.12-.12-.23-.3-.58-.31,3.82,5.58,7.92,10.78,12.35,15.74-3.15-1.95-6.14-4.11-9.07-6.35-2.92-2.24-5.77-4.56-8.63-6.9,6.26,8.49,12.97,16.57,21.34,23.16-.14,.1-.2,.16-.28,.2-3.99,2.21-8.27,2.68-12.71,2.03-4.32-.62-8.21-2.35-11.82-4.76-.28-.19-.51-.47-.9-.55Z"/></g><g id="AefEg1.tif"><g><path d="M194.43,16.05v.03h0s-.03,0-.05,0c.01-.02,.03-.02,.05-.02Z"/><path d="M194.43,39.78v.03s0,.03,0,.05c0,.03-.01,.05-.03,.08-.01,.01-.02,.02-.03,.01,0,0-.01,0-.02,0h.02s.02-.03,.04-.06c-.01-.04,0-.07,.02-.1Z"/><path d="M196.34,14.61h-.03s-.02-.03-.02-.05c.02,.01,.03,.03,.05,.05Z"/><path d="M199.79,14.61h-.04s-.03-.03-.03-.05c.03,.01,.06,.03,.08,.05Z"/><path d="M203.54,14.61s-.03,0-.03,0c-.02-.01-.03-.03-.03-.05,.03,.01,.05,.03,.07,.05Z"/><path d="M207.63,14.61h-.04s-.03-.03-.04-.05c.03,0,.06,.03,.08,.05Z"/><path d="M218.47,14.56s-.03,.03-.06,.04h-.04s.04-.03,.07-.03c0,0,.02,0,.03,0Z"/><polygon points="211.93 21.44 211.93 21.45 211.93 21.44 211.93 21.44"/><path d="M213.14,20.13s-.02-.01-.03-.02h0s.01-.01,.02-.01c0,0,0,.02,0,.03Z"/><path d="M218.47,14.56s-.03,.03-.06,.04h-.04s.04-.03,.07-.03c0,0,.02,0,.03,0Z"/><path d="M214.54,42.43s-.01,.01-.02,.01h0s.02-.01,.02-.01Z"/><path d="M217.24,39.73s-.03,.02-.05,.02c0-.01,.01-.02,.03-.03,0,.01,0,.01,.02,.01Z"/><path d="M213.43,62.55s0,.03,0,.05c0-.02,0-.04-.01-.05h.02Z"/><path d="M224.57,62.6s-.03-.03-.06-.05c.02,0,.03,0,.05,0,0,.01,0,.03,0,.05Z"/><path d="M206,27.62s0,.04-.01,.06v-.04s0-.01,.01-.02Z"/><path d="M207.62,25.9s0,.03,0,.05c0-.01-.01-.03-.03-.03,.01-.01,.02-.02,.03-.03Z"/><path d="M209.27,24.18s0,.02,0,.04c0-.01,0-.02,0-.03s0,0,0-.01Z"/><path d="M211.11,22.24s0,.06-.03,.08c0-.02,0-.03,0-.05,.01,0,.03-.01,.03-.03Z"/><polygon points="211.93 21.44 211.93 21.45 211.93 21.44 211.93 21.44"/><path d="M217.24,39.73s-.03,.02-.05,.02c0-.01,.01-.02,.03-.03,0,.01,0,.01,.02,.01Z"/><path d="M194.36,40.56c.02-.2-.01-.4,.01-.61,0,.21,.03,.41-.01,.61Z"/><path d="M194.43,39.78v.03s0,.03,0,.05c0,.03-.01,.05-.03,.08-.01,.01-.02,.02-.03,.01h0s.02-.04,.04-.07c-.01-.04,0-.07,.02-.1Z"/><path d="M196.44,37.78h0s0,0,0,0Z"/><path d="M207.77,49.2h-.02s0,0,.01-.02c0,0,0,.01,0,.02Z"/><path d="M194.48,62.56s-.04,.03-.06,.04h-.03s.03-.02,.05-.03h.01s.02,0,.03,0Z"/><path d="M213.43,62.55s0,.03,0,.05c0-.02,0-.04-.01-.05h.02Z"/><path d="M194.48,62.56s-.04,.03-.06,.04h-.03s.03-.02,.05-.03h.01s.02,0,.03,0Z"/><path d="M194.36,40.56c0-.2,0-.41,0-.61h.02c0,.21,.03,.41-.01,.61Z"/><path d="M194.43,16.05v.03h0s-.03,0-.05,0c.01-.02,.03-.02,.05-.02Z"/><path d="M194.43,39.78v.03s0,.03,0,.05c-.01,0-.01,.01-.02,.02-.01-.04,0-.07,.02-.1Z"/><path d="M196.44,37.78h0s0,0,0,0Z"/><path d="M201.32,32.66s-.01,.01-.03,.03c0-.02,0-.03,.02-.06,0,0,0,.02,0,.03Z"/><path d="M206,27.62s0,.04-.01,.06v-.04s0-.01,.01-.02Z"/><path d="M194.43,16.05v.03h0s-.03,0-.05,0c.01-.02,.03-.02,.05-.02Z"/><path d="M196.34,14.61h-.03s-.02-.03-.02-.05c.02,.01,.03,.03,.05,.05Z"/><path d="M206,27.62s0,.04-.01,.06v-.04s0-.01,.01-.02Z"/><path d="M207.62,25.9s0,.03,0,.05c0-.01-.01-.03-.03-.03,.01-.01,.02-.02,.03-.03Z"/><path d="M196.34,14.61h-.03s-.02-.03-.02-.05c.02,.01,.03,.03,.05,.05Z"/><path d="M199.79,14.61h-.04s-.03-.03-.03-.05c.03,.01,.06,.03,.08,.05Z"/><path d="M207.62,25.9s0,.03,0,.05c0-.01-.01-.03-.03-.03,.01-.01,.02-.02,.03-.03Z"/><path d="M209.27,24.18s0,.02,0,.04c0-.01,0-.02,0-.03s0,0,0-.01Z"/><path d="M199.79,14.61h-.04s-.03-.03-.03-.05c.03,.01,.06,.03,.08,.05Z"/><path d="M203.54,14.61s-.03,0-.03,0c-.02-.01-.03-.03-.03-.05,.03,.01,.05,.03,.07,.05Z"/><path d="M209.27,24.18s0,.02,0,.04c0-.01,0-.02,0-.03s0,0,0-.01Z"/><path d="M211.11,22.24s0,.06-.03,.08c0-.02,0-.03,0-.05,.01,0,.03-.01,.03-.03Z"/><path d="M203.54,14.61s-.03,0-.03,0c-.02-.01-.03-.03-.03-.05,.03,.01,.05,.03,.07,.05Z"/><path d="M207.63,14.61h-.04s-.03-.03-.04-.05c.03,0,.06,.03,.08,.05Z"/><path d="M211.11,22.24s0,.06-.03,.08c0-.02,0-.03,0-.05,.01,0,.03-.01,.03-.03Z"/><polygon points="211.93 21.44 211.93 21.45 211.93 21.44 211.93 21.44"/><path d="M213.14,20.13s-.02-.01-.03-.02h0s.01-.01,.02-.01c0,0,0,.02,0,.03Z"/><path d="M207.63,14.61h-.04s-.03-.03-.04-.05c.03,0,.06,.03,.08,.05Z"/><path d="M213.14,20.13s-.02-.01-.03-.02h0s.01-.01,.02-.01c0,0,0,.02,0,.03Z"/><path d="M218.45,14.56s-.03,.02-.03,.03h-.04s.04-.03,.07-.03Z"/><path d="M209.6,47.41l-.03,.03s0-.02,0-.03h.03Z"/><path d="M214.54,42.43s-.01,.01-.02,.01h0s.02-.01,.02-.01Z"/><path d="M224.57,62.6s-.03-.03-.06-.05c.02,0,.03,0,.05,0,0,.01,0,.03,0,.05Z"/><path d="M207.77,49.2h-.02s0,0,.01-.02c0,0,0,.01,0,.02Z"/><path d="M209.6,47.41l-.03,.03s0-.02,0-.03h.03Z"/><path d="M213.43,62.55s0,.03,0,.05c0-.02,0-.04-.01-.05h.02Z"/><path d="M224.57,62.6s-.03-.03-.06-.05c.02,0,.03,0,.05,0,0,.01,0,.03,0,.05Z"/><path d="M201.32,32.66s-.01,.01-.03,.03c0-.02,0-.03,.02-.06,0,0,0,.02,0,.03Z"/><path d="M214.54,42.43s-.01,.01-.02,.01h0s.02-.01,.02-.01Z"/><path d="M217.24,39.73s-.03,.02-.05,.02c0-.01,.01-.02,.03-.03,0,.01,0,.01,.02,.01Z"/><path d="M196.44,37.78h0s0,0,0,0Z"/><path d="M201.32,32.66s-.01,.01-.03,.03c0-.02,0-.03,.02-.06,0,0,0,.02,0,.03Z"/><path d="M207.77,49.2h-.02s0,0,.01-.02c0,0,0,.01,0,.02Z"/><path d="M209.6,47.41l-.03,.03s0-.02,0-.03h.03Z"/><path d="M194.48,62.56s-.04,.03-.06,.04c0-.01,.01-.02,.03-.03,0,0,.02,0,.03,0Z"/></g></g><g id="Yx5OOA.tif"><g><g><path d="M34.43,280.35c-.33-.3-.66-.59-.98-.89-1.19-1.1-2.37-2.22-3.46-3.42-1.19-1.31-2.3-2.67-3.08-4.28-.39-.82-.67-1.68-.72-2.59-.08-1.28,.33-2.41,1.06-3.45,.87-1.23,1.93-2.28,3.06-3.26,1.61-1.39,3.34-2.64,4.97-4.01,1.44-1.2,2.82-2.47,3.91-4.02,.97-1.37,1.59-2.87,1.78-4.54,.14-1.2,.03-2.38-.23-3.55-.02-.09-.07-.19-.04-.31,.21,.17,.34,.38,.48,.59,.75,1.15,1.14,2.41,1.17,3.79,.05,1.81-.5,3.46-1.36,5.02-1.11,2.01-2.63,3.69-4.3,5.25-1.03,.96-2.17,1.8-3.23,2.73-1.19,1.04-2.28,2.18-3.08,3.57-1.17,2.02-1.24,4.08-.29,6.2,.55,1.23,1.31,2.33,2.08,3.43,.79,1.13,1.59,2.24,2.2,3.48,.04,.07,.07,.15,.1,.22-.02,0-.03,.02-.05,.03Z"/><path d="M34.44,280.62l-.18-.09-.31-.28c-.23-.2-.45-.41-.68-.62-1.21-1.13-2.39-2.25-3.47-3.43-1.14-1.26-2.3-2.65-3.12-4.34-.45-.94-.7-1.82-.75-2.68-.07-1.26,.29-2.44,1.11-3.61,.77-1.1,1.73-2.11,3.1-3.3,.91-.79,1.87-1.54,2.8-2.27,.73-.57,1.46-1.14,2.17-1.74,1.27-1.06,2.73-2.36,3.87-3.97,.98-1.39,1.56-2.87,1.74-4.42,.12-1.1,.05-2.23-.23-3.47-.04-.14-.08-.26-.04-.42l.09-.39,.31,.25c.24,.19,.39,.43,.53,.64,.77,1.19,1.18,2.51,1.21,3.92,.04,1.69-.41,3.38-1.39,5.15-.99,1.79-2.33,3.42-4.34,5.31-.61,.57-1.26,1.1-1.89,1.61-.45,.37-.9,.74-1.34,1.12-1.38,1.21-2.34,2.32-3.03,3.5-1.12,1.94-1.22,3.89-.28,5.97,.52,1.16,1.21,2.18,2.05,3.39l.24,.35c.7,1,1.43,2.04,1.98,3.17,.03,.05,.05,.11,.07,.16l.13,.29-.37,.19Zm-.01-.28h0s0,0,0,0Zm6.71-33.32c.17,1.02,.2,1.98,.1,2.91-.18,1.63-.8,3.2-1.83,4.65-1.17,1.66-2.66,2.98-3.96,4.07-.72,.6-1.45,1.17-2.18,1.75-.93,.73-1.88,1.48-2.79,2.26-1.34,1.16-2.28,2.15-3.02,3.21-.75,1.07-1.08,2.14-1.02,3.29,.05,.8,.28,1.62,.7,2.5,.78,1.63,1.92,2.99,3.04,4.22,1.06,1.17,2.24,2.28,3.44,3.4,.02,.02,.05,.04,.07,.06-.45-.77-.97-1.51-1.47-2.23l-.24-.35c-.86-1.23-1.56-2.27-2.1-3.47-.99-2.21-.89-4.37,.31-6.43,.72-1.23,1.71-2.39,3.14-3.63,.44-.39,.9-.76,1.36-1.13,.62-.51,1.27-1.04,1.86-1.59,1.98-1.85,3.29-3.45,4.25-5.18,.93-1.69,1.37-3.29,1.33-4.89-.03-1.22-.36-2.36-.97-3.4Z"/></g><g><path d="M21.27,299.36c-.64,.05-1.27,.11-1.89,.25-1.22,.27-2.41,.64-3.5,1.28-.19,.11-.36,.24-.49,.43-.17,.25-.14,.46,.09,.65,.16,.13,.35,.22,.54,.29,1.2,.49,2.46,.75,3.74,.96,1.34,.22,2.69,.37,4.05,.48,1.24,.1,2.47,.16,3.71,.22,2.28,.1,4.55,.09,6.83,.06,1.25-.01,2.51-.06,3.76-.13,1.6-.08,3.19-.18,4.78-.33,2.49-.23,4.97-.51,7.42-1.06,.89-.2,1.78-.43,2.6-.85,.24-.12,.46-.27,.66-.45,.44-.41,.49-.91,.14-1.4-.03-.04-.07-.07-.06-.16,.45,.21,.88,.44,1.07,.93,.12,.32,.01,.61-.19,.87-.34,.42-.78,.71-1.25,.96-1.2,.64-2.48,1.04-3.78,1.4-2.19,.59-4.43,.98-6.68,1.27-1.41,.18-2.83,.32-4.24,.43-1.39,.1-2.78,.17-4.18,.21-1.81,.06-3.62,.05-5.43,.02-1.5-.02-3-.1-4.49-.21-2.27-.16-4.53-.37-6.79-.68-1.52-.21-3.05-.37-4.54-.75-.38-.1-.75-.23-1.11-.42-.88-.47-.99-1.12-.29-1.83,.42-.43,.92-.74,1.45-1.01,1.79-.92,3.69-1.5,5.69-1.73,.63-.08,1.27-.08,1.89,.08,.17,.04,.35,.09,.49,.23Z"/><path d="M31.57,305.96c-.92,0-1.8-.01-2.61-.02-1.35-.02-2.83-.09-4.51-.21-2.6-.18-4.77-.4-6.8-.68l-.78-.1c-1.25-.16-2.54-.34-3.79-.65-.43-.11-.81-.25-1.16-.44-.51-.27-.8-.61-.86-1.01-.06-.4,.11-.81,.52-1.22,.38-.39,.86-.73,1.51-1.06,1.8-.92,3.74-1.52,5.78-1.76,.77-.09,1.4-.07,1.98,.08,.17,.04,.41,.1,.6,.29l.39,.39-.55,.04c-.56,.04-1.21,.1-1.86,.24-1.4,.31-2.49,.7-3.43,1.25-.2,.12-.32,.22-.41,.35-.1,.14-.08,.21,.04,.32,.13,.1,.28,.18,.47,.26,1.2,.49,2.48,.75,3.68,.95,1.21,.2,2.49,.35,4.03,.48,1.29,.1,2.59,.17,3.7,.22,2.21,.1,4.4,.09,6.81,.06,1.34-.01,2.65-.07,3.75-.13,1.85-.09,3.36-.2,4.77-.33,2.36-.22,4.9-.5,7.39-1.06,.84-.19,1.73-.41,2.54-.83,.25-.13,.44-.26,.61-.41,.35-.32,.38-.68,.11-1.07-.04-.05-.12-.15-.11-.33l.03-.35,.32,.15c.5,.24,.97,.49,1.2,1.07,.14,.37,.07,.74-.23,1.11-.39,.49-.89,.79-1.33,1.03-1.28,.68-2.66,1.1-3.83,1.42-1.98,.53-4.11,.94-6.71,1.27-1.39,.18-2.82,.32-4.26,.43-1.32,.09-2.69,.17-4.19,.21-.95,.03-1.91,.04-2.84,.04Zm-11.87-6.7c-.24,0-.5,.02-.78,.05-1.98,.24-3.86,.81-5.61,1.71-.6,.31-1.04,.62-1.39,.97-.2,.2-.42,.5-.38,.79,.04,.29,.35,.51,.61,.65,.31,.17,.66,.29,1.05,.4,1.22,.31,2.5,.48,3.73,.64l.78,.1c2.03,.28,4.18,.49,6.77,.67,1.67,.12,3.14,.18,4.48,.21,1.62,.03,3.54,.04,5.42-.02,1.49-.05,2.85-.12,4.17-.21,1.43-.1,2.85-.25,4.23-.42,2.58-.33,4.7-.73,6.65-1.26,1.15-.31,2.49-.72,3.73-1.38,.39-.21,.84-.48,1.17-.9,.24-.3,.2-.5,.15-.62-.07-.18-.18-.32-.32-.43,.09,.41-.06,.81-.43,1.15-.2,.18-.43,.34-.72,.49-.87,.45-1.79,.68-2.67,.88-2.52,.56-5.07,.85-7.45,1.06-1.42,.13-2.94,.24-4.79,.33-1.11,.06-2.42,.11-3.77,.13-2.43,.02-4.61,.04-6.84-.06-1.12-.05-2.42-.11-3.72-.22-1.55-.12-2.85-.28-4.07-.48-1.23-.21-2.54-.47-3.79-.98-.2-.08-.41-.18-.6-.33-.33-.27-.38-.63-.14-.99,.17-.25,.41-.41,.57-.5,.98-.58,2.12-.99,3.57-1.31,.19-.04,.38-.08,.57-.11-.07,0-.13,0-.2,0Z"/></g><g><path d="M48.44,258.88c-.28,.16-.55,.33-.83,.49-1.84,1.09-3.66,2.23-5.37,3.53-1.15,.88-2.25,1.82-3.13,2.98-.37,.49-.67,1.01-.85,1.6-.31,.98-.16,1.92,.26,2.84,.44,.95,1.06,1.78,1.65,2.63,.39,.56,.82,1.09,1.09,1.73,.59,1.37,.42,2.69-.31,3.95-.68,1.18-1.66,2.09-2.74,2.9-.45,.34-.92,.65-1.41,.93-.05,.03-.09,.07-.19,.06,.22-.24,.44-.45,.63-.68,.56-.69,.99-1.44,1.15-2.33,.21-1.18-.09-2.24-.82-3.18-.54-.69-1.12-1.34-1.59-2.08-.65-1.02-1.15-2.1-1.36-3.3-.26-1.51,.02-2.92,.77-4.24,.9-1.58,2.23-2.75,3.7-3.77,1.95-1.34,4.08-2.32,6.28-3.14,.94-.35,1.9-.67,2.87-.93,.05-.01,.11-.02,.16-.04,0,.02,.01,.03,.02,.05Z"/><path d="M36.66,282.77s-.04,0-.07,0l-.48-.06,.33-.35c.08-.09,.16-.17,.24-.25,.13-.14,.27-.27,.38-.42,.62-.77,.97-1.47,1.1-2.21,.19-1.07-.07-2.07-.77-2.98-.15-.2-.31-.39-.47-.59-.39-.48-.79-.98-1.13-1.52-.75-1.17-1.2-2.28-1.4-3.39-.27-1.52,0-3,.8-4.4,.8-1.4,2-2.63,3.78-3.85,1.74-1.2,3.76-2.21,6.34-3.17,1.01-.38,1.96-.68,2.9-.94,.04-.01,.09-.02,.13-.03l.21-.04,.12,.19,.07,.2-.16,.15-.83,.49c-1.62,.96-3.52,2.13-5.34,3.52-1.01,.77-2.16,1.71-3.08,2.93-.38,.51-.65,1-.81,1.52-.27,.85-.18,1.72,.25,2.66,.39,.84,.94,1.61,1.47,2.35l.37,.52c.33,.46,.68,.94,.91,1.49,.59,1.38,.48,2.78-.33,4.18-.61,1.05-1.5,2-2.81,2.98-.49,.36-.96,.67-1.44,.95-.06,.04-.14,.09-.28,.09Zm10.13-23.19c-.42,.14-.86,.29-1.3,.46-2.54,.95-4.52,1.94-6.23,3.11-1.71,1.18-2.87,2.35-3.63,3.68-.74,1.29-.99,2.66-.74,4.07,.19,1.06,.61,2.08,1.33,3.21,.33,.52,.72,1,1.1,1.47,.16,.2,.32,.39,.47,.59,.8,1.03,1.09,2.16,.87,3.37-.12,.68-.4,1.32-.87,1.99,.09-.07,.19-.14,.29-.21,1.27-.95,2.09-1.82,2.67-2.83,.73-1.27,.83-2.49,.3-3.73-.21-.5-.53-.94-.86-1.4l-.37-.52c-.54-.76-1.1-1.55-1.51-2.43-.49-1.06-.58-2.04-.27-3.02,.18-.57,.47-1.12,.89-1.67,.96-1.27,2.15-2.24,3.18-3.03,1.58-1.2,3.22-2.24,4.68-3.13Z"/></g><g><path d="M26.01,294.53c-.09,.11-.19,.25-.3,.38-.28,.32-.25,.64,.1,.88,.38,.25,.82,.35,1.25,.42,1.03,.18,2.08,.26,3.13,.35,1.08,.09,2.17,.13,3.25,.12,1.53-.02,3.05-.17,4.56-.4,.9-.14,1.79-.3,2.69-.46,.12-.02,.22,0,.32,.05,.98,.58,2.01,1.08,3.07,1.51,.06,.03,.16,.03,.17,.1,0,.08-.1,.09-.16,.11-1.75,.73-3.56,1.25-5.43,1.59-1.48,.27-2.98,.43-4.49,.48-2.59,.09-5.14-.12-7.64-.82-.88-.25-1.73-.56-2.49-1.08-.23-.15-.44-.33-.61-.55-.4-.53-.35-1.07,.15-1.52,.51-.47,1.14-.73,1.77-.96,.22-.08,.45-.17,.65-.2Z"/><path d="M33.09,299.93c-2.41,0-4.59-.28-6.62-.85-1.09-.3-1.88-.65-2.57-1.11-.2-.14-.46-.33-.67-.61-.48-.64-.41-1.31,.18-1.86,.56-.51,1.25-.79,1.86-1.01l.09-.03c.2-.07,.4-.15,.6-.18l.65-.11-.49,.62c-.07,.09-.15,.19-.23,.28-.07,.07-.14,.18-.13,.28,.01,.09,.11,.17,.18,.22,.34,.23,.74,.31,1.16,.39,.92,.16,1.88,.24,2.8,.32l.3,.03c1.08,.09,2.17,.13,3.23,.12,1.39-.01,2.88-.15,4.53-.4,.74-.11,1.48-.25,2.22-.38l.46-.08c.19-.03,.34,0,.49,.08,.93,.55,1.93,1.04,3.04,1.49,.21,.06,.31,.17,.32,.32,0,.1-.03,.27-.29,.35-1.71,.72-3.56,1.26-5.5,1.61-1.46,.27-2.98,.43-4.53,.48-.37,.01-.74,.02-1.09,.02Zm-7.75-4.92c-.55,.2-1.12,.44-1.59,.87-.4,.37-.44,.76-.12,1.19,.13,.17,.29,.32,.55,.49,.64,.43,1.38,.76,2.42,1.05,2.28,.64,4.76,.9,7.56,.81,1.52-.05,3.02-.21,4.45-.47,1.79-.33,3.5-.82,5.07-1.45-1.02-.43-1.94-.89-2.81-1.4-.04-.02-.08-.03-.15-.02l-.46,.08c-.74,.13-1.48,.26-2.23,.38-1.68,.26-3.18,.39-4.6,.41-1.08,.01-2.18-.03-3.27-.12l-.3-.03c-.93-.08-1.9-.16-2.84-.33-.45-.08-.93-.18-1.35-.46-.29-.2-.38-.42-.4-.57-.01-.1,0-.25,.07-.41Z"/></g><g><path d="M27.26,280.54c-.51,.14-1,.26-1.49,.4-1.31,.37-2.61,.76-3.84,1.35-.27,.13-.52,.28-.76,.46-.43,.34-.4,.69,.1,.94,.48,.23,1,.33,1.53,.41,.92,.15,1.85,.21,2.77,.27,1.53,.08,3.06,.09,4.59,.07,1.58-.02,3.16-.08,4.73-.17,1.35-.08,2.7-.18,4.04-.29,1.4-.12,2.79-.29,4.18-.48,1.52-.2,3.03-.43,4.53-.69,.02,0,.04,0,.09,0-.12,.11-.26,.15-.38,.21-.78,.36-1.54,.77-2.26,1.23-.09,.06-.18,.1-.29,.13-1.79,.46-3.61,.77-5.44,1.01-1.51,.2-3.02,.34-4.54,.45-1.08,.07-2.17,.11-3.25,.15-1.47,.05-2.93,.04-4.4,.02-1.48-.02-2.96-.1-4.43-.23-1.45-.13-2.9-.3-4.32-.65-.49-.12-.97-.26-1.41-.49-.16-.08-.31-.17-.44-.29-.29-.27-.31-.58-.04-.87,.29-.32,.66-.5,1.03-.68,1.83-.88,3.73-1.52,5.72-1.92,1.01-.2,2.03-.35,3.06-.37,.23,0,.46-.02,.7-.03,.07,0,.14-.02,.23,.06Z"/><path d="M29.09,286.28c-.68,0-1.33,0-1.93-.02-1.47-.02-2.97-.1-4.45-.23-1.39-.13-2.87-.29-4.36-.65-.61-.15-1.06-.31-1.47-.51-.21-.11-.36-.21-.5-.33-.4-.36-.42-.83-.06-1.23,.32-.36,.74-.56,1.11-.74,1.85-.89,3.79-1.54,5.78-1.94,1.17-.23,2.16-.35,3.1-.38,.12,0,.24,0,.36-.02,.11,0,.23-.01,.34-.01,.09,0,.25-.01,.41,.13l.32,.31-.88,.24c-.35,.09-.69,.18-1.03,.28-1.38,.4-2.62,.77-3.8,1.34-.28,.14-.51,.28-.71,.43-.16,.13-.21,.23-.21,.28,0,.05,.08,.14,.26,.23,.44,.21,.92,.3,1.46,.39,.95,.15,1.92,.22,2.75,.26,1.33,.07,2.79,.09,4.57,.07,1.69-.03,3.23-.08,4.72-.17,1.35-.08,2.71-.18,4.04-.29,1.21-.1,2.53-.25,4.17-.47,1.68-.23,3.16-.45,4.52-.69h.04s.63,.07,.63,.07l-.38,.37c-.13,.11-.26,.17-.37,.22l-.07,.03c-.78,.36-1.53,.77-2.23,1.21-.11,.07-.23,.12-.36,.16-1.62,.42-3.36,.74-5.47,1.02-1.44,.19-2.93,.34-4.56,.45-1.08,.07-2.16,.11-3.26,.15-.85,.03-1.69,.04-2.48,.04Zm-3.81-5.46c-.6,.06-1.25,.16-1.96,.3-1.94,.39-3.85,1.02-5.66,1.9-.34,.17-.7,.34-.96,.62-.17,.19-.17,.35,.02,.52,.1,.09,.22,.17,.39,.25,.37,.19,.79,.33,1.36,.47,1.45,.35,2.92,.52,4.29,.64,1.46,.13,2.95,.21,4.41,.23,1.29,.02,2.82,.03,4.39-.02,1.1-.04,2.17-.08,3.24-.15,1.62-.11,3.1-.26,4.52-.44,2.09-.28,3.81-.59,5.41-1,.08-.02,.15-.05,.21-.09,.42-.27,.85-.52,1.29-.75-.95,.15-1.98,.3-3.1,.45-1.64,.22-2.97,.37-4.19,.48-1.34,.11-2.7,.21-4.05,.3-1.5,.09-3.05,.15-4.74,.17-1.8,.03-3.26,0-4.6-.07-.84-.05-1.83-.11-2.8-.27-.58-.09-1.09-.19-1.59-.43-.41-.2-.52-.45-.54-.63s.03-.45,.39-.73c.23-.18,.49-.34,.8-.49,1.1-.53,2.23-.89,3.47-1.25Z"/></g><g><path d="M24.64,287.69c-.22,.17-.4,.37-.56,.59-.39,.54-.28,1.02,.31,1.32,.57,.29,1.2,.36,1.82,.43,1.2,.13,2.41,.23,3.62,.29,1.27,.06,2.53,.08,3.8,.03,1-.04,2-.1,2.99-.19,1.21-.12,2.42-.28,3.62-.48,.81-.13,1.61-.28,2.41-.42,.11-.02,.2-.02,.29,.06,.68,.62,1.45,1.09,2.31,1.42,.03,.01,.06,.03,.09,.05-.03,.1-.12,.1-.19,.12-2.03,.58-4.09,1.01-6.18,1.31-1.44,.21-2.89,.35-4.35,.43-1.33,.08-2.66,.1-3.99,.06-2.13-.06-4.25-.25-6.32-.79-.71-.18-1.41-.42-2.05-.78-.3-.17-.57-.36-.78-.64-.26-.36-.26-.74,0-1.1,.25-.36,.59-.6,.96-.82,.65-.38,1.34-.66,2.05-.9,.04-.01,.08-.04,.14,.01Z"/><path d="M31.94,292.97c-.44,0-.87,0-1.29-.02-2.58-.08-4.54-.32-6.37-.8-.86-.22-1.53-.48-2.11-.8-.29-.16-.61-.37-.86-.71-.32-.44-.32-.94-.01-1.39,.29-.42,.69-.68,1.04-.89,.59-.34,1.25-.64,2.1-.92,.18-.07,.31,0,.38,.06l.23,.2-.24,.18c-.18,.14-.34,.31-.51,.54-.1,.14-.22,.36-.17,.55,.04,.15,.17,.29,.4,.4,.53,.27,1.14,.34,1.73,.4,1.34,.14,2.52,.24,3.61,.29,1.4,.06,2.64,.07,3.78,.03,1.08-.04,2.06-.11,2.98-.19,1.18-.11,2.39-.27,3.61-.47,.68-.11,1.35-.23,2.03-.36l.38-.07c.09-.02,.31-.06,.51,.12,.66,.6,1.41,1.06,2.23,1.37,.04,.01,.07,.03,.1,.05l.17,.1-.03,.21c-.07,.22-.26,.26-.34,.27-2.03,.58-4.12,1.02-6.24,1.32-1.39,.2-2.86,.34-4.37,.44-.92,.05-1.83,.08-2.72,.08Zm-8.09-4.79c-.48,.19-.89,.39-1.26,.61-.3,.18-.65,.41-.88,.74-.19,.28-.19,.54,0,.81,.19,.26,.46,.43,.7,.57,.54,.3,1.17,.54,1.99,.76,1.79,.46,3.73,.7,6.26,.78,1.29,.04,2.62,.02,3.97-.06,1.5-.09,2.96-.23,4.33-.43,1.96-.28,3.89-.68,5.75-1.19-.7-.32-1.34-.75-1.92-1.27-.01,0-.03,0-.08,0l-.38,.07c-.68,.12-1.36,.24-2.04,.36-1.22,.2-2.45,.36-3.64,.48-.93,.09-1.91,.15-3.01,.2-1.16,.04-2.41,.04-3.82-.03-1.09-.05-2.28-.14-3.64-.29-.64-.07-1.29-.14-1.91-.46-.36-.19-.58-.43-.65-.73-.07-.29,0-.59,.22-.91Zm21.43,2.57h0s0-.02,0-.02v.02Zm-20.66-2.85s0,0,0,0c0,0,0,0,0,0Z"/></g><g><path d="M57.5,302.84c-.04,.62-.32,1.13-.73,1.58-.69,.77-1.57,1.25-2.5,1.66-1.86,.81-3.82,1.26-5.81,1.62-1.7,.31-3.41,.51-5.13,.66-.89,.08-1.78,.13-2.68,.19-2.51,.16-5.03,.19-7.54,.15-1.57-.02-3.14-.09-4.71-.19-1.53-.1-3.05-.24-4.56-.48-1.23-.19-2.46-.43-3.63-.89-.17-.07-.35-.13-.5-.26,.06-.07,.13-.03,.19-.02,1.36,.21,2.73,.38,4.11,.5,1.31,.11,2.62,.2,3.94,.26,1.06,.05,2.11,.05,3.17,.09,1.34,.05,2.68,0,4.02-.03,1.33-.02,2.66-.1,3.99-.19,1.32-.09,2.64-.2,3.95-.35,3.61-.42,7.19-.99,10.65-2.17,1.13-.38,2.23-.84,3.19-1.58,.21-.16,.39-.36,.58-.55Z"/><path d="M34.91,308.96c-.59,0-1.19,0-1.8-.01-1.57-.02-3.16-.09-4.72-.19-1.86-.13-3.27-.27-4.58-.48-1.2-.19-2.47-.43-3.68-.9-.2-.08-.4-.16-.57-.31l-.2-.17,.18-.19c.15-.15,.33-.11,.39-.1,1.35,.21,2.72,.38,4.11,.5,1.35,.12,2.68,.2,3.93,.26,.56,.02,1.12,.04,1.69,.05,.49,.01,.99,.02,1.48,.04,1.01,.04,2.05,.01,3.05,0l.96-.02c1.15-.02,2.38-.08,3.97-.19,1.59-.11,2.81-.22,3.94-.35,3.21-.38,6.98-.93,10.59-2.15,.98-.33,2.13-.78,3.12-1.54,.15-.12,.29-.25,.43-.4l.59-.6-.04,.66c-.04,.62-.3,1.19-.79,1.73-.77,.86-1.74,1.35-2.59,1.72-1.97,.86-4.07,1.31-5.87,1.63-1.54,.28-3.18,.49-5.15,.67-.83,.07-1.67,.13-2.5,.18h-.18c-1.8,.12-3.7,.18-5.76,.18Zm-13.17-1.6c.72,.18,1.45,.31,2.14,.42,1.3,.2,2.69,.35,4.54,.47,1.55,.11,3.13,.17,4.69,.19,2.77,.04,5.23,0,7.52-.15h.18c.83-.06,1.66-.11,2.49-.19,1.96-.18,3.59-.39,5.11-.66,1.77-.32,3.83-.76,5.76-1.6,.8-.35,1.71-.81,2.42-1.6,.19-.21,.34-.42,.45-.64-1.04,.79-2.21,1.24-3.22,1.59-3.66,1.24-7.46,1.8-10.7,2.18-1.14,.13-2.37,.24-3.97,.35-1.6,.11-2.84,.17-4,.19l-.95,.02c-1.01,.02-2.05,.05-3.08,0-.49-.02-.98-.03-1.47-.04-.57-.01-1.13-.02-1.7-.05-1.26-.05-2.59-.14-3.95-.26-.76-.07-1.51-.15-2.26-.24Z"/></g><g><path d="M48.98,281.06c.17-.26,.4-.45,.67-.6,.5-.27,1.06-.39,1.61-.48,1.35-.22,2.66-.07,3.87,.6,1.35,.74,2.19,1.85,2.36,3.4,.11,1.02-.19,1.95-.71,2.82-.66,1.1-1.58,1.94-2.63,2.65-1.65,1.13-3.48,1.87-5.39,2.45-.38,.12-.77,.22-1.2,.35,.11-.21,.2-.34,.36-.43,1.47-.77,2.88-1.64,4.14-2.72,1.08-.93,2.03-1.96,2.54-3.32,.46-1.23,.41-2.44-.42-3.51-.98-1.25-2.29-1.76-3.87-1.52-.4,.06-.78,.17-1.17,.29-.05,.02-.1,.05-.18,.01Z"/><path d="M47.08,292.66l.27-.52c.12-.24,.25-.41,.47-.53,1.69-.89,2.99-1.74,4.1-2.69,1.29-1.1,2.05-2.1,2.47-3.22,.47-1.24,.34-2.34-.39-3.26-.92-1.18-2.14-1.66-3.63-1.43-.36,.06-.71,.15-1.13,.28-.07,.03-.21,.08-.37,0l-.25-.13,.15-.23c.19-.28,.44-.51,.76-.68,.54-.29,1.13-.41,1.69-.51,1.47-.24,2.83-.03,4.03,.62,1.48,.81,2.32,2.02,2.49,3.59,.11,.99-.14,1.96-.74,2.98-.61,1.02-1.47,1.89-2.7,2.73-1.48,1.01-3.21,1.8-5.45,2.49-.26,.08-.53,.16-.81,.24l-.95,.27Zm4-12.21c1.33,0,2.44,.56,3.31,1.68,.84,1.07,.99,2.33,.46,3.75-.58,1.55-1.7,2.64-2.61,3.42-.96,.82-2.05,1.57-3.4,2.33,2.12-.66,3.77-1.42,5.17-2.38,1.17-.8,1.98-1.62,2.55-2.57,.55-.92,.77-1.79,.67-2.67-.15-1.4-.9-2.48-2.23-3.21-1.1-.6-2.35-.8-3.71-.57-.48,.08-.89,.17-1.27,.33,.09-.02,.17-.03,.26-.05,.27-.04,.53-.06,.79-.06Zm-2.03,.38s-.02,0-.02,0l.04,.06,.03-.05s-.03,0-.04,0Z"/></g></g></g><g id="K8XcAz.tif"><g><path d="M65.43,.07c-.75,0-1.49-.04-2.24-.07-1.69,.11-3.39,.12-5.08,0-1.68,.12-3.37,.11-5.05,0-1.69,.12-3.39,.12-5.09,0-1.68,.11-3.37,.12-5.05,0-1.69,.12-3.39,.12-5.09,0-1.68,.12-3.37,.12-5.04,0-1.7,.12-3.39,.12-5.09,0-1.68,.13-3.37,.1-5.05,.02-1.69,.12-3.39,.12-5.09,0-1.68,.08-3.36,.11-5.04-.02-1.69,.12-3.39,.12-5.09,0-1.58,.23-3.2-.13-4.77,.2,.05,.56,.1,1.12,.15,1.69,0,.08,0,.17,0,.25,.02,.33,.03,.66,.05,1,.42,3.02,.75,6.06,.84,9.11,.25,1.68,.45,3.37,.45,5.08,.29,1.67,.43,3.36,.46,5.06,.17,1.69,.33,3.38,.49,5.08,.13,1.68,.27,3.36,.4,5.04,.27,1.68,.45,3.37,.44,5.07,.31,1.67,.44,3.36,.47,5.06,.16,1.69,.32,3.38,.49,5.07,.14,1.68,.29,3.37,.43,5.05,.43,3.37,.73,6.74,.89,10.13,.04,.12,.13,.24,.11,.35-.37,2.59,1.11,3.39,3.35,3.81,2,.37,3.94,1.1,5.9,1.68,1.74,.32,3.42,.86,5.1,1.38,1.68,.47,3.36,.95,5.04,1.42,1.64,.31,3.24,.76,4.81,1.32,.17,.06,.34,.12,.52,.17,2.23,.87,4.25-.16,6.33-.69,1.18-.3,2.36-.59,3.54-.87,1.66-.61,3.36-1.05,5.08-1.43,1.66-.54,3.32-1.05,5.04-1.36,1.02-.38,2.03-.81,3.15-.76,1.32-.77,2.84-1,4.28-1.36,1.05-.25,1.48-.73,1.46-1.77,0-.62-.03-1.26,.22-1.86-.03-1.71,.2-3.41,.4-5.1,.32-3.37,.63-6.74,.94-10.11,.04-1.7,.18-3.39,.48-5.07,0-1.71,.16-3.39,.44-5.08,0-1.71,.21-3.39,.44-5.08,.14-1.68,.29-3.35,.44-5.03,.06-1.7,.18-3.39,.47-5.08,.07-1.69,.16-3.39,.47-5.07-.01-1.71,.18-3.39,.47-5.07-.02-1.69,.22-3.36,.39-5.04,.11-1.69,.17-3.4,.48-5.08,.01-2.05,.01-2.05-2.12-2.05Zm-9.93,14.3c-.25,2.13-.44,4.27-.61,6.41-.05,.59-.17,.91-.86,.9-6.32-.04-12.65-.05-18.97-.07,.01,.04,.02,.08,.02,.12-3.54-.02-7.09-.03-10.63-.07-.65-.01-.75,.25-.69,.85,.23,2.18,.44,4.36,.6,6.55,.05,.68,.24,.95,.97,.94,3.25-.05,6.5-.04,9.75-.06l-.02,.1c6.07-.02,12.15-.02,18.24-.07,.76,0,.79,.37,.74,.95-.46,4.91-.91,9.82-1.35,14.73-.23,2.56-.49,5.12-.65,7.69-.07,1.1-.37,1.68-1.56,1.99-4.74,1.21-9.45,2.56-14.16,3.86-.41,.11-.8,.28-1.24,.2,.03,.04,.03,.08,0,.12-5.16-1.42-10.31-2.87-15.48-4.26-.86-.23-1.21-.59-1.27-1.52-.24-3.44-.58-6.88-.93-10.32-.1-.95,.06-1.37,1.15-1.32,1.89,.09,3.8,.11,5.69,0,1.17-.07,1.43,.41,1.46,1.43,.04,1.43,.24,2.85,.36,4.28,.04,.5,.17,.83,.76,.98,2.74,.68,5.47,1.41,8.2,2.13,.01,.05,.03,.1,.04,.15,2.72-.74,5.43-1.5,8.16-2.19,.73-.18,1.01-.49,1.07-1.26,.21-2.89,.47-5.78,.79-8.66,.11-.9-.35-.85-.94-.85-3.03-.01-6.06-.04-9.09-.06,.02,.04,.03,.08,.03,.13-5.57-.02-11.15-.07-16.72-.03-1.14,0-1.47-.3-1.57-1.45-.59-7.23-1.25-14.45-1.95-21.67-.11-1.16,.15-1.5,1.36-1.48,6.29,.04,12.58-.02,18.87-.04,0,.05-.01,.1-.03,.15,2.66-.03,5.31-.07,7.96-.08,3.84-.01,7.68,0,11.51,0,.56,0,1.1-.1,.99,.82Z"/><path d="M241.98,0c-1.68,.11-3.37,.11-5.05,0-1.69,.11-3.39,.11-5.09,0-1.68,.11-3.37,.11-5.04,0-1.7,.11-3.39,.11-5.09,0-1.68,.11-3.37,.11-5.05,0-1.69,.11-3.39,.11-5.09,0-1.68,.11-3.37,.11-5.06,0-1.69,.11-3.39,.11-5.08,0-1.68,.11-3.37,.11-5.05,0-1.69,.11-3.39,.11-5.08,0-1.68,.12-3.37,.09-5.05,.01-.95,.03-1.91,.13-2.85,.06-1.07-.09-1.42,.3-1.22,1.32,.04,.24,0,.5-.01,.74,.28,1.67,.4,3.36,.45,5.06,.17,1.69,.33,3.39,.49,5.08,.17,1.68,.43,3.34,.39,5.04,.29,1.68,.47,3.37,.46,5.08,.31,1.67,.43,3.36,.47,5.06,.16,1.69,.33,3.38,.49,5.07,.14,1.68,.28,3.37,.42,5.05,.25,1.67,.44,3.36,.44,5.06,.32,1.68,.44,3.38,.46,5.08,.5,3.36,.71,6.74,.93,10.13,.15,1.67,.31,3.35,.47,5.03,.03,.08,.07,.15,.08,.24,.35,3.11,.36,3.1,3.38,3.92,1.78,.48,3.55,1.02,5.32,1.54,1.71,.39,3.4,.8,5.04,1.42,1.73,.32,3.42,.83,5.08,1.38,1.99,.53,4,.99,5.95,1.63,1.43,.47,2.78,.4,4.17,0l.06-.05,.07,.04c1.59-.67,3.27-1.01,4.93-1.42,1.66-.54,3.33-1.06,5.06-1.37,1.64-.61,3.34-1.02,5.05-1.41,2.7-.77,5.38-1.6,8.11-2.29,1.01-.25,1.28-.71,1.36-1.7,.17-2.33,.24-4.68,.69-6.99,0-1.69,.2-3.37,.42-5.04,.16-1.7,.31-3.39,.47-5.09,.15-1.68,.3-3.37,.45-5.05,.06-1.7,.19-3.39,.47-5.07,.03-1.7,.16-3.39,.46-5.07,0-1.7,.18-3.38,.44-5.06,.14-1.68,.28-3.36,.42-5.04,.09-1.7,.19-3.4,.48-5.08,.08-1.69,.14-3.38,.47-5.06,.2-3.39,.45-6.78,.87-10.15,.04-.66,.09-1.32,.13-1.98-1.69-.04-3.38-.09-5.07-.13Zm-7.12,14.53c-.47,4.82-.89,9.65-1.33,14.47-.56,6.12-1.12,12.25-1.68,18.37-.19,2.14-.42,4.28-.54,6.42-.05,.87-.4,1.23-1.21,1.45-5.17,1.38-10.33,2.82-15.49,4.24-.08-.03-.17-.06-.25-.09-4.65-1.24-9.3-2.46-13.94-3.72-2.87-.78-2.83-.8-3.03-3.79-.19-2.86-.42-5.72-.7-8.57-.09-.91,.06-1.28,1.09-1.24,1.98,.08,3.97,.07,5.95,0,.84-.03,1.11,.29,1.16,1.06,.1,1.51,.25,3.02,.37,4.54,.04,.48,.07,.89,.68,1.04,2.79,.69,5.56,1.41,8.33,2.12,.04,.06,.07,.12,.11,.18,2.72-.74,5.43-1.5,8.16-2.2,.66-.17,.97-.43,1.02-1.16,.14-2.06,.4-4.11,.6-6.16,.61-6.29,1.21-12.58,1.82-18.87,.06-.58,.14-1.08-.74-1.07-3.54,.06-7.08,.06-10.63,.08-.08-.06-.15-.11-.23-.16-1.56,.03-3.11,.08-4.67,.09-4.68,.01-9.36-.01-14.04,.02-.79,0-1.11-.18-1.15-1.04-.08-2.06-.27-4.11-.44-6.17-.06-.62,.09-.91,.8-.9,6.5,.04,12.99,.05,19.48,.07,.08-.04,.16-.09,.24-.14,4.21,.03,8.43,.06,12.65,.08,2.19,.01,4.39,.03,6.58-.02,.83-.02,1.11,.22,1.02,1.07Z"/><path d="M157.54,0c-1.69,.11-3.39,.11-5.09,0-1.68,.11-3.37,.11-5.05,0-1.69,.11-3.39,.11-5.08,0-1.68,.11-3.37,.11-5.05,0-1.69,.11-3.39,.11-5.09,0-1.68,.11-3.37,.11-5.05,0-1.69,.11-3.39,.11-5.09,0-1.68,.11-3.37,.11-5.05,0-1.69,.11-3.39,.11-5.08,0-1.69,.11-3.37,.11-5.06,0-1.69,.11-3.39,.11-5.08,0-1.68,.11-3.37,.11-5.06,0q-1.98,.18-1.97,2.12c.28,1.68,.47,3.36,.47,5.07,.31,1.68,.43,3.37,.47,5.07,.15,1.68,.32,3.37,.47,5.06,.15,1.69,.3,3.39,.45,5.08,.34,3.37,.75,6.73,.87,10.11,.3,1.68,.44,3.37,.48,5.07,.29,1.67,.36,3.36,.46,5.05,.16,1.69,.32,3.39,.48,5.08,.18,1.68,.42,3.35,.39,5.04,.29,1.68,.46,3.37,.47,5.07,.32,1.67,.37,3.37,.47,5.06,.08,.66,.28,1.32,.23,1.97-.07,1.04,.38,1.53,1.35,1.68,1.43,.4,2.86,.81,4.29,1.21,.29-.04,.55,.05,.78,.23,1.73,.36,3.44,.81,5.1,1.41,1.72,.33,3.39,.81,5.04,1.38,3.38,.92,6.76,1.84,10.13,2.76,3.38-.92,6.76-1.84,10.14-2.76,1.66-.56,3.33-1.05,5.05-1.38,1.66-.6,3.36-1.06,5.09-1.41,.34-.09,.68-.18,1.01-.27,1.31-.56,2.69-.85,4.06-1.18,.95-.14,1.45-.61,1.41-1.66-.03-.65,.13-1.32,.21-1.98,.05-1.71,.19-3.4,.45-5.08,.15-1.68,.32-3.37,.48-5.06,.02-1.7,.14-3.39,.47-5.07-.01-1.69,.19-3.37,.44-5.04-.01-1.71,.2-3.39,.41-5.09,.16-1.68,.33-3.37,.49-5.05,.2-3.39,.43-6.78,.93-10.14-.03-1.69,.22-3.37,.4-5.04,.16-1.69,.32-3.39,.48-5.08,.14-1.68,.29-3.37,.44-5.06,.05-1.87,.21-3.72,.49-5.56q.03-1.46-2.03-1.63Zm-10.17,15.12c-.49,4.73-.9,9.47-1.32,14.21-.73,8.18-1.43,16.36-2.15,24.54-.04,.55-.04,1.01-.78,1.21-5.17,1.39-10.33,2.83-15.49,4.25-.15,.04-.33,0-.5,.01,.01,.04,.01,.09,0,.13-5.4-1.48-10.8-2.98-16.21-4.44-.69-.19-.92-.51-.98-1.21-.3-3.69-.63-7.38-.99-11.07-.07-.71,.08-.99,.84-.97,2.19,.04,4.39,.04,6.58,0,.7-.02,.95,.23,1,.92,.09,1.56,.27,3.11,.41,4.66,.04,.5,.01,.97,.7,1.15,2.69,.7,5.35,1.46,8.03,2.19,.19,.05,.42,0,.63-.01-.01,.06-.02,.13-.02,.19,2.64-.73,5.27-1.49,7.92-2.18,.81-.21,1.17-.55,1.23-1.43,.18-2.6,.44-5.21,.75-7.8,.13-1.09-.1-1.46-1.29-1.43-2.86,.07-5.73-.02-8.6-.04,0,.05,0,.09,.02,.14-5.6-.02-11.21-.08-16.81-.03-1.13,0-1.52-.29-1.56-1.43-.07-1.89-.24-3.78-.5-5.65-.14-.97,.19-1.12,1.04-1.11,5.44,.03,10.88,.02,16.31,.01,.51,0,1.01-.04,1.52-.06-.01,.04-.01,.09-.01,.13,3.17-.02,6.33-.09,9.49-.04,1,.01,1.32-.32,1.38-1.26,.13-1.98,.33-3.95,.57-5.91,.12-.91-.17-1.16-1.07-1.15-3.46,.03-6.92-.02-10.38-.05,0,.05,0,.09,.01,.14-5.99-.02-11.98-.04-17.96-.07-1.67,0-1.65,0-1.79-1.71-.14-1.68-.23-3.36-.48-5.03-.17-1.11,.2-1.33,1.25-1.32,5.82,.05,11.64,.03,17.46,.02,.5,0,1.01-.04,1.51-.07,0,.07,0,.13,.02,.2,4.13-.03,8.27-.06,12.4-.08,2.15-.01,4.31,.07,6.46-.03,1.18-.06,1.51,.29,1.38,1.47Z"/></g></g><g><path d="M198.89,218.54c-.84,0-1.58-.12-2.21-.37s-1.25-.65-1.84-1.19c-.08-.07-.14-.15-.2-.25s-.08-.21-.08-.32c0-.18,.07-.34,.2-.48,.13-.14,.29-.21,.48-.21,.16,0,.3,.06,.43,.19,.44,.43,.92,.76,1.44,.99,.52,.23,1.1,.34,1.74,.34,.5,0,.95-.08,1.34-.24s.71-.38,.95-.66c.24-.28,.36-.61,.36-.99,0-.45-.13-.83-.38-1.12-.25-.29-.61-.54-1.05-.73-.45-.19-.97-.36-1.56-.51-.52-.12-1-.27-1.44-.45-.44-.18-.82-.4-1.14-.66-.32-.27-.57-.59-.75-.97-.18-.38-.26-.83-.26-1.35,0-.65,.17-1.21,.51-1.69,.34-.48,.81-.86,1.42-1.13,.61-.27,1.3-.41,2.08-.41,.69,0,1.35,.11,1.96,.34,.62,.23,1.11,.54,1.49,.94,.23,.22,.34,.43,.34,.65,0,.16-.07,.31-.21,.45-.14,.14-.3,.21-.48,.21-.12,0-.24-.04-.34-.12-.19-.22-.44-.41-.74-.58-.3-.17-.62-.31-.97-.41-.35-.1-.69-.15-1.05-.15-.52,0-.98,.08-1.38,.23-.4,.15-.71,.37-.93,.64-.22,.27-.33,.6-.33,.99,0,.43,.12,.79,.37,1.06,.25,.28,.58,.5,1,.68,.42,.18,.88,.33,1.39,.47,.56,.14,1.07,.29,1.54,.47,.47,.18,.88,.39,1.22,.65,.34,.26,.6,.59,.79,.99s.28,.9,.28,1.49c0,.62-.18,1.18-.53,1.67-.35,.49-.83,.87-1.44,1.16-.61,.28-1.29,.42-2.05,.42Z"/><path d="M215.31,209.42c.18,0,.34,.06,.47,.19,.13,.12,.2,.29,.2,.51,0,.05,0,.09,0,.14,0,.05-.02,.09-.04,.13l-2.62,7.53c-.06,.15-.15,.26-.28,.35-.13,.08-.27,.12-.42,.09-.26-.01-.46-.16-.59-.44l-2.14-5.35,.34,.05-1.94,5.3c-.12,.28-.32,.43-.59,.44-.15,.02-.29,0-.43-.09-.14-.09-.23-.2-.29-.35l-2.65-7.53c-.03-.09-.05-.18-.05-.27,0-.19,.06-.36,.19-.49,.12-.14,.29-.2,.51-.2,.14,0,.26,.03,.37,.1,.11,.07,.19,.18,.24,.34l2.29,6.68-.36-.02,1.97-5.1c.12-.28,.34-.42,.65-.42,.16,0,.29,.04,.38,.11,.1,.07,.17,.18,.21,.31l2.07,5.1-.43,.03,2.29-6.7c.09-.29,.31-.44,.65-.44Z"/><path d="M218.42,208.3c-.28,0-.49-.06-.63-.17s-.2-.29-.2-.53v-.24c0-.24,.07-.41,.22-.53,.15-.11,.36-.17,.63-.17s.48,.06,.61,.17,.2,.29,.2,.53v.24c0,.24-.07,.41-.21,.53-.14,.11-.35,.17-.62,.17Zm.7,9.37c0,.19-.07,.36-.2,.49-.13,.14-.29,.2-.48,.2-.2,0-.37-.07-.5-.2-.13-.14-.2-.3-.2-.49v-7.53c0-.19,.07-.36,.2-.49,.13-.14,.3-.2,.5-.2,.19,0,.35,.07,.48,.2,.13,.14,.2,.3,.2,.49v7.53Z"/><path d="M225.71,209.71c.18,0,.33,.06,.46,.18,.12,.12,.19,.27,.19,.45s-.06,.33-.19,.45c-.12,.12-.28,.18-.46,.18h-4.27c-.18,0-.33-.06-.46-.18-.12-.12-.19-.27-.19-.45,0-.19,.06-.35,.19-.46s.28-.17,.46-.17h4.27Zm-.48-3.89c.19,0,.39,.03,.6,.08,.21,.05,.39,.13,.54,.24,.15,.11,.23,.26,.23,.45,0,.18-.06,.33-.17,.45s-.25,.18-.41,.18c-.1,0-.24-.03-.43-.08-.18-.06-.37-.08-.56-.08-.26,0-.47,.06-.64,.17s-.28,.26-.36,.45c-.07,.19-.11,.39-.11,.62v9.38c0,.19-.07,.36-.2,.49-.13,.14-.29,.2-.48,.2-.2,0-.37-.07-.49-.2-.12-.14-.19-.3-.19-.49v-9.38c0-.75,.24-1.35,.71-1.79s1.12-.67,1.95-.67Z"/><path d="M227.65,209.63h4c.18,0,.33,.06,.45,.19,.12,.12,.18,.28,.18,.46,0,.17-.06,.31-.18,.43-.12,.12-.27,.18-.45,.18h-4c-.17,0-.32-.06-.45-.19-.13-.12-.2-.27-.2-.44,0-.18,.07-.33,.2-.45,.13-.12,.28-.18,.45-.18Zm1.78-2.31c.19,0,.35,.07,.48,.2,.12,.14,.19,.3,.19,.49v8.19c0,.27,.04,.48,.12,.61,.08,.14,.18,.23,.31,.28,.13,.05,.26,.08,.38,.08,.11,0,.21-.02,.3-.06,.08-.04,.18-.06,.3-.06s.22,.05,.31,.16c.1,.11,.14,.25,.14,.42,0,.2-.12,.38-.36,.52-.24,.14-.5,.21-.8,.21-.16,0-.35-.01-.59-.03-.23-.02-.46-.1-.69-.22-.23-.12-.42-.33-.57-.62-.15-.29-.23-.69-.23-1.22v-8.26c0-.19,.07-.36,.2-.49,.14-.14,.3-.2,.49-.2Z"/></g><g><path d="M18.95,334.91c-.69,0-1.32-.18-1.88-.53-.56-.35-1-.82-1.32-1.41-.08-.14-.12-.26-.12-.37,0-.19,.07-.35,.22-.48,.15-.12,.3-.19,.46-.19,.12,0,.24,.03,.35,.1,.11,.07,.2,.16,.28,.27,.23,.37,.51,.67,.85,.9,.34,.23,.73,.34,1.16,.34,.46,0,.88-.1,1.24-.31s.65-.48,.86-.84c.21-.36,.31-.76,.31-1.22v-7.65c0-.19,.07-.36,.21-.49,.14-.14,.31-.2,.5-.2,.22,0,.39,.07,.51,.2,.12,.14,.19,.3,.19,.49v7.65c0,.69-.16,1.32-.49,1.89-.33,.57-.78,1.01-1.36,1.34-.58,.33-1.24,.49-1.97,.49Z"/><path d="M32.69,325.86c.2,0,.37,.07,.49,.2,.12,.13,.19,.29,.19,.48v7.5c0,.19-.07,.36-.2,.49-.13,.14-.29,.2-.48,.2-.2,0-.37-.07-.49-.2-.12-.14-.19-.3-.19-.49v-1.62l.32-.03c0,.26-.09,.54-.26,.82s-.4,.56-.7,.82c-.29,.25-.64,.46-1.05,.63-.4,.16-.83,.25-1.28,.25-.78,0-1.48-.2-2.09-.6-.61-.4-1.1-.95-1.45-1.64-.36-.69-.54-1.48-.54-2.36s.18-1.69,.54-2.37c.36-.69,.84-1.22,1.45-1.61,.61-.39,1.29-.59,2.04-.59,.49,0,.94,.08,1.36,.24,.42,.16,.78,.37,1.1,.65,.31,.27,.55,.57,.73,.9,.18,.33,.26,.66,.26,.99l-.44-.1v-1.85c0-.19,.06-.35,.19-.48,.12-.13,.29-.2,.49-.2Zm-3.5,7.79c.57,0,1.07-.15,1.5-.44,.44-.29,.78-.69,1.02-1.2,.24-.5,.37-1.07,.37-1.71s-.12-1.18-.37-1.68c-.24-.5-.58-.9-1.02-1.19-.44-.29-.94-.44-1.5-.44s-1.05,.14-1.49,.43c-.44,.29-.78,.68-1.03,1.18s-.37,1.07-.37,1.7,.12,1.2,.37,1.71c.25,.5,.59,.9,1.03,1.2,.44,.29,.93,.44,1.49,.44Z"/><path d="M35.68,325.79c.14,0,.27,.04,.39,.11s.22,.18,.27,.33l2.82,6.61-.27,.14,2.86-6.75c.12-.31,.34-.45,.65-.44,.17,0,.32,.06,.44,.17,.12,.11,.19,.26,.19,.44,0,.07,0,.13-.03,.19-.02,.06-.04,.11-.06,.17l-3.28,7.53c-.12,.28-.32,.43-.59,.44-.15,.02-.29,0-.42-.08-.13-.08-.23-.2-.3-.36l-3.28-7.53s-.03-.08-.04-.14c-.02-.06-.03-.13-.03-.2,0-.15,.06-.29,.18-.42,.12-.14,.29-.2,.5-.2Z"/><path d="M51.98,325.86c.2,0,.37,.07,.49,.2,.12,.13,.19,.29,.19,.48v7.5c0,.19-.07,.36-.2,.49-.13,.14-.29,.2-.48,.2-.2,0-.37-.07-.49-.2-.12-.14-.19-.3-.19-.49v-1.62l.32-.03c0,.26-.09,.54-.26,.82s-.4,.56-.7,.82c-.29,.25-.64,.46-1.05,.63-.4,.16-.83,.25-1.28,.25-.78,0-1.48-.2-2.09-.6-.61-.4-1.1-.95-1.45-1.64-.36-.69-.54-1.48-.54-2.36s.18-1.69,.54-2.37c.36-.69,.84-1.22,1.45-1.61,.61-.39,1.29-.59,2.04-.59,.49,0,.94,.08,1.36,.24,.42,.16,.78,.37,1.1,.65,.31,.27,.55,.57,.73,.9,.18,.33,.26,.66,.26,.99l-.44-.1v-1.85c0-.19,.06-.35,.19-.48,.12-.13,.29-.2,.49-.2Zm-3.5,7.79c.57,0,1.07-.15,1.5-.44,.44-.29,.78-.69,1.02-1.2,.24-.5,.37-1.07,.37-1.71s-.12-1.18-.37-1.68c-.24-.5-.58-.9-1.02-1.19-.44-.29-.94-.44-1.5-.44s-1.05,.14-1.49,.43c-.44,.29-.78,.68-1.03,1.18s-.37,1.07-.37,1.7,.12,1.2,.37,1.71c.25,.5,.59,.9,1.03,1.2,.44,.29,.93,.44,1.49,.44Z"/></g><g><path d="M14.27,86.99c.19,0,.36,.07,.49,.2,.14,.14,.2,.3,.2,.49v10.51c0,.19-.07,.36-.21,.49-.14,.14-.31,.2-.5,.2-.22,0-.39-.07-.52-.2-.13-.14-.2-.3-.2-.49v-10.51c0-.19,.07-.36,.2-.49,.14-.14,.31-.2,.53-.2Zm-.07,5.19h7.91l-.02,1.33h-7.94l.05-1.33Zm7.89-5.19c.22,0,.39,.07,.52,.2,.13,.14,.2,.3,.2,.49v10.51c0,.19-.07,.36-.2,.49-.14,.14-.31,.2-.53,.2-.19,0-.36-.07-.49-.2-.14-.14-.2-.3-.2-.49v-10.51c0-.19,.07-.36,.21-.49,.14-.14,.31-.2,.5-.2Z"/><path d="M25.52,88.29c-.19,0-.36-.06-.49-.19s-.2-.28-.2-.48,.07-.35,.2-.47c.14-.12,.3-.18,.49-.18h7.91c.19,0,.36,.06,.49,.19s.2,.28,.2,.48-.07,.35-.2,.47-.3,.18-.49,.18h-7.91Zm3.94,10.59c-.22,0-.39-.07-.52-.2-.13-.14-.2-.3-.2-.49v-10.49h1.45v10.49c0,.19-.07,.36-.2,.49-.14,.14-.31,.2-.53,.2Z"/><path d="M36.86,86.97c.1,0,.21,.03,.33,.08,.12,.06,.21,.14,.28,.24l4.51,6.8-.61-.02,4.56-6.78c.16-.21,.35-.32,.58-.32,.18,.01,.34,.08,.48,.21,.14,.13,.21,.29,.21,.48v10.52c0,.19-.07,.36-.2,.49-.14,.14-.31,.2-.51,.2-.22,0-.39-.07-.52-.2-.13-.14-.2-.3-.2-.49v-9.21l.42,.07-4.01,6.1c-.07,.09-.15,.16-.25,.22-.1,.06-.2,.08-.31,.07-.1,.01-.2-.01-.31-.07-.1-.06-.18-.13-.24-.22l-3.96-6.09,.36-.46v9.59c0,.19-.06,.36-.19,.49-.12,.14-.28,.2-.48,.2s-.35-.07-.48-.2c-.12-.14-.19-.3-.19-.49v-10.52c0-.18,.07-.34,.2-.48,.14-.14,.31-.21,.51-.21Z"/><path d="M56.73,97.54c.19,0,.36,.06,.49,.2s.2,.29,.2,.48-.07,.35-.2,.48c-.14,.12-.3,.19-.49,.19h-5.88c-.2,0-.37-.07-.5-.2-.13-.14-.2-.3-.2-.49v-10.51c0-.19,.07-.36,.2-.49,.14-.14,.31-.2,.53-.2,.19,0,.36,.07,.49,.2,.14,.14,.2,.3,.2,.49v10.17l-.34-.31h5.49Z"/></g><g><path d="M121.93,87.77c.19,.1,.31,.26,.34,.46,.03,.2-.02,.4-.15,.58-.1,.14-.23,.21-.39,.23-.16,.02-.32-.01-.48-.09-.37-.23-.78-.41-1.21-.54s-.88-.2-1.36-.2c-.67,0-1.28,.11-1.84,.34-.56,.23-1.04,.55-1.45,.98-.41,.42-.73,.93-.95,1.5-.23,.58-.34,1.21-.34,1.9,0,.75,.12,1.42,.36,2.01s.56,1.09,.98,1.5c.41,.41,.9,.73,1.45,.94,.55,.22,1.15,.32,1.79,.32,.46,0,.91-.06,1.34-.19,.43-.12,.83-.31,1.21-.54,.16-.08,.32-.11,.48-.08,.16,.02,.3,.1,.4,.24,.15,.18,.2,.37,.16,.57-.04,.2-.15,.35-.33,.45-.28,.17-.61,.32-.97,.46-.36,.14-.74,.24-1.13,.32-.39,.08-.78,.12-1.16,.12-.82,0-1.59-.14-2.31-.42-.73-.28-1.37-.69-1.93-1.22-.56-.53-1-1.17-1.32-1.92-.32-.75-.48-1.61-.48-2.56,0-.87,.15-1.68,.46-2.42,.31-.74,.73-1.39,1.27-1.93,.54-.54,1.18-.97,1.91-1.27,.73-.3,1.53-.45,2.39-.45,.59,0,1.16,.08,1.72,.23,.56,.15,1.07,.38,1.53,.67Z"/><path d="M127.8,99.05c-.84,0-1.58-.12-2.21-.37s-1.25-.65-1.84-1.19c-.08-.07-.14-.15-.2-.25s-.08-.21-.08-.32c0-.18,.07-.34,.2-.48,.13-.14,.29-.21,.48-.21,.16,0,.3,.06,.43,.19,.44,.43,.92,.76,1.44,.99,.52,.23,1.1,.34,1.74,.34,.5,0,.95-.08,1.34-.24s.71-.38,.95-.66c.24-.28,.36-.61,.36-.99,0-.45-.13-.83-.38-1.12-.25-.29-.61-.54-1.05-.73-.45-.19-.97-.36-1.56-.51-.52-.12-1-.27-1.44-.45-.44-.18-.82-.4-1.14-.66-.32-.27-.57-.59-.75-.97-.18-.38-.26-.83-.26-1.35,0-.65,.17-1.21,.51-1.69,.34-.48,.81-.86,1.42-1.13,.61-.27,1.3-.41,2.08-.41,.69,0,1.35,.11,1.96,.34,.62,.23,1.11,.54,1.49,.94,.23,.22,.34,.43,.34,.65,0,.16-.07,.31-.21,.45-.14,.14-.3,.21-.48,.21-.12,0-.24-.04-.34-.12-.19-.22-.44-.41-.74-.58-.3-.17-.62-.31-.97-.41-.35-.1-.69-.15-1.05-.15-.52,0-.98,.08-1.38,.23-.4,.15-.71,.37-.93,.64-.22,.27-.33,.6-.33,.99,0,.43,.12,.79,.37,1.06,.25,.28,.58,.5,1,.68,.42,.18,.88,.33,1.39,.47,.56,.14,1.07,.29,1.54,.47,.47,.18,.88,.39,1.22,.65,.34,.26,.6,.59,.79,.99s.28,.9,.28,1.49c0,.62-.18,1.18-.53,1.67-.35,.49-.83,.87-1.44,1.16-.61,.28-1.29,.42-2.05,.42Z"/><path d="M137.55,99.05c-.84,0-1.58-.12-2.21-.37s-1.25-.65-1.84-1.19c-.08-.07-.14-.15-.2-.25s-.08-.21-.08-.32c0-.18,.07-.34,.2-.48,.13-.14,.29-.21,.48-.21,.16,0,.3,.06,.43,.19,.44,.43,.92,.76,1.44,.99,.52,.23,1.1,.34,1.74,.34,.5,0,.95-.08,1.34-.24s.71-.38,.95-.66c.24-.28,.36-.61,.36-.99,0-.45-.13-.83-.38-1.12-.25-.29-.61-.54-1.05-.73-.45-.19-.97-.36-1.56-.51-.52-.12-1-.27-1.44-.45-.44-.18-.82-.4-1.14-.66-.32-.27-.57-.59-.75-.97-.18-.38-.26-.83-.26-1.35,0-.65,.17-1.21,.51-1.69,.34-.48,.81-.86,1.42-1.13,.61-.27,1.3-.41,2.08-.41,.69,0,1.35,.11,1.96,.34,.62,.23,1.11,.54,1.49,.94,.23,.22,.34,.43,.34,.65,0,.16-.07,.31-.21,.45-.14,.14-.3,.21-.48,.21-.12,0-.24-.04-.34-.12-.19-.22-.44-.41-.74-.58-.3-.17-.62-.31-.97-.41-.35-.1-.69-.15-1.05-.15-.52,0-.98,.08-1.38,.23-.4,.15-.71,.37-.93,.64-.22,.27-.33,.6-.33,.99,0,.43,.12,.79,.37,1.06,.25,.28,.58,.5,1,.68,.42,.18,.88,.33,1.39,.47,.56,.14,1.07,.29,1.54,.47,.47,.18,.88,.39,1.22,.65,.34,.26,.6,.59,.79,.99s.28,.9,.28,1.49c0,.62-.18,1.18-.53,1.67-.35,.49-.83,.87-1.44,1.16-.61,.28-1.29,.42-2.05,.42Z"/></g><g><path d="M176.3,99.05c-.69,0-1.32-.18-1.88-.53-.56-.35-1-.82-1.32-1.41-.08-.14-.12-.26-.12-.37,0-.19,.07-.35,.22-.48,.15-.12,.3-.19,.46-.19,.12,0,.24,.03,.35,.1,.11,.07,.2,.16,.28,.27,.23,.37,.51,.67,.85,.9,.34,.23,.73,.34,1.16,.34,.46,0,.88-.1,1.24-.31s.65-.48,.86-.84c.21-.36,.31-.76,.31-1.22v-7.65c0-.19,.07-.36,.21-.49,.14-.14,.31-.2,.5-.2,.22,0,.39,.07,.51,.2,.12,.14,.19,.3,.19,.49v7.65c0,.69-.16,1.32-.49,1.89-.33,.57-.78,1.01-1.36,1.34-.58,.33-1.24,.49-1.97,.49Z"/><path d="M190.04,90.01c.2,0,.37,.07,.49,.2,.12,.13,.19,.29,.19,.48v7.5c0,.19-.07,.36-.2,.49-.13,.14-.29,.2-.48,.2-.2,0-.37-.07-.49-.2-.12-.14-.19-.3-.19-.49v-1.62l.32-.03c0,.26-.09,.54-.26,.82s-.4,.56-.7,.82c-.29,.25-.64,.46-1.05,.63-.4,.16-.83,.25-1.28,.25-.78,0-1.48-.2-2.09-.6-.61-.4-1.1-.95-1.45-1.64-.36-.69-.54-1.48-.54-2.36s.18-1.69,.54-2.37c.36-.69,.84-1.22,1.45-1.61,.61-.39,1.29-.59,2.04-.59,.49,0,.94,.08,1.36,.24,.42,.16,.78,.37,1.1,.65,.31,.27,.55,.57,.73,.9,.18,.33,.26,.66,.26,.99l-.44-.1v-1.85c0-.19,.06-.35,.19-.48,.12-.13,.29-.2,.49-.2Zm-3.5,7.79c.57,0,1.07-.15,1.5-.44,.44-.29,.78-.69,1.02-1.2,.24-.5,.37-1.07,.37-1.71s-.12-1.18-.37-1.68c-.24-.5-.58-.9-1.02-1.19-.44-.29-.94-.44-1.5-.44s-1.05,.14-1.49,.43c-.44,.29-.78,.68-1.03,1.18s-.37,1.07-.37,1.7,.12,1.2,.37,1.71c.25,.5,.59,.9,1.03,1.2,.44,.29,.93,.44,1.49,.44Z"/><path d="M193.03,89.94c.14,0,.27,.04,.39,.11s.22,.18,.27,.33l2.82,6.61-.27,.14,2.86-6.75c.12-.31,.34-.45,.65-.44,.17,0,.32,.06,.44,.17,.12,.11,.19,.26,.19,.44,0,.07,0,.13-.03,.19-.02,.06-.04,.11-.06,.17l-3.28,7.53c-.12,.28-.32,.43-.59,.44-.15,.02-.29,0-.42-.08-.13-.08-.23-.2-.3-.36l-3.28-7.53s-.03-.08-.04-.14c-.02-.06-.03-.13-.03-.2,0-.15,.06-.29,.18-.42,.12-.14,.29-.2,.5-.2Z"/><path d="M209.34,90.01c.2,0,.37,.07,.49,.2,.12,.13,.19,.29,.19,.48v7.5c0,.19-.07,.36-.2,.49-.13,.14-.29,.2-.48,.2-.2,0-.37-.07-.49-.2-.12-.14-.19-.3-.19-.49v-1.62l.32-.03c0,.26-.09,.54-.26,.82s-.4,.56-.7,.82c-.29,.25-.64,.46-1.05,.63-.4,.16-.83,.25-1.28,.25-.78,0-1.48-.2-2.09-.6-.61-.4-1.1-.95-1.45-1.64-.36-.69-.54-1.48-.54-2.36s.18-1.69,.54-2.37c.36-.69,.84-1.22,1.45-1.61,.61-.39,1.29-.59,2.04-.59,.49,0,.94,.08,1.36,.24,.42,.16,.78,.37,1.1,.65,.31,.27,.55,.57,.73,.9,.18,.33,.26,.66,.26,.99l-.44-.1v-1.85c0-.19,.06-.35,.19-.48,.12-.13,.29-.2,.49-.2Zm-3.5,7.79c.57,0,1.07-.15,1.5-.44,.44-.29,.78-.69,1.02-1.2,.24-.5,.37-1.07,.37-1.71s-.12-1.18-.37-1.68c-.24-.5-.58-.9-1.02-1.19-.44-.29-.94-.44-1.5-.44s-1.05,.14-1.49,.43c-.44,.29-.78,.68-1.03,1.18s-.37,1.07-.37,1.7,.12,1.2,.37,1.71c.25,.5,.59,.9,1.03,1.2,.44,.29,.93,.44,1.49,.44Z"/><path d="M216.24,99.05c-.84,0-1.58-.12-2.21-.37s-1.25-.65-1.84-1.19c-.08-.07-.14-.15-.2-.25s-.08-.21-.08-.32c0-.18,.07-.34,.2-.48,.13-.14,.29-.21,.48-.21,.16,0,.3,.06,.43,.19,.44,.43,.92,.76,1.44,.99,.52,.23,1.1,.34,1.74,.34,.5,0,.95-.08,1.34-.24s.71-.38,.95-.66c.24-.28,.36-.61,.36-.99,0-.45-.13-.83-.38-1.12-.25-.29-.61-.54-1.05-.73-.45-.19-.97-.36-1.56-.51-.52-.12-1-.27-1.44-.45-.44-.18-.82-.4-1.14-.66-.32-.27-.57-.59-.75-.97-.18-.38-.26-.83-.26-1.35,0-.65,.17-1.21,.51-1.69,.34-.48,.81-.86,1.42-1.13,.61-.27,1.3-.41,2.08-.41,.69,0,1.35,.11,1.96,.34,.62,.23,1.11,.54,1.49,.94,.23,.22,.34,.43,.34,.65,0,.16-.07,.31-.21,.45-.14,.14-.3,.21-.48,.21-.12,0-.24-.04-.34-.12-.19-.22-.44-.41-.74-.58-.3-.17-.62-.31-.97-.41-.35-.1-.69-.15-1.05-.15-.52,0-.98,.08-1.38,.23-.4,.15-.71,.37-.93,.64-.22,.27-.33,.6-.33,.99,0,.43,.12,.79,.37,1.06,.25,.28,.58,.5,1,.68,.42,.18,.88,.33,1.39,.47,.56,.14,1.07,.29,1.54,.47,.47,.18,.88,.39,1.22,.65,.34,.26,.6,.59,.79,.99s.28,.9,.28,1.49c0,.62-.18,1.18-.53,1.67-.35,.49-.83,.87-1.44,1.16-.61,.28-1.29,.42-2.05,.42Z"/><path d="M226.11,89.88c.58,0,1.1,.06,1.56,.19,.46,.12,.83,.29,1.1,.51s.41,.46,.41,.73c0,.16-.05,.31-.14,.44-.1,.14-.24,.2-.42,.2-.16,0-.29-.03-.38-.09-.1-.06-.19-.14-.27-.22s-.2-.17-.35-.25c-.14-.07-.33-.13-.59-.18-.26-.05-.52-.08-.78-.08-.61,0-1.16,.15-1.63,.44-.48,.29-.85,.69-1.11,1.19-.27,.5-.4,1.07-.4,1.7s.13,1.2,.39,1.7c.26,.5,.62,.9,1.09,1.19,.46,.29,1,.44,1.61,.44,.39,0,.7-.03,.94-.1s.44-.15,.59-.24c.2-.11,.36-.23,.47-.34,.11-.11,.25-.17,.43-.17,.2,0,.36,.06,.46,.19,.1,.12,.15,.28,.15,.46,0,.22-.14,.44-.43,.66s-.67,.42-1.15,.57-1.03,.23-1.64,.23c-.86,0-1.61-.2-2.26-.6-.65-.4-1.15-.95-1.5-1.65-.36-.7-.54-1.48-.54-2.34s.18-1.64,.55-2.33c.37-.69,.88-1.24,1.54-1.65,.66-.41,1.42-.61,2.29-.61Z"/><path d="M231.71,98.88c-.19,0-.35-.07-.48-.2-.13-.14-.2-.3-.2-.49v-7.4c0-.2,.06-.37,.2-.5,.13-.13,.29-.2,.48-.2,.2,0,.37,.07,.49,.2s.19,.3,.19,.5v2.23l-.2-.36c.07-.35,.19-.69,.37-1.03,.18-.33,.4-.63,.67-.9s.58-.48,.94-.63c.35-.15,.74-.23,1.16-.23,.25,0,.48,.06,.69,.18s.31,.29,.31,.5c0,.24-.06,.42-.19,.54s-.27,.18-.42,.18c-.15,0-.29-.03-.43-.1-.14-.07-.31-.1-.51-.1-.28,0-.56,.08-.84,.24-.28,.16-.53,.38-.76,.65-.23,.28-.42,.6-.56,.95-.14,.36-.21,.74-.21,1.15v4.13c0,.19-.07,.36-.2,.49-.13,.14-.29,.2-.48,.2Z"/><path d="M238.46,88.82c-.28,0-.49-.06-.63-.17s-.2-.29-.2-.53v-.24c0-.24,.07-.41,.22-.53,.15-.11,.36-.17,.63-.17s.48,.06,.61,.17,.2,.29,.2,.53v.24c0,.24-.07,.41-.21,.53-.14,.11-.35,.17-.62,.17Zm.7,9.37c0,.19-.07,.36-.2,.49-.13,.14-.29,.2-.48,.2-.2,0-.37-.07-.5-.2-.13-.14-.2-.3-.2-.49v-7.53c0-.19,.07-.36,.2-.49,.13-.14,.3-.2,.5-.2,.19,0,.35,.07,.48,.2,.13,.14,.2,.3,.2,.49v7.53Z"/><path d="M245.94,89.96c.77,0,1.46,.19,2.07,.58,.61,.39,1.1,.92,1.45,1.6,.36,.68,.54,1.46,.54,2.35s-.18,1.65-.54,2.34c-.36,.69-.84,1.22-1.45,1.61-.61,.39-1.29,.59-2.05,.59-.42,0-.81-.07-1.18-.2-.37-.13-.7-.3-1-.51-.3-.21-.55-.44-.76-.71-.2-.26-.35-.53-.44-.8l.37-.22v5c0,.19-.06,.36-.19,.49-.12,.14-.29,.2-.49,.2-.19,0-.35-.07-.48-.2-.13-.13-.2-.3-.2-.5v-10.85c0-.2,.06-.37,.2-.5,.13-.13,.29-.2,.48-.2,.2,0,.37,.07,.49,.2,.12,.13,.19,.3,.19,.5v1.5l-.25-.14c.08-.28,.22-.56,.42-.82,.2-.26,.44-.49,.73-.69,.29-.2,.61-.35,.97-.47s.73-.17,1.11-.17Zm-.15,1.26c-.57,0-1.07,.14-1.5,.42-.44,.28-.78,.67-1.02,1.16-.24,.49-.37,1.05-.37,1.68s.12,1.18,.37,1.68c.24,.5,.58,.89,1.02,1.17,.44,.28,.94,.42,1.5,.42s1.07-.14,1.5-.42c.43-.28,.77-.67,1.02-1.17,.25-.5,.37-1.06,.37-1.68s-.12-1.2-.37-1.68c-.25-.49-.59-.87-1.02-1.16-.43-.28-.93-.42-1.5-.42Z"/><path d="M251.61,90.15h4c.18,0,.33,.06,.45,.19,.12,.12,.18,.28,.18,.46,0,.17-.06,.31-.18,.43-.12,.12-.27,.18-.45,.18h-4c-.17,0-.32-.06-.45-.19-.13-.12-.2-.27-.2-.44,0-.18,.07-.33,.2-.45,.13-.12,.28-.18,.45-.18Zm1.78-2.31c.19,0,.35,.07,.48,.2,.12,.14,.19,.3,.19,.49v8.19c0,.27,.04,.48,.12,.61,.08,.14,.18,.23,.31,.28,.13,.05,.26,.08,.38,.08,.11,0,.21-.02,.3-.06,.08-.04,.18-.06,.3-.06s.22,.05,.31,.16c.1,.11,.14,.25,.14,.42,0,.2-.12,.38-.36,.52-.24,.14-.5,.21-.8,.21-.16,0-.35-.01-.59-.03-.23-.02-.46-.1-.69-.22-.23-.12-.42-.33-.57-.62-.15-.29-.23-.69-.23-1.22v-8.26c0-.19,.07-.36,.2-.49,.14-.14,.3-.2,.49-.2Z"/></g><g id="B7nyqP.tif"><g><g><path d="M.5,163.4v-1.03c.07-.14,.1-.28,.12-.44,.08-.48,.19-.95,.37-1.41,.58-1.47,1.55-2.65,2.71-3.68,1.2-1.07,2.56-1.92,3.98-2.66,1.99-1.03,4.09-1.82,6.23-2.47,.23-.07,.47-.14,.7-.21,.15-.05,.21-.14,.17-.3-.02-.06-.03-.12-.04-.18-.3-1.24-.55-2.49-.75-3.75-.19-1.21-.31-2.43-.36-3.65-.05-1.03,0-2.06,.1-3.09,.14-1.29,.41-2.54,.93-3.73,.65-1.51,1.62-2.75,3.09-3.55,.83-.45,1.7-.75,2.67-.72,.55,.01,1.09,0,1.64,0,.18,0,.36,.01,.54,.04,1.68,.28,3.22,.93,4.71,1.74,2.21,1.21,4.18,2.74,6.04,4.42,.37,.33,.72,.68,1.09,1.02,.23,.21,.28,.2,.51-.01,.45-.42,.91-.84,1.37-1.25,1.46-1.31,3-2.5,4.67-3.53,1.36-.85,2.79-1.57,4.33-2.03,.61-.18,1.23-.37,1.87-.39,.72-.02,1.44,0,2.16,0,.11,0,.22,0,.33,.03,.82,.14,1.58,.44,2.28,.88,1.32,.83,2.2,2.01,2.8,3.43,.62,1.45,.89,2.99,.97,4.55,.07,1.42,.04,2.83-.12,4.25-.2,1.77-.52,3.52-.94,5.26-.14,.57-.14,.51,.37,.66,2.45,.72,4.82,1.61,7.07,2.82,1.74,.94,3.36,2.04,4.67,3.54,1.29,1.48,2.12,3.14,2.04,5.18-.03,.87-.22,1.68-.56,2.47-.56,1.29-1.44,2.34-2.47,3.27-1.17,1.06-2.49,1.9-3.89,2.64-1.98,1.04-4.05,1.85-6.19,2.5-.31,.1-.62,.18-.93,.29-.2,.07-.22,.11-.18,.32,.06,.29,.13,.57,.2,.86,.6,2.66,1.01,5.35,.95,8.09-.02,.96-.09,1.92-.26,2.87-.26,1.43-.72,2.79-1.54,4-.99,1.45-2.33,2.39-4.06,2.77-.12,.03-.24,.05-.35,.11h-2.55c-.14-.07-.29-.09-.44-.12-.73-.15-1.45-.35-2.15-.63-2.12-.82-4.03-2.02-5.83-3.39-1.27-.97-2.48-2.02-3.63-3.13-.22-.21-.24-.2-.47,0-.5,.46-.99,.93-1.5,1.37-1.8,1.58-3.7,3.02-5.81,4.16-1.37,.74-2.8,1.32-4.34,1.61-.15,.03-.3,.05-.44,.12h-2.55c-.16-.09-.34-.11-.52-.16-.9-.23-1.71-.62-2.44-1.19-1.05-.82-1.76-1.89-2.26-3.11-.67-1.62-.91-3.33-.97-5.07-.03-.71,0-1.41,.04-2.12,.09-1.59,.31-3.16,.61-4.72,.14-.76,.31-1.51,.49-2.25,.07-.29,.04-.33-.23-.42-.03,0-.06-.02-.09-.03-1.58-.46-3.14-1-4.66-1.65-1.65-.7-3.24-1.53-4.71-2.56-1.03-.73-1.97-1.56-2.77-2.54-.89-1.1-1.51-2.32-1.7-3.74-.02-.12-.06-.24-.11-.35Zm34.2,10.45s0,0,0,0c.95,0,1.9,.03,2.85,0,.95-.04,1.9-.08,2.85-.15,.37-.02,.58-.15,.78-.45,2.13-3.18,4.04-6.5,5.73-9.93,.15-.31,.14-.55,0-.85-1.11-2.23-2.3-4.42-3.59-6.55-.71-1.17-1.45-2.32-2.2-3.46-.16-.25-.36-.37-.65-.35-.15,0-.3,0-.45-.01-1.17-.1-2.34-.14-3.52-.16-1.58-.02-3.16-.04-4.74,.04-.97,.04-1.94,.1-2.91,.14-.25,.01-.43,.11-.57,.33-.71,1.06-1.4,2.13-2.07,3.22-1.01,1.65-1.95,3.34-2.85,5.05-.32,.62-.62,1.25-.94,1.87-.11,.22-.12,.42,0,.63,.05,.08,.08,.16,.12,.24,1.32,2.7,2.8,5.32,4.4,7.87,.44,.69,.9,1.37,1.34,2.06,.11,.17,.24,.28,.46,.29,1.22,.08,2.44,.15,3.67,.18,.76,.02,1.52,0,2.28,0Zm-18.1-31c-.02,.65,.05,1.41,.12,2.17,.17,1.81,.5,3.59,.94,5.35,.08,.31,.11,.33,.42,.28,.06-.01,.12-.02,.18-.04,1.1-.24,2.2-.45,3.31-.63,1.63-.27,3.26-.48,4.91-.64,.3-.03,.47-.16,.63-.39,1.55-2.17,3.2-4.26,4.99-6.23,.13-.14,.25-.29,.38-.43,.09-.1,.09-.2,0-.29-.06-.06-.11-.12-.17-.17-.6-.6-1.24-1.16-1.89-1.71-1.13-.96-2.31-1.85-3.57-2.63-1.12-.69-2.29-1.3-3.56-1.69-.93-.28-1.86-.47-2.84-.33-.95,.14-1.74,.56-2.34,1.32-.53,.67-.85,1.45-1.07,2.26-.33,1.21-.44,2.45-.43,3.8Zm0,40.47c-.02,.47,.04,1.2,.14,1.94,.14,1.06,.38,2.09,.89,3.04,.74,1.37,1.88,2.08,3.44,2.08,1,0,1.95-.25,2.87-.6,1.85-.71,3.5-1.77,5.07-2.96,.88-.67,1.71-1.39,2.54-2.12,.29-.26,.58-.53,.87-.81,.19-.18,.18-.24,.02-.43-.02-.02-.04-.04-.06-.07-.77-.84-1.51-1.69-2.23-2.57-1.08-1.32-2.12-2.66-3.1-4.05-.14-.2-.31-.29-.55-.31-.6-.05-1.21-.11-1.81-.19-2.2-.27-4.39-.62-6.55-1.1-.05-.01-.1-.02-.15-.03-.15-.03-.26,.01-.29,.18-.01,.07-.04,.14-.05,.21-.23,.89-.41,1.8-.57,2.7-.28,1.6-.46,3.2-.47,5.1Zm49.28-20.45c-.02-.54-.15-1.11-.42-1.64-.34-.69-.82-1.28-1.37-1.81-1.07-1.03-2.3-1.82-3.6-2.51-1.88-.99-3.86-1.72-5.89-2.35-.21-.07-.43-.13-.64-.18-.19-.05-.23-.03-.3,.15-.03,.07-.05,.15-.08,.23-.3,.92-.61,1.85-.95,2.76-.64,1.72-1.34,3.41-2.1,5.08-.1,.22-.1,.41,0,.63,.51,1.07,.96,2.16,1.41,3.26,.61,1.52,1.17,3.07,1.67,4.63q.12,.36,.49,.26s.08-.02,.12-.03c1.75-.52,3.46-1.13,5.12-1.9,1.39-.65,2.72-1.4,3.92-2.35,.75-.58,1.41-1.25,1.92-2.05,.41-.64,.67-1.34,.69-2.16Zm-13.08-20.35c-.05-.63-.04-1.45-.18-2.26-.15-.93-.37-1.85-.82-2.69-.55-1.04-1.34-1.79-2.53-2.06-.76-.17-1.51-.11-2.26,.04-1.33,.26-2.54,.83-3.71,1.48-1.34,.74-2.58,1.64-3.77,2.61-.86,.7-1.69,1.45-2.5,2.21-.27,.25-.26,.28,0,.56,.18,.2,.35,.39,.53,.59,1.51,1.67,2.9,3.44,4.23,5.24,.19,.25,.37,.51,.55,.77,.13,.19,.28,.3,.52,.31,.29,.02,.58,.06,.88,.09,2.21,.23,4.4,.56,6.57,1.01,.36,.07,.71,.15,1.07,.22,.23,.04,.27,.02,.33-.2,.02-.07,.04-.14,.05-.21,.21-.83,.38-1.66,.53-2.49,.3-1.67,.48-3.35,.5-5.23ZM3.53,162.95c-.02,.35,.07,.77,.21,1.17,.26,.71,.68,1.31,1.18,1.86,1.12,1.23,2.5,2.12,3.95,2.89,2.01,1.06,4.14,1.85,6.32,2.49,.46,.14,.46,.14,.61-.32,.64-2.01,1.38-3.98,2.2-5.92,.27-.63,.55-1.26,.84-1.89,.1-.22,.12-.41,0-.64-.16-.32-.29-.65-.43-.97-.97-2.2-1.83-4.44-2.57-6.72-.04-.12-.07-.23-.11-.35-.07-.18-.14-.22-.33-.18-.07,.01-.14,.04-.21,.06-1.18,.33-2.34,.73-3.48,1.19-1.75,.69-3.43,1.5-4.97,2.59-.9,.64-1.72,1.35-2.37,2.25-.52,.72-.88,1.5-.87,2.49Zm44.61,27.43c1.72,0,2.87-.71,3.62-2.1,.32-.6,.53-1.24,.69-1.91,.37-1.6,.38-3.23,.28-4.86-.08-1.32-.27-2.64-.53-3.94-.14-.69-.28-1.39-.45-2.08-.1-.41-.11-.42-.51-.33-2.72,.6-5.47,1.01-8.24,1.28-.34,.03-.55,.16-.74,.43-.65,.93-1.34,1.83-2.03,2.72-1.02,1.31-2.1,2.57-3.21,3.8-.24,.27-.24,.28,.02,.53,.01,.01,.03,.03,.04,.04,1.46,1.41,3.01,2.71,4.69,3.84,1.3,.87,2.65,1.64,4.15,2.13,.76,.25,1.54,.42,2.22,.44Zm-16.84-13.61s-.04,0-.06,0c-.13,.02-.32-.07-.39,.07-.06,.12,.1,.23,.18,.33,.93,1.2,1.89,2.38,2.89,3.52,.2,.23,.4,.46,.61,.67,.13,.13,.18,.12,.3,0,.03-.03,.05-.06,.08-.09,1.09-1.18,2.12-2.42,3.11-3.69,.15-.19,.3-.38,.44-.58,.04-.05,.11-.11,.07-.19-.04-.07-.13-.05-.2-.05-.05,0-.1,0-.15,0-.39,0-.77,.06-1.15,.06-1.91,0-3.83,.05-5.74-.06Zm13.73-24.22c-.12,0-.19-.02-.22,.05-.02,.05,0,.1,.03,.14,.03,.05,.07,.1,.1,.15,1.16,1.86,2.28,3.75,3.3,5.69,.09,.17,.18,.34,.28,.5,.04,.07,.06,.17,.16,.16,.09-.01,.1-.11,.14-.18,0,0,0-.02,.01-.03,.68-1.61,1.29-3.25,1.83-4.92,.18-.55,.17-.56-.39-.67-.97-.2-1.94-.39-2.92-.55-.79-.12-1.58-.24-2.31-.35Zm-20.66,20.68s.12,.03,.16-.05c.04-.08-.02-.13-.05-.19-.02-.04-.04-.07-.06-.1-1.26-2-2.45-4.06-3.55-6.15-.04-.08-.06-.2-.17-.2-.12,0-.13,.14-.17,.23-.7,1.67-1.33,3.37-1.88,5.1-.11,.33-.08,.36,.24,.44,1.01,.23,2.02,.41,3.04,.58,.8,.13,1.6,.26,2.43,.36Zm20.61,0s.08,0,.13-.02c1.15-.16,2.3-.33,3.45-.54,.65-.12,1.29-.25,1.93-.39,.29-.06,.31-.11,.23-.4,0-.02-.01-.04-.02-.06-.55-1.72-1.18-3.4-1.87-5.07-.04-.09-.04-.23-.16-.24-.12,0-.14,.13-.18,.21-1.01,1.93-2.09,3.81-3.24,5.66-.13,.21-.27,.43-.4,.65-.08,.13-.04,.18,.13,.19Zm-24.27-13.93c.18-.23,.29-.48,.41-.71,1.03-1.95,2.14-3.86,3.32-5.72,.05-.08,.16-.17,.09-.27-.07-.11-.19-.04-.28-.03-1.78,.23-3.54,.53-5.3,.9-.41,.09-.42,.1-.29,.5,.55,1.72,1.19,3.4,1.87,5.07,.03,.08,.05,.18,.17,.26Zm16.98-10.3c.19,0,.32,0,.45,0,.12,0,.29,.06,.36-.08,.05-.12-.09-.21-.16-.31-.65-.85-1.32-1.69-2.02-2.51-.47-.55-.96-1.1-1.45-1.64-.18-.2-.23-.19-.41,.01-.23,.27-.47,.53-.7,.79-.97,1.1-1.9,2.24-2.79,3.4-.06,.08-.17,.15-.12,.26,.05,.11,.18,.06,.28,.06,.6,.02,1.19-.06,1.79-.06,1.61,0,3.22-.05,4.77,.06Z"/><path d="M49.66,193.79h-2.81l-.11-.06s-.13-.04-.21-.05c-.91-.19-1.64-.4-2.33-.67-1.95-.75-3.85-1.85-5.95-3.46-1.22-.93-2.42-1.96-3.56-3.06l-.3,.28c-.37,.34-.73,.68-1.11,1.01-2.1,1.84-3.98,3.18-5.91,4.22-1.57,.85-3.04,1.39-4.48,1.67-.16,.03-.25,.05-.31,.07l-.11,.05h-2.8l-.11-.07c-.06-.03-.15-.05-.25-.07l-.15-.03c-.97-.25-1.86-.68-2.62-1.28-1.04-.81-1.83-1.9-2.41-3.31-.61-1.47-.93-3.14-1.01-5.24-.02-.65-.01-1.34,.04-2.17,.09-1.51,.29-3.08,.62-4.79,.14-.72,.3-1.43,.47-2.14-1.73-.51-3.25-1.04-4.66-1.65-1.85-.79-3.43-1.65-4.8-2.61-1.14-.8-2.08-1.66-2.87-2.63-1.02-1.26-1.61-2.56-1.81-3.98,0-.06-.03-.12-.07-.21l-.05-.21v-1.15l.05-.11c.04-.07,.06-.17,.08-.29,.09-.56,.22-1.05,.4-1.51,.55-1.39,1.48-2.66,2.85-3.87,1.11-.99,2.45-1.88,4.09-2.73,1.85-.96,3.92-1.78,6.32-2.5l.47-.14c-.3-1.25-.55-2.49-.75-3.74-.19-1.19-.31-2.44-.37-3.71-.05-1.04-.01-2.11,.1-3.17,.16-1.48,.48-2.74,.96-3.87,.76-1.75,1.84-2.99,3.31-3.79,1.02-.55,1.96-.8,2.92-.78,.37,.01,.75,0,1.12,0h.51c.21,0,.42,.01,.63,.05,1.54,.25,3.08,.82,4.86,1.8,2.02,1.11,3.97,2.54,6.14,4.49,.2,.18,.39,.36,.58,.54,.14,.13,.27,.26,.41,.39l.21-.2c.36-.33,.71-.66,1.08-.98,1.57-1.41,3.12-2.58,4.74-3.59,1.56-.97,3.02-1.66,4.45-2.09,.6-.18,1.28-.39,2-.41,.53-.02,1.07-.01,1.6,0h.57c.14,0,.28,.02,.42,.04,.87,.15,1.7,.47,2.46,.95,1.32,.83,2.3,2.03,2.99,3.66,.59,1.4,.92,2.94,1.01,4.72,.07,1.53,.03,2.95-.12,4.33-.2,1.73-.52,3.52-.95,5.32,0,.02,0,.04-.01,.05h.04c2.75,.82,5.09,1.75,7.17,2.87,2.09,1.13,3.62,2.29,4.81,3.65,1.53,1.75,2.24,3.56,2.16,5.52-.04,.94-.23,1.81-.6,2.65-.54,1.23-1.39,2.36-2.59,3.44-1.1,.99-2.41,1.88-3.99,2.71-1.87,.99-3.92,1.82-6.27,2.54l-.32,.1c-.13,.04-.27,.08-.4,.12,.02,.1,.05,.2,.07,.29l.08,.36c.71,3.14,1.01,5.75,.96,8.21-.02,1.12-.11,2.06-.27,2.95-.3,1.66-.83,3.03-1.62,4.19-1.07,1.58-2.54,2.58-4.37,2.98-.09,.02-.17,.04-.21,.06l-.11,.06Zm-2.58-1h2.34c.12-.05,.24-.08,.34-.1,1.58-.34,2.84-1.2,3.76-2.56,.71-1.04,1.18-2.28,1.46-3.8,.15-.83,.23-1.72,.26-2.79,.05-2.39-.25-4.92-.93-7.97l-.08-.35c-.04-.17-.08-.35-.12-.52-.1-.46,.06-.75,.51-.89,.21-.07,.42-.13,.62-.19l.32-.1c2.29-.7,4.28-1.51,6.1-2.47,1.51-.79,2.75-1.63,3.78-2.57,1.1-.99,1.87-2,2.35-3.1,.32-.73,.49-1.48,.52-2.29,.06-1.72-.54-3.26-1.92-4.83-1.11-1.27-2.55-2.36-4.53-3.43-2.01-1.08-4.29-1.99-6.97-2.78l-.12-.04c-.78-.22-.74-.63-.6-1.18,.44-1.8,.75-3.55,.94-5.24,.15-1.33,.19-2.69,.12-4.17-.08-1.66-.38-3.1-.93-4.38-.61-1.43-1.46-2.48-2.6-3.2-.65-.41-1.36-.68-2.1-.81-.08-.01-.17-.02-.25-.02h-.57c-.52,0-1.05-.01-1.57,0-.59,.02-1.17,.19-1.74,.36-1.35,.41-2.72,1.05-4.21,1.98-1.56,.97-3.07,2.11-4.6,3.48-.36,.32-.71,.65-1.07,.97l-.29,.27c-.42,.39-.76,.39-1.18,.01-.18-.16-.35-.32-.52-.49-.19-.18-.37-.35-.57-.53-2.1-1.9-3.99-3.28-5.95-4.35-1.68-.92-3.12-1.46-4.55-1.69-.15-.03-.29-.05-.46-.04h-.5c-.39,0-.77,0-1.15,0-.78-.02-1.54,.19-2.41,.66-1.27,.69-2.21,1.77-2.87,3.31-.45,1.04-.74,2.21-.89,3.59-.11,1.01-.14,2.02-.1,3.02,.05,1.23,.18,2.44,.36,3.6,.2,1.27,.45,2.51,.74,3.71l-.44,.3,.48-.12c.11,.42-.1,.78-.51,.9l-.7,.21c-2.34,.71-4.35,1.51-6.15,2.44-1.56,.81-2.83,1.65-3.88,2.58-1.25,1.11-2.09,2.25-2.58,3.49-.15,.39-.27,.82-.34,1.3-.02,.15-.05,.3-.12,.46v.82c.05,.13,.09,.25,.1,.38,.17,1.24,.69,2.38,1.6,3.49,.73,.89,1.6,1.69,2.67,2.44,1.32,.93,2.83,1.75,4.62,2.51,1.41,.6,2.91,1.13,4.61,1.62l.1,.03c.53,.17,.69,.48,.57,1.01-.18,.74-.34,1.48-.49,2.23-.32,1.66-.51,3.19-.6,4.66-.05,.79-.06,1.45-.04,2.07,.07,1.98,.37,3.54,.93,4.9,.52,1.25,1.21,2.2,2.11,2.91,.66,.52,1.41,.88,2.25,1.09l.12,.03c.12,.03,.25,.06,.4,.12h2.33c.14-.05,.28-.08,.39-.1,1.4-.26,2.77-.78,4.25-1.57,1.86-1,3.68-2.3,5.72-4.1,.37-.32,.73-.65,1.08-.99l.41-.38c.36-.33,.69-.46,1.16,0,1.15,1.12,2.35,2.16,3.58,3.09,2.03,1.55,3.84,2.6,5.71,3.33,.64,.25,1.32,.44,2.08,.6,.17,.03,.31,.06,.44,.11Zm-32.72-18.12s.07,.07,.1,.09l.07-.51-.17,.42Zm-.06-23.34s0,0,0,0h0Zm33.85,39.55h-.03c-.69-.02-1.51-.18-2.37-.46-1.36-.45-2.72-1.15-4.27-2.19-1.6-1.08-3.16-2.35-4.76-3.89-.5-.5-.51-.8-.09-1.27,1.21-1.35,2.25-2.58,3.19-3.78,.81-1.04,1.45-1.9,2.02-2.7,.28-.4,.62-.6,1.1-.64,2.84-.27,5.59-.7,8.18-1.27,.66-.15,.93,.02,1.1,.69,.18,.7,.32,1.4,.46,2.1,.28,1.41,.46,2.72,.54,4,.13,2.03,.04,3.57-.29,5-.18,.79-.42,1.45-.73,2.03-.86,1.59-2.18,2.37-4.04,2.37Zm-.01-1h.01c1.48,0,2.49-.58,3.16-1.84,.27-.5,.48-1.08,.64-1.78,.31-1.34,.39-2.79,.27-4.72-.08-1.24-.25-2.5-.52-3.87-.13-.67-.27-1.33-.43-2-2.61,.57-5.38,1-8.23,1.27-.19,.02-.26,.06-.37,.22-.58,.82-1.23,1.69-2.05,2.74-.93,1.19-1.96,2.41-3.15,3.74,1.57,1.51,3.06,2.72,4.59,3.75,1.48,.99,2.75,1.65,4.02,2.07,.76,.25,1.48,.39,2.07,.41Zm-27.09,1c-1.73,0-3.03-.79-3.87-2.34-.48-.88-.78-1.9-.95-3.21-.06-.49-.17-1.4-.14-2.01,.01-1.75,.16-3.39,.47-5.18,.18-1.02,.37-1.92,.58-2.74l.05-.19c.09-.42,.45-.65,.89-.56l.15,.03c1.98,.44,4.11,.8,6.51,1.1,.59,.07,1.19,.14,1.79,.19,.4,.03,.7,.2,.92,.52,.91,1.28,1.91,2.6,3.07,4.02,.7,.85,1.44,1.71,2.21,2.55l.07,.08c.35,.4,.33,.75-.05,1.12-.29,.28-.58,.55-.88,.82-.68,.61-1.59,1.41-2.57,2.15-1.87,1.42-3.52,2.38-5.19,3.03-1.1,.43-2.1,.63-3.05,.64h-.01Zm-2.95-15.21c-.21,.83-.39,1.68-.55,2.63-.31,1.75-.45,3.3-.46,5.02v.02c-.02,.39,.03,1.07,.14,1.85,.15,1.19,.42,2.1,.84,2.87,.66,1.23,1.63,1.85,3,1.82,.83,0,1.69-.18,2.69-.57,1.58-.61,3.15-1.53,4.95-2.89,.95-.72,1.84-1.5,2.51-2.1,.24-.22,.48-.44,.72-.67-.75-.83-1.49-1.67-2.18-2.52-1.18-1.44-2.2-2.77-3.12-4.08-.05-.07-.08-.09-.18-.1-.61-.05-1.22-.12-1.83-.19-2.39-.3-4.52-.65-6.51-1.09Zm-.13-.54l-.1,.49s.09,0,.14-.03l-.04-.46Zm.2,.28h0s0,0,0,0Zm16.52,6.54c-.17,0-.35-.08-.51-.24-.22-.22-.42-.45-.62-.69-1-1.13-1.98-2.33-2.92-3.55-.29-.3-.36-.58-.23-.85,.09-.19,.3-.41,.75-.36h.05s.12,0,.12,0c1.35,.07,2.73,.07,4.07,.06,.55,0,1.1,0,1.64,0,.17,0,.34-.01,.51-.03,.21-.02,.43-.04,.65-.03h.17c.34-.02,.51,.15,.59,.29,.07,.11,.2,.41-.09,.74-.13,.18-.27,.35-.4,.52-1.13,1.45-2.15,2.67-3.19,3.79-.04,.05-.07,.08-.1,.11-.16,.15-.33,.23-.5,.23Zm-2.93-4.66c.82,1.06,1.68,2.09,2.54,3.07,.13,.15,.26,.29,.39,.43,.97-1.06,1.93-2.2,2.93-3.49-.19,.02-.38,.03-.58,.03-.55,0-1.09,0-1.63,0-1.19,0-2.43,.01-3.65-.04Zm6.44-.12s.08,.05,.12,.07l-.06-.48-.06,.41Zm-.12-.47s0,0,0,0t0,0Zm-4.79-2.35c-.29,0-.59,0-.88,0-1.27-.03-2.52-.1-3.69-.18-.36-.02-.64-.19-.85-.52l-.5-.77c-.28-.43-.57-.86-.85-1.3-1.65-2.61-3.14-5.28-4.43-7.91-.06-.12-.08-.17-.1-.21-.14-.24-.27-.64-.02-1.12,.15-.28,.29-.57,.43-.85,.17-.34,.34-.68,.52-1.02,.93-1.78,1.9-3.49,2.87-5.08,.62-1.02,1.3-2.08,2.08-3.24,.23-.35,.56-.53,.97-.55,.56-.02,1.11-.05,1.67-.08l1.24-.06c1.57-.07,3.16-.05,4.69-.04,1.43,.02,2.56,.07,3.63,.16,.13,.01,.26,.02,.38,.01,.46-.03,.83,.17,1.1,.57,.89,1.35,1.59,2.45,2.21,3.48,1.24,2.06,2.46,4.27,3.61,6.58,.22,.45,.23,.85,0,1.29-1.72,3.48-3.66,6.84-5.77,9.99-.29,.43-.65,.64-1.16,.67-.95,.06-1.91,.11-2.86,.15-.67,.03-1.34,.02-2.01,.01h-.53s-1.04,0-1.04,0c-.24,0-.47,0-.71,0Zm1.08-21.94c-.87,0-1.73,.01-2.58,.05l-1.23,.06c-.56,.03-1.12,.06-1.68,.08-.09,0-.12,.02-.18,.11-.77,1.15-1.44,2.19-2.05,3.2-.96,1.57-1.91,3.26-2.83,5.02-.17,.33-.34,.67-.51,1-.14,.29-.29,.58-.44,.87-.05,.09-.04,.11-.01,.15,.04,.07,.08,.14,.11,.21,1.3,2.67,2.78,5.3,4.41,7.88,.27,.43,.55,.86,.83,1.28l.58,.84c1.16,.08,2.39,.15,3.65,.18,.52,.01,1.04,0,1.56,0h.71s.88,0,.88,0c.65,0,1.3,.01,1.96-.01,.94-.04,1.89-.08,2.83-.15,.21-.01,.28-.06,.4-.23,2.09-3.12,4-6.44,5.7-9.88,.08-.16,.08-.24,0-.4-1.14-2.29-2.34-4.48-3.57-6.51-.61-1.01-1.31-2.1-2.19-3.44-.09-.13-.13-.13-.2-.13-.18,.01-.35,0-.53-.02-1.04-.09-2.15-.14-3.48-.16-.71,0-1.42-.02-2.13-.02Zm10.6,21.32c-.27,0-.47-.11-.58-.3-.07-.13-.13-.35,.03-.63,.1-.17,.2-.34,.31-.51l.1-.15c1.16-1.86,2.24-3.75,3.23-5.63,.18-.45,.49-.5,.66-.48,.2,.01,.46,.11,.58,.52,.74,1.79,1.35,3.46,1.89,5.12,.07,.23,.15,.5,0,.75-.15,.25-.43,.31-.58,.34-.65,.14-1.29,.27-1.94,.39-1.17,.22-2.36,.4-3.47,.55l-.21,.02Zm3.66-6.17c-.9,1.69-1.89,3.39-2.93,5.07,.9-.13,1.85-.27,2.77-.45,.57-.11,1.15-.22,1.72-.34-.46-1.41-.97-2.81-1.56-4.28Zm1.65,4.44s-.02,.08-.01,.11l.45-.24-.44,.13Zm-25.85,1.73s-.05,0-.08,0h-.03c-.84-.1-1.65-.23-2.46-.36-.92-.15-2.01-.35-3.07-.59-.18-.04-.46-.1-.61-.36-.15-.26-.06-.53,0-.71,.57-1.76,1.21-3.49,1.9-5.14,.14-.46,.44-.53,.61-.53,.19,0,.46,.07,.62,.45,1.1,2.1,2.29,4.15,3.53,6.13,.04,.06,.06,.1,.08,.13,.19,.29,.13,.53,.05,.67-.06,.1-.21,.31-.54,.31Zm-.38-.56c0,.06,.02,.1,.04,.13l.28-.35-.32,.21Zm.36-.24v.02s.03-.04,.03-.04l-.03,.02Zm-5.22-1.09c.98,.22,1.98,.39,2.84,.54,.55,.09,1.09,.18,1.65,.26-1.04-1.67-2.01-3.36-2.93-5.07-.56,1.38-1.09,2.82-1.56,4.28Zm34.62,.09c-.34,0-.53-.2-.68-.66-.49-1.54-1.05-3.08-1.65-4.59-.52-1.31-.95-2.31-1.39-3.24-.17-.35-.17-.7,0-1.05,.78-1.71,1.48-3.4,2.09-5.05,.33-.91,.64-1.82,.94-2.74,.04-.13,.06-.2,.09-.26,.17-.41,.46-.55,.88-.45,.23,.06,.45,.12,.67,.19,2.41,.75,4.31,1.51,5.97,2.39,1.55,.82,2.73,1.64,3.71,2.59,.64,.61,1.12,1.25,1.47,1.95,.28,.56,.44,1.2,.47,1.85v.02s0,.02,0,.02c-.02,.85-.27,1.64-.77,2.42-.5,.78-1.16,1.49-2.03,2.18-1.15,.9-2.46,1.69-4.02,2.41-1.55,.72-3.25,1.35-5.19,1.93l-.13,.03c-.17,.05-.31,.07-.43,.07Zm.22-.93l.19,.34-.14-.48c1.9-.56,3.55-1.18,5.05-1.87,1.49-.69,2.74-1.44,3.83-2.29,.78-.61,1.37-1.24,1.81-1.93,.4-.62,.59-1.22,.61-1.89-.02-.5-.15-.99-.37-1.43-.3-.59-.71-1.14-1.27-1.67-.92-.88-2.03-1.65-3.49-2.43-1.61-.85-3.45-1.59-5.8-2.32-.13-.04-.27-.08-.4-.12-.32,.97-.62,1.88-.95,2.77-.62,1.67-1.33,3.39-2.11,5.11-.04,.09-.04,.12,0,.21,.45,.95,.89,1.96,1.42,3.29,.61,1.54,1.18,3.1,1.68,4.66,.02,.07,.04,.12,.05,.15-.02-.04-.06-.08-.11-.12Zm-38.47,.92c-.14,0-.3-.03-.5-.09-2.47-.72-4.57-1.55-6.42-2.53-1.81-.96-3.07-1.88-4.09-2.99-.61-.66-1.03-1.32-1.28-2.02-.13-.34-.27-.85-.24-1.35-.01-1.27,.54-2.19,.96-2.77,.59-.83,1.38-1.58,2.49-2.36,1.4-.99,3.01-1.83,5.07-2.65,1.19-.47,2.38-.88,3.52-1.2,.12-.04,.18-.05,.25-.07,.43-.08,.72,.09,.88,.49,.03,.09,.06,.18,.09,.27l.03,.11c.72,2.23,1.58,4.47,2.55,6.67l.12,.28c.1,.23,.19,.45,.3,.67,.17,.34,.17,.69,0,1.07-.28,.62-.56,1.25-.83,1.88-.8,1.88-1.54,3.85-2.19,5.87-.17,.52-.36,.74-.72,.74Zm-.23-17c-1.15,.33-2.28,.72-3.42,1.17-1.99,.79-3.53,1.59-4.86,2.54-1.01,.71-1.72,1.39-2.25,2.13-.54,.76-.78,1.44-.77,2.2v.02s0,.02,0,.02c-.02,.26,.05,.6,.18,.97,.21,.57,.56,1.13,1.08,1.69,.94,1.02,2.12,1.88,3.82,2.78,1.79,.95,3.82,1.75,6.22,2.45,.66-2.04,1.4-4.05,2.21-5.95,.27-.64,.55-1.27,.84-1.9,.06-.12,.04-.15,.02-.2-.12-.24-.23-.48-.33-.73l-.12-.27c-.98-2.23-1.85-4.51-2.58-6.77l-.04-.14h0Zm5.47,5.08l-.39-.29c-.21-.16-.28-.34-.32-.44-.77-1.87-1.39-3.54-1.9-5.13-.08-.26-.16-.51-.01-.77,.15-.26,.41-.31,.68-.37,1.77-.38,3.57-.69,5.34-.91,.46-.12,.68,.11,.77,.26,.1,.17,.17,.44-.08,.78-1.18,1.86-2.3,3.78-3.32,5.7l-.08,.16c-.1,.2-.21,.42-.38,.63l-.3,.39Zm-1.61-6.06c.44,1.35,.95,2.76,1.56,4.28,.91-1.71,1.9-3.41,2.93-5.07-1.49,.21-3,.47-4.49,.79Zm29.48,5.8c-.16,0-.42-.06-.57-.4-.1-.18-.2-.35-.29-.53-.91-1.73-1.98-3.58-3.28-5.66l-.1-.16c-.13-.22-.15-.42-.06-.62,.12-.24,.33-.35,.64-.33h.1s.68,.11,.68,.11c.53,.08,1.08,.16,1.63,.25,.86,.14,1.8,.31,2.95,.55,.36,.07,.64,.13,.8,.41,.16,.28,.07,.56-.04,.9-.55,1.69-1.17,3.36-1.84,4.96-.15,.4-.38,.49-.55,.51-.02,0-.05,0-.08,0Zm-2.97-6.59c1.16,1.87,2.11,3.52,2.93,5.08,.56-1.39,1.09-2.82,1.56-4.27,0,0,0-.02,0-.02,0,0-.01,0-.02,0-1.13-.24-2.06-.41-2.9-.54-.53-.08-1.06-.16-1.57-.24Zm5.8-2c-.07,0-.15,0-.23-.02-.22-.04-.45-.09-.67-.14l-.4-.08c-2.14-.44-4.34-.77-6.52-1l-.32-.04c-.18-.02-.35-.04-.53-.05-.38-.02-.69-.2-.91-.54-.17-.25-.35-.5-.53-.75-1.53-2.07-2.86-3.72-4.2-5.21l-.53-.59c-.37-.41-.49-.76,.04-1.26,.91-.86,1.74-1.59,2.53-2.23,1.4-1.13,2.62-1.98,3.84-2.66,1.07-.6,2.37-1.24,3.85-1.54,.97-.19,1.73-.2,2.47-.04,1.24,.28,2.2,1.06,2.86,2.31,.52,.98,.73,2.04,.87,2.84,.1,.6,.13,1.2,.15,1.72,0,.21,.02,.41,.03,.59v.02s0,.02,0,.02c-.02,1.82-.18,3.51-.51,5.31-.17,.94-.35,1.77-.54,2.53-.03,.11-.04,.18-.06,.24-.12,.38-.34,.56-.68,.56Zm-14.05-9.02l.47,.52c1.36,1.51,2.72,3.19,4.26,5.28,.19,.26,.38,.52,.56,.79,.06,.09,.08,.09,.13,.09,.2,.01,.4,.04,.6,.06l.3,.04c2.22,.23,4.44,.57,6.62,1.02l.41,.08c.16,.03,.31,.06,.47,.1,.19-.78,.36-1.57,.52-2.46,.32-1.74,.47-3.37,.49-5.12-.01-.18-.02-.38-.03-.59-.02-.5-.05-1.06-.14-1.6-.12-.73-.31-1.69-.76-2.54-.53-1-1.24-1.59-2.19-1.8-.59-.13-1.22-.12-2.05,.05-1.35,.26-2.56,.87-3.56,1.43-1.17,.65-2.34,1.46-3.69,2.56-.75,.61-1.53,1.3-2.4,2.11Zm-19.57,9.01c-.39,0-.6-.21-.72-.67-.48-1.95-.79-3.73-.95-5.42-.07-.74-.13-1.52-.12-2.22-.01-1.51,.13-2.76,.44-3.93,.27-1.02,.64-1.79,1.16-2.44,.67-.84,1.56-1.35,2.66-1.51,1.16-.17,2.24,.1,3.06,.35,1.15,.35,2.32,.91,3.67,1.74,1.21,.75,2.4,1.62,3.63,2.67,.63,.53,1.3,1.12,1.92,1.73l.18,.18c.28,.28,.29,.68,.02,.97l-.38,.44c-1.69,1.86-3.31,3.88-4.95,6.18-.17,.23-.45,.54-.99,.6-1.73,.17-3.32,.38-4.87,.63-1.17,.19-2.24,.4-3.29,.62l-.2,.04c-.1,.02-.19,.03-.27,.03Zm3.22-15.25c-.2,0-.4,.01-.6,.04-.85,.12-1.51,.49-2.02,1.14-.43,.54-.74,1.2-.98,2.08-.29,1.08-.42,2.25-.41,3.67v.02c-.02,.64,.05,1.39,.11,2.11,.15,1.61,.44,3.3,.9,5.15h0c1.08-.24,2.18-.45,3.36-.64,1.57-.26,3.19-.47,4.94-.64,.11-.01,.17-.03,.28-.19,1.67-2.33,3.31-4.39,5.03-6.27l.2-.23c-.59-.59-1.24-1.15-1.84-1.66-1.19-1.02-2.34-1.86-3.5-2.58-1.28-.79-2.37-1.31-3.44-1.64-.56-.17-1.27-.36-2.02-.36Zm10.99,6.04s0,0,0,0h0Zm6.23,7.56s-.08,0-.12,0c-.13,0-.23,0-.35,0h-.2c-1.11-.08-2.24-.07-3.43-.06-.43,0-.87,0-1.3,0-.25,0-.51,.01-.76,.03-.35,.02-.69,.04-1.04,.03-.44,.04-.62-.17-.71-.35-.08-.18-.12-.45,.16-.76,.99-1.28,1.91-2.41,2.83-3.45l.7-.79c.11-.12,.29-.32,.58-.33,.26,.01,.48,.2,.57,.31,.49,.54,.98,1.09,1.45,1.65,.62,.72,1.27,1.52,2.04,2.53,.27,.29,.34,.56,.22,.82-.08,.18-.26,.38-.64,.38Zm-3.04-1.07c.78,0,1.57,.01,2.34,.06-.62-.8-1.16-1.46-1.67-2.06-.42-.48-.84-.96-1.26-1.44l-.54,.61c-.79,.89-1.57,1.84-2.39,2.89,.12,0,.23-.01,.35-.02,.27-.02,.55-.05,.83-.03,.43,0,.86,0,1.29,0,.35,0,.71,0,1.06,0Z"/></g><g><path d="M34.68,156.81c3.4,0,6.11,2.74,6.1,6.11-.02,3.35-2.69,6.07-6.09,6.06-3.63-.01-6.1-3.01-6.08-6.12,.02-3.16,2.59-6.03,6.07-6.04Z"/><path d="M34.71,169.47h-.02c-1.77,0-3.43-.69-4.65-1.93-1.24-1.25-1.94-2.96-1.93-4.7,.03-3.59,2.97-6.53,6.57-6.54h0c1.78,0,3.44,.69,4.69,1.94,1.24,1.25,1.92,2.91,1.91,4.67-.02,3.62-2.96,6.56-6.57,6.56Zm-.03-12.17c-3.05,0-5.55,2.5-5.57,5.55-.01,1.47,.59,2.93,1.64,3.99,1.04,1.05,2.44,1.63,3.94,1.63h.02c3.06,0,5.55-2.49,5.57-5.56,0-1.5-.57-2.9-1.62-3.96-1.05-1.06-2.47-1.64-3.98-1.65Z"/></g></g></g><g><path d="M13.96,219.06c-.22,0-.4-.07-.56-.2-.16-.14-.24-.3-.24-.49v-10.51c0-.19,.07-.36,.2-.49,.14-.14,.3-.2,.49-.2h4.69c.63,0,1.21,.14,1.72,.43,.51,.29,.92,.69,1.22,1.2,.3,.51,.45,1.09,.45,1.73,0,.48-.09,.92-.27,1.33-.18,.41-.43,.77-.75,1.08-.32,.31-.68,.53-1.09,.68l-.37-.25c.39,.08,.73,.24,1.04,.47,.31,.23,.56,.53,.75,.88,.19,.36,.29,.77,.31,1.25,.02,.42,.05,.75,.08,1,.03,.25,.08,.44,.15,.59,.07,.14,.16,.25,.29,.33,.16,.1,.26,.24,.31,.41s.02,.33-.09,.49c-.07,.11-.16,.19-.29,.23-.12,.04-.25,.05-.37,.03-.12-.02-.24-.05-.34-.11-.17-.1-.34-.25-.52-.45-.18-.2-.32-.48-.42-.86-.11-.37-.16-.88-.16-1.53,0-.35-.06-.65-.18-.89-.12-.24-.27-.44-.46-.58-.19-.14-.4-.24-.64-.31-.24-.06-.48-.09-.73-.09h-3.79l.2-.29v4.42c0,.19-.06,.36-.17,.49-.11,.14-.27,.2-.46,.2Zm.42-6.05h4.17c.33-.02,.64-.14,.93-.34,.29-.2,.52-.49,.71-.85s.27-.78,.27-1.26c0-.59-.19-1.08-.57-1.48-.38-.4-.85-.6-1.42-.6h-4.01l.14-.34v5.17l-.2-.31Z"/><path d="M28.32,219.23c-.91,0-1.7-.19-2.38-.58-.68-.38-1.21-.92-1.59-1.59-.38-.67-.57-1.45-.57-2.34,0-.99,.2-1.83,.59-2.52,.39-.7,.9-1.23,1.53-1.6,.63-.37,1.29-.55,2-.55,.53,0,1.04,.1,1.52,.29,.48,.19,.91,.48,1.29,.85,.38,.37,.68,.82,.91,1.33,.23,.51,.35,1.09,.36,1.73-.01,.18-.09,.33-.22,.45-.14,.12-.29,.18-.48,.18h-6.72l-.31-1.17h6.54l-.27,.24v-.37c-.05-.46-.2-.86-.47-1.2-.27-.33-.59-.59-.97-.77-.38-.18-.78-.27-1.2-.27-.34,0-.68,.06-1.01,.19-.33,.12-.64,.32-.9,.58-.27,.26-.48,.6-.64,1.02-.16,.42-.24,.92-.24,1.51,0,.66,.13,1.24,.4,1.73,.27,.5,.64,.89,1.11,1.18,.48,.29,1.03,.43,1.65,.43,.41,0,.76-.05,1.05-.15,.29-.1,.54-.23,.76-.38,.22-.15,.4-.31,.54-.47,.15-.1,.29-.15,.43-.15,.17,0,.31,.06,.43,.17,.11,.11,.17,.25,.17,.41,0,.19-.1,.37-.29,.53-.32,.35-.75,.66-1.29,.92-.54,.26-1.12,.39-1.73,.39Z"/><path d="M41.16,210.19c.2,0,.37,.07,.49,.2,.12,.13,.19,.29,.19,.48v7.5c0,.19-.07,.36-.2,.49-.13,.14-.29,.2-.48,.2-.2,0-.37-.07-.49-.2-.12-.14-.19-.3-.19-.49v-1.62l.32-.03c0,.26-.09,.54-.26,.82s-.4,.56-.7,.82c-.29,.25-.64,.46-1.05,.63-.4,.16-.83,.25-1.28,.25-.78,0-1.48-.2-2.09-.6-.61-.4-1.1-.95-1.45-1.64-.36-.69-.54-1.48-.54-2.36s.18-1.69,.54-2.37c.36-.69,.84-1.22,1.45-1.61,.61-.39,1.29-.59,2.04-.59,.49,0,.94,.08,1.36,.24,.42,.16,.78,.37,1.1,.65,.31,.27,.55,.57,.73,.9,.18,.33,.26,.66,.26,.99l-.44-.1v-1.85c0-.19,.06-.35,.19-.48,.12-.13,.29-.2,.49-.2Zm-3.5,7.79c.57,0,1.07-.15,1.5-.44,.44-.29,.78-.69,1.02-1.2,.24-.5,.37-1.07,.37-1.71s-.12-1.18-.37-1.68c-.24-.5-.58-.9-1.02-1.19-.44-.29-.94-.44-1.5-.44s-1.05,.14-1.49,.43c-.44,.29-.78,.68-1.03,1.18s-.37,1.07-.37,1.7,.12,1.2,.37,1.71c.25,.5,.59,.9,1.03,1.2,.44,.29,.93,.44,1.49,.44Z"/><path d="M48.18,210.05c.58,0,1.1,.06,1.56,.19,.46,.12,.83,.29,1.1,.51s.41,.46,.41,.73c0,.16-.05,.31-.14,.44-.1,.14-.24,.2-.42,.2-.16,0-.29-.03-.38-.09-.1-.06-.19-.14-.27-.22s-.2-.17-.35-.25c-.14-.07-.33-.13-.59-.18-.26-.05-.52-.08-.78-.08-.61,0-1.16,.15-1.63,.44-.48,.29-.85,.69-1.11,1.19-.27,.5-.4,1.07-.4,1.7s.13,1.2,.39,1.7c.26,.5,.62,.9,1.09,1.19,.46,.29,1,.44,1.61,.44,.39,0,.7-.03,.94-.1s.44-.15,.59-.24c.2-.11,.36-.23,.47-.34,.11-.11,.25-.17,.43-.17,.2,0,.36,.06,.46,.19,.1,.12,.15,.28,.15,.46,0,.22-.14,.44-.43,.66s-.67,.42-1.15,.57-1.03,.23-1.64,.23c-.86,0-1.61-.2-2.26-.6-.65-.4-1.15-.95-1.5-1.65-.36-.7-.54-1.48-.54-2.34s.18-1.64,.55-2.33c.37-.69,.88-1.24,1.54-1.65,.66-.41,1.42-.61,2.29-.61Z"/><path d="M52.75,210.32h4c.18,0,.33,.06,.45,.19,.12,.12,.18,.28,.18,.46,0,.17-.06,.31-.18,.43-.12,.12-.27,.18-.45,.18h-4c-.17,0-.32-.06-.45-.19-.13-.12-.2-.27-.2-.44,0-.18,.07-.33,.2-.45,.13-.12,.28-.18,.45-.18Zm1.78-2.31c.19,0,.35,.07,.48,.2,.12,.14,.19,.3,.19,.49v8.19c0,.27,.04,.48,.12,.61,.08,.14,.18,.23,.31,.28,.13,.05,.26,.08,.38,.08,.11,0,.21-.02,.3-.06,.08-.04,.18-.06,.3-.06s.22,.05,.31,.16c.1,.11,.14,.25,.14,.42,0,.2-.12,.38-.36,.52-.24,.14-.5,.21-.8,.21-.16,0-.35-.01-.59-.03-.23-.02-.46-.1-.69-.22-.23-.12-.42-.33-.57-.62-.15-.29-.23-.69-.23-1.22v-8.26c0-.19,.07-.36,.2-.49,.14-.14,.3-.2,.49-.2Z"/></g><g id="_6AJj1V"><g><path d="M153.9,161.08c0,5.02,0,10.04,0,15.06,0,1.01-.45,1.72-1.28,2.22-1.35,.8-2.71,1.56-4.07,2.34-3.96,2.29-7.92,4.58-11.88,6.87-3.33,1.92-6.66,3.84-9.99,5.76-.94,.54-1.88,.52-2.83-.04-3.29-1.91-6.59-3.8-9.89-5.7-2.85-1.64-5.69-3.29-8.54-4.94-2.3-1.32-4.6-2.64-6.89-3.97-.56-.32-1.14-.62-1.49-1.22-.23-.4-.36-.83-.36-1.28,0-10.09,0-20.19,0-30.28,0-.98,.5-1.68,1.33-2.16,2.56-1.48,5.13-2.95,7.69-4.43,2.92-1.68,5.83-3.37,8.75-5.06,3.15-1.82,6.29-3.63,9.44-5.45,.94-.55,1.87-.55,2.82,0,3.25,1.88,6.5,3.75,9.75,5.63,3.45,2,6.91,4,10.36,5.99,1.87,1.08,3.74,2.16,5.62,3.23,.95,.55,1.48,1.3,1.47,2.48-.04,4.98-.02,9.96-.01,14.94Zm-16.73-1.94c0-2.1,0-4.2,0-6.3,0-.38-.11-.62-.45-.8-.76-.4-1.51-.84-2.27-1.25-.57-.31-.7-.24-.7,.4,0,2.11,0,4.22,0,6.34,0,.53-.05,.57-.5,.32-.27-.15-.53-.3-.79-.46-.23-.14-.49-.17-.72-.04-1.47,.84-2.94,1.7-4.41,2.55-.23,.13-.34,.32-.34,.59,0,1.7,0,3.4,0,5.1,0,.36,.19,.59,.51,.72,.12,.05,.25,.09,.36,.15,1.19,.7,2.38,1.4,3.57,2.09,.39,.23,.75,.32,1.18,.03,.62-.42,1.28-.8,1.93-1.17,.7-.4,1.4-.8,2.12-1.17,.37-.19,.51-.44,.5-.85-.02-2.09,0-4.17,0-6.26Zm-13.55,3.82h0c0-.84,0-1.67,0-2.51,0-.3-.1-.5-.36-.65-1.44-.83-2.87-1.65-4.31-2.49-.28-.16-.53-.17-.82,0-1.43,.84-2.87,1.66-4.3,2.49-.24,.14-.37,.33-.37,.61,0,1.69,0,3.37,0,5.06,0,.27,.11,.47,.36,.62,1.44,.82,2.88,1.65,4.31,2.49,.29,.17,.53,.16,.81,0,1.43-.84,2.86-1.67,4.3-2.49,.26-.15,.37-.35,.37-.64-.01-.82,0-1.65,0-2.47Zm-23.67,.78h0c0,1.14,0,2.28,0,3.43,0,.39,.14,.46,.49,.3,.86-.4,1.63-.97,2.48-1.4,.29-.15,.4-.39,.4-.72-.01-.88,.02-1.75-.01-2.63-.02-.56,.1-.91,.66-1.18,1.19-.58,.87-.67,1.99,0,.08,.05,.16,.09,.25,.13,.32,.17,.49,.4,.48,.79-.03,.97,0,1.94-.01,2.91,0,.25,.04,.49,.27,.62,.89,.52,1.8,1.03,2.7,1.54,.22,.13,.36,.01,.41-.2,.03-.11,.02-.24,.02-.36,0-2.14,0-4.28,.01-6.41,0-.42-.14-.67-.5-.86-.58-.31-1.18-.61-1.74-.95-.83-.52-1.69-1-2.53-1.5-.22-.14-.45-.12-.68,.01-1.44,.83-2.87,1.66-4.31,2.48-.29,.16-.4,.38-.39,.72,.02,1.1,0,2.2,0,3.31Zm40.58-.76c0,.76,.03,1.52-.01,2.27-.03,.49,.17,.75,.57,.98,1.29,.71,2.57,1.43,3.83,2.18,.43,.26,.82,.25,1.23,.03,.76-.41,1.51-.83,2.26-1.26,.39-.22,.38-.43-.01-.66-1.33-.77-2.65-1.55-4-2.29-.42-.23-.48-.51-.54-.94-.13-.98,.19-1.59,1.11-1.97,.43-.18,.75-.33,1.14,0,.19,.16,.43,.27,.65,.38,.35,.16,.54,.39,.48,.8-.04,.25-.01,.5,0,.76,0,.42,.18,.53,.55,.32,.58-.32,1.15-.67,1.72-1,1.35-.78,1.1-.45,1.15-2,.01-.41-.16-.65-.48-.83-1.4-.81-2.8-1.62-4.2-2.44-.27-.16-.52-.15-.78,0-1.4,.81-2.79,1.63-4.2,2.43-.35,.2-.48,.45-.47,.84,.02,.8,0,1.59,0,2.39Zm6,.01c0-.57-.51-1.21-.95-1.12-.32,.07-.63,.28-.88,.51-.21,.18-.07,.5-.09,.75-.02,.37,.52,.87,.93,.85,.35-.02,.62-.29,.9-.46,.19-.12,.04-.37,.08-.53Z"/><g><path d="M130.4,162.9c-.26-.69,.28-.99,.86-1.36,.6-.38,1.03-.34,1.63,0,.66,.37,.93,.76,.9,1.53-.03,.66-.17,1.05-.78,1.4-.65,.38-1.14,.5-1.8,.04-.77-.54-.81-.48-.81-1.6Z"/><path d="M132.04,165.3c-.34,0-.71-.11-1.11-.39l-.15-.11c-.76-.53-.87-.73-.87-1.82-.31-.98,.49-1.48,1.02-1.82,.79-.51,1.41-.51,2.22-.07,.86,.48,1.19,1.05,1.15,1.99-.03,.75-.22,1.34-1.02,1.81-.38,.22-.78,.4-1.23,.4Zm.02-3.53c-.17,0-.32,.06-.52,.19-.74,.47-.74,.54-.66,.77l.03,.17q0,.78,.44,1.08l.16,.11c.42,.29,.68,.28,1.26-.06,.4-.23,.5-.43,.53-.99,.02-.55-.12-.79-.64-1.08-.24-.14-.42-.2-.6-.2Z"/></g><g><path d="M116.83,162.72c-.26-.74,.24-1,.75-1.38,.69-.51,1.2-.35,1.83,.05,.5,.32,.7,.64,.72,1.25,.02,.76-.2,1.19-.88,1.59-.63,.36-1.08,.37-1.61-.06-.02-.02-.04-.03-.07-.04-.66-.25-.97-.7-.74-1.42Z"/><path d="M118.42,165c-.38,0-.74-.15-1.1-.44-.84-.3-1.22-.98-1.02-1.84-.24-.92,.4-1.38,.83-1.69l.14-.1c.95-.7,1.71-.4,2.4,.03,.66,.41,.93,.89,.95,1.66,.03,.96-.3,1.55-1.13,2.03-.39,.22-.74,.34-1.07,.34Zm-.01-3.48c-.18,0-.34,.07-.54,.22l-.15,.11c-.49,.35-.52,.41-.42,.7l.06,.16-.05,.16c-.11,.37-.08,.6,.44,.8l.2,.12c.31,.25,.53,.31,1.04,.01,.51-.3,.65-.54,.63-1.14-.01-.43-.11-.6-.49-.84-.31-.2-.53-.29-.73-.29Z"/></g></g></g><g><path d="M106.95,207.43c.19,0,.35,.06,.46,.19,.11,.12,.17,.28,.17,.46v10.54c0,.22-.07,.39-.2,.52s-.31,.2-.51,.2c-.09,0-.19-.02-.29-.06-.1-.04-.18-.09-.24-.16l-7.28-9.62,.34-.19v9.4c0,.18-.06,.33-.18,.45-.12,.12-.27,.18-.47,.18s-.35-.06-.46-.18c-.11-.12-.17-.27-.17-.45v-10.57c0-.21,.07-.39,.2-.51s.29-.19,.48-.19c.1,0,.21,.02,.31,.06s.19,.1,.25,.2l7.16,9.47-.2,.27v-9.35c0-.18,.06-.33,.18-.46,.12-.12,.27-.19,.45-.19Z"/><path d="M118.57,214.91c0,.88-.19,1.67-.58,2.36-.39,.69-.91,1.24-1.57,1.63-.66,.4-1.41,.59-2.25,.59s-1.58-.2-2.24-.59c-.67-.4-1.2-.94-1.59-1.63-.39-.69-.59-1.48-.59-2.36s.2-1.67,.59-2.36c.39-.69,.92-1.23,1.59-1.63,.67-.4,1.42-.59,2.24-.59s1.59,.2,2.25,.59c.66,.4,1.19,.94,1.57,1.63,.39,.69,.58,1.48,.58,2.36Zm-1.36,0c0-.66-.13-1.23-.4-1.73-.27-.49-.63-.88-1.09-1.17-.46-.29-.98-.43-1.56-.43s-1.08,.14-1.55,.43c-.46,.29-.83,.68-1.1,1.17s-.4,1.07-.4,1.73,.13,1.22,.4,1.72c.27,.5,.63,.89,1.1,1.18,.46,.29,.98,.43,1.55,.43s1.1-.14,1.56-.43c.46-.29,.82-.68,1.09-1.18,.27-.5,.4-1.07,.4-1.72Z"/><path d="M127.7,206.75c.2,0,.37,.07,.49,.2,.12,.13,.19,.3,.19,.5v11.19c0,.19-.07,.36-.2,.49-.13,.14-.29,.2-.48,.2-.2,0-.37-.07-.49-.2-.12-.14-.19-.3-.19-.49v-1.62l.32-.1c0,.26-.09,.54-.26,.84s-.4,.58-.7,.85c-.29,.27-.64,.48-1.05,.65-.4,.16-.83,.25-1.28,.25-.77,0-1.47-.2-2.08-.59-.62-.4-1.1-.94-1.46-1.63-.36-.69-.54-1.48-.54-2.36s.18-1.69,.54-2.38c.36-.69,.84-1.23,1.45-1.62,.61-.39,1.29-.59,2.04-.59,.48,0,.92,.08,1.34,.24,.42,.16,.78,.37,1.1,.65,.31,.27,.56,.57,.74,.9,.18,.33,.27,.66,.27,.99l-.44-.1v-5.54c0-.19,.06-.36,.19-.49,.12-.14,.29-.2,.49-.2Zm-3.5,11.49c.58,0,1.08-.14,1.51-.43,.43-.29,.77-.69,1.01-1.19,.24-.5,.37-1.07,.37-1.71s-.12-1.2-.37-1.71c-.24-.5-.58-.9-1.02-1.19-.44-.29-.94-.43-1.5-.43s-1.05,.14-1.49,.43c-.44,.29-.78,.69-1.03,1.19-.25,.5-.37,1.07-.37,1.71s.12,1.19,.37,1.69c.25,.5,.59,.9,1.03,1.2,.44,.29,.93,.44,1.49,.44Z"/><path d="M134.88,219.5c-.91,0-1.7-.19-2.38-.58-.68-.38-1.21-.92-1.59-1.59-.38-.67-.57-1.45-.57-2.34,0-.99,.2-1.83,.59-2.52,.39-.7,.9-1.23,1.53-1.6,.63-.37,1.29-.55,2-.55,.53,0,1.04,.1,1.52,.29,.48,.19,.91,.48,1.29,.85,.38,.37,.68,.82,.91,1.33,.23,.51,.35,1.09,.36,1.73-.01,.18-.09,.33-.22,.45-.14,.12-.29,.18-.48,.18h-6.72l-.31-1.17h6.54l-.27,.24v-.37c-.05-.46-.2-.86-.47-1.2-.27-.33-.59-.59-.97-.77-.38-.18-.78-.27-1.2-.27-.34,0-.68,.06-1.01,.19-.33,.12-.64,.32-.9,.58-.27,.26-.48,.6-.64,1.02-.16,.42-.24,.92-.24,1.51,0,.66,.13,1.24,.4,1.73,.27,.5,.64,.89,1.11,1.18,.48,.29,1.03,.43,1.65,.43,.41,0,.76-.05,1.05-.15,.29-.1,.54-.23,.76-.38,.22-.15,.4-.31,.54-.47,.15-.1,.29-.15,.43-.15,.17,0,.31,.06,.43,.17,.11,.11,.17,.25,.17,.41,0,.19-.1,.37-.29,.53-.32,.35-.75,.66-1.29,.92-.54,.26-1.12,.39-1.73,.39Z"/><path d="M145.33,215.38c-.19,0-.35-.06-.48-.19s-.19-.28-.19-.46,.06-.33,.19-.45,.28-.18,.48-.18h6.97c.19,0,.35,.06,.48,.19,.12,.12,.19,.28,.19,.46s-.06,.33-.19,.45c-.12,.12-.28,.18-.48,.18h-6.97Zm3.47,3.55c-.2,0-.38-.07-.52-.2-.14-.14-.21-.31-.21-.51v-7.02c0-.22,.07-.39,.21-.53,.14-.14,.32-.2,.54-.2s.39,.07,.52,.2c.13,.14,.2,.31,.2,.53v7c0,.22-.07,.39-.2,.53-.14,.14-.31,.2-.53,.2Z"/><path d="M97.05,224.97h6.05c.19,0,.36,.07,.49,.2,.14,.13,.2,.29,.2,.48s-.07,.35-.2,.47-.3,.18-.49,.18h-5.47l.15-.29v4.28l-.17-.19h4.73c.19,0,.36,.06,.49,.19,.14,.12,.2,.29,.2,.49,0,.19-.07,.35-.2,.47-.14,.12-.3,.18-.49,.18h-4.67l.12-.17v4.4l-.1-.12h5.42c.19,0,.36,.07,.49,.2,.14,.14,.2,.29,.2,.46,0,.19-.07,.35-.2,.48-.14,.12-.3,.19-.49,.19h-6.05c-.19,0-.36-.07-.49-.2-.14-.14-.2-.3-.2-.49v-10.51c0-.19,.07-.36,.2-.49,.14-.14,.3-.2,.49-.2Z"/><path d="M105.74,227.98c.22,0,.4,.1,.54,.29l5.92,7.55c.09,.12,.14,.26,.14,.41,0,.19-.07,.36-.2,.49-.14,.14-.29,.2-.48,.2-.22,0-.4-.1-.56-.31l-5.92-7.53c-.1-.11-.15-.25-.15-.41,0-.2,.07-.37,.21-.5,.14-.13,.31-.2,.5-.2Zm0,8.93c-.15,0-.29-.06-.44-.17-.15-.11-.22-.26-.22-.44,0-.15,.05-.29,.15-.42l2.79-3.52,.73,1.12-2.46,3.16c-.14,.18-.32,.27-.54,.27Zm5.9-8.93c.2,0,.37,.06,.48,.19,.12,.12,.18,.27,.18,.43,0,.08-.01,.16-.04,.23s-.07,.14-.13,.21l-2.77,3.55-.71-1.04,2.45-3.26c.16-.2,.34-.31,.54-.31Z"/><path d="M118.4,227.95c.77,0,1.46,.19,2.07,.58,.61,.39,1.1,.92,1.45,1.6,.36,.68,.54,1.46,.54,2.35s-.18,1.65-.54,2.34c-.36,.69-.84,1.22-1.45,1.61-.61,.39-1.29,.59-2.05,.59-.42,0-.81-.07-1.18-.2-.37-.13-.7-.3-1-.51-.3-.21-.55-.44-.76-.71-.2-.26-.35-.53-.44-.8l.37-.22v5c0,.19-.06,.36-.19,.49-.12,.14-.29,.2-.49,.2-.19,0-.35-.07-.48-.2-.13-.13-.2-.3-.2-.5v-10.85c0-.2,.06-.37,.2-.5,.13-.13,.29-.2,.48-.2,.2,0,.37,.07,.49,.2,.12,.13,.19,.3,.19,.5v1.5l-.25-.14c.08-.28,.22-.56,.42-.82,.2-.26,.44-.49,.73-.69,.29-.2,.61-.35,.97-.47s.73-.17,1.11-.17Zm-.15,1.26c-.57,0-1.07,.14-1.5,.42-.44,.28-.78,.67-1.02,1.16-.24,.49-.37,1.05-.37,1.68s.12,1.18,.37,1.68c.24,.5,.58,.89,1.02,1.17,.44,.28,.94,.42,1.5,.42s1.07-.14,1.5-.42c.43-.28,.77-.67,1.02-1.17,.25-.5,.37-1.06,.37-1.68s-.12-1.2-.37-1.68c-.25-.49-.59-.87-1.02-1.16-.43-.28-.93-.42-1.5-.42Z"/><path d="M125.1,236.87c-.19,0-.35-.07-.48-.2-.13-.14-.2-.3-.2-.49v-7.4c0-.2,.06-.37,.2-.5,.13-.13,.29-.2,.48-.2,.2,0,.37,.07,.49,.2s.19,.3,.19,.5v2.23l-.2-.36c.07-.35,.19-.69,.37-1.03,.18-.33,.4-.63,.67-.9s.58-.48,.94-.63c.35-.15,.74-.23,1.16-.23,.25,0,.48,.06,.69,.18s.31,.29,.31,.5c0,.24-.06,.42-.19,.54s-.27,.18-.42,.18c-.15,0-.29-.03-.43-.1-.14-.07-.31-.1-.51-.1-.28,0-.56,.08-.84,.24-.28,.16-.53,.38-.76,.65-.23,.28-.42,.6-.56,.95-.14,.36-.21,.74-.21,1.15v4.13c0,.19-.07,.36-.2,.49-.13,.14-.29,.2-.48,.2Z"/><path d="M134.84,237.04c-.91,0-1.7-.19-2.38-.58-.68-.38-1.21-.92-1.59-1.59-.38-.67-.57-1.45-.57-2.34,0-.99,.2-1.83,.59-2.52,.39-.7,.9-1.23,1.53-1.6,.63-.37,1.29-.55,2-.55,.53,0,1.04,.1,1.52,.29,.48,.19,.91,.48,1.29,.85,.38,.37,.68,.82,.91,1.33,.23,.51,.35,1.09,.36,1.73-.01,.18-.09,.33-.22,.45-.14,.12-.29,.18-.48,.18h-6.72l-.31-1.17h6.54l-.27,.24v-.37c-.05-.46-.2-.86-.47-1.2-.27-.33-.59-.59-.97-.77-.38-.18-.78-.27-1.2-.27-.34,0-.68,.06-1.01,.19-.33,.12-.64,.32-.9,.58-.27,.26-.48,.6-.64,1.02-.16,.42-.24,.92-.24,1.51,0,.66,.13,1.24,.4,1.73,.27,.5,.64,.89,1.11,1.18,.48,.29,1.03,.43,1.65,.43,.41,0,.76-.05,1.05-.15,.29-.1,.54-.23,.76-.38,.22-.15,.4-.31,.54-.47,.15-.1,.29-.15,.43-.15,.17,0,.31,.06,.43,.17,.11,.11,.17,.25,.17,.41,0,.19-.1,.37-.29,.53-.32,.35-.75,.66-1.29,.92-.54,.26-1.12,.39-1.73,.39Z"/><path d="M139.94,235.48c-.09-.15-.13-.3-.13-.47,0-.16,.1-.31,.28-.43,.12-.08,.26-.11,.42-.1,.15,.01,.29,.08,.42,.22,.32,.37,.68,.67,1.09,.89,.41,.22,.91,.33,1.5,.33,.26-.01,.53-.06,.81-.14,.28-.08,.51-.22,.7-.42s.28-.46,.28-.79-.1-.57-.29-.76c-.19-.19-.44-.34-.76-.46-.31-.12-.64-.22-.99-.31-.37-.1-.74-.21-1.1-.34-.36-.12-.69-.29-.98-.48s-.52-.45-.7-.75c-.18-.3-.26-.67-.26-1.11,0-.51,.14-.95,.42-1.33,.28-.37,.65-.66,1.11-.87,.46-.2,.98-.31,1.55-.31,.32,0,.65,.04,.99,.11,.35,.07,.68,.2,1.01,.37,.33,.18,.62,.42,.87,.72,.1,.11,.16,.26,.17,.43s-.06,.32-.22,.46c-.12,.09-.26,.13-.42,.13-.15,0-.28-.06-.38-.16-.25-.29-.55-.52-.91-.67s-.75-.23-1.18-.23c-.26,0-.52,.04-.78,.13-.26,.08-.48,.22-.65,.4-.18,.18-.26,.44-.26,.77,.01,.31,.11,.56,.31,.75,.19,.19,.45,.35,.78,.47,.33,.12,.69,.24,1.09,.35,.36,.09,.71,.2,1.05,.31,.33,.12,.64,.27,.91,.47s.49,.44,.65,.74,.24,.68,.24,1.13c0,.52-.15,.97-.44,1.35-.29,.38-.68,.67-1.16,.87-.48,.2-1,.3-1.56,.3-.62,0-1.24-.12-1.85-.35-.61-.23-1.14-.64-1.58-1.22Z"/><path d="M148,235.48c-.09-.15-.13-.3-.13-.47,0-.16,.1-.31,.28-.43,.12-.08,.26-.11,.42-.1,.15,.01,.29,.08,.42,.22,.32,.37,.68,.67,1.09,.89,.41,.22,.91,.33,1.5,.33,.26-.01,.53-.06,.81-.14,.28-.08,.51-.22,.7-.42s.28-.46,.28-.79-.1-.57-.29-.76c-.19-.19-.44-.34-.76-.46-.31-.12-.64-.22-.99-.31-.37-.1-.74-.21-1.1-.34-.36-.12-.69-.29-.98-.48s-.52-.45-.7-.75c-.18-.3-.26-.67-.26-1.11,0-.51,.14-.95,.42-1.33,.28-.37,.65-.66,1.11-.87,.46-.2,.98-.31,1.55-.31,.32,0,.65,.04,.99,.11,.35,.07,.68,.2,1.01,.37,.33,.18,.62,.42,.87,.72,.1,.11,.16,.26,.17,.43s-.06,.32-.22,.46c-.12,.09-.26,.13-.42,.13-.15,0-.28-.06-.38-.16-.25-.29-.55-.52-.91-.67s-.75-.23-1.18-.23c-.26,0-.52,.04-.78,.13-.26,.08-.48,.22-.65,.4-.18,.18-.26,.44-.26,.77,.01,.31,.11,.56,.31,.75,.19,.19,.45,.35,.78,.47,.33,.12,.69,.24,1.09,.35,.36,.09,.71,.2,1.05,.31,.33,.12,.64,.27,.91,.47s.49,.44,.65,.74,.24,.68,.24,1.13c0,.52-.15,.97-.44,1.35-.29,.38-.68,.67-1.16,.87-.48,.2-1,.3-1.56,.3-.62,0-1.24-.12-1.85-.35-.61-.23-1.14-.64-1.58-1.22Z"/></g></g></svg>