<?xml version="1.0" encoding="UTF-8"?><svg id="Layer_2" xmlns="http://www.w3.org/2000/svg" viewBox="0 0 124.22 129.67"><defs><style>.cls-1{fill:#f5efee;}</style></defs><g id="Layer_3"><g><path class="cls-1" d="M106.75,15.7c.21,.16,.33,.36,.38,.59,.04,.24,0,.45-.15,.63-.08,.1-.19,.2-.32,.28l-12.84,7.28c-.19,.1-.37,.14-.55,.12-.18-.02-.34-.08-.48-.19-.12-.11-.21-.25-.27-.42-.06-.17-.07-.35-.02-.53l3.76-14.23c.01-.06,.04-.13,.07-.2,.03-.07,.07-.13,.12-.19,.16-.21,.37-.32,.62-.32,.26,0,.46,.05,.61,.16,.31,.24,.42,.58,.3,1.01l-3.48,13.15-.4-.31,11.67-6.87c.37-.19,.7-.18,.99,.04Z"/><path class="cls-1" d="M101.64,33.49c-.73-.92-1.18-1.87-1.34-2.87-.16-1-.05-1.96,.32-2.89,.37-.93,1.01-1.75,1.9-2.47,1-.8,2-1.28,3.02-1.45,1.02-.17,1.97-.08,2.85,.25,.88,.34,1.61,.86,2.17,1.57,.43,.54,.74,1.13,.94,1.77,.19,.64,.26,1.31,.19,1.99-.07,.69-.27,1.35-.6,1.99-.33,.64-.82,1.23-1.46,1.76-.19,.14-.4,.18-.63,.14-.23-.04-.42-.15-.57-.34l-5.43-6.78,.94-1.26,5.3,6.61-.46-.08,.38-.3c.43-.42,.71-.9,.83-1.44,.12-.54,.12-1.07,0-1.6-.12-.53-.36-1.01-.69-1.43-.28-.34-.61-.63-1.01-.87-.4-.24-.83-.38-1.31-.44-.48-.06-.99,0-1.55,.18-.55,.18-1.13,.51-1.72,.98-.66,.53-1.14,1.13-1.43,1.81-.29,.67-.39,1.37-.29,2.08s.39,1.39,.9,2.02c.33,.41,.66,.72,1,.93,.34,.21,.67,.36,1,.45,.33,.09,.63,.15,.91,.17,.22,.07,.39,.17,.5,.31,.14,.17,.19,.36,.17,.57-.02,.21-.11,.37-.27,.5-.19,.16-.45,.2-.77,.13-.61-.04-1.27-.22-1.97-.56s-1.3-.82-1.8-1.44Z"/><path class="cls-1" d="M107.28,40.06c-.22,.12-.45,.15-.69,.08-.24-.07-.42-.21-.54-.43-.12-.22-.15-.44-.08-.68,.07-.23,.21-.41,.43-.53l12.62-7.09c.22-.12,.45-.15,.69-.08,.24,.07,.42,.21,.54,.43,.13,.23,.16,.46,.08,.69-.07,.23-.22,.4-.44,.52l-12.62,7.09Z"/><path class="cls-1" d="M108.3,43.95c-.09-.25-.08-.48,.03-.7,.11-.22,.28-.37,.51-.46l13.6-4.97c.23-.09,.46-.08,.69,.02,.22,.1,.38,.27,.47,.52,.09,.23,.07,.46-.03,.68-.11,.22-.28,.37-.51,.46l-13.6,4.97c-.23,.09-.46,.08-.69-.02-.22-.1-.38-.26-.46-.5Zm2.61,7.08c-.09-.25-.08-.49,.04-.72l3.08-6.11,1.59,.82-3.08,6.07c-.12,.23-.3,.39-.53,.47-.25,.09-.48,.07-.69-.07-.22-.14-.35-.29-.41-.46Zm10.64-4.15c.08,.22,.06,.44-.05,.66-.11,.22-.27,.37-.46,.44-.22,.08-.47,.05-.74-.1l-8.29-4.56,1.92-.77,7.16,3.83c.23,.12,.39,.29,.47,.51Z"/><path class="cls-1" d="M118.47,62.96c-1.14,.14-2.18,.02-3.13-.36-.95-.38-1.73-.97-2.35-1.76-.62-.79-.99-1.72-1.13-2.8-.13-1.06,0-2.05,.4-2.98,.4-.92,1.01-1.69,1.84-2.3,.82-.61,1.8-.99,2.94-1.13,1.14-.14,2.18-.02,3.13,.37,.95,.39,1.73,.98,2.35,1.78,.62,.79,.99,1.72,1.13,2.79,.14,1.08,0,2.07-.4,2.99-.4,.92-1.02,1.68-1.84,2.28-.83,.61-1.81,.98-2.94,1.12Zm-.22-1.75c.84-.11,1.56-.37,2.15-.79,.59-.42,1.03-.95,1.33-1.59,.3-.64,.4-1.33,.31-2.07-.09-.73-.36-1.37-.81-1.92-.45-.55-1.01-.96-1.68-1.22-.68-.26-1.44-.34-2.28-.23-.83,.1-1.54,.37-2.14,.79-.6,.42-1.04,.95-1.34,1.6-.3,.64-.4,1.33-.31,2.06,.09,.74,.36,1.38,.81,1.93,.45,.54,1.01,.95,1.69,1.21,.68,.26,1.44,.34,2.27,.24Z"/><path class="cls-1" d="M123.56,72.61c-.18,.98-.58,1.73-1.19,2.25-.61,.52-1.39,.8-2.33,.84l.06-.32,.36,.22c.37,.25,.71,.61,1.01,1.1,.3,.49,.52,1.03,.66,1.62,.14,.59,.16,1.19,.05,1.78-.17,.95-.52,1.66-1.03,2.14-.51,.47-1.13,.77-1.86,.88-.73,.11-1.52,.09-2.37-.07l-5.91-1.08c-.25-.04-.44-.17-.58-.36-.14-.2-.19-.43-.14-.69,.05-.25,.17-.44,.37-.57,.2-.13,.43-.18,.67-.13l5.86,1.08c.55,.1,1.06,.11,1.55,.04,.48-.08,.9-.28,1.24-.6,.34-.32,.57-.8,.69-1.44,.11-.58,.07-1.14-.12-1.68-.18-.54-.48-1-.88-1.37-.4-.37-.88-.61-1.42-.71l-5.86-1.08c-.25-.05-.44-.16-.58-.35-.14-.19-.19-.42-.14-.68,.05-.26,.17-.45,.37-.58,.2-.13,.43-.17,.67-.12l5.93,1.09c.53,.1,1.04,.11,1.52,.03,.48-.08,.88-.27,1.21-.58,.33-.31,.56-.78,.67-1.4,.11-.58,.07-1.13-.11-1.65-.18-.52-.47-.97-.86-1.34-.39-.37-.86-.6-1.39-.7l-5.93-1.09c-.25-.04-.44-.17-.58-.36-.14-.2-.19-.42-.15-.66,.05-.25,.17-.44,.37-.57,.2-.13,.43-.18,.67-.13l9.41,1.73c.26,.05,.46,.17,.59,.37,.14,.2,.18,.42,.14,.66-.05,.26-.17,.45-.36,.58-.2,.13-.42,.17-.68,.12l-1.62-.3-.43-.57c.36,.13,.71,.34,1.04,.65,.33,.31,.62,.68,.87,1.11,.25,.43,.42,.9,.53,1.39,.1,.5,.11,1,.01,1.52Z"/><path class="cls-1" d="M116.34,94.4c-.53,.85-1.17,1.4-1.93,1.66-.76,.26-1.58,.24-2.48-.08l.17-.28,.26,.34c.26,.37,.43,.83,.53,1.39,.1,.56,.11,1.15,.03,1.75-.08,.6-.28,1.16-.6,1.67-.51,.82-1.09,1.36-1.74,1.61-.65,.25-1.33,.3-2.05,.14-.72-.16-1.45-.47-2.18-.93l-5.1-3.17c-.21-.13-.35-.32-.41-.55-.06-.24-.02-.47,.12-.69,.13-.21,.32-.34,.56-.39,.24-.05,.46-.01,.68,.12l5.06,3.15c.47,.29,.95,.49,1.43,.6,.48,.11,.94,.07,1.37-.11,.44-.18,.83-.54,1.17-1.09,.31-.5,.48-1.03,.5-1.6,.03-.57-.08-1.1-.32-1.6-.24-.49-.59-.89-1.07-1.18l-5.06-3.15c-.21-.13-.35-.31-.41-.54-.06-.23-.03-.46,.11-.68,.14-.22,.33-.36,.56-.4,.23-.04,.46,0,.67,.13l5.12,3.18c.46,.29,.93,.48,1.4,.58,.47,.1,.92,.07,1.34-.1,.42-.17,.8-.52,1.14-1.06,.31-.5,.48-1.02,.5-1.58,.02-.55-.08-1.08-.31-1.57-.23-.49-.58-.88-1.04-1.16l-5.12-3.18c-.21-.13-.35-.32-.41-.55-.06-.24-.03-.46,.11-.67s.32-.34,.56-.39c.24-.05,.46,0,.68,.12l8.13,5.05c.22,.14,.36,.32,.42,.56,.05,.23,.02,.45-.12,.67-.14,.22-.32,.36-.55,.41-.23,.05-.45,0-.68-.14l-1.4-.87-.19-.69c.29,.25,.54,.58,.73,.99,.2,.41,.33,.86,.4,1.35,.07,.49,.07,.99-.02,1.49-.09,.5-.27,.97-.55,1.42Z"/><path class="cls-1" d="M94.58,102.55c.89-.77,1.82-1.26,2.82-1.46,.99-.2,1.96-.13,2.9,.2,.94,.34,1.79,.94,2.54,1.8,.84,.96,1.36,1.95,1.57,2.96,.21,1.01,.16,1.97-.14,2.86-.3,.89-.8,1.64-1.48,2.24-.52,.45-1.1,.79-1.73,1.01-.63,.22-1.3,.31-1.98,.27-.69-.04-1.36-.22-2.01-.52-.65-.31-1.26-.77-1.82-1.39-.14-.19-.2-.4-.17-.63s.14-.42,.31-.58l6.56-5.7,1.29,.89-6.39,5.56,.06-.46,.32,.37c.44,.42,.93,.67,1.47,.77,.54,.1,1.08,.08,1.6-.07,.52-.15,.99-.4,1.4-.75,.33-.29,.61-.64,.83-1.04,.22-.41,.35-.85,.39-1.33,.04-.48-.04-.99-.24-1.54-.2-.54-.55-1.1-1.05-1.68-.56-.64-1.18-1.09-1.86-1.35-.68-.26-1.38-.33-2.09-.21-.71,.12-1.37,.45-1.98,.98-.4,.35-.7,.69-.89,1.04-.2,.34-.33,.68-.41,1.02-.08,.33-.13,.64-.13,.92-.06,.22-.15,.39-.29,.51-.17,.14-.35,.21-.56,.19-.21-.01-.38-.1-.51-.25-.16-.19-.22-.44-.17-.76,.01-.61,.17-1.28,.48-1.99,.31-.72,.76-1.33,1.36-1.85Z"/><path class="cls-1" d="M90.14,119.68c-.88,.46-1.67,.65-2.37,.55-.7-.1-1.31-.4-1.85-.89-.53-.5-1-1.13-1.4-1.9l-2.86-5.46c-.12-.22-.14-.45-.07-.68,.07-.23,.21-.41,.43-.52,.23-.12,.46-.14,.69-.06,.22,.08,.39,.23,.51,.45l2.84,5.42c.26,.49,.57,.9,.93,1.23,.36,.32,.78,.51,1.26,.57,.48,.06,1.01-.07,1.59-.38,.55-.29,.98-.67,1.31-1.15,.33-.48,.52-.99,.59-1.54,.06-.55-.04-1.07-.3-1.56l-2.84-5.42c-.12-.22-.14-.45-.07-.68,.07-.23,.21-.41,.43-.52,.22-.12,.45-.14,.68-.06,.23,.08,.4,.23,.52,.45l4.44,8.48c.12,.23,.15,.46,.08,.69-.07,.23-.22,.4-.44,.52-.23,.12-.46,.15-.68,.07-.22-.07-.39-.23-.52-.46l-.71-1.36,.16-.63c.11,.37,.14,.79,.09,1.26-.05,.47-.18,.93-.39,1.39-.21,.46-.48,.88-.83,1.27-.34,.39-.75,.7-1.22,.95Z"/><path class="cls-1" d="M72.63,113.59c.3-.06,.55-.02,.76,.12,.2,.14,.34,.37,.4,.67l.09,.43c.06,.3,.03,.56-.1,.76-.13,.21-.34,.34-.65,.41l-.17,.04c-.32,.07-.57,.03-.76-.11-.19-.14-.32-.36-.39-.66l-.09-.43c-.06-.3-.03-.56,.09-.77,.12-.21,.34-.35,.65-.42l.17-.04Zm1.84,8.78c.3-.06,.55-.03,.75,.11,.2,.14,.33,.36,.4,.66l.09,.43c.07,.32,.04,.58-.09,.78-.13,.21-.34,.34-.65,.41l-.17,.04c-.32,.07-.57,.03-.76-.11-.19-.14-.32-.37-.39-.68l-.09-.43c-.06-.3-.03-.55,.09-.76,.12-.21,.34-.34,.66-.41l.17-.04Z"/><path class="cls-1" d="M69.04,110.12c.23-.02,.43,.05,.58,.21,.15,.16,.24,.33,.25,.51,.02,.25-.08,.46-.3,.64-.91,.71-1.66,1.54-2.24,2.48-.59,.94-1.01,1.95-1.26,3.04-.25,1.08-.33,2.17-.23,3.27,.1,1.08,.35,2.14,.78,3.17,.42,1.03,1.01,1.97,1.75,2.81,.74,.84,1.64,1.51,2.68,2.01,.23,.13,.36,.32,.38,.58,.02,.19-.04,.37-.16,.54-.12,.17-.3,.27-.52,.29-.15,.01-.29-.01-.43-.07-1.26-.57-2.33-1.32-3.21-2.25-.88-.93-1.58-1.99-2.1-3.18-.52-1.19-.83-2.44-.95-3.74-.12-1.31-.02-2.59,.29-3.84,.31-1.24,.83-2.4,1.55-3.48,.72-1.08,1.64-2.02,2.74-2.83,.11-.1,.24-.15,.38-.17Z"/><path class="cls-1" d="M21.91,116.67c-.22-.14-.36-.33-.43-.56-.06-.23-.03-.45,.1-.64,.07-.11,.17-.21,.3-.3l12.17-8.36c.18-.11,.36-.17,.54-.17,.18,0,.35,.05,.49,.15,.13,.1,.23,.23,.31,.39,.08,.16,.1,.34,.07,.53l-2.52,14.5c0,.07-.02,.13-.05,.2-.03,.07-.06,.14-.1,.2-.14,.22-.34,.35-.59,.38-.25,.03-.46,0-.62-.11-.33-.21-.46-.54-.39-.98l2.33-13.4,.43,.27-11.03,7.85c-.35,.23-.69,.24-.99,.04Z"/><path class="cls-1" d="M25.47,98.49c.81,.85,1.34,1.76,1.58,2.75,.25,.98,.22,1.95-.07,2.91-.29,.96-.85,1.83-1.68,2.62-.92,.88-1.89,1.45-2.89,1.7-1,.26-1.96,.25-2.86,0-.91-.26-1.67-.72-2.3-1.38-.48-.5-.84-1.06-1.09-1.68-.25-.62-.37-1.28-.36-1.97,.01-.69,.16-1.37,.43-2.04,.28-.67,.71-1.29,1.31-1.88,.18-.15,.39-.22,.62-.2s.43,.12,.59,.29l5.99,6.29-.83,1.33-5.84-6.13,.47,.04-.35,.33c-.39,.46-.63,.96-.71,1.51-.08,.55-.03,1.08,.14,1.6,.17,.52,.44,.97,.82,1.37,.3,.32,.66,.58,1.08,.78,.42,.2,.86,.31,1.35,.33,.48,.02,.99-.09,1.52-.31,.53-.23,1.08-.6,1.63-1.13,.62-.59,1.04-1.23,1.27-1.92,.23-.69,.27-1.39,.11-2.1-.15-.7-.51-1.35-1.07-1.93-.36-.38-.72-.66-1.08-.84-.35-.18-.7-.3-1.03-.37-.34-.06-.64-.1-.92-.09-.23-.05-.4-.13-.52-.26-.15-.16-.22-.34-.22-.55,0-.21,.08-.38,.23-.52,.18-.17,.43-.24,.75-.2,.61-.02,1.28,.11,2.01,.39s1.37,.7,1.91,1.28Z"/><path class="cls-1" d="M19.27,92.42c.21-.14,.43-.19,.68-.14s.44,.17,.58,.38c.14,.21,.19,.43,.13,.67-.05,.24-.18,.43-.38,.57l-11.96,8.15c-.21,.14-.43,.19-.68,.14-.24-.05-.44-.17-.58-.38-.15-.22-.2-.44-.14-.68,.05-.23,.19-.42,.39-.56l11.96-8.15Z"/><path class="cls-1" d="M17.94,88.65c.11,.24,.12,.47,.04,.7-.09,.23-.24,.39-.47,.5l-13.11,6.13c-.23,.11-.45,.12-.69,.04-.23-.08-.4-.24-.51-.48-.11-.23-.11-.45-.03-.68,.09-.23,.24-.39,.47-.5l13.11-6.13c.23-.11,.45-.12,.69-.04,.23,.08,.4,.23,.5,.46Zm-13.46-1.77c-.1-.21-.1-.43,0-.66,.09-.23,.24-.39,.42-.48,.21-.1,.46-.09,.75,.04l8.66,3.82-1.85,.94-7.46-3.19c-.24-.1-.41-.25-.51-.47Zm10.24-5.05c.11,.24,.12,.48,.02,.72l-2.54,6.36-1.66-.68,2.54-6.31c.1-.24,.26-.41,.49-.52,.24-.11,.47-.11,.7,.01,.23,.12,.38,.26,.45,.42Z"/><path class="cls-1" d="M6.15,70.58c1.12-.24,2.17-.21,3.15,.09,.98,.3,1.81,.82,2.49,1.55,.68,.73,1.14,1.63,1.36,2.69,.22,1.05,.18,2.05-.14,3-.32,.95-.86,1.77-1.63,2.45-.77,.68-1.71,1.14-2.83,1.38-1.12,.24-2.17,.21-3.15-.1-.98-.31-1.81-.83-2.5-1.57-.68-.74-1.14-1.63-1.36-2.68-.23-1.06-.18-2.07,.14-3.01,.32-.95,.87-1.76,1.64-2.43,.77-.68,1.71-1.13,2.83-1.37Zm.37,1.72c-.83,.18-1.52,.5-2.08,.97-.55,.47-.95,1.04-1.19,1.7-.24,.66-.28,1.35-.13,2.09,.15,.72,.48,1.33,.97,1.84,.49,.51,1.09,.87,1.78,1.07,.7,.2,1.46,.22,2.29,.04,.82-.18,1.51-.5,2.06-.97,.56-.47,.96-1.04,1.2-1.71,.24-.67,.28-1.36,.13-2.08-.16-.73-.48-1.35-.97-1.85s-1.09-.85-1.79-1.06c-.7-.2-1.46-.21-2.28-.04Z"/><path class="cls-1" d="M.26,61.4c.09-.99,.42-1.78,.99-2.35,.56-.57,1.31-.92,2.25-1.03l-.03,.33-.38-.19c-.39-.21-.76-.55-1.1-1.01-.34-.46-.61-.98-.8-1.56-.2-.58-.26-1.17-.21-1.77,.09-.96,.37-1.7,.84-2.22,.47-.51,1.06-.86,1.78-1.03,.72-.17,1.51-.22,2.37-.14l5.98,.57c.25,.02,.45,.13,.61,.31,.16,.18,.23,.41,.2,.67-.02,.25-.13,.45-.32,.6-.19,.15-.41,.22-.66,.19l-5.93-.57c-.55-.05-1.07-.02-1.55,.1-.48,.12-.87,.35-1.18,.7-.31,.35-.5,.85-.56,1.49-.06,.58,.03,1.14,.26,1.66,.23,.52,.56,.95,.99,1.29,.43,.34,.93,.53,1.48,.58l5.94,.57c.25,.02,.45,.12,.61,.3,.16,.18,.23,.4,.2,.66-.03,.26-.13,.47-.32,.61-.19,.14-.41,.2-.66,.18l-6-.57c-.54-.05-1.04-.02-1.51,.1-.47,.12-.85,.35-1.16,.68-.3,.34-.49,.82-.55,1.45-.06,.58,.03,1.13,.25,1.64,.22,.51,.55,.93,.97,1.26,.42,.34,.91,.53,1.45,.58l6,.57c.25,.02,.45,.13,.61,.31,.16,.18,.23,.4,.2,.65-.02,.25-.13,.45-.32,.6-.19,.15-.41,.22-.66,.19l-9.53-.91c-.26-.03-.47-.13-.62-.31-.15-.18-.22-.4-.19-.65,.03-.26,.13-.47,.31-.61,.18-.14,.41-.2,.67-.18l1.64,.16,.48,.53c-.37-.09-.74-.28-1.1-.56-.36-.28-.68-.62-.96-1.03-.28-.41-.5-.86-.65-1.34-.14-.49-.19-.99-.14-1.52Z"/><path class="cls-1" d="M5.56,39.09c.45-.89,1.04-1.5,1.78-1.83,.73-.33,1.56-.37,2.48-.14l-.15,.29-.28-.32c-.29-.34-.5-.79-.65-1.34-.15-.55-.21-1.13-.18-1.74,.03-.61,.18-1.18,.45-1.72,.44-.86,.97-1.45,1.59-1.76,.62-.31,1.3-.41,2.03-.31,.73,.1,1.48,.34,2.25,.74l5.36,2.72c.22,.11,.37,.28,.45,.51,.08,.23,.06,.46-.06,.7-.11,.22-.29,.37-.52,.44-.23,.07-.46,.05-.68-.06l-5.32-2.7c-.5-.25-.99-.41-1.47-.48-.49-.06-.94,0-1.36,.22-.42,.21-.78,.61-1.07,1.18-.27,.52-.39,1.07-.36,1.64,.02,.57,.17,1.09,.45,1.56,.28,.47,.67,.83,1.16,1.08l5.32,2.7c.22,.11,.38,.28,.46,.5,.08,.22,.07,.45-.05,.69-.12,.24-.29,.39-.52,.45-.23,.06-.46,.04-.68-.07l-5.38-2.73c-.48-.25-.97-.4-1.44-.46-.48-.06-.92,0-1.33,.21-.41,.2-.75,.59-1.04,1.15-.27,.52-.39,1.06-.36,1.62,.02,.55,.17,1.07,.44,1.53,.27,.47,.65,.82,1.14,1.07l5.38,2.73c.22,.11,.37,.28,.45,.51,.08,.23,.06,.46-.05,.68-.11,.22-.29,.37-.52,.44-.23,.07-.46,.05-.68-.06l-8.54-4.33c-.24-.12-.39-.29-.46-.52-.07-.23-.05-.45,.06-.67,.12-.24,.29-.39,.51-.45,.22-.07,.45-.04,.69,.08l1.47,.75,.25,.67c-.31-.22-.59-.53-.82-.92-.23-.39-.4-.83-.52-1.31-.12-.49-.15-.98-.11-1.49,.04-.5,.18-.99,.42-1.46Z"/><path class="cls-1" d="M26.55,29.08c-.82,.84-1.71,1.41-2.68,1.69-.97,.29-1.94,.3-2.91,.05-.97-.25-1.86-.78-2.69-1.57-.92-.89-1.52-1.83-1.82-2.82-.3-.99-.33-1.94-.11-2.86,.22-.92,.65-1.7,1.28-2.35,.48-.49,1.03-.88,1.64-1.15,.61-.27,1.26-.42,1.95-.44,.69-.02,1.37,.1,2.05,.35,.68,.25,1.32,.66,1.93,1.23,.16,.17,.23,.38,.22,.61s-.1,.43-.26,.6l-6.05,6.24-1.37-.77,5.89-6.08-.02,.47-.35-.34c-.47-.38-.98-.59-1.54-.64-.55-.05-1.08,.01-1.59,.2-.51,.19-.95,.48-1.33,.87-.31,.32-.55,.69-.74,1.11-.19,.42-.28,.88-.27,1.36,0,.48,.13,.99,.37,1.51,.25,.53,.64,1.05,1.19,1.58,.61,.59,1.27,.99,1.97,1.19,.7,.2,1.4,.21,2.1,.03,.7-.18,1.33-.56,1.89-1.14,.37-.38,.63-.75,.8-1.11,.17-.36,.27-.71,.33-1.05,.05-.34,.07-.65,.06-.93,.04-.23,.12-.41,.24-.53,.15-.16,.33-.24,.54-.24,.21,0,.38,.07,.53,.21,.18,.17,.26,.42,.23,.74,.04,.61-.06,1.29-.31,2.03-.25,.74-.65,1.4-1.2,1.96Z"/><path class="cls-1" d="M29.49,11.64c.84-.54,1.61-.79,2.31-.75,.7,.04,1.34,.28,1.92,.73,.58,.45,1.1,1.04,1.56,1.77l3.32,5.19c.13,.21,.18,.43,.13,.67-.05,.24-.18,.43-.39,.56-.22,.14-.45,.18-.68,.12-.23-.06-.41-.2-.55-.41l-3.3-5.15c-.3-.47-.64-.85-1.03-1.14-.39-.29-.82-.45-1.3-.46-.48-.01-1,.16-1.55,.51-.52,.33-.92,.75-1.21,1.26-.29,.51-.44,1.03-.45,1.58-.01,.55,.13,1.06,.43,1.53l3.3,5.15c.13,.21,.18,.43,.13,.67-.05,.24-.18,.43-.39,.56-.21,.13-.43,.17-.67,.12-.24-.06-.42-.19-.56-.4l-5.16-8.06c-.14-.22-.19-.45-.14-.68,.05-.23,.18-.42,.39-.55,.22-.14,.45-.19,.67-.13,.23,.06,.41,.19,.55,.42l.83,1.3-.11,.64c-.14-.36-.21-.78-.2-1.25,.01-.47,.1-.94,.27-1.41s.41-.92,.71-1.33c.31-.42,.69-.77,1.13-1.05Z"/><path class="cls-1" d="M44.87,7.6c-.29,.09-.55,.07-.76-.05-.21-.12-.36-.33-.45-.62l-.13-.42c-.09-.31-.08-.57,.03-.79,.11-.22,.31-.37,.61-.46l.17-.05c.31-.09,.57-.08,.77,.04,.21,.12,.35,.34,.45,.65l.13,.42c.09,.29,.08,.55-.02,.77-.1,.22-.31,.37-.62,.46l-.17,.05Zm2.6,8.59c-.29,.09-.55,.07-.76-.06-.21-.13-.37-.34-.46-.63l-.13-.42c-.09-.29-.08-.55,.03-.77,.11-.22,.31-.37,.61-.46l.17-.05c.31-.09,.57-.08,.77,.04,.21,.12,.35,.33,.44,.62l.13,.42c.09,.29,.08,.55-.02,.78-.1,.22-.31,.38-.62,.47l-.17,.05Z"/><path class="cls-1" d="M51.32,19.34c-.23,.04-.43-.01-.6-.16-.17-.15-.27-.31-.3-.48-.04-.25,.04-.47,.24-.67,.84-.79,1.52-1.68,2.02-2.67,.5-.99,.83-2.03,.99-3.13,.16-1.1,.14-2.19-.05-3.27-.19-1.07-.54-2.1-1.05-3.09-.51-.99-1.17-1.87-1.98-2.64-.81-.77-1.76-1.36-2.85-1.77-.24-.11-.39-.29-.43-.55-.03-.19,0-.37,.11-.56,.11-.18,.27-.29,.49-.33,.14-.03,.29-.01,.43,.04,1.3,.46,2.43,1.11,3.39,1.96,.96,.85,1.75,1.85,2.37,2.99,.62,1.14,1.04,2.36,1.27,3.64,.23,1.3,.24,2.58,.04,3.85-.2,1.26-.62,2.47-1.24,3.6-.63,1.14-1.46,2.16-2.49,3.05-.1,.11-.22,.17-.37,.2Z"/></g></g></svg>